%TF.GenerationSoftware,KiCad,Pcbnew,7.0.6*%
%TF.CreationDate,2023-11-11T00:06:33-05:00*%
%TF.ProjectId,CFL_EE_FeatherDebugShield,43464c5f-4545-45f4-9665-617468657244,v01b*%
%TF.SameCoordinates,Original*%
%TF.FileFunction,Drillmap*%
%TF.FilePolarity,Positive*%
%FSLAX45Y45*%
G04 Gerber Fmt 4.5, Leading zero omitted, Abs format (unit mm)*
G04 Created by KiCad (PCBNEW 7.0.6) date 2023-11-11 00:06:33*
%MOMM*%
%LPD*%
G01*
G04 APERTURE LIST*
%ADD10C,0.100000*%
%ADD11C,0.200000*%
%ADD12C,0.038100*%
%ADD13C,0.074000*%
G04 APERTURE END LIST*
D10*
X7620000Y-4064000D02*
X10922000Y-4064000D01*
X8382000Y-5905500D02*
X7620000Y-5905500D01*
X7620000Y-5905500D02*
X7620000Y-4064000D01*
X10922000Y-4064000D02*
X10922000Y-10160000D01*
X10922000Y-10160000D02*
X8382000Y-10160000D01*
X8382000Y-10160000D02*
X8382000Y-5905500D01*
D11*
D12*
X7981950Y-4997450D02*
X8020050Y-5035550D01*
X8020050Y-4997450D02*
X7981950Y-5035550D01*
X7981950Y-5187950D02*
X8020050Y-5226050D01*
X8020050Y-5187950D02*
X7981950Y-5226050D01*
X8108950Y-5378450D02*
X8147050Y-5416550D01*
X8147050Y-5378450D02*
X8108950Y-5416550D01*
X8299450Y-5441950D02*
X8337550Y-5480050D01*
X8337550Y-5441950D02*
X8299450Y-5480050D01*
X8553450Y-5441950D02*
X8591550Y-5480050D01*
X8591550Y-5441950D02*
X8553450Y-5480050D01*
X8807450Y-5441950D02*
X8845550Y-5480050D01*
X8845550Y-5441950D02*
X8807450Y-5480050D01*
X8807450Y-6711950D02*
X8845550Y-6750050D01*
X8845550Y-6711950D02*
X8807450Y-6750050D01*
X8870950Y-4552950D02*
X8909050Y-4591050D01*
X8909050Y-4552950D02*
X8870950Y-4591050D01*
X8870950Y-4806950D02*
X8909050Y-4845050D01*
X8909050Y-4806950D02*
X8870950Y-4845050D01*
X8934450Y-6521450D02*
X8972550Y-6559550D01*
X8972550Y-6521450D02*
X8934450Y-6559550D01*
X8997950Y-4425950D02*
X9036050Y-4464050D01*
X9036050Y-4425950D02*
X8997950Y-4464050D01*
X8997950Y-4679950D02*
X9036050Y-4718050D01*
X9036050Y-4679950D02*
X8997950Y-4718050D01*
X9188450Y-4997450D02*
X9226550Y-5035550D01*
X9226550Y-4997450D02*
X9188450Y-5035550D01*
X9188450Y-5251450D02*
X9226550Y-5289550D01*
X9226550Y-5251450D02*
X9188450Y-5289550D01*
X9188450Y-5505450D02*
X9226550Y-5543550D01*
X9226550Y-5505450D02*
X9188450Y-5543550D01*
X9188450Y-5759450D02*
X9226550Y-5797550D01*
X9226550Y-5759450D02*
X9188450Y-5797550D01*
X9188450Y-6013450D02*
X9226550Y-6051550D01*
X9226550Y-6013450D02*
X9188450Y-6051550D01*
X9188450Y-6267450D02*
X9226550Y-6305550D01*
X9226550Y-6267450D02*
X9188450Y-6305550D01*
X9188450Y-6521450D02*
X9226550Y-6559550D01*
X9226550Y-6521450D02*
X9188450Y-6559550D01*
X9251950Y-4425950D02*
X9290050Y-4464050D01*
X9290050Y-4425950D02*
X9251950Y-4464050D01*
X9251950Y-7600950D02*
X9290050Y-7639050D01*
X9290050Y-7600950D02*
X9251950Y-7639050D01*
X9251950Y-7854950D02*
X9290050Y-7893050D01*
X9290050Y-7854950D02*
X9251950Y-7893050D01*
X9251950Y-8108950D02*
X9290050Y-8147050D01*
X9290050Y-8108950D02*
X9251950Y-8147050D01*
X9251950Y-8362950D02*
X9290050Y-8401050D01*
X9290050Y-8362950D02*
X9251950Y-8401050D01*
X9251950Y-8616950D02*
X9290050Y-8655050D01*
X9290050Y-8616950D02*
X9251950Y-8655050D01*
X9251950Y-8870950D02*
X9290050Y-8909050D01*
X9290050Y-8870950D02*
X9251950Y-8909050D01*
X9251950Y-9124950D02*
X9290050Y-9163050D01*
X9290050Y-9124950D02*
X9251950Y-9163050D01*
X9442450Y-4679950D02*
X9480550Y-4718050D01*
X9480550Y-4679950D02*
X9442450Y-4718050D01*
X9442450Y-4997450D02*
X9480550Y-5035550D01*
X9480550Y-4997450D02*
X9442450Y-5035550D01*
X9442450Y-5251450D02*
X9480550Y-5289550D01*
X9480550Y-5251450D02*
X9442450Y-5289550D01*
X9442450Y-5505450D02*
X9480550Y-5543550D01*
X9480550Y-5505450D02*
X9442450Y-5543550D01*
X9442450Y-5759450D02*
X9480550Y-5797550D01*
X9480550Y-5759450D02*
X9442450Y-5797550D01*
X9442450Y-6013450D02*
X9480550Y-6051550D01*
X9480550Y-6013450D02*
X9442450Y-6051550D01*
X9442450Y-6267450D02*
X9480550Y-6305550D01*
X9480550Y-6267450D02*
X9442450Y-6305550D01*
X9442450Y-6521450D02*
X9480550Y-6559550D01*
X9480550Y-6521450D02*
X9442450Y-6559550D01*
X9442450Y-6775450D02*
X9480550Y-6813550D01*
X9480550Y-6775450D02*
X9442450Y-6813550D01*
X9505950Y-4298950D02*
X9544050Y-4337050D01*
X9544050Y-4298950D02*
X9505950Y-4337050D01*
X9505950Y-7600950D02*
X9544050Y-7639050D01*
X9544050Y-7600950D02*
X9505950Y-7639050D01*
X9505950Y-7854950D02*
X9544050Y-7893050D01*
X9544050Y-7854950D02*
X9505950Y-7893050D01*
X9505950Y-8108950D02*
X9544050Y-8147050D01*
X9544050Y-8108950D02*
X9505950Y-8147050D01*
X9505950Y-8362950D02*
X9544050Y-8401050D01*
X9544050Y-8362950D02*
X9505950Y-8401050D01*
X9505950Y-8616950D02*
X9544050Y-8655050D01*
X9544050Y-8616950D02*
X9505950Y-8655050D01*
X9505950Y-8870950D02*
X9544050Y-8909050D01*
X9544050Y-8870950D02*
X9505950Y-8909050D01*
X9505950Y-9124950D02*
X9544050Y-9163050D01*
X9544050Y-9124950D02*
X9505950Y-9163050D01*
X9696450Y-4298950D02*
X9734550Y-4337050D01*
X9734550Y-4298950D02*
X9696450Y-4337050D01*
X9759950Y-8108950D02*
X9798050Y-8147050D01*
X9798050Y-8108950D02*
X9759950Y-8147050D01*
X9759950Y-8362950D02*
X9798050Y-8401050D01*
X9798050Y-8362950D02*
X9759950Y-8401050D01*
X9759950Y-8616950D02*
X9798050Y-8655050D01*
X9798050Y-8616950D02*
X9759950Y-8655050D01*
X9759950Y-9124950D02*
X9798050Y-9163050D01*
X9798050Y-9124950D02*
X9759950Y-9163050D01*
X9886950Y-4298950D02*
X9925050Y-4337050D01*
X9925050Y-4298950D02*
X9886950Y-4337050D01*
X9886950Y-4552950D02*
X9925050Y-4591050D01*
X9925050Y-4552950D02*
X9886950Y-4591050D01*
X9886950Y-5060950D02*
X9925050Y-5099050D01*
X9925050Y-5060950D02*
X9886950Y-5099050D01*
X9886950Y-5314950D02*
X9925050Y-5353050D01*
X9925050Y-5314950D02*
X9886950Y-5353050D01*
X9886950Y-5568950D02*
X9925050Y-5607050D01*
X9925050Y-5568950D02*
X9886950Y-5607050D01*
X9886950Y-5822950D02*
X9925050Y-5861050D01*
X9925050Y-5822950D02*
X9886950Y-5861050D01*
X9886950Y-6076950D02*
X9925050Y-6115050D01*
X9925050Y-6076950D02*
X9886950Y-6115050D01*
X9886950Y-6330950D02*
X9925050Y-6369050D01*
X9925050Y-6330950D02*
X9886950Y-6369050D01*
X9886950Y-6584950D02*
X9925050Y-6623050D01*
X9925050Y-6584950D02*
X9886950Y-6623050D01*
X9886950Y-6838950D02*
X9925050Y-6877050D01*
X9925050Y-6838950D02*
X9886950Y-6877050D01*
X9886950Y-7092950D02*
X9925050Y-7131050D01*
X9925050Y-7092950D02*
X9886950Y-7131050D01*
X10013950Y-4806950D02*
X10052050Y-4845050D01*
X10052050Y-4806950D02*
X10013950Y-4845050D01*
X10013950Y-8362950D02*
X10052050Y-8401050D01*
X10052050Y-8362950D02*
X10013950Y-8401050D01*
X10013950Y-8616950D02*
X10052050Y-8655050D01*
X10052050Y-8616950D02*
X10013950Y-8655050D01*
X10013950Y-9124950D02*
X10052050Y-9163050D01*
X10052050Y-9124950D02*
X10013950Y-9163050D01*
X10077450Y-4425950D02*
X10115550Y-4464050D01*
X10115550Y-4425950D02*
X10077450Y-4464050D01*
X10140950Y-4616450D02*
X10179050Y-4654550D01*
X10179050Y-4616450D02*
X10140950Y-4654550D01*
X10140950Y-4806950D02*
X10179050Y-4845050D01*
X10179050Y-4806950D02*
X10140950Y-4845050D01*
X10140950Y-5060950D02*
X10179050Y-5099050D01*
X10179050Y-5060950D02*
X10140950Y-5099050D01*
X10140950Y-5314950D02*
X10179050Y-5353050D01*
X10179050Y-5314950D02*
X10140950Y-5353050D01*
X10140950Y-5568950D02*
X10179050Y-5607050D01*
X10179050Y-5568950D02*
X10140950Y-5607050D01*
X10140950Y-5822950D02*
X10179050Y-5861050D01*
X10179050Y-5822950D02*
X10140950Y-5861050D01*
X10140950Y-6076950D02*
X10179050Y-6115050D01*
X10179050Y-6076950D02*
X10140950Y-6115050D01*
X10140950Y-6330950D02*
X10179050Y-6369050D01*
X10179050Y-6330950D02*
X10140950Y-6369050D01*
X10140950Y-6584950D02*
X10179050Y-6623050D01*
X10179050Y-6584950D02*
X10140950Y-6623050D01*
X10140950Y-6838950D02*
X10179050Y-6877050D01*
X10179050Y-6838950D02*
X10140950Y-6877050D01*
X10140950Y-7092950D02*
X10179050Y-7131050D01*
X10179050Y-7092950D02*
X10140950Y-7131050D01*
X10267950Y-8362950D02*
X10306050Y-8401050D01*
X10306050Y-8362950D02*
X10267950Y-8401050D01*
X10267950Y-8616950D02*
X10306050Y-8655050D01*
X10306050Y-8616950D02*
X10267950Y-8655050D01*
X10267950Y-9124950D02*
X10306050Y-9163050D01*
X10306050Y-9124950D02*
X10267950Y-9163050D01*
D13*
X9079400Y-6997700D02*
G75*
G03*
X9079400Y-6997700I-37000J0D01*
G01*
X9079400Y-7251700D02*
G75*
G03*
X9079400Y-7251700I-37000J0D01*
G01*
D10*
X8636000Y-6046000D02*
X8636000Y-6146000D01*
X8586000Y-6096000D02*
X8686000Y-6096000D01*
X8636000Y-6300000D02*
X8636000Y-6400000D01*
X8586000Y-6350000D02*
X8686000Y-6350000D01*
X8636000Y-6554000D02*
X8636000Y-6654000D01*
X8586000Y-6604000D02*
X8686000Y-6604000D01*
X8636000Y-6808000D02*
X8636000Y-6908000D01*
X8586000Y-6858000D02*
X8686000Y-6858000D01*
X8636000Y-7062000D02*
X8636000Y-7162000D01*
X8586000Y-7112000D02*
X8686000Y-7112000D01*
X8636000Y-7316000D02*
X8636000Y-7416000D01*
X8586000Y-7366000D02*
X8686000Y-7366000D01*
X8636000Y-7570000D02*
X8636000Y-7670000D01*
X8586000Y-7620000D02*
X8686000Y-7620000D01*
X8636000Y-7824000D02*
X8636000Y-7924000D01*
X8586000Y-7874000D02*
X8686000Y-7874000D01*
X8636000Y-8078000D02*
X8636000Y-8178000D01*
X8586000Y-8128000D02*
X8686000Y-8128000D01*
X8636000Y-8332000D02*
X8636000Y-8432000D01*
X8586000Y-8382000D02*
X8686000Y-8382000D01*
X8636000Y-8586000D02*
X8636000Y-8686000D01*
X8586000Y-8636000D02*
X8686000Y-8636000D01*
X8636000Y-8840000D02*
X8636000Y-8940000D01*
X8586000Y-8890000D02*
X8686000Y-8890000D01*
X8636000Y-9094000D02*
X8636000Y-9194000D01*
X8586000Y-9144000D02*
X8686000Y-9144000D01*
X8636000Y-9348000D02*
X8636000Y-9448000D01*
X8586000Y-9398000D02*
X8686000Y-9398000D01*
X8636000Y-9602000D02*
X8636000Y-9702000D01*
X8586000Y-9652000D02*
X8686000Y-9652000D01*
X8636000Y-9856000D02*
X8636000Y-9956000D01*
X8586000Y-9906000D02*
X8686000Y-9906000D01*
X10668000Y-7062000D02*
X10668000Y-7162000D01*
X10618000Y-7112000D02*
X10718000Y-7112000D01*
X10668000Y-7316000D02*
X10668000Y-7416000D01*
X10618000Y-7366000D02*
X10718000Y-7366000D01*
X10668000Y-7570000D02*
X10668000Y-7670000D01*
X10618000Y-7620000D02*
X10718000Y-7620000D01*
X10668000Y-7824000D02*
X10668000Y-7924000D01*
X10618000Y-7874000D02*
X10718000Y-7874000D01*
X10668000Y-8078000D02*
X10668000Y-8178000D01*
X10618000Y-8128000D02*
X10718000Y-8128000D01*
X10668000Y-8332000D02*
X10668000Y-8432000D01*
X10618000Y-8382000D02*
X10718000Y-8382000D01*
X10668000Y-8586000D02*
X10668000Y-8686000D01*
X10618000Y-8636000D02*
X10718000Y-8636000D01*
X10668000Y-8840000D02*
X10668000Y-8940000D01*
X10618000Y-8890000D02*
X10718000Y-8890000D01*
X10668000Y-9094000D02*
X10668000Y-9194000D01*
X10618000Y-9144000D02*
X10718000Y-9144000D01*
X10668000Y-9348000D02*
X10668000Y-9448000D01*
X10618000Y-9398000D02*
X10718000Y-9398000D01*
X10668000Y-9602000D02*
X10668000Y-9702000D01*
X10618000Y-9652000D02*
X10718000Y-9652000D01*
X10668000Y-9856000D02*
X10668000Y-9956000D01*
X10618000Y-9906000D02*
X10718000Y-9906000D01*
D11*
X7875777Y-10476484D02*
X7875777Y-10276484D01*
X7875777Y-10276484D02*
X7923396Y-10276484D01*
X7923396Y-10276484D02*
X7951967Y-10286008D01*
X7951967Y-10286008D02*
X7971015Y-10305055D01*
X7971015Y-10305055D02*
X7980539Y-10324103D01*
X7980539Y-10324103D02*
X7990062Y-10362198D01*
X7990062Y-10362198D02*
X7990062Y-10390770D01*
X7990062Y-10390770D02*
X7980539Y-10428865D01*
X7980539Y-10428865D02*
X7971015Y-10447912D01*
X7971015Y-10447912D02*
X7951967Y-10466960D01*
X7951967Y-10466960D02*
X7923396Y-10476484D01*
X7923396Y-10476484D02*
X7875777Y-10476484D01*
X8075777Y-10476484D02*
X8075777Y-10343150D01*
X8075777Y-10381246D02*
X8085301Y-10362198D01*
X8085301Y-10362198D02*
X8094824Y-10352674D01*
X8094824Y-10352674D02*
X8113872Y-10343150D01*
X8113872Y-10343150D02*
X8132920Y-10343150D01*
X8199586Y-10476484D02*
X8199586Y-10343150D01*
X8199586Y-10276484D02*
X8190062Y-10286008D01*
X8190062Y-10286008D02*
X8199586Y-10295531D01*
X8199586Y-10295531D02*
X8209110Y-10286008D01*
X8209110Y-10286008D02*
X8199586Y-10276484D01*
X8199586Y-10276484D02*
X8199586Y-10295531D01*
X8323396Y-10476484D02*
X8304348Y-10466960D01*
X8304348Y-10466960D02*
X8294824Y-10447912D01*
X8294824Y-10447912D02*
X8294824Y-10276484D01*
X8428158Y-10476484D02*
X8409110Y-10466960D01*
X8409110Y-10466960D02*
X8399586Y-10447912D01*
X8399586Y-10447912D02*
X8399586Y-10276484D01*
X8656729Y-10476484D02*
X8656729Y-10276484D01*
X8656729Y-10276484D02*
X8723396Y-10419341D01*
X8723396Y-10419341D02*
X8790063Y-10276484D01*
X8790063Y-10276484D02*
X8790063Y-10476484D01*
X8971015Y-10476484D02*
X8971015Y-10371722D01*
X8971015Y-10371722D02*
X8961491Y-10352674D01*
X8961491Y-10352674D02*
X8942444Y-10343150D01*
X8942444Y-10343150D02*
X8904348Y-10343150D01*
X8904348Y-10343150D02*
X8885301Y-10352674D01*
X8971015Y-10466960D02*
X8951967Y-10476484D01*
X8951967Y-10476484D02*
X8904348Y-10476484D01*
X8904348Y-10476484D02*
X8885301Y-10466960D01*
X8885301Y-10466960D02*
X8875777Y-10447912D01*
X8875777Y-10447912D02*
X8875777Y-10428865D01*
X8875777Y-10428865D02*
X8885301Y-10409817D01*
X8885301Y-10409817D02*
X8904348Y-10400293D01*
X8904348Y-10400293D02*
X8951967Y-10400293D01*
X8951967Y-10400293D02*
X8971015Y-10390770D01*
X9066253Y-10343150D02*
X9066253Y-10543150D01*
X9066253Y-10352674D02*
X9085301Y-10343150D01*
X9085301Y-10343150D02*
X9123396Y-10343150D01*
X9123396Y-10343150D02*
X9142444Y-10352674D01*
X9142444Y-10352674D02*
X9151967Y-10362198D01*
X9151967Y-10362198D02*
X9161491Y-10381246D01*
X9161491Y-10381246D02*
X9161491Y-10438389D01*
X9161491Y-10438389D02*
X9151967Y-10457436D01*
X9151967Y-10457436D02*
X9142444Y-10466960D01*
X9142444Y-10466960D02*
X9123396Y-10476484D01*
X9123396Y-10476484D02*
X9085301Y-10476484D01*
X9085301Y-10476484D02*
X9066253Y-10466960D01*
X9247205Y-10457436D02*
X9256729Y-10466960D01*
X9256729Y-10466960D02*
X9247205Y-10476484D01*
X9247205Y-10476484D02*
X9237682Y-10466960D01*
X9237682Y-10466960D02*
X9247205Y-10457436D01*
X9247205Y-10457436D02*
X9247205Y-10476484D01*
X9247205Y-10352674D02*
X9256729Y-10362198D01*
X9256729Y-10362198D02*
X9247205Y-10371722D01*
X9247205Y-10371722D02*
X9237682Y-10362198D01*
X9237682Y-10362198D02*
X9247205Y-10352674D01*
X9247205Y-10352674D02*
X9247205Y-10371722D01*
D12*
X7576900Y-10785950D02*
X7615000Y-10824050D01*
X7615000Y-10785950D02*
X7576900Y-10824050D01*
D11*
X7913872Y-10696484D02*
X7932920Y-10696484D01*
X7932920Y-10696484D02*
X7951967Y-10706008D01*
X7951967Y-10706008D02*
X7961491Y-10715531D01*
X7961491Y-10715531D02*
X7971015Y-10734579D01*
X7971015Y-10734579D02*
X7980539Y-10772674D01*
X7980539Y-10772674D02*
X7980539Y-10820293D01*
X7980539Y-10820293D02*
X7971015Y-10858389D01*
X7971015Y-10858389D02*
X7961491Y-10877436D01*
X7961491Y-10877436D02*
X7951967Y-10886960D01*
X7951967Y-10886960D02*
X7932920Y-10896484D01*
X7932920Y-10896484D02*
X7913872Y-10896484D01*
X7913872Y-10896484D02*
X7894824Y-10886960D01*
X7894824Y-10886960D02*
X7885301Y-10877436D01*
X7885301Y-10877436D02*
X7875777Y-10858389D01*
X7875777Y-10858389D02*
X7866253Y-10820293D01*
X7866253Y-10820293D02*
X7866253Y-10772674D01*
X7866253Y-10772674D02*
X7875777Y-10734579D01*
X7875777Y-10734579D02*
X7885301Y-10715531D01*
X7885301Y-10715531D02*
X7894824Y-10706008D01*
X7894824Y-10706008D02*
X7913872Y-10696484D01*
X8066253Y-10877436D02*
X8075777Y-10886960D01*
X8075777Y-10886960D02*
X8066253Y-10896484D01*
X8066253Y-10896484D02*
X8056729Y-10886960D01*
X8056729Y-10886960D02*
X8066253Y-10877436D01*
X8066253Y-10877436D02*
X8066253Y-10896484D01*
X8142443Y-10696484D02*
X8266253Y-10696484D01*
X8266253Y-10696484D02*
X8199586Y-10772674D01*
X8199586Y-10772674D02*
X8228158Y-10772674D01*
X8228158Y-10772674D02*
X8247205Y-10782198D01*
X8247205Y-10782198D02*
X8256729Y-10791722D01*
X8256729Y-10791722D02*
X8266253Y-10810770D01*
X8266253Y-10810770D02*
X8266253Y-10858389D01*
X8266253Y-10858389D02*
X8256729Y-10877436D01*
X8256729Y-10877436D02*
X8247205Y-10886960D01*
X8247205Y-10886960D02*
X8228158Y-10896484D01*
X8228158Y-10896484D02*
X8171015Y-10896484D01*
X8171015Y-10896484D02*
X8151967Y-10886960D01*
X8151967Y-10886960D02*
X8142443Y-10877436D01*
X8380539Y-10782198D02*
X8361491Y-10772674D01*
X8361491Y-10772674D02*
X8351967Y-10763150D01*
X8351967Y-10763150D02*
X8342443Y-10744103D01*
X8342443Y-10744103D02*
X8342443Y-10734579D01*
X8342443Y-10734579D02*
X8351967Y-10715531D01*
X8351967Y-10715531D02*
X8361491Y-10706008D01*
X8361491Y-10706008D02*
X8380539Y-10696484D01*
X8380539Y-10696484D02*
X8418634Y-10696484D01*
X8418634Y-10696484D02*
X8437682Y-10706008D01*
X8437682Y-10706008D02*
X8447205Y-10715531D01*
X8447205Y-10715531D02*
X8456729Y-10734579D01*
X8456729Y-10734579D02*
X8456729Y-10744103D01*
X8456729Y-10744103D02*
X8447205Y-10763150D01*
X8447205Y-10763150D02*
X8437682Y-10772674D01*
X8437682Y-10772674D02*
X8418634Y-10782198D01*
X8418634Y-10782198D02*
X8380539Y-10782198D01*
X8380539Y-10782198D02*
X8361491Y-10791722D01*
X8361491Y-10791722D02*
X8351967Y-10801246D01*
X8351967Y-10801246D02*
X8342443Y-10820293D01*
X8342443Y-10820293D02*
X8342443Y-10858389D01*
X8342443Y-10858389D02*
X8351967Y-10877436D01*
X8351967Y-10877436D02*
X8361491Y-10886960D01*
X8361491Y-10886960D02*
X8380539Y-10896484D01*
X8380539Y-10896484D02*
X8418634Y-10896484D01*
X8418634Y-10896484D02*
X8437682Y-10886960D01*
X8437682Y-10886960D02*
X8447205Y-10877436D01*
X8447205Y-10877436D02*
X8456729Y-10858389D01*
X8456729Y-10858389D02*
X8456729Y-10820293D01*
X8456729Y-10820293D02*
X8447205Y-10801246D01*
X8447205Y-10801246D02*
X8437682Y-10791722D01*
X8437682Y-10791722D02*
X8418634Y-10782198D01*
X8647205Y-10896484D02*
X8532920Y-10896484D01*
X8590063Y-10896484D02*
X8590063Y-10696484D01*
X8590063Y-10696484D02*
X8571015Y-10725055D01*
X8571015Y-10725055D02*
X8551967Y-10744103D01*
X8551967Y-10744103D02*
X8532920Y-10753627D01*
X8732920Y-10896484D02*
X8732920Y-10763150D01*
X8732920Y-10782198D02*
X8742444Y-10772674D01*
X8742444Y-10772674D02*
X8761491Y-10763150D01*
X8761491Y-10763150D02*
X8790063Y-10763150D01*
X8790063Y-10763150D02*
X8809110Y-10772674D01*
X8809110Y-10772674D02*
X8818634Y-10791722D01*
X8818634Y-10791722D02*
X8818634Y-10896484D01*
X8818634Y-10791722D02*
X8828158Y-10772674D01*
X8828158Y-10772674D02*
X8847205Y-10763150D01*
X8847205Y-10763150D02*
X8875777Y-10763150D01*
X8875777Y-10763150D02*
X8894825Y-10772674D01*
X8894825Y-10772674D02*
X8904348Y-10791722D01*
X8904348Y-10791722D02*
X8904348Y-10896484D01*
X8999586Y-10896484D02*
X8999586Y-10763150D01*
X8999586Y-10782198D02*
X9009110Y-10772674D01*
X9009110Y-10772674D02*
X9028158Y-10763150D01*
X9028158Y-10763150D02*
X9056729Y-10763150D01*
X9056729Y-10763150D02*
X9075777Y-10772674D01*
X9075777Y-10772674D02*
X9085301Y-10791722D01*
X9085301Y-10791722D02*
X9085301Y-10896484D01*
X9085301Y-10791722D02*
X9094825Y-10772674D01*
X9094825Y-10772674D02*
X9113872Y-10763150D01*
X9113872Y-10763150D02*
X9142444Y-10763150D01*
X9142444Y-10763150D02*
X9161491Y-10772674D01*
X9161491Y-10772674D02*
X9171015Y-10791722D01*
X9171015Y-10791722D02*
X9171015Y-10896484D01*
X9561491Y-10686960D02*
X9390063Y-10944103D01*
X9818634Y-10696484D02*
X9837682Y-10696484D01*
X9837682Y-10696484D02*
X9856729Y-10706008D01*
X9856729Y-10706008D02*
X9866253Y-10715531D01*
X9866253Y-10715531D02*
X9875777Y-10734579D01*
X9875777Y-10734579D02*
X9885301Y-10772674D01*
X9885301Y-10772674D02*
X9885301Y-10820293D01*
X9885301Y-10820293D02*
X9875777Y-10858389D01*
X9875777Y-10858389D02*
X9866253Y-10877436D01*
X9866253Y-10877436D02*
X9856729Y-10886960D01*
X9856729Y-10886960D02*
X9837682Y-10896484D01*
X9837682Y-10896484D02*
X9818634Y-10896484D01*
X9818634Y-10896484D02*
X9799587Y-10886960D01*
X9799587Y-10886960D02*
X9790063Y-10877436D01*
X9790063Y-10877436D02*
X9780539Y-10858389D01*
X9780539Y-10858389D02*
X9771015Y-10820293D01*
X9771015Y-10820293D02*
X9771015Y-10772674D01*
X9771015Y-10772674D02*
X9780539Y-10734579D01*
X9780539Y-10734579D02*
X9790063Y-10715531D01*
X9790063Y-10715531D02*
X9799587Y-10706008D01*
X9799587Y-10706008D02*
X9818634Y-10696484D01*
X9971015Y-10877436D02*
X9980539Y-10886960D01*
X9980539Y-10886960D02*
X9971015Y-10896484D01*
X9971015Y-10896484D02*
X9961491Y-10886960D01*
X9961491Y-10886960D02*
X9971015Y-10877436D01*
X9971015Y-10877436D02*
X9971015Y-10896484D01*
X10104348Y-10696484D02*
X10123396Y-10696484D01*
X10123396Y-10696484D02*
X10142444Y-10706008D01*
X10142444Y-10706008D02*
X10151968Y-10715531D01*
X10151968Y-10715531D02*
X10161491Y-10734579D01*
X10161491Y-10734579D02*
X10171015Y-10772674D01*
X10171015Y-10772674D02*
X10171015Y-10820293D01*
X10171015Y-10820293D02*
X10161491Y-10858389D01*
X10161491Y-10858389D02*
X10151968Y-10877436D01*
X10151968Y-10877436D02*
X10142444Y-10886960D01*
X10142444Y-10886960D02*
X10123396Y-10896484D01*
X10123396Y-10896484D02*
X10104348Y-10896484D01*
X10104348Y-10896484D02*
X10085301Y-10886960D01*
X10085301Y-10886960D02*
X10075777Y-10877436D01*
X10075777Y-10877436D02*
X10066253Y-10858389D01*
X10066253Y-10858389D02*
X10056729Y-10820293D01*
X10056729Y-10820293D02*
X10056729Y-10772674D01*
X10056729Y-10772674D02*
X10066253Y-10734579D01*
X10066253Y-10734579D02*
X10075777Y-10715531D01*
X10075777Y-10715531D02*
X10085301Y-10706008D01*
X10085301Y-10706008D02*
X10104348Y-10696484D01*
X10361491Y-10896484D02*
X10247206Y-10896484D01*
X10304348Y-10896484D02*
X10304348Y-10696484D01*
X10304348Y-10696484D02*
X10285301Y-10725055D01*
X10285301Y-10725055D02*
X10266253Y-10744103D01*
X10266253Y-10744103D02*
X10247206Y-10753627D01*
X10542444Y-10696484D02*
X10447206Y-10696484D01*
X10447206Y-10696484D02*
X10437682Y-10791722D01*
X10437682Y-10791722D02*
X10447206Y-10782198D01*
X10447206Y-10782198D02*
X10466253Y-10772674D01*
X10466253Y-10772674D02*
X10513872Y-10772674D01*
X10513872Y-10772674D02*
X10532920Y-10782198D01*
X10532920Y-10782198D02*
X10542444Y-10791722D01*
X10542444Y-10791722D02*
X10551968Y-10810770D01*
X10551968Y-10810770D02*
X10551968Y-10858389D01*
X10551968Y-10858389D02*
X10542444Y-10877436D01*
X10542444Y-10877436D02*
X10532920Y-10886960D01*
X10532920Y-10886960D02*
X10513872Y-10896484D01*
X10513872Y-10896484D02*
X10466253Y-10896484D01*
X10466253Y-10896484D02*
X10447206Y-10886960D01*
X10447206Y-10886960D02*
X10437682Y-10877436D01*
X10675777Y-10696484D02*
X10694825Y-10696484D01*
X10694825Y-10696484D02*
X10713872Y-10706008D01*
X10713872Y-10706008D02*
X10723396Y-10715531D01*
X10723396Y-10715531D02*
X10732920Y-10734579D01*
X10732920Y-10734579D02*
X10742444Y-10772674D01*
X10742444Y-10772674D02*
X10742444Y-10820293D01*
X10742444Y-10820293D02*
X10732920Y-10858389D01*
X10732920Y-10858389D02*
X10723396Y-10877436D01*
X10723396Y-10877436D02*
X10713872Y-10886960D01*
X10713872Y-10886960D02*
X10694825Y-10896484D01*
X10694825Y-10896484D02*
X10675777Y-10896484D01*
X10675777Y-10896484D02*
X10656729Y-10886960D01*
X10656729Y-10886960D02*
X10647206Y-10877436D01*
X10647206Y-10877436D02*
X10637682Y-10858389D01*
X10637682Y-10858389D02*
X10628158Y-10820293D01*
X10628158Y-10820293D02*
X10628158Y-10772674D01*
X10628158Y-10772674D02*
X10637682Y-10734579D01*
X10637682Y-10734579D02*
X10647206Y-10715531D01*
X10647206Y-10715531D02*
X10656729Y-10706008D01*
X10656729Y-10706008D02*
X10675777Y-10696484D01*
X10818634Y-10696484D02*
X10818634Y-10734579D01*
X10894825Y-10696484D02*
X10894825Y-10734579D01*
X11190063Y-10972674D02*
X11180539Y-10963150D01*
X11180539Y-10963150D02*
X11161491Y-10934579D01*
X11161491Y-10934579D02*
X11151968Y-10915531D01*
X11151968Y-10915531D02*
X11142444Y-10886960D01*
X11142444Y-10886960D02*
X11132920Y-10839341D01*
X11132920Y-10839341D02*
X11132920Y-10801246D01*
X11132920Y-10801246D02*
X11142444Y-10753627D01*
X11142444Y-10753627D02*
X11151968Y-10725055D01*
X11151968Y-10725055D02*
X11161491Y-10706008D01*
X11161491Y-10706008D02*
X11180539Y-10677436D01*
X11180539Y-10677436D02*
X11190063Y-10667912D01*
X11247206Y-10696484D02*
X11380539Y-10696484D01*
X11380539Y-10696484D02*
X11294825Y-10896484D01*
X11466253Y-10896484D02*
X11504348Y-10896484D01*
X11504348Y-10896484D02*
X11523396Y-10886960D01*
X11523396Y-10886960D02*
X11532920Y-10877436D01*
X11532920Y-10877436D02*
X11551968Y-10848865D01*
X11551968Y-10848865D02*
X11561491Y-10810770D01*
X11561491Y-10810770D02*
X11561491Y-10734579D01*
X11561491Y-10734579D02*
X11551968Y-10715531D01*
X11551968Y-10715531D02*
X11542444Y-10706008D01*
X11542444Y-10706008D02*
X11523396Y-10696484D01*
X11523396Y-10696484D02*
X11485301Y-10696484D01*
X11485301Y-10696484D02*
X11466253Y-10706008D01*
X11466253Y-10706008D02*
X11456729Y-10715531D01*
X11456729Y-10715531D02*
X11447206Y-10734579D01*
X11447206Y-10734579D02*
X11447206Y-10782198D01*
X11447206Y-10782198D02*
X11456729Y-10801246D01*
X11456729Y-10801246D02*
X11466253Y-10810770D01*
X11466253Y-10810770D02*
X11485301Y-10820293D01*
X11485301Y-10820293D02*
X11523396Y-10820293D01*
X11523396Y-10820293D02*
X11542444Y-10810770D01*
X11542444Y-10810770D02*
X11551968Y-10801246D01*
X11551968Y-10801246D02*
X11561491Y-10782198D01*
X11799587Y-10896484D02*
X11799587Y-10696484D01*
X11885301Y-10896484D02*
X11885301Y-10791722D01*
X11885301Y-10791722D02*
X11875777Y-10772674D01*
X11875777Y-10772674D02*
X11856730Y-10763150D01*
X11856730Y-10763150D02*
X11828158Y-10763150D01*
X11828158Y-10763150D02*
X11809110Y-10772674D01*
X11809110Y-10772674D02*
X11799587Y-10782198D01*
X12009110Y-10896484D02*
X11990063Y-10886960D01*
X11990063Y-10886960D02*
X11980539Y-10877436D01*
X11980539Y-10877436D02*
X11971015Y-10858389D01*
X11971015Y-10858389D02*
X11971015Y-10801246D01*
X11971015Y-10801246D02*
X11980539Y-10782198D01*
X11980539Y-10782198D02*
X11990063Y-10772674D01*
X11990063Y-10772674D02*
X12009110Y-10763150D01*
X12009110Y-10763150D02*
X12037682Y-10763150D01*
X12037682Y-10763150D02*
X12056730Y-10772674D01*
X12056730Y-10772674D02*
X12066253Y-10782198D01*
X12066253Y-10782198D02*
X12075777Y-10801246D01*
X12075777Y-10801246D02*
X12075777Y-10858389D01*
X12075777Y-10858389D02*
X12066253Y-10877436D01*
X12066253Y-10877436D02*
X12056730Y-10886960D01*
X12056730Y-10886960D02*
X12037682Y-10896484D01*
X12037682Y-10896484D02*
X12009110Y-10896484D01*
X12190063Y-10896484D02*
X12171015Y-10886960D01*
X12171015Y-10886960D02*
X12161491Y-10867912D01*
X12161491Y-10867912D02*
X12161491Y-10696484D01*
X12342444Y-10886960D02*
X12323396Y-10896484D01*
X12323396Y-10896484D02*
X12285301Y-10896484D01*
X12285301Y-10896484D02*
X12266253Y-10886960D01*
X12266253Y-10886960D02*
X12256730Y-10867912D01*
X12256730Y-10867912D02*
X12256730Y-10791722D01*
X12256730Y-10791722D02*
X12266253Y-10772674D01*
X12266253Y-10772674D02*
X12285301Y-10763150D01*
X12285301Y-10763150D02*
X12323396Y-10763150D01*
X12323396Y-10763150D02*
X12342444Y-10772674D01*
X12342444Y-10772674D02*
X12351968Y-10791722D01*
X12351968Y-10791722D02*
X12351968Y-10810770D01*
X12351968Y-10810770D02*
X12256730Y-10829817D01*
X12428158Y-10886960D02*
X12447206Y-10896484D01*
X12447206Y-10896484D02*
X12485301Y-10896484D01*
X12485301Y-10896484D02*
X12504349Y-10886960D01*
X12504349Y-10886960D02*
X12513872Y-10867912D01*
X12513872Y-10867912D02*
X12513872Y-10858389D01*
X12513872Y-10858389D02*
X12504349Y-10839341D01*
X12504349Y-10839341D02*
X12485301Y-10829817D01*
X12485301Y-10829817D02*
X12456730Y-10829817D01*
X12456730Y-10829817D02*
X12437682Y-10820293D01*
X12437682Y-10820293D02*
X12428158Y-10801246D01*
X12428158Y-10801246D02*
X12428158Y-10791722D01*
X12428158Y-10791722D02*
X12437682Y-10772674D01*
X12437682Y-10772674D02*
X12456730Y-10763150D01*
X12456730Y-10763150D02*
X12485301Y-10763150D01*
X12485301Y-10763150D02*
X12504349Y-10772674D01*
X12580539Y-10972674D02*
X12590063Y-10963150D01*
X12590063Y-10963150D02*
X12609111Y-10934579D01*
X12609111Y-10934579D02*
X12618634Y-10915531D01*
X12618634Y-10915531D02*
X12628158Y-10886960D01*
X12628158Y-10886960D02*
X12637682Y-10839341D01*
X12637682Y-10839341D02*
X12637682Y-10801246D01*
X12637682Y-10801246D02*
X12628158Y-10753627D01*
X12628158Y-10753627D02*
X12618634Y-10725055D01*
X12618634Y-10725055D02*
X12609111Y-10706008D01*
X12609111Y-10706008D02*
X12590063Y-10677436D01*
X12590063Y-10677436D02*
X12580539Y-10667912D01*
D13*
X7615000Y-11069000D02*
G75*
G03*
X7615000Y-11069000I-37000J0D01*
G01*
D11*
X7913872Y-10960484D02*
X7932920Y-10960484D01*
X7932920Y-10960484D02*
X7951967Y-10970008D01*
X7951967Y-10970008D02*
X7961491Y-10979531D01*
X7961491Y-10979531D02*
X7971015Y-10998579D01*
X7971015Y-10998579D02*
X7980539Y-11036674D01*
X7980539Y-11036674D02*
X7980539Y-11084293D01*
X7980539Y-11084293D02*
X7971015Y-11122389D01*
X7971015Y-11122389D02*
X7961491Y-11141436D01*
X7961491Y-11141436D02*
X7951967Y-11150960D01*
X7951967Y-11150960D02*
X7932920Y-11160484D01*
X7932920Y-11160484D02*
X7913872Y-11160484D01*
X7913872Y-11160484D02*
X7894824Y-11150960D01*
X7894824Y-11150960D02*
X7885301Y-11141436D01*
X7885301Y-11141436D02*
X7875777Y-11122389D01*
X7875777Y-11122389D02*
X7866253Y-11084293D01*
X7866253Y-11084293D02*
X7866253Y-11036674D01*
X7866253Y-11036674D02*
X7875777Y-10998579D01*
X7875777Y-10998579D02*
X7885301Y-10979531D01*
X7885301Y-10979531D02*
X7894824Y-10970008D01*
X7894824Y-10970008D02*
X7913872Y-10960484D01*
X8066253Y-11141436D02*
X8075777Y-11150960D01*
X8075777Y-11150960D02*
X8066253Y-11160484D01*
X8066253Y-11160484D02*
X8056729Y-11150960D01*
X8056729Y-11150960D02*
X8066253Y-11141436D01*
X8066253Y-11141436D02*
X8066253Y-11160484D01*
X8142443Y-10960484D02*
X8275777Y-10960484D01*
X8275777Y-10960484D02*
X8190062Y-11160484D01*
X8437682Y-11027150D02*
X8437682Y-11160484D01*
X8390063Y-10950960D02*
X8342443Y-11093817D01*
X8342443Y-11093817D02*
X8466253Y-11093817D01*
X8580539Y-10960484D02*
X8599586Y-10960484D01*
X8599586Y-10960484D02*
X8618634Y-10970008D01*
X8618634Y-10970008D02*
X8628158Y-10979531D01*
X8628158Y-10979531D02*
X8637682Y-10998579D01*
X8637682Y-10998579D02*
X8647205Y-11036674D01*
X8647205Y-11036674D02*
X8647205Y-11084293D01*
X8647205Y-11084293D02*
X8637682Y-11122389D01*
X8637682Y-11122389D02*
X8628158Y-11141436D01*
X8628158Y-11141436D02*
X8618634Y-11150960D01*
X8618634Y-11150960D02*
X8599586Y-11160484D01*
X8599586Y-11160484D02*
X8580539Y-11160484D01*
X8580539Y-11160484D02*
X8561491Y-11150960D01*
X8561491Y-11150960D02*
X8551967Y-11141436D01*
X8551967Y-11141436D02*
X8542444Y-11122389D01*
X8542444Y-11122389D02*
X8532920Y-11084293D01*
X8532920Y-11084293D02*
X8532920Y-11036674D01*
X8532920Y-11036674D02*
X8542444Y-10998579D01*
X8542444Y-10998579D02*
X8551967Y-10979531D01*
X8551967Y-10979531D02*
X8561491Y-10970008D01*
X8561491Y-10970008D02*
X8580539Y-10960484D01*
X8732920Y-11160484D02*
X8732920Y-11027150D01*
X8732920Y-11046198D02*
X8742444Y-11036674D01*
X8742444Y-11036674D02*
X8761491Y-11027150D01*
X8761491Y-11027150D02*
X8790063Y-11027150D01*
X8790063Y-11027150D02*
X8809110Y-11036674D01*
X8809110Y-11036674D02*
X8818634Y-11055722D01*
X8818634Y-11055722D02*
X8818634Y-11160484D01*
X8818634Y-11055722D02*
X8828158Y-11036674D01*
X8828158Y-11036674D02*
X8847205Y-11027150D01*
X8847205Y-11027150D02*
X8875777Y-11027150D01*
X8875777Y-11027150D02*
X8894825Y-11036674D01*
X8894825Y-11036674D02*
X8904348Y-11055722D01*
X8904348Y-11055722D02*
X8904348Y-11160484D01*
X8999586Y-11160484D02*
X8999586Y-11027150D01*
X8999586Y-11046198D02*
X9009110Y-11036674D01*
X9009110Y-11036674D02*
X9028158Y-11027150D01*
X9028158Y-11027150D02*
X9056729Y-11027150D01*
X9056729Y-11027150D02*
X9075777Y-11036674D01*
X9075777Y-11036674D02*
X9085301Y-11055722D01*
X9085301Y-11055722D02*
X9085301Y-11160484D01*
X9085301Y-11055722D02*
X9094825Y-11036674D01*
X9094825Y-11036674D02*
X9113872Y-11027150D01*
X9113872Y-11027150D02*
X9142444Y-11027150D01*
X9142444Y-11027150D02*
X9161491Y-11036674D01*
X9161491Y-11036674D02*
X9171015Y-11055722D01*
X9171015Y-11055722D02*
X9171015Y-11160484D01*
X9561491Y-10950960D02*
X9390063Y-11208103D01*
X9818634Y-10960484D02*
X9837682Y-10960484D01*
X9837682Y-10960484D02*
X9856729Y-10970008D01*
X9856729Y-10970008D02*
X9866253Y-10979531D01*
X9866253Y-10979531D02*
X9875777Y-10998579D01*
X9875777Y-10998579D02*
X9885301Y-11036674D01*
X9885301Y-11036674D02*
X9885301Y-11084293D01*
X9885301Y-11084293D02*
X9875777Y-11122389D01*
X9875777Y-11122389D02*
X9866253Y-11141436D01*
X9866253Y-11141436D02*
X9856729Y-11150960D01*
X9856729Y-11150960D02*
X9837682Y-11160484D01*
X9837682Y-11160484D02*
X9818634Y-11160484D01*
X9818634Y-11160484D02*
X9799587Y-11150960D01*
X9799587Y-11150960D02*
X9790063Y-11141436D01*
X9790063Y-11141436D02*
X9780539Y-11122389D01*
X9780539Y-11122389D02*
X9771015Y-11084293D01*
X9771015Y-11084293D02*
X9771015Y-11036674D01*
X9771015Y-11036674D02*
X9780539Y-10998579D01*
X9780539Y-10998579D02*
X9790063Y-10979531D01*
X9790063Y-10979531D02*
X9799587Y-10970008D01*
X9799587Y-10970008D02*
X9818634Y-10960484D01*
X9971015Y-11141436D02*
X9980539Y-11150960D01*
X9980539Y-11150960D02*
X9971015Y-11160484D01*
X9971015Y-11160484D02*
X9961491Y-11150960D01*
X9961491Y-11150960D02*
X9971015Y-11141436D01*
X9971015Y-11141436D02*
X9971015Y-11160484D01*
X10104348Y-10960484D02*
X10123396Y-10960484D01*
X10123396Y-10960484D02*
X10142444Y-10970008D01*
X10142444Y-10970008D02*
X10151968Y-10979531D01*
X10151968Y-10979531D02*
X10161491Y-10998579D01*
X10161491Y-10998579D02*
X10171015Y-11036674D01*
X10171015Y-11036674D02*
X10171015Y-11084293D01*
X10171015Y-11084293D02*
X10161491Y-11122389D01*
X10161491Y-11122389D02*
X10151968Y-11141436D01*
X10151968Y-11141436D02*
X10142444Y-11150960D01*
X10142444Y-11150960D02*
X10123396Y-11160484D01*
X10123396Y-11160484D02*
X10104348Y-11160484D01*
X10104348Y-11160484D02*
X10085301Y-11150960D01*
X10085301Y-11150960D02*
X10075777Y-11141436D01*
X10075777Y-11141436D02*
X10066253Y-11122389D01*
X10066253Y-11122389D02*
X10056729Y-11084293D01*
X10056729Y-11084293D02*
X10056729Y-11036674D01*
X10056729Y-11036674D02*
X10066253Y-10998579D01*
X10066253Y-10998579D02*
X10075777Y-10979531D01*
X10075777Y-10979531D02*
X10085301Y-10970008D01*
X10085301Y-10970008D02*
X10104348Y-10960484D01*
X10247206Y-10979531D02*
X10256729Y-10970008D01*
X10256729Y-10970008D02*
X10275777Y-10960484D01*
X10275777Y-10960484D02*
X10323396Y-10960484D01*
X10323396Y-10960484D02*
X10342444Y-10970008D01*
X10342444Y-10970008D02*
X10351968Y-10979531D01*
X10351968Y-10979531D02*
X10361491Y-10998579D01*
X10361491Y-10998579D02*
X10361491Y-11017627D01*
X10361491Y-11017627D02*
X10351968Y-11046198D01*
X10351968Y-11046198D02*
X10237682Y-11160484D01*
X10237682Y-11160484D02*
X10361491Y-11160484D01*
X10456729Y-11160484D02*
X10494825Y-11160484D01*
X10494825Y-11160484D02*
X10513872Y-11150960D01*
X10513872Y-11150960D02*
X10523396Y-11141436D01*
X10523396Y-11141436D02*
X10542444Y-11112865D01*
X10542444Y-11112865D02*
X10551968Y-11074770D01*
X10551968Y-11074770D02*
X10551968Y-10998579D01*
X10551968Y-10998579D02*
X10542444Y-10979531D01*
X10542444Y-10979531D02*
X10532920Y-10970008D01*
X10532920Y-10970008D02*
X10513872Y-10960484D01*
X10513872Y-10960484D02*
X10475777Y-10960484D01*
X10475777Y-10960484D02*
X10456729Y-10970008D01*
X10456729Y-10970008D02*
X10447206Y-10979531D01*
X10447206Y-10979531D02*
X10437682Y-10998579D01*
X10437682Y-10998579D02*
X10437682Y-11046198D01*
X10437682Y-11046198D02*
X10447206Y-11065246D01*
X10447206Y-11065246D02*
X10456729Y-11074770D01*
X10456729Y-11074770D02*
X10475777Y-11084293D01*
X10475777Y-11084293D02*
X10513872Y-11084293D01*
X10513872Y-11084293D02*
X10532920Y-11074770D01*
X10532920Y-11074770D02*
X10542444Y-11065246D01*
X10542444Y-11065246D02*
X10551968Y-11046198D01*
X10742444Y-11160484D02*
X10628158Y-11160484D01*
X10685301Y-11160484D02*
X10685301Y-10960484D01*
X10685301Y-10960484D02*
X10666253Y-10989055D01*
X10666253Y-10989055D02*
X10647206Y-11008103D01*
X10647206Y-11008103D02*
X10628158Y-11017627D01*
X10818634Y-10960484D02*
X10818634Y-10998579D01*
X10894825Y-10960484D02*
X10894825Y-10998579D01*
X11190063Y-11236674D02*
X11180539Y-11227150D01*
X11180539Y-11227150D02*
X11161491Y-11198579D01*
X11161491Y-11198579D02*
X11151968Y-11179531D01*
X11151968Y-11179531D02*
X11142444Y-11150960D01*
X11142444Y-11150960D02*
X11132920Y-11103341D01*
X11132920Y-11103341D02*
X11132920Y-11065246D01*
X11132920Y-11065246D02*
X11142444Y-11017627D01*
X11142444Y-11017627D02*
X11151968Y-10989055D01*
X11151968Y-10989055D02*
X11161491Y-10970008D01*
X11161491Y-10970008D02*
X11180539Y-10941436D01*
X11180539Y-10941436D02*
X11190063Y-10931912D01*
X11256729Y-10979531D02*
X11266253Y-10970008D01*
X11266253Y-10970008D02*
X11285301Y-10960484D01*
X11285301Y-10960484D02*
X11332920Y-10960484D01*
X11332920Y-10960484D02*
X11351968Y-10970008D01*
X11351968Y-10970008D02*
X11361491Y-10979531D01*
X11361491Y-10979531D02*
X11371015Y-10998579D01*
X11371015Y-10998579D02*
X11371015Y-11017627D01*
X11371015Y-11017627D02*
X11361491Y-11046198D01*
X11361491Y-11046198D02*
X11247206Y-11160484D01*
X11247206Y-11160484D02*
X11371015Y-11160484D01*
X11609110Y-11160484D02*
X11609110Y-10960484D01*
X11694825Y-11160484D02*
X11694825Y-11055722D01*
X11694825Y-11055722D02*
X11685301Y-11036674D01*
X11685301Y-11036674D02*
X11666253Y-11027150D01*
X11666253Y-11027150D02*
X11637682Y-11027150D01*
X11637682Y-11027150D02*
X11618634Y-11036674D01*
X11618634Y-11036674D02*
X11609110Y-11046198D01*
X11818634Y-11160484D02*
X11799587Y-11150960D01*
X11799587Y-11150960D02*
X11790063Y-11141436D01*
X11790063Y-11141436D02*
X11780539Y-11122389D01*
X11780539Y-11122389D02*
X11780539Y-11065246D01*
X11780539Y-11065246D02*
X11790063Y-11046198D01*
X11790063Y-11046198D02*
X11799587Y-11036674D01*
X11799587Y-11036674D02*
X11818634Y-11027150D01*
X11818634Y-11027150D02*
X11847206Y-11027150D01*
X11847206Y-11027150D02*
X11866253Y-11036674D01*
X11866253Y-11036674D02*
X11875777Y-11046198D01*
X11875777Y-11046198D02*
X11885301Y-11065246D01*
X11885301Y-11065246D02*
X11885301Y-11122389D01*
X11885301Y-11122389D02*
X11875777Y-11141436D01*
X11875777Y-11141436D02*
X11866253Y-11150960D01*
X11866253Y-11150960D02*
X11847206Y-11160484D01*
X11847206Y-11160484D02*
X11818634Y-11160484D01*
X11999587Y-11160484D02*
X11980539Y-11150960D01*
X11980539Y-11150960D02*
X11971015Y-11131912D01*
X11971015Y-11131912D02*
X11971015Y-10960484D01*
X12151968Y-11150960D02*
X12132920Y-11160484D01*
X12132920Y-11160484D02*
X12094825Y-11160484D01*
X12094825Y-11160484D02*
X12075777Y-11150960D01*
X12075777Y-11150960D02*
X12066253Y-11131912D01*
X12066253Y-11131912D02*
X12066253Y-11055722D01*
X12066253Y-11055722D02*
X12075777Y-11036674D01*
X12075777Y-11036674D02*
X12094825Y-11027150D01*
X12094825Y-11027150D02*
X12132920Y-11027150D01*
X12132920Y-11027150D02*
X12151968Y-11036674D01*
X12151968Y-11036674D02*
X12161491Y-11055722D01*
X12161491Y-11055722D02*
X12161491Y-11074770D01*
X12161491Y-11074770D02*
X12066253Y-11093817D01*
X12237682Y-11150960D02*
X12256730Y-11160484D01*
X12256730Y-11160484D02*
X12294825Y-11160484D01*
X12294825Y-11160484D02*
X12313872Y-11150960D01*
X12313872Y-11150960D02*
X12323396Y-11131912D01*
X12323396Y-11131912D02*
X12323396Y-11122389D01*
X12323396Y-11122389D02*
X12313872Y-11103341D01*
X12313872Y-11103341D02*
X12294825Y-11093817D01*
X12294825Y-11093817D02*
X12266253Y-11093817D01*
X12266253Y-11093817D02*
X12247206Y-11084293D01*
X12247206Y-11084293D02*
X12237682Y-11065246D01*
X12237682Y-11065246D02*
X12237682Y-11055722D01*
X12237682Y-11055722D02*
X12247206Y-11036674D01*
X12247206Y-11036674D02*
X12266253Y-11027150D01*
X12266253Y-11027150D02*
X12294825Y-11027150D01*
X12294825Y-11027150D02*
X12313872Y-11036674D01*
X12390063Y-11236674D02*
X12399587Y-11227150D01*
X12399587Y-11227150D02*
X12418634Y-11198579D01*
X12418634Y-11198579D02*
X12428158Y-11179531D01*
X12428158Y-11179531D02*
X12437682Y-11150960D01*
X12437682Y-11150960D02*
X12447206Y-11103341D01*
X12447206Y-11103341D02*
X12447206Y-11065246D01*
X12447206Y-11065246D02*
X12437682Y-11017627D01*
X12437682Y-11017627D02*
X12428158Y-10989055D01*
X12428158Y-10989055D02*
X12418634Y-10970008D01*
X12418634Y-10970008D02*
X12399587Y-10941436D01*
X12399587Y-10941436D02*
X12390063Y-10931912D01*
D10*
X7565000Y-11283000D02*
X7565000Y-11383000D01*
X7515000Y-11333000D02*
X7615000Y-11333000D01*
D11*
X7980539Y-11424484D02*
X7866253Y-11424484D01*
X7923396Y-11424484D02*
X7923396Y-11224484D01*
X7923396Y-11224484D02*
X7904348Y-11253055D01*
X7904348Y-11253055D02*
X7885301Y-11272103D01*
X7885301Y-11272103D02*
X7866253Y-11281627D01*
X8066253Y-11405436D02*
X8075777Y-11414960D01*
X8075777Y-11414960D02*
X8066253Y-11424484D01*
X8066253Y-11424484D02*
X8056729Y-11414960D01*
X8056729Y-11414960D02*
X8066253Y-11405436D01*
X8066253Y-11405436D02*
X8066253Y-11424484D01*
X8199586Y-11224484D02*
X8218634Y-11224484D01*
X8218634Y-11224484D02*
X8237682Y-11234008D01*
X8237682Y-11234008D02*
X8247205Y-11243531D01*
X8247205Y-11243531D02*
X8256729Y-11262579D01*
X8256729Y-11262579D02*
X8266253Y-11300674D01*
X8266253Y-11300674D02*
X8266253Y-11348293D01*
X8266253Y-11348293D02*
X8256729Y-11386388D01*
X8256729Y-11386388D02*
X8247205Y-11405436D01*
X8247205Y-11405436D02*
X8237682Y-11414960D01*
X8237682Y-11414960D02*
X8218634Y-11424484D01*
X8218634Y-11424484D02*
X8199586Y-11424484D01*
X8199586Y-11424484D02*
X8180539Y-11414960D01*
X8180539Y-11414960D02*
X8171015Y-11405436D01*
X8171015Y-11405436D02*
X8161491Y-11386388D01*
X8161491Y-11386388D02*
X8151967Y-11348293D01*
X8151967Y-11348293D02*
X8151967Y-11300674D01*
X8151967Y-11300674D02*
X8161491Y-11262579D01*
X8161491Y-11262579D02*
X8171015Y-11243531D01*
X8171015Y-11243531D02*
X8180539Y-11234008D01*
X8180539Y-11234008D02*
X8199586Y-11224484D01*
X8390063Y-11224484D02*
X8409110Y-11224484D01*
X8409110Y-11224484D02*
X8428158Y-11234008D01*
X8428158Y-11234008D02*
X8437682Y-11243531D01*
X8437682Y-11243531D02*
X8447205Y-11262579D01*
X8447205Y-11262579D02*
X8456729Y-11300674D01*
X8456729Y-11300674D02*
X8456729Y-11348293D01*
X8456729Y-11348293D02*
X8447205Y-11386388D01*
X8447205Y-11386388D02*
X8437682Y-11405436D01*
X8437682Y-11405436D02*
X8428158Y-11414960D01*
X8428158Y-11414960D02*
X8409110Y-11424484D01*
X8409110Y-11424484D02*
X8390063Y-11424484D01*
X8390063Y-11424484D02*
X8371015Y-11414960D01*
X8371015Y-11414960D02*
X8361491Y-11405436D01*
X8361491Y-11405436D02*
X8351967Y-11386388D01*
X8351967Y-11386388D02*
X8342443Y-11348293D01*
X8342443Y-11348293D02*
X8342443Y-11300674D01*
X8342443Y-11300674D02*
X8351967Y-11262579D01*
X8351967Y-11262579D02*
X8361491Y-11243531D01*
X8361491Y-11243531D02*
X8371015Y-11234008D01*
X8371015Y-11234008D02*
X8390063Y-11224484D01*
X8580539Y-11224484D02*
X8599586Y-11224484D01*
X8599586Y-11224484D02*
X8618634Y-11234008D01*
X8618634Y-11234008D02*
X8628158Y-11243531D01*
X8628158Y-11243531D02*
X8637682Y-11262579D01*
X8637682Y-11262579D02*
X8647205Y-11300674D01*
X8647205Y-11300674D02*
X8647205Y-11348293D01*
X8647205Y-11348293D02*
X8637682Y-11386388D01*
X8637682Y-11386388D02*
X8628158Y-11405436D01*
X8628158Y-11405436D02*
X8618634Y-11414960D01*
X8618634Y-11414960D02*
X8599586Y-11424484D01*
X8599586Y-11424484D02*
X8580539Y-11424484D01*
X8580539Y-11424484D02*
X8561491Y-11414960D01*
X8561491Y-11414960D02*
X8551967Y-11405436D01*
X8551967Y-11405436D02*
X8542444Y-11386388D01*
X8542444Y-11386388D02*
X8532920Y-11348293D01*
X8532920Y-11348293D02*
X8532920Y-11300674D01*
X8532920Y-11300674D02*
X8542444Y-11262579D01*
X8542444Y-11262579D02*
X8551967Y-11243531D01*
X8551967Y-11243531D02*
X8561491Y-11234008D01*
X8561491Y-11234008D02*
X8580539Y-11224484D01*
X8732920Y-11424484D02*
X8732920Y-11291150D01*
X8732920Y-11310198D02*
X8742444Y-11300674D01*
X8742444Y-11300674D02*
X8761491Y-11291150D01*
X8761491Y-11291150D02*
X8790063Y-11291150D01*
X8790063Y-11291150D02*
X8809110Y-11300674D01*
X8809110Y-11300674D02*
X8818634Y-11319722D01*
X8818634Y-11319722D02*
X8818634Y-11424484D01*
X8818634Y-11319722D02*
X8828158Y-11300674D01*
X8828158Y-11300674D02*
X8847205Y-11291150D01*
X8847205Y-11291150D02*
X8875777Y-11291150D01*
X8875777Y-11291150D02*
X8894825Y-11300674D01*
X8894825Y-11300674D02*
X8904348Y-11319722D01*
X8904348Y-11319722D02*
X8904348Y-11424484D01*
X8999586Y-11424484D02*
X8999586Y-11291150D01*
X8999586Y-11310198D02*
X9009110Y-11300674D01*
X9009110Y-11300674D02*
X9028158Y-11291150D01*
X9028158Y-11291150D02*
X9056729Y-11291150D01*
X9056729Y-11291150D02*
X9075777Y-11300674D01*
X9075777Y-11300674D02*
X9085301Y-11319722D01*
X9085301Y-11319722D02*
X9085301Y-11424484D01*
X9085301Y-11319722D02*
X9094825Y-11300674D01*
X9094825Y-11300674D02*
X9113872Y-11291150D01*
X9113872Y-11291150D02*
X9142444Y-11291150D01*
X9142444Y-11291150D02*
X9161491Y-11300674D01*
X9161491Y-11300674D02*
X9171015Y-11319722D01*
X9171015Y-11319722D02*
X9171015Y-11424484D01*
X9561491Y-11214960D02*
X9390063Y-11472103D01*
X9818634Y-11224484D02*
X9837682Y-11224484D01*
X9837682Y-11224484D02*
X9856729Y-11234008D01*
X9856729Y-11234008D02*
X9866253Y-11243531D01*
X9866253Y-11243531D02*
X9875777Y-11262579D01*
X9875777Y-11262579D02*
X9885301Y-11300674D01*
X9885301Y-11300674D02*
X9885301Y-11348293D01*
X9885301Y-11348293D02*
X9875777Y-11386388D01*
X9875777Y-11386388D02*
X9866253Y-11405436D01*
X9866253Y-11405436D02*
X9856729Y-11414960D01*
X9856729Y-11414960D02*
X9837682Y-11424484D01*
X9837682Y-11424484D02*
X9818634Y-11424484D01*
X9818634Y-11424484D02*
X9799587Y-11414960D01*
X9799587Y-11414960D02*
X9790063Y-11405436D01*
X9790063Y-11405436D02*
X9780539Y-11386388D01*
X9780539Y-11386388D02*
X9771015Y-11348293D01*
X9771015Y-11348293D02*
X9771015Y-11300674D01*
X9771015Y-11300674D02*
X9780539Y-11262579D01*
X9780539Y-11262579D02*
X9790063Y-11243531D01*
X9790063Y-11243531D02*
X9799587Y-11234008D01*
X9799587Y-11234008D02*
X9818634Y-11224484D01*
X9971015Y-11405436D02*
X9980539Y-11414960D01*
X9980539Y-11414960D02*
X9971015Y-11424484D01*
X9971015Y-11424484D02*
X9961491Y-11414960D01*
X9961491Y-11414960D02*
X9971015Y-11405436D01*
X9971015Y-11405436D02*
X9971015Y-11424484D01*
X10104348Y-11224484D02*
X10123396Y-11224484D01*
X10123396Y-11224484D02*
X10142444Y-11234008D01*
X10142444Y-11234008D02*
X10151968Y-11243531D01*
X10151968Y-11243531D02*
X10161491Y-11262579D01*
X10161491Y-11262579D02*
X10171015Y-11300674D01*
X10171015Y-11300674D02*
X10171015Y-11348293D01*
X10171015Y-11348293D02*
X10161491Y-11386388D01*
X10161491Y-11386388D02*
X10151968Y-11405436D01*
X10151968Y-11405436D02*
X10142444Y-11414960D01*
X10142444Y-11414960D02*
X10123396Y-11424484D01*
X10123396Y-11424484D02*
X10104348Y-11424484D01*
X10104348Y-11424484D02*
X10085301Y-11414960D01*
X10085301Y-11414960D02*
X10075777Y-11405436D01*
X10075777Y-11405436D02*
X10066253Y-11386388D01*
X10066253Y-11386388D02*
X10056729Y-11348293D01*
X10056729Y-11348293D02*
X10056729Y-11300674D01*
X10056729Y-11300674D02*
X10066253Y-11262579D01*
X10066253Y-11262579D02*
X10075777Y-11243531D01*
X10075777Y-11243531D02*
X10085301Y-11234008D01*
X10085301Y-11234008D02*
X10104348Y-11224484D01*
X10237682Y-11224484D02*
X10361491Y-11224484D01*
X10361491Y-11224484D02*
X10294825Y-11300674D01*
X10294825Y-11300674D02*
X10323396Y-11300674D01*
X10323396Y-11300674D02*
X10342444Y-11310198D01*
X10342444Y-11310198D02*
X10351968Y-11319722D01*
X10351968Y-11319722D02*
X10361491Y-11338769D01*
X10361491Y-11338769D02*
X10361491Y-11386388D01*
X10361491Y-11386388D02*
X10351968Y-11405436D01*
X10351968Y-11405436D02*
X10342444Y-11414960D01*
X10342444Y-11414960D02*
X10323396Y-11424484D01*
X10323396Y-11424484D02*
X10266253Y-11424484D01*
X10266253Y-11424484D02*
X10247206Y-11414960D01*
X10247206Y-11414960D02*
X10237682Y-11405436D01*
X10456729Y-11424484D02*
X10494825Y-11424484D01*
X10494825Y-11424484D02*
X10513872Y-11414960D01*
X10513872Y-11414960D02*
X10523396Y-11405436D01*
X10523396Y-11405436D02*
X10542444Y-11376865D01*
X10542444Y-11376865D02*
X10551968Y-11338769D01*
X10551968Y-11338769D02*
X10551968Y-11262579D01*
X10551968Y-11262579D02*
X10542444Y-11243531D01*
X10542444Y-11243531D02*
X10532920Y-11234008D01*
X10532920Y-11234008D02*
X10513872Y-11224484D01*
X10513872Y-11224484D02*
X10475777Y-11224484D01*
X10475777Y-11224484D02*
X10456729Y-11234008D01*
X10456729Y-11234008D02*
X10447206Y-11243531D01*
X10447206Y-11243531D02*
X10437682Y-11262579D01*
X10437682Y-11262579D02*
X10437682Y-11310198D01*
X10437682Y-11310198D02*
X10447206Y-11329246D01*
X10447206Y-11329246D02*
X10456729Y-11338769D01*
X10456729Y-11338769D02*
X10475777Y-11348293D01*
X10475777Y-11348293D02*
X10513872Y-11348293D01*
X10513872Y-11348293D02*
X10532920Y-11338769D01*
X10532920Y-11338769D02*
X10542444Y-11329246D01*
X10542444Y-11329246D02*
X10551968Y-11310198D01*
X10723396Y-11291150D02*
X10723396Y-11424484D01*
X10675777Y-11214960D02*
X10628158Y-11357817D01*
X10628158Y-11357817D02*
X10751968Y-11357817D01*
X10818634Y-11224484D02*
X10818634Y-11262579D01*
X10894825Y-11224484D02*
X10894825Y-11262579D01*
X11190063Y-11500674D02*
X11180539Y-11491150D01*
X11180539Y-11491150D02*
X11161491Y-11462579D01*
X11161491Y-11462579D02*
X11151968Y-11443531D01*
X11151968Y-11443531D02*
X11142444Y-11414960D01*
X11142444Y-11414960D02*
X11132920Y-11367341D01*
X11132920Y-11367341D02*
X11132920Y-11329246D01*
X11132920Y-11329246D02*
X11142444Y-11281627D01*
X11142444Y-11281627D02*
X11151968Y-11253055D01*
X11151968Y-11253055D02*
X11161491Y-11234008D01*
X11161491Y-11234008D02*
X11180539Y-11205436D01*
X11180539Y-11205436D02*
X11190063Y-11195912D01*
X11256729Y-11243531D02*
X11266253Y-11234008D01*
X11266253Y-11234008D02*
X11285301Y-11224484D01*
X11285301Y-11224484D02*
X11332920Y-11224484D01*
X11332920Y-11224484D02*
X11351968Y-11234008D01*
X11351968Y-11234008D02*
X11361491Y-11243531D01*
X11361491Y-11243531D02*
X11371015Y-11262579D01*
X11371015Y-11262579D02*
X11371015Y-11281627D01*
X11371015Y-11281627D02*
X11361491Y-11310198D01*
X11361491Y-11310198D02*
X11247206Y-11424484D01*
X11247206Y-11424484D02*
X11371015Y-11424484D01*
X11485301Y-11310198D02*
X11466253Y-11300674D01*
X11466253Y-11300674D02*
X11456729Y-11291150D01*
X11456729Y-11291150D02*
X11447206Y-11272103D01*
X11447206Y-11272103D02*
X11447206Y-11262579D01*
X11447206Y-11262579D02*
X11456729Y-11243531D01*
X11456729Y-11243531D02*
X11466253Y-11234008D01*
X11466253Y-11234008D02*
X11485301Y-11224484D01*
X11485301Y-11224484D02*
X11523396Y-11224484D01*
X11523396Y-11224484D02*
X11542444Y-11234008D01*
X11542444Y-11234008D02*
X11551968Y-11243531D01*
X11551968Y-11243531D02*
X11561491Y-11262579D01*
X11561491Y-11262579D02*
X11561491Y-11272103D01*
X11561491Y-11272103D02*
X11551968Y-11291150D01*
X11551968Y-11291150D02*
X11542444Y-11300674D01*
X11542444Y-11300674D02*
X11523396Y-11310198D01*
X11523396Y-11310198D02*
X11485301Y-11310198D01*
X11485301Y-11310198D02*
X11466253Y-11319722D01*
X11466253Y-11319722D02*
X11456729Y-11329246D01*
X11456729Y-11329246D02*
X11447206Y-11348293D01*
X11447206Y-11348293D02*
X11447206Y-11386388D01*
X11447206Y-11386388D02*
X11456729Y-11405436D01*
X11456729Y-11405436D02*
X11466253Y-11414960D01*
X11466253Y-11414960D02*
X11485301Y-11424484D01*
X11485301Y-11424484D02*
X11523396Y-11424484D01*
X11523396Y-11424484D02*
X11542444Y-11414960D01*
X11542444Y-11414960D02*
X11551968Y-11405436D01*
X11551968Y-11405436D02*
X11561491Y-11386388D01*
X11561491Y-11386388D02*
X11561491Y-11348293D01*
X11561491Y-11348293D02*
X11551968Y-11329246D01*
X11551968Y-11329246D02*
X11542444Y-11319722D01*
X11542444Y-11319722D02*
X11523396Y-11310198D01*
X11799587Y-11424484D02*
X11799587Y-11224484D01*
X11885301Y-11424484D02*
X11885301Y-11319722D01*
X11885301Y-11319722D02*
X11875777Y-11300674D01*
X11875777Y-11300674D02*
X11856730Y-11291150D01*
X11856730Y-11291150D02*
X11828158Y-11291150D01*
X11828158Y-11291150D02*
X11809110Y-11300674D01*
X11809110Y-11300674D02*
X11799587Y-11310198D01*
X12009110Y-11424484D02*
X11990063Y-11414960D01*
X11990063Y-11414960D02*
X11980539Y-11405436D01*
X11980539Y-11405436D02*
X11971015Y-11386388D01*
X11971015Y-11386388D02*
X11971015Y-11329246D01*
X11971015Y-11329246D02*
X11980539Y-11310198D01*
X11980539Y-11310198D02*
X11990063Y-11300674D01*
X11990063Y-11300674D02*
X12009110Y-11291150D01*
X12009110Y-11291150D02*
X12037682Y-11291150D01*
X12037682Y-11291150D02*
X12056730Y-11300674D01*
X12056730Y-11300674D02*
X12066253Y-11310198D01*
X12066253Y-11310198D02*
X12075777Y-11329246D01*
X12075777Y-11329246D02*
X12075777Y-11386388D01*
X12075777Y-11386388D02*
X12066253Y-11405436D01*
X12066253Y-11405436D02*
X12056730Y-11414960D01*
X12056730Y-11414960D02*
X12037682Y-11424484D01*
X12037682Y-11424484D02*
X12009110Y-11424484D01*
X12190063Y-11424484D02*
X12171015Y-11414960D01*
X12171015Y-11414960D02*
X12161491Y-11395912D01*
X12161491Y-11395912D02*
X12161491Y-11224484D01*
X12342444Y-11414960D02*
X12323396Y-11424484D01*
X12323396Y-11424484D02*
X12285301Y-11424484D01*
X12285301Y-11424484D02*
X12266253Y-11414960D01*
X12266253Y-11414960D02*
X12256730Y-11395912D01*
X12256730Y-11395912D02*
X12256730Y-11319722D01*
X12256730Y-11319722D02*
X12266253Y-11300674D01*
X12266253Y-11300674D02*
X12285301Y-11291150D01*
X12285301Y-11291150D02*
X12323396Y-11291150D01*
X12323396Y-11291150D02*
X12342444Y-11300674D01*
X12342444Y-11300674D02*
X12351968Y-11319722D01*
X12351968Y-11319722D02*
X12351968Y-11338769D01*
X12351968Y-11338769D02*
X12256730Y-11357817D01*
X12428158Y-11414960D02*
X12447206Y-11424484D01*
X12447206Y-11424484D02*
X12485301Y-11424484D01*
X12485301Y-11424484D02*
X12504349Y-11414960D01*
X12504349Y-11414960D02*
X12513872Y-11395912D01*
X12513872Y-11395912D02*
X12513872Y-11386388D01*
X12513872Y-11386388D02*
X12504349Y-11367341D01*
X12504349Y-11367341D02*
X12485301Y-11357817D01*
X12485301Y-11357817D02*
X12456730Y-11357817D01*
X12456730Y-11357817D02*
X12437682Y-11348293D01*
X12437682Y-11348293D02*
X12428158Y-11329246D01*
X12428158Y-11329246D02*
X12428158Y-11319722D01*
X12428158Y-11319722D02*
X12437682Y-11300674D01*
X12437682Y-11300674D02*
X12456730Y-11291150D01*
X12456730Y-11291150D02*
X12485301Y-11291150D01*
X12485301Y-11291150D02*
X12504349Y-11300674D01*
X12580539Y-11500674D02*
X12590063Y-11491150D01*
X12590063Y-11491150D02*
X12609111Y-11462579D01*
X12609111Y-11462579D02*
X12618634Y-11443531D01*
X12618634Y-11443531D02*
X12628158Y-11414960D01*
X12628158Y-11414960D02*
X12637682Y-11367341D01*
X12637682Y-11367341D02*
X12637682Y-11329246D01*
X12637682Y-11329246D02*
X12628158Y-11281627D01*
X12628158Y-11281627D02*
X12618634Y-11253055D01*
X12618634Y-11253055D02*
X12609111Y-11234008D01*
X12609111Y-11234008D02*
X12590063Y-11205436D01*
X12590063Y-11205436D02*
X12580539Y-11195912D01*
M02*
