%TF.GenerationSoftware,KiCad,Pcbnew,7.0.6*%
%TF.CreationDate,2023-10-23T11:13:57-04:00*%
%TF.ProjectId,CFL_FeatherDebugShield,43464c5f-4665-4617-9468-657244656275,v01a*%
%TF.SameCoordinates,Original*%
%TF.FileFunction,Copper,L1,Top*%
%TF.FilePolarity,Positive*%
%FSLAX46Y46*%
G04 Gerber Fmt 4.6, Leading zero omitted, Abs format (unit mm)*
G04 Created by KiCad (PCBNEW 7.0.6) date 2023-10-23 11:13:57*
%MOMM*%
%LPD*%
G01*
G04 APERTURE LIST*
%ADD10C,0.300000*%
%TA.AperFunction,NonConductor*%
%ADD11C,0.300000*%
%TD*%
%TA.AperFunction,ComponentPad*%
%ADD12R,1.700000X1.700000*%
%TD*%
%TA.AperFunction,ComponentPad*%
%ADD13O,1.700000X1.700000*%
%TD*%
%TA.AperFunction,SMDPad,CuDef*%
%ADD14C,1.000000*%
%TD*%
%TA.AperFunction,SMDPad,CuDef*%
%ADD15R,0.500000X1.000000*%
%TD*%
%TA.AperFunction,ComponentPad*%
%ADD16C,1.500000*%
%TD*%
%TA.AperFunction,SMDPad,CuDef*%
%ADD17R,2.400000X0.740000*%
%TD*%
%TA.AperFunction,ViaPad*%
%ADD18C,0.889000*%
%TD*%
%TA.AperFunction,Conductor*%
%ADD19C,0.254000*%
%TD*%
G04 APERTURE END LIST*
D10*
D11*
X106750828Y-46578346D02*
X107750828Y-46221203D01*
X107750828Y-46221203D02*
X106750828Y-45864060D01*
X106250828Y-45006917D02*
X106250828Y-44864060D01*
X106250828Y-44864060D02*
X106322257Y-44721203D01*
X106322257Y-44721203D02*
X106393685Y-44649775D01*
X106393685Y-44649775D02*
X106536542Y-44578346D01*
X106536542Y-44578346D02*
X106822257Y-44506917D01*
X106822257Y-44506917D02*
X107179400Y-44506917D01*
X107179400Y-44506917D02*
X107465114Y-44578346D01*
X107465114Y-44578346D02*
X107607971Y-44649775D01*
X107607971Y-44649775D02*
X107679400Y-44721203D01*
X107679400Y-44721203D02*
X107750828Y-44864060D01*
X107750828Y-44864060D02*
X107750828Y-45006917D01*
X107750828Y-45006917D02*
X107679400Y-45149775D01*
X107679400Y-45149775D02*
X107607971Y-45221203D01*
X107607971Y-45221203D02*
X107465114Y-45292632D01*
X107465114Y-45292632D02*
X107179400Y-45364060D01*
X107179400Y-45364060D02*
X106822257Y-45364060D01*
X106822257Y-45364060D02*
X106536542Y-45292632D01*
X106536542Y-45292632D02*
X106393685Y-45221203D01*
X106393685Y-45221203D02*
X106322257Y-45149775D01*
X106322257Y-45149775D02*
X106250828Y-45006917D01*
X107750828Y-43078346D02*
X107750828Y-43935489D01*
X107750828Y-43506918D02*
X106250828Y-43506918D01*
X106250828Y-43506918D02*
X106465114Y-43649775D01*
X106465114Y-43649775D02*
X106607971Y-43792632D01*
X106607971Y-43792632D02*
X106679400Y-43935489D01*
X107750828Y-41792633D02*
X106965114Y-41792633D01*
X106965114Y-41792633D02*
X106822257Y-41864061D01*
X106822257Y-41864061D02*
X106750828Y-42006918D01*
X106750828Y-42006918D02*
X106750828Y-42292633D01*
X106750828Y-42292633D02*
X106822257Y-42435490D01*
X107679400Y-41792633D02*
X107750828Y-41935490D01*
X107750828Y-41935490D02*
X107750828Y-42292633D01*
X107750828Y-42292633D02*
X107679400Y-42435490D01*
X107679400Y-42435490D02*
X107536542Y-42506918D01*
X107536542Y-42506918D02*
X107393685Y-42506918D01*
X107393685Y-42506918D02*
X107250828Y-42435490D01*
X107250828Y-42435490D02*
X107179400Y-42292633D01*
X107179400Y-42292633D02*
X107179400Y-41935490D01*
X107179400Y-41935490D02*
X107107971Y-41792633D01*
D12*
%TO.P,J1,1,Pin_1*%
%TO.N,unconnected-(J1-Pin_1-Pad1)*%
X106680000Y-71120000D03*
D13*
%TO.P,J1,2,Pin_2*%
%TO.N,unconnected-(J1-Pin_2-Pad2)*%
X106680000Y-73660000D03*
%TO.P,J1,3,Pin_3*%
%TO.N,unconnected-(J1-Pin_3-Pad3)*%
X106680000Y-76200000D03*
%TO.P,J1,4,Pin_4*%
%TO.N,/GPIO13*%
X106680000Y-78740000D03*
%TO.P,J1,5,Pin_5*%
%TO.N,/GPIO12*%
X106680000Y-81280000D03*
%TO.P,J1,6,Pin_6*%
%TO.N,unconnected-(J1-Pin_6-Pad6)*%
X106680000Y-83820000D03*
%TO.P,J1,7,Pin_7*%
%TO.N,unconnected-(J1-Pin_7-Pad7)*%
X106680000Y-86360000D03*
%TO.P,J1,8,Pin_8*%
%TO.N,/GPIO15*%
X106680000Y-88900000D03*
%TO.P,J1,9,Pin_9*%
%TO.N,unconnected-(J1-Pin_9-Pad9)*%
X106680000Y-91440000D03*
%TO.P,J1,10,Pin_10*%
%TO.N,/GPIO14*%
X106680000Y-93980000D03*
%TO.P,J1,11,Pin_11*%
%TO.N,unconnected-(J1-Pin_11-Pad11)*%
X106680000Y-96520000D03*
%TO.P,J1,12,Pin_12*%
%TO.N,unconnected-(J1-Pin_12-Pad12)*%
X106680000Y-99060000D03*
%TD*%
D12*
%TO.P,J2,1,Pin_1*%
%TO.N,unconnected-(J2-Pin_1-Pad1)*%
X86360000Y-60960000D03*
D13*
%TO.P,J2,2,Pin_2*%
%TO.N,VCC*%
X86360000Y-63500000D03*
%TO.P,J2,3,Pin_3*%
%TO.N,unconnected-(J2-Pin_3-Pad3)*%
X86360000Y-66040000D03*
%TO.P,J2,4,Pin_4*%
%TO.N,GND*%
X86360000Y-68580000D03*
%TO.P,J2,5,Pin_5*%
%TO.N,unconnected-(J2-Pin_5-Pad5)*%
X86360000Y-71120000D03*
%TO.P,J2,6,Pin_6*%
%TO.N,unconnected-(J2-Pin_6-Pad6)*%
X86360000Y-73660000D03*
%TO.P,J2,7,Pin_7*%
%TO.N,unconnected-(J2-Pin_7-Pad7)*%
X86360000Y-76200000D03*
%TO.P,J2,8,Pin_8*%
%TO.N,unconnected-(J2-Pin_8-Pad8)*%
X86360000Y-78740000D03*
%TO.P,J2,9,Pin_9*%
%TO.N,unconnected-(J2-Pin_9-Pad9)*%
X86360000Y-81280000D03*
%TO.P,J2,10,Pin_10*%
%TO.N,unconnected-(J2-Pin_10-Pad10)*%
X86360000Y-83820000D03*
%TO.P,J2,11,Pin_11*%
%TO.N,unconnected-(J2-Pin_11-Pad11)*%
X86360000Y-86360000D03*
%TO.P,J2,12,Pin_12*%
%TO.N,unconnected-(J2-Pin_12-Pad12)*%
X86360000Y-88900000D03*
%TO.P,J2,13,Pin_13*%
%TO.N,unconnected-(J2-Pin_13-Pad13)*%
X86360000Y-91440000D03*
%TO.P,J2,14,Pin_14*%
%TO.N,unconnected-(J2-Pin_14-Pad14)*%
X86360000Y-93980000D03*
%TO.P,J2,15,Pin_15*%
%TO.N,unconnected-(J2-Pin_15-Pad15)*%
X86360000Y-96520000D03*
%TO.P,J2,16,Pin_16*%
%TO.N,unconnected-(J2-Pin_16-Pad16)*%
X86360000Y-99060000D03*
%TD*%
D14*
%TO.P,J8,1*%
%TO.N,/GPIO15*%
X102235000Y-88900000D03*
D15*
X101981000Y-88900000D03*
%TO.P,J8,2*%
%TO.N,/TDO*%
X101219000Y-88900000D03*
D14*
X100965000Y-88900000D03*
%TD*%
D16*
%TO.P,J5,1*%
%TO.N,/SWDIO*%
X90424000Y-72517000D03*
%TD*%
D14*
%TO.P,J3,1*%
%TO.N,/GPIO13*%
X102235000Y-78740000D03*
D15*
X101981000Y-78740000D03*
%TO.P,J3,2*%
%TO.N,/SWCLK*%
X101219000Y-78740000D03*
D14*
X100965000Y-78740000D03*
%TD*%
D17*
%TO.P,J4,1,VTref*%
%TO.N,VCC*%
X81870000Y-43180000D03*
%TO.P,J4,2,SWDIO/TMS*%
%TO.N,/SWDIO*%
X85770000Y-43180000D03*
%TO.P,J4,3,GND*%
%TO.N,GND*%
X81870000Y-44450000D03*
%TO.P,J4,4,SWDCLK/TCK*%
%TO.N,/SWCLK*%
X85770000Y-44450000D03*
%TO.P,J4,5,GND*%
%TO.N,GND*%
X81870000Y-45720000D03*
%TO.P,J4,6,SWO/TDO*%
%TO.N,/TDO*%
X85770000Y-45720000D03*
%TO.P,J4,7,KEY*%
%TO.N,unconnected-(J4-KEY-Pad7)*%
X81870000Y-46990000D03*
%TO.P,J4,8,NC/TDI*%
%TO.N,/TDI*%
X85770000Y-46990000D03*
%TO.P,J4,9,GNDDetect*%
%TO.N,GND*%
X81870000Y-48260000D03*
%TO.P,J4,10,~{RESET}*%
%TO.N,unconnected-(J4-~{RESET}-Pad10)*%
X85770000Y-48260000D03*
%TD*%
D16*
%TO.P,J6,1*%
%TO.N,/SWCLK*%
X90424000Y-69977000D03*
%TD*%
D14*
%TO.P,J7,1*%
%TO.N,/GPIO12*%
X102235000Y-81280000D03*
D15*
X101981000Y-81280000D03*
%TO.P,J7,2*%
%TO.N,/TDI*%
X101219000Y-81280000D03*
D14*
X100965000Y-81280000D03*
%TD*%
%TO.P,J9,1*%
%TO.N,/GPIO14*%
X102235000Y-93980000D03*
D15*
X101981000Y-93980000D03*
%TO.P,J9,2*%
%TO.N,/SWDIO*%
X101219000Y-93980000D03*
D14*
X100965000Y-93980000D03*
%TD*%
D18*
%TO.N,GND*%
X83185000Y-54610000D03*
X101600000Y-48260000D03*
X102870000Y-91440000D03*
X101600000Y-68580000D03*
X94615000Y-60325000D03*
X100965000Y-44450000D03*
X85725000Y-54610000D03*
X90170000Y-44450000D03*
X94615000Y-50165000D03*
X94615000Y-46990000D03*
X99060000Y-60960000D03*
X97155000Y-43180000D03*
X95250000Y-81280000D03*
X99060000Y-68580000D03*
X94615000Y-65405000D03*
X92710000Y-86360000D03*
X94615000Y-55245000D03*
X99060000Y-50800000D03*
X95250000Y-76200000D03*
X92710000Y-91440000D03*
X95250000Y-91440000D03*
X89535000Y-65405000D03*
X92075000Y-60325000D03*
X95250000Y-86360000D03*
X97790000Y-86360000D03*
X99060000Y-71120000D03*
X92710000Y-83820000D03*
X102870000Y-83820000D03*
X101600000Y-66040000D03*
X99060000Y-66040000D03*
X99060000Y-63500000D03*
X88265000Y-67310000D03*
X99060000Y-58420000D03*
X95250000Y-88900000D03*
X97790000Y-83820000D03*
X92710000Y-44450000D03*
X92075000Y-55245000D03*
X100330000Y-86360000D03*
X101600000Y-53340000D03*
X95250000Y-43180000D03*
X90170000Y-46990000D03*
X92710000Y-88900000D03*
X92710000Y-76200000D03*
X92075000Y-50165000D03*
X101600000Y-55880000D03*
X100330000Y-83820000D03*
X95250000Y-78740000D03*
X92075000Y-62865000D03*
X94615000Y-62865000D03*
X92710000Y-78740000D03*
X101600000Y-71120000D03*
X92075000Y-57785000D03*
X99060000Y-55880000D03*
X101600000Y-63500000D03*
X81280000Y-53975000D03*
X94615000Y-52705000D03*
X100330000Y-91440000D03*
X97790000Y-91440000D03*
X88265000Y-54610000D03*
X92710000Y-81280000D03*
X99060000Y-43180000D03*
X101600000Y-58420000D03*
X101600000Y-46355000D03*
X101600000Y-60960000D03*
X80010000Y-50165000D03*
X101600000Y-50800000D03*
X94615000Y-67945000D03*
X94615000Y-57785000D03*
X102870000Y-86360000D03*
X95250000Y-83820000D03*
X92075000Y-65405000D03*
X97790000Y-81280000D03*
X99060000Y-53340000D03*
X92075000Y-52705000D03*
X80010000Y-52070000D03*
%TO.N,/TDO*%
X99060000Y-45720000D03*
X88900000Y-45720000D03*
%TO.N,/TDI*%
X88900000Y-48260000D03*
X100330000Y-48260000D03*
%TD*%
D19*
%TO.N,/GPIO13*%
X102235000Y-78740000D02*
X106680000Y-78740000D01*
%TO.N,/GPIO12*%
X102235000Y-81280000D02*
X106680000Y-81280000D01*
%TO.N,/GPIO15*%
X101981000Y-88900000D02*
X106680000Y-88900000D01*
%TO.N,/GPIO14*%
X101981000Y-93980000D02*
X106680000Y-93980000D01*
%TO.N,VCC*%
X80010000Y-57150000D02*
X78105000Y-55245000D01*
X78740000Y-43180000D02*
X81870000Y-43180000D01*
X88900000Y-62230000D02*
X88900000Y-58420000D01*
X78105000Y-43815000D02*
X78740000Y-43180000D01*
X87630000Y-57150000D02*
X80010000Y-57150000D01*
X88900000Y-58420000D02*
X87630000Y-57150000D01*
X87630000Y-63500000D02*
X88900000Y-62230000D01*
X78105000Y-55245000D02*
X78105000Y-43815000D01*
X86360000Y-63500000D02*
X87630000Y-63500000D01*
%TO.N,GND*%
X90805000Y-66675000D02*
X90805000Y-57785000D01*
X79375000Y-44450000D02*
X81870000Y-44450000D01*
X88900000Y-68580000D02*
X90805000Y-66675000D01*
X88900000Y-55880000D02*
X81280000Y-55880000D01*
X81870000Y-45720000D02*
X78740000Y-45720000D01*
X78740000Y-48260000D02*
X78740000Y-45720000D01*
X86360000Y-68580000D02*
X88900000Y-68580000D01*
X81280000Y-55880000D02*
X78740000Y-53340000D01*
X81870000Y-48260000D02*
X78740000Y-48260000D01*
X90805000Y-57785000D02*
X88900000Y-55880000D01*
X78740000Y-53340000D02*
X78740000Y-48260000D01*
X78740000Y-45085000D02*
X79375000Y-44450000D01*
X78740000Y-45720000D02*
X78740000Y-45085000D01*
%TO.N,/SWDIO*%
X100965000Y-93980000D02*
X92710000Y-93980000D01*
X95123000Y-72517000D02*
X95885000Y-71755000D01*
X90424000Y-72517000D02*
X95123000Y-72517000D01*
X93980000Y-43180000D02*
X85770000Y-43180000D01*
X95885000Y-71755000D02*
X95885000Y-45085000D01*
X90170000Y-72771000D02*
X90424000Y-72517000D01*
X95885000Y-45085000D02*
X93980000Y-43180000D01*
X90170000Y-91440000D02*
X90170000Y-72771000D01*
X92710000Y-93980000D02*
X90170000Y-91440000D01*
%TO.N,/SWCLK*%
X100965000Y-78740000D02*
X100330000Y-78740000D01*
X100330000Y-78740000D02*
X99060000Y-77470000D01*
X102870000Y-44450000D02*
X100584000Y-42164000D01*
X83820000Y-42798000D02*
X83820000Y-43954000D01*
X92583000Y-69977000D02*
X93345000Y-69215000D01*
X88900000Y-44450000D02*
X85770000Y-44450000D01*
X100584000Y-42164000D02*
X84454000Y-42164000D01*
X84454000Y-42164000D02*
X83820000Y-42798000D01*
X90424000Y-69977000D02*
X92583000Y-69977000D01*
X99060000Y-76200000D02*
X102870000Y-72390000D01*
X99060000Y-77470000D02*
X99060000Y-76200000D01*
X93345000Y-69215000D02*
X93345000Y-48895000D01*
X102870000Y-72390000D02*
X102870000Y-44450000D01*
X84316000Y-44450000D02*
X85770000Y-44450000D01*
X93345000Y-48895000D02*
X88900000Y-44450000D01*
X83820000Y-43954000D02*
X84316000Y-44450000D01*
%TO.N,/TDO*%
X99060000Y-45720000D02*
X97790000Y-46990000D01*
X96520000Y-87630000D02*
X97790000Y-88900000D01*
X88900000Y-45720000D02*
X85770000Y-45720000D01*
X97790000Y-73660000D02*
X96520000Y-74930000D01*
X96520000Y-74930000D02*
X96520000Y-87630000D01*
X97790000Y-46990000D02*
X97790000Y-73660000D01*
X97790000Y-88900000D02*
X100965000Y-88900000D01*
%TO.N,/TDI*%
X97790000Y-78105000D02*
X97790000Y-75565000D01*
X88900000Y-48260000D02*
X87630000Y-46990000D01*
X100330000Y-73025000D02*
X100330000Y-48260000D01*
X97790000Y-75565000D02*
X100330000Y-73025000D01*
X100965000Y-81280000D02*
X97790000Y-78105000D01*
X87630000Y-46990000D02*
X85770000Y-46990000D01*
%TD*%
%TA.AperFunction,Conductor*%
%TO.N,GND*%
G36*
X104082121Y-41295002D02*
G01*
X104128614Y-41348658D01*
X104140000Y-41400999D01*
X104140000Y-48260000D01*
X108459000Y-48260000D01*
X108527121Y-48280002D01*
X108573614Y-48333658D01*
X108585000Y-48386000D01*
X108585000Y-97664000D01*
X108564998Y-97732121D01*
X108511342Y-97778614D01*
X108459000Y-97790000D01*
X107133303Y-97790000D01*
X107065182Y-97769998D01*
X107018689Y-97716342D01*
X107008585Y-97646068D01*
X107038079Y-97581488D01*
X107087786Y-97546509D01*
X107089220Y-97545953D01*
X107174427Y-97512944D01*
X107348462Y-97405186D01*
X107499732Y-97267285D01*
X107623088Y-97103935D01*
X107714328Y-96920701D01*
X107770345Y-96723821D01*
X107789232Y-96520000D01*
X107770345Y-96316179D01*
X107714328Y-96119299D01*
X107623088Y-95936065D01*
X107582538Y-95882368D01*
X107499733Y-95772715D01*
X107348463Y-95634814D01*
X107174433Y-95527059D01*
X107174428Y-95527057D01*
X107174427Y-95527056D01*
X106983559Y-95453113D01*
X106983560Y-95453113D01*
X106983557Y-95453112D01*
X106983556Y-95453112D01*
X106782347Y-95415500D01*
X106577653Y-95415500D01*
X106376444Y-95453112D01*
X106376439Y-95453113D01*
X106185577Y-95527054D01*
X106185566Y-95527059D01*
X106011536Y-95634814D01*
X105860266Y-95772715D01*
X105736913Y-95936063D01*
X105645671Y-96119301D01*
X105589654Y-96316180D01*
X105570768Y-96519995D01*
X105570768Y-96520004D01*
X105589654Y-96723819D01*
X105589655Y-96723821D01*
X105645672Y-96920701D01*
X105736912Y-97103935D01*
X105736913Y-97103936D01*
X105860266Y-97267284D01*
X106011536Y-97405185D01*
X106185566Y-97512940D01*
X106185568Y-97512940D01*
X106185573Y-97512944D01*
X106269796Y-97545572D01*
X106272214Y-97546509D01*
X106328509Y-97589768D01*
X106352479Y-97656596D01*
X106336515Y-97725774D01*
X106285684Y-97775340D01*
X106226697Y-97790000D01*
X86813303Y-97790000D01*
X86745182Y-97769998D01*
X86698689Y-97716342D01*
X86688585Y-97646068D01*
X86718079Y-97581488D01*
X86767786Y-97546509D01*
X86769220Y-97545953D01*
X86854427Y-97512944D01*
X87028462Y-97405186D01*
X87179732Y-97267285D01*
X87303088Y-97103935D01*
X87394328Y-96920701D01*
X87450345Y-96723821D01*
X87469232Y-96520000D01*
X87450345Y-96316179D01*
X87394328Y-96119299D01*
X87303088Y-95936065D01*
X87262538Y-95882368D01*
X87179733Y-95772715D01*
X87028463Y-95634814D01*
X86854433Y-95527059D01*
X86854428Y-95527057D01*
X86854427Y-95527056D01*
X86663559Y-95453113D01*
X86663560Y-95453113D01*
X86663557Y-95453112D01*
X86663556Y-95453112D01*
X86462347Y-95415500D01*
X86257653Y-95415500D01*
X86056444Y-95453112D01*
X86056439Y-95453113D01*
X85865577Y-95527054D01*
X85865566Y-95527059D01*
X85691536Y-95634814D01*
X85540266Y-95772715D01*
X85416913Y-95936063D01*
X85325671Y-96119301D01*
X85269654Y-96316180D01*
X85250768Y-96519995D01*
X85250768Y-96520004D01*
X85269654Y-96723819D01*
X85269655Y-96723821D01*
X85325672Y-96920701D01*
X85416912Y-97103935D01*
X85416913Y-97103936D01*
X85540266Y-97267284D01*
X85691536Y-97405185D01*
X85865566Y-97512940D01*
X85865568Y-97512940D01*
X85865573Y-97512944D01*
X85949796Y-97545572D01*
X85952214Y-97546509D01*
X86008509Y-97589768D01*
X86032479Y-97656596D01*
X86016515Y-97725774D01*
X85965684Y-97775340D01*
X85906697Y-97790000D01*
X84581000Y-97790000D01*
X84512879Y-97769998D01*
X84466386Y-97716342D01*
X84455000Y-97664000D01*
X84455000Y-93980004D01*
X85250768Y-93980004D01*
X85269654Y-94183819D01*
X85293970Y-94269280D01*
X85325672Y-94380701D01*
X85416912Y-94563935D01*
X85416913Y-94563936D01*
X85540266Y-94727284D01*
X85691536Y-94865185D01*
X85865566Y-94972940D01*
X85865568Y-94972940D01*
X85865573Y-94972944D01*
X86056444Y-95046888D01*
X86257653Y-95084500D01*
X86257655Y-95084500D01*
X86462345Y-95084500D01*
X86462347Y-95084500D01*
X86663556Y-95046888D01*
X86854427Y-94972944D01*
X87028462Y-94865186D01*
X87179732Y-94727285D01*
X87185055Y-94720237D01*
X87201429Y-94698553D01*
X87303088Y-94563935D01*
X87394328Y-94380701D01*
X87450345Y-94183821D01*
X87469232Y-93980000D01*
X87450345Y-93776179D01*
X87394328Y-93579299D01*
X87303088Y-93396065D01*
X87262538Y-93342368D01*
X87179733Y-93232715D01*
X87028463Y-93094814D01*
X86854433Y-92987059D01*
X86854428Y-92987057D01*
X86854427Y-92987056D01*
X86663559Y-92913113D01*
X86663560Y-92913113D01*
X86663557Y-92913112D01*
X86663556Y-92913112D01*
X86462347Y-92875500D01*
X86257653Y-92875500D01*
X86056444Y-92913112D01*
X86056439Y-92913113D01*
X85865577Y-92987054D01*
X85865566Y-92987059D01*
X85691536Y-93094814D01*
X85540266Y-93232715D01*
X85416913Y-93396063D01*
X85325671Y-93579301D01*
X85269654Y-93776180D01*
X85250768Y-93979995D01*
X85250768Y-93980004D01*
X84455000Y-93980004D01*
X84455000Y-91440004D01*
X85250768Y-91440004D01*
X85269654Y-91643819D01*
X85275609Y-91664748D01*
X85325672Y-91840701D01*
X85416912Y-92023935D01*
X85416913Y-92023936D01*
X85540266Y-92187284D01*
X85691536Y-92325185D01*
X85865566Y-92432940D01*
X85865568Y-92432940D01*
X85865573Y-92432944D01*
X86056444Y-92506888D01*
X86257653Y-92544500D01*
X86257655Y-92544500D01*
X86462345Y-92544500D01*
X86462347Y-92544500D01*
X86663556Y-92506888D01*
X86854427Y-92432944D01*
X87028462Y-92325186D01*
X87179732Y-92187285D01*
X87303088Y-92023935D01*
X87394328Y-91840701D01*
X87450345Y-91643821D01*
X87464135Y-91495003D01*
X87469232Y-91440004D01*
X87469232Y-91439995D01*
X87453492Y-91270149D01*
X87450345Y-91236179D01*
X87394328Y-91039299D01*
X87303088Y-90856065D01*
X87262538Y-90802368D01*
X87179733Y-90692715D01*
X87028463Y-90554814D01*
X86854433Y-90447059D01*
X86854428Y-90447057D01*
X86854427Y-90447056D01*
X86663559Y-90373113D01*
X86663560Y-90373113D01*
X86663557Y-90373112D01*
X86663556Y-90373112D01*
X86462347Y-90335500D01*
X86257653Y-90335500D01*
X86056444Y-90373112D01*
X86056439Y-90373113D01*
X85865577Y-90447054D01*
X85865566Y-90447059D01*
X85691536Y-90554814D01*
X85540266Y-90692715D01*
X85416913Y-90856063D01*
X85325671Y-91039301D01*
X85269654Y-91236180D01*
X85250768Y-91439995D01*
X85250768Y-91440004D01*
X84455000Y-91440004D01*
X84455000Y-88900004D01*
X85250768Y-88900004D01*
X85269654Y-89103819D01*
X85293970Y-89189280D01*
X85325672Y-89300701D01*
X85416912Y-89483935D01*
X85416913Y-89483936D01*
X85540266Y-89647284D01*
X85691536Y-89785185D01*
X85865566Y-89892940D01*
X85865568Y-89892940D01*
X85865573Y-89892944D01*
X86056444Y-89966888D01*
X86257653Y-90004500D01*
X86257655Y-90004500D01*
X86462345Y-90004500D01*
X86462347Y-90004500D01*
X86663556Y-89966888D01*
X86854427Y-89892944D01*
X87028462Y-89785186D01*
X87179732Y-89647285D01*
X87185055Y-89640237D01*
X87201429Y-89618553D01*
X87303088Y-89483935D01*
X87394328Y-89300701D01*
X87450345Y-89103821D01*
X87469232Y-88900000D01*
X87450345Y-88696179D01*
X87394328Y-88499299D01*
X87303088Y-88316065D01*
X87262538Y-88262368D01*
X87179733Y-88152715D01*
X87028463Y-88014814D01*
X86854433Y-87907059D01*
X86854428Y-87907057D01*
X86854427Y-87907056D01*
X86850000Y-87905341D01*
X86663559Y-87833113D01*
X86663560Y-87833113D01*
X86663557Y-87833112D01*
X86663556Y-87833112D01*
X86462347Y-87795500D01*
X86257653Y-87795500D01*
X86056444Y-87833112D01*
X86056439Y-87833113D01*
X85865577Y-87907054D01*
X85865566Y-87907059D01*
X85691536Y-88014814D01*
X85540266Y-88152715D01*
X85416913Y-88316063D01*
X85325671Y-88499301D01*
X85269654Y-88696180D01*
X85250768Y-88899995D01*
X85250768Y-88900004D01*
X84455000Y-88900004D01*
X84455000Y-86360004D01*
X85250768Y-86360004D01*
X85269654Y-86563819D01*
X85269655Y-86563821D01*
X85325672Y-86760701D01*
X85416912Y-86943935D01*
X85416913Y-86943936D01*
X85540266Y-87107284D01*
X85691536Y-87245185D01*
X85865566Y-87352940D01*
X85865568Y-87352940D01*
X85865573Y-87352944D01*
X86056444Y-87426888D01*
X86257653Y-87464500D01*
X86257655Y-87464500D01*
X86462345Y-87464500D01*
X86462347Y-87464500D01*
X86663556Y-87426888D01*
X86854427Y-87352944D01*
X87028462Y-87245186D01*
X87179732Y-87107285D01*
X87303088Y-86943935D01*
X87394328Y-86760701D01*
X87450345Y-86563821D01*
X87469232Y-86360000D01*
X87450345Y-86156179D01*
X87394328Y-85959299D01*
X87303088Y-85776065D01*
X87262538Y-85722368D01*
X87179733Y-85612715D01*
X87028463Y-85474814D01*
X86854433Y-85367059D01*
X86854428Y-85367057D01*
X86854427Y-85367056D01*
X86663559Y-85293113D01*
X86663560Y-85293113D01*
X86663557Y-85293112D01*
X86663556Y-85293112D01*
X86462347Y-85255500D01*
X86257653Y-85255500D01*
X86056444Y-85293112D01*
X86056439Y-85293113D01*
X85865577Y-85367054D01*
X85865566Y-85367059D01*
X85691536Y-85474814D01*
X85540266Y-85612715D01*
X85416913Y-85776063D01*
X85325671Y-85959301D01*
X85269654Y-86156180D01*
X85250768Y-86359995D01*
X85250768Y-86360004D01*
X84455000Y-86360004D01*
X84455000Y-83820004D01*
X85250768Y-83820004D01*
X85269654Y-84023819D01*
X85269655Y-84023821D01*
X85325672Y-84220701D01*
X85416912Y-84403935D01*
X85416913Y-84403936D01*
X85540266Y-84567284D01*
X85691536Y-84705185D01*
X85865566Y-84812940D01*
X85865568Y-84812940D01*
X85865573Y-84812944D01*
X86056444Y-84886888D01*
X86257653Y-84924500D01*
X86257655Y-84924500D01*
X86462345Y-84924500D01*
X86462347Y-84924500D01*
X86663556Y-84886888D01*
X86854427Y-84812944D01*
X87028462Y-84705186D01*
X87179732Y-84567285D01*
X87303088Y-84403935D01*
X87394328Y-84220701D01*
X87450345Y-84023821D01*
X87469232Y-83820000D01*
X87450345Y-83616179D01*
X87394328Y-83419299D01*
X87303088Y-83236065D01*
X87262538Y-83182368D01*
X87179733Y-83072715D01*
X87028463Y-82934814D01*
X86854433Y-82827059D01*
X86854428Y-82827057D01*
X86854427Y-82827056D01*
X86663559Y-82753113D01*
X86663560Y-82753113D01*
X86663557Y-82753112D01*
X86663556Y-82753112D01*
X86462347Y-82715500D01*
X86257653Y-82715500D01*
X86056444Y-82753112D01*
X86056439Y-82753113D01*
X85865577Y-82827054D01*
X85865566Y-82827059D01*
X85691536Y-82934814D01*
X85540266Y-83072715D01*
X85416913Y-83236063D01*
X85325671Y-83419301D01*
X85269654Y-83616180D01*
X85250768Y-83819995D01*
X85250768Y-83820004D01*
X84455000Y-83820004D01*
X84455000Y-81280004D01*
X85250768Y-81280004D01*
X85269654Y-81483819D01*
X85305396Y-81609439D01*
X85325672Y-81680701D01*
X85416912Y-81863935D01*
X85416913Y-81863936D01*
X85540266Y-82027284D01*
X85691536Y-82165185D01*
X85865566Y-82272940D01*
X85865568Y-82272940D01*
X85865573Y-82272944D01*
X86056444Y-82346888D01*
X86257653Y-82384500D01*
X86257655Y-82384500D01*
X86462345Y-82384500D01*
X86462347Y-82384500D01*
X86663556Y-82346888D01*
X86854427Y-82272944D01*
X87028462Y-82165186D01*
X87179732Y-82027285D01*
X87185055Y-82020237D01*
X87201429Y-81998553D01*
X87303088Y-81863935D01*
X87394328Y-81680701D01*
X87450345Y-81483821D01*
X87469232Y-81280000D01*
X87450345Y-81076179D01*
X87394328Y-80879299D01*
X87303088Y-80696065D01*
X87262538Y-80642368D01*
X87179733Y-80532715D01*
X87028463Y-80394814D01*
X86854433Y-80287059D01*
X86854428Y-80287057D01*
X86854427Y-80287056D01*
X86663559Y-80213113D01*
X86663560Y-80213113D01*
X86663557Y-80213112D01*
X86663556Y-80213112D01*
X86462347Y-80175500D01*
X86257653Y-80175500D01*
X86056444Y-80213112D01*
X86056439Y-80213113D01*
X85865577Y-80287054D01*
X85865566Y-80287059D01*
X85691536Y-80394814D01*
X85540266Y-80532715D01*
X85416913Y-80696063D01*
X85325671Y-80879301D01*
X85269654Y-81076180D01*
X85250768Y-81279995D01*
X85250768Y-81280004D01*
X84455000Y-81280004D01*
X84455000Y-78740004D01*
X85250768Y-78740004D01*
X85269654Y-78943819D01*
X85293970Y-79029280D01*
X85325672Y-79140701D01*
X85416912Y-79323935D01*
X85416913Y-79323936D01*
X85540266Y-79487284D01*
X85691536Y-79625185D01*
X85865566Y-79732940D01*
X85865568Y-79732940D01*
X85865573Y-79732944D01*
X86056444Y-79806888D01*
X86257653Y-79844500D01*
X86257655Y-79844500D01*
X86462345Y-79844500D01*
X86462347Y-79844500D01*
X86663556Y-79806888D01*
X86854427Y-79732944D01*
X87028462Y-79625186D01*
X87179732Y-79487285D01*
X87185055Y-79480237D01*
X87201429Y-79458553D01*
X87303088Y-79323935D01*
X87394328Y-79140701D01*
X87450345Y-78943821D01*
X87469232Y-78740000D01*
X87450345Y-78536179D01*
X87394328Y-78339299D01*
X87303088Y-78156065D01*
X87234646Y-78065433D01*
X87179733Y-77992715D01*
X87028463Y-77854814D01*
X86854433Y-77747059D01*
X86854428Y-77747057D01*
X86854427Y-77747056D01*
X86850000Y-77745341D01*
X86663559Y-77673113D01*
X86663560Y-77673113D01*
X86663557Y-77673112D01*
X86663556Y-77673112D01*
X86462347Y-77635500D01*
X86257653Y-77635500D01*
X86056444Y-77673112D01*
X86056439Y-77673113D01*
X85865577Y-77747054D01*
X85865566Y-77747059D01*
X85691536Y-77854814D01*
X85540266Y-77992715D01*
X85416913Y-78156063D01*
X85325671Y-78339301D01*
X85269654Y-78536180D01*
X85250768Y-78739995D01*
X85250768Y-78740004D01*
X84455000Y-78740004D01*
X84455000Y-76200004D01*
X85250768Y-76200004D01*
X85269654Y-76403819D01*
X85269655Y-76403821D01*
X85325672Y-76600701D01*
X85416912Y-76783935D01*
X85416913Y-76783936D01*
X85540266Y-76947284D01*
X85691536Y-77085185D01*
X85865566Y-77192940D01*
X85865568Y-77192940D01*
X85865573Y-77192944D01*
X86056444Y-77266888D01*
X86257653Y-77304500D01*
X86257655Y-77304500D01*
X86462345Y-77304500D01*
X86462347Y-77304500D01*
X86663556Y-77266888D01*
X86854427Y-77192944D01*
X87028462Y-77085186D01*
X87179732Y-76947285D01*
X87303088Y-76783935D01*
X87394328Y-76600701D01*
X87450345Y-76403821D01*
X87458009Y-76321117D01*
X87469232Y-76200004D01*
X87469232Y-76199995D01*
X87450345Y-75996180D01*
X87427373Y-75915441D01*
X87394328Y-75799299D01*
X87303088Y-75616065D01*
X87222551Y-75509416D01*
X87179733Y-75452715D01*
X87028463Y-75314814D01*
X86854433Y-75207059D01*
X86854428Y-75207057D01*
X86854427Y-75207056D01*
X86663559Y-75133113D01*
X86663560Y-75133113D01*
X86663557Y-75133112D01*
X86663556Y-75133112D01*
X86462347Y-75095500D01*
X86257653Y-75095500D01*
X86056444Y-75133112D01*
X86056439Y-75133113D01*
X85865577Y-75207054D01*
X85865566Y-75207059D01*
X85691536Y-75314814D01*
X85540266Y-75452715D01*
X85416913Y-75616063D01*
X85325671Y-75799301D01*
X85269654Y-75996180D01*
X85250768Y-76199995D01*
X85250768Y-76200004D01*
X84455000Y-76200004D01*
X84455000Y-73660004D01*
X85250768Y-73660004D01*
X85269654Y-73863819D01*
X85282858Y-73910226D01*
X85325672Y-74060701D01*
X85416912Y-74243935D01*
X85416913Y-74243936D01*
X85540266Y-74407284D01*
X85691536Y-74545185D01*
X85865566Y-74652940D01*
X85865568Y-74652940D01*
X85865573Y-74652944D01*
X86056444Y-74726888D01*
X86257653Y-74764500D01*
X86257655Y-74764500D01*
X86462345Y-74764500D01*
X86462347Y-74764500D01*
X86663556Y-74726888D01*
X86854427Y-74652944D01*
X87028462Y-74545186D01*
X87179732Y-74407285D01*
X87303088Y-74243935D01*
X87394328Y-74060701D01*
X87450345Y-73863821D01*
X87464066Y-73715749D01*
X87469232Y-73660004D01*
X87469232Y-73659995D01*
X87450345Y-73456180D01*
X87408628Y-73309559D01*
X87394328Y-73259299D01*
X87303088Y-73076065D01*
X87258572Y-73017116D01*
X87179733Y-72912715D01*
X87028463Y-72774814D01*
X86854433Y-72667059D01*
X86854428Y-72667057D01*
X86854427Y-72667056D01*
X86785202Y-72640238D01*
X86663559Y-72593113D01*
X86663560Y-72593113D01*
X86663557Y-72593112D01*
X86663556Y-72593112D01*
X86462347Y-72555500D01*
X86257653Y-72555500D01*
X86056444Y-72593112D01*
X86056439Y-72593113D01*
X85865577Y-72667054D01*
X85865566Y-72667059D01*
X85691536Y-72774814D01*
X85540266Y-72912715D01*
X85416913Y-73076063D01*
X85325671Y-73259301D01*
X85269654Y-73456180D01*
X85250768Y-73659995D01*
X85250768Y-73660004D01*
X84455000Y-73660004D01*
X84455000Y-68330000D01*
X85029363Y-68330000D01*
X85926314Y-68330000D01*
X85900507Y-68370156D01*
X85860000Y-68508111D01*
X85860000Y-68651889D01*
X85900507Y-68789844D01*
X85926314Y-68830000D01*
X85029364Y-68830000D01*
X85086568Y-69043488D01*
X85086570Y-69043493D01*
X85186399Y-69257577D01*
X85186400Y-69257579D01*
X85321886Y-69451073D01*
X85321893Y-69451082D01*
X85488917Y-69618106D01*
X85488926Y-69618113D01*
X85682420Y-69753599D01*
X85682422Y-69753600D01*
X85896506Y-69853429D01*
X85896513Y-69853432D01*
X85923123Y-69860562D01*
X85983746Y-69897513D01*
X86014768Y-69961373D01*
X86006340Y-70031868D01*
X85961138Y-70086615D01*
X85936031Y-70099760D01*
X85865574Y-70127055D01*
X85865566Y-70127059D01*
X85691536Y-70234814D01*
X85540266Y-70372715D01*
X85416913Y-70536063D01*
X85325671Y-70719301D01*
X85269654Y-70916180D01*
X85250768Y-71119995D01*
X85250768Y-71120004D01*
X85269654Y-71323819D01*
X85269655Y-71323821D01*
X85325672Y-71520701D01*
X85416912Y-71703935D01*
X85416913Y-71703936D01*
X85540266Y-71867284D01*
X85691536Y-72005185D01*
X85865566Y-72112940D01*
X85865568Y-72112940D01*
X85865573Y-72112944D01*
X86056444Y-72186888D01*
X86257653Y-72224500D01*
X86257655Y-72224500D01*
X86462345Y-72224500D01*
X86462347Y-72224500D01*
X86663556Y-72186888D01*
X86854427Y-72112944D01*
X87028462Y-72005186D01*
X87179732Y-71867285D01*
X87303088Y-71703935D01*
X87394328Y-71520701D01*
X87450345Y-71323821D01*
X87469232Y-71120000D01*
X87450345Y-70916179D01*
X87394328Y-70719299D01*
X87303088Y-70536065D01*
X87262538Y-70482368D01*
X87179733Y-70372715D01*
X87028463Y-70234814D01*
X86854433Y-70127059D01*
X86854428Y-70127057D01*
X86854427Y-70127056D01*
X86854422Y-70127054D01*
X86783969Y-70099760D01*
X86727674Y-70056501D01*
X86703704Y-69989673D01*
X86719668Y-69920494D01*
X86770499Y-69870929D01*
X86796877Y-69860562D01*
X86823484Y-69853433D01*
X86823493Y-69853429D01*
X87037577Y-69753600D01*
X87037579Y-69753599D01*
X87231073Y-69618113D01*
X87231082Y-69618106D01*
X87398106Y-69451082D01*
X87398113Y-69451073D01*
X87533599Y-69257579D01*
X87533600Y-69257577D01*
X87633429Y-69043493D01*
X87633431Y-69043488D01*
X87690636Y-68830000D01*
X86793686Y-68830000D01*
X86819493Y-68789844D01*
X86860000Y-68651889D01*
X86860000Y-68508111D01*
X86819493Y-68370156D01*
X86793686Y-68330000D01*
X87690636Y-68330000D01*
X87633431Y-68116511D01*
X87633429Y-68116506D01*
X87533599Y-67902421D01*
X87398112Y-67708925D01*
X87231076Y-67541888D01*
X87231073Y-67541886D01*
X87037579Y-67406400D01*
X87037577Y-67406399D01*
X86823493Y-67306570D01*
X86823483Y-67306566D01*
X86796873Y-67299436D01*
X86736251Y-67262484D01*
X86705230Y-67198623D01*
X86713660Y-67128129D01*
X86758863Y-67073382D01*
X86783960Y-67060242D01*
X86854427Y-67032944D01*
X87028462Y-66925186D01*
X87179732Y-66787285D01*
X87303088Y-66623935D01*
X87394328Y-66440701D01*
X87450345Y-66243821D01*
X87469232Y-66040000D01*
X87450345Y-65836179D01*
X87394328Y-65639299D01*
X87303088Y-65456065D01*
X87262538Y-65402368D01*
X87179733Y-65292715D01*
X87028463Y-65154814D01*
X86854433Y-65047059D01*
X86854428Y-65047057D01*
X86854427Y-65047056D01*
X86663559Y-64973113D01*
X86663560Y-64973113D01*
X86663557Y-64973112D01*
X86663556Y-64973112D01*
X86462347Y-64935500D01*
X86257653Y-64935500D01*
X86056444Y-64973112D01*
X86056439Y-64973113D01*
X85865577Y-65047054D01*
X85865566Y-65047059D01*
X85691536Y-65154814D01*
X85540266Y-65292715D01*
X85416913Y-65456063D01*
X85325671Y-65639301D01*
X85269654Y-65836180D01*
X85250768Y-66039995D01*
X85250768Y-66040004D01*
X85269654Y-66243819D01*
X85269655Y-66243821D01*
X85325672Y-66440701D01*
X85416912Y-66623935D01*
X85416913Y-66623936D01*
X85540266Y-66787284D01*
X85691536Y-66925185D01*
X85865566Y-67032940D01*
X85865567Y-67032940D01*
X85865573Y-67032944D01*
X85936031Y-67060239D01*
X85992324Y-67103498D01*
X86016295Y-67170325D01*
X86000331Y-67239504D01*
X85949500Y-67289069D01*
X85923127Y-67299436D01*
X85896514Y-67306567D01*
X85896506Y-67306570D01*
X85682421Y-67406400D01*
X85488925Y-67541887D01*
X85488919Y-67541892D01*
X85321892Y-67708919D01*
X85321887Y-67708925D01*
X85186400Y-67902421D01*
X85086570Y-68116506D01*
X85086568Y-68116511D01*
X85029363Y-68330000D01*
X84455000Y-68330000D01*
X84455000Y-61835063D01*
X85255500Y-61835063D01*
X85255501Y-61835073D01*
X85270265Y-61909300D01*
X85326516Y-61993484D01*
X85410697Y-62049733D01*
X85410699Y-62049734D01*
X85484933Y-62064500D01*
X87235066Y-62064499D01*
X87235069Y-62064498D01*
X87235073Y-62064498D01*
X87284326Y-62054701D01*
X87309301Y-62049734D01*
X87393484Y-61993484D01*
X87449734Y-61909301D01*
X87464500Y-61835067D01*
X87464499Y-60084934D01*
X87464498Y-60084930D01*
X87464498Y-60084926D01*
X87449734Y-60010699D01*
X87393483Y-59926515D01*
X87309302Y-59870266D01*
X87235067Y-59855500D01*
X85484936Y-59855500D01*
X85484926Y-59855501D01*
X85410699Y-59870265D01*
X85326515Y-59926516D01*
X85270266Y-60010697D01*
X85255500Y-60084930D01*
X85255500Y-61835063D01*
X84455000Y-61835063D01*
X84455000Y-58420000D01*
X76961000Y-58420000D01*
X76892879Y-58399998D01*
X76846386Y-58346342D01*
X76835000Y-58294000D01*
X76835000Y-55229016D01*
X77718554Y-55229016D01*
X77721110Y-55249518D01*
X77723016Y-55264809D01*
X77723500Y-55272600D01*
X77723500Y-55276615D01*
X77723499Y-55276615D01*
X77727403Y-55300003D01*
X77734303Y-55355357D01*
X77736588Y-55363032D01*
X77739180Y-55370582D01*
X77739181Y-55370585D01*
X77739182Y-55370586D01*
X77765729Y-55419641D01*
X77790224Y-55469746D01*
X77790225Y-55469748D01*
X77794868Y-55476251D01*
X77799782Y-55482565D01*
X77840819Y-55520341D01*
X79703019Y-57382542D01*
X79719405Y-57402718D01*
X79725440Y-57411956D01*
X79725441Y-57411957D01*
X79725443Y-57411959D01*
X79753894Y-57434103D01*
X79759753Y-57439276D01*
X79762591Y-57442114D01*
X79768379Y-57446246D01*
X79781900Y-57455901D01*
X79825912Y-57490156D01*
X79825915Y-57490158D01*
X79825916Y-57490158D01*
X79832941Y-57493960D01*
X79840134Y-57497477D01*
X79893586Y-57513389D01*
X79946334Y-57531499D01*
X79946338Y-57531499D01*
X79946339Y-57531500D01*
X79946340Y-57531500D01*
X79954247Y-57532819D01*
X79962157Y-57533805D01*
X79962158Y-57533804D01*
X79962159Y-57533805D01*
X80017884Y-57531500D01*
X87419788Y-57531500D01*
X87487909Y-57551502D01*
X87508877Y-57568399D01*
X88481597Y-58541119D01*
X88515620Y-58603428D01*
X88518500Y-58630211D01*
X88518499Y-62019787D01*
X88498497Y-62087908D01*
X88481594Y-62108882D01*
X87550350Y-63040126D01*
X87488038Y-63074152D01*
X87417223Y-63069087D01*
X87360387Y-63026540D01*
X87348466Y-63007197D01*
X87303088Y-62916065D01*
X87278825Y-62883936D01*
X87179733Y-62752715D01*
X87028463Y-62614814D01*
X86854433Y-62507059D01*
X86854428Y-62507057D01*
X86854427Y-62507056D01*
X86854422Y-62507054D01*
X86663559Y-62433113D01*
X86663560Y-62433113D01*
X86663557Y-62433112D01*
X86663556Y-62433112D01*
X86462347Y-62395500D01*
X86257653Y-62395500D01*
X86056444Y-62433112D01*
X86056439Y-62433113D01*
X85865577Y-62507054D01*
X85865566Y-62507059D01*
X85691536Y-62614814D01*
X85540266Y-62752715D01*
X85416913Y-62916063D01*
X85325671Y-63099301D01*
X85269654Y-63296180D01*
X85250768Y-63499995D01*
X85250768Y-63500004D01*
X85269654Y-63703819D01*
X85321616Y-63886445D01*
X85325672Y-63900701D01*
X85416912Y-64083935D01*
X85416913Y-64083936D01*
X85540266Y-64247284D01*
X85691536Y-64385185D01*
X85865566Y-64492940D01*
X85865568Y-64492940D01*
X85865573Y-64492944D01*
X86056444Y-64566888D01*
X86257653Y-64604500D01*
X86257655Y-64604500D01*
X86462345Y-64604500D01*
X86462347Y-64604500D01*
X86663556Y-64566888D01*
X86854427Y-64492944D01*
X87028462Y-64385186D01*
X87179732Y-64247285D01*
X87303088Y-64083935D01*
X87303089Y-64083931D01*
X87303091Y-64083930D01*
X87369115Y-63951337D01*
X87417384Y-63899273D01*
X87481905Y-63881500D01*
X87577366Y-63881500D01*
X87603224Y-63884181D01*
X87614017Y-63886445D01*
X87649809Y-63881983D01*
X87657600Y-63881500D01*
X87661611Y-63881500D01*
X87685005Y-63877596D01*
X87692887Y-63876613D01*
X87740360Y-63870696D01*
X87740362Y-63870694D01*
X87748011Y-63868417D01*
X87755584Y-63865818D01*
X87755586Y-63865818D01*
X87804641Y-63839270D01*
X87854746Y-63814776D01*
X87854750Y-63814771D01*
X87861266Y-63810120D01*
X87867562Y-63805220D01*
X87905341Y-63764180D01*
X88169526Y-63499995D01*
X89132546Y-62536974D01*
X89152718Y-62520594D01*
X89161956Y-62514560D01*
X89184114Y-62486089D01*
X89189282Y-62480238D01*
X89192113Y-62477409D01*
X89205891Y-62458110D01*
X89240158Y-62414085D01*
X89240158Y-62414082D01*
X89243957Y-62407064D01*
X89247471Y-62399874D01*
X89247475Y-62399870D01*
X89250025Y-62391300D01*
X89263391Y-62346410D01*
X89281499Y-62293664D01*
X89282819Y-62285749D01*
X89283805Y-62277843D01*
X89281500Y-62222116D01*
X89281500Y-58472633D01*
X89284182Y-58446773D01*
X89286445Y-58435983D01*
X89281983Y-58400189D01*
X89281500Y-58392399D01*
X89281500Y-58388388D01*
X89277596Y-58364995D01*
X89270696Y-58309639D01*
X89268426Y-58302013D01*
X89265818Y-58294419D01*
X89265818Y-58294414D01*
X89239270Y-58245358D01*
X89214776Y-58195254D01*
X89214773Y-58195251D01*
X89214773Y-58195250D01*
X89210127Y-58188742D01*
X89205219Y-58182436D01*
X89164180Y-58144658D01*
X87936980Y-56917457D01*
X87920591Y-56897276D01*
X87914560Y-56888044D01*
X87886103Y-56865895D01*
X87880245Y-56860722D01*
X87877413Y-56857890D01*
X87877402Y-56857880D01*
X87858099Y-56844099D01*
X87814086Y-56809842D01*
X87807064Y-56806042D01*
X87799872Y-56802526D01*
X87799870Y-56802525D01*
X87799867Y-56802524D01*
X87746412Y-56786609D01*
X87693664Y-56768501D01*
X87693663Y-56768500D01*
X87693661Y-56768500D01*
X87693658Y-56768500D01*
X87685748Y-56767179D01*
X87677842Y-56766194D01*
X87622116Y-56768500D01*
X80220212Y-56768500D01*
X80152091Y-56748498D01*
X80131117Y-56731595D01*
X78523405Y-55123882D01*
X78489379Y-55061570D01*
X78486500Y-55034787D01*
X78486500Y-48510000D01*
X80170000Y-48510000D01*
X80170000Y-48677840D01*
X80176400Y-48737371D01*
X80226647Y-48872089D01*
X80312810Y-48987189D01*
X80427910Y-49073352D01*
X80562628Y-49123599D01*
X80622159Y-49129999D01*
X80622176Y-49130000D01*
X81620000Y-49130000D01*
X81620000Y-48510000D01*
X82120000Y-48510000D01*
X82120000Y-49130000D01*
X83117824Y-49130000D01*
X83117840Y-49129999D01*
X83177371Y-49123599D01*
X83312089Y-49073352D01*
X83427189Y-48987189D01*
X83513352Y-48872089D01*
X83563599Y-48737371D01*
X83569999Y-48677840D01*
X83570000Y-48677823D01*
X83570000Y-48510000D01*
X82120000Y-48510000D01*
X81620000Y-48510000D01*
X80170000Y-48510000D01*
X78486500Y-48510000D01*
X78486500Y-45970000D01*
X80170000Y-45970000D01*
X80170000Y-46137840D01*
X80176400Y-46197371D01*
X80226646Y-46332087D01*
X80312814Y-46447192D01*
X80365157Y-46486376D01*
X80407703Y-46543212D01*
X80413641Y-46588744D01*
X80415500Y-46588744D01*
X80415501Y-47391256D01*
X80412993Y-47391256D01*
X80401788Y-47450205D01*
X80365159Y-47493621D01*
X80312816Y-47532806D01*
X80312814Y-47532807D01*
X80226646Y-47647912D01*
X80176400Y-47782628D01*
X80170000Y-47842159D01*
X80170000Y-48010000D01*
X83570000Y-48010000D01*
X83570000Y-47842176D01*
X83569999Y-47842159D01*
X83563599Y-47782628D01*
X83513353Y-47647912D01*
X83427185Y-47532807D01*
X83374842Y-47493623D01*
X83332296Y-47436787D01*
X83326377Y-47391257D01*
X83324500Y-47391257D01*
X83324499Y-46588744D01*
X83327018Y-46588744D01*
X83338180Y-46529852D01*
X83374843Y-46486374D01*
X83427189Y-46447188D01*
X83513352Y-46332089D01*
X83563599Y-46197371D01*
X83569999Y-46137840D01*
X83570000Y-46137823D01*
X83570000Y-45970000D01*
X80170000Y-45970000D01*
X78486500Y-45970000D01*
X78486500Y-44700000D01*
X80170000Y-44700000D01*
X80170000Y-44867840D01*
X80176400Y-44927372D01*
X80218769Y-45040967D01*
X80223833Y-45111783D01*
X80218769Y-45129030D01*
X80176401Y-45242626D01*
X80170000Y-45302159D01*
X80170000Y-45470000D01*
X81620000Y-45470000D01*
X81620000Y-44700000D01*
X82120000Y-44700000D01*
X82120000Y-45470000D01*
X83570000Y-45470000D01*
X83570000Y-45302176D01*
X83569999Y-45302159D01*
X83563599Y-45242628D01*
X83521230Y-45129032D01*
X83516166Y-45058217D01*
X83521230Y-45040968D01*
X83563599Y-44927371D01*
X83569999Y-44867840D01*
X83570000Y-44867823D01*
X83570000Y-44700000D01*
X82120000Y-44700000D01*
X81620000Y-44700000D01*
X80170000Y-44700000D01*
X78486500Y-44700000D01*
X78486500Y-44025213D01*
X78506502Y-43957092D01*
X78523405Y-43936117D01*
X78861119Y-43598404D01*
X78923431Y-43564379D01*
X78950214Y-43561500D01*
X80181851Y-43561500D01*
X80249972Y-43581502D01*
X80296465Y-43635158D01*
X80306569Y-43705432D01*
X80282719Y-43763010D01*
X80226646Y-43837912D01*
X80176400Y-43972628D01*
X80170000Y-44032159D01*
X80170000Y-44200000D01*
X83474287Y-44200000D01*
X83542408Y-44220002D01*
X83563383Y-44236905D01*
X84009022Y-44682545D01*
X84025406Y-44702721D01*
X84031440Y-44711956D01*
X84031441Y-44711957D01*
X84031443Y-44711959D01*
X84059894Y-44734103D01*
X84065753Y-44739276D01*
X84068591Y-44742114D01*
X84074379Y-44746246D01*
X84087900Y-44755901D01*
X84131912Y-44790156D01*
X84131915Y-44790158D01*
X84131916Y-44790158D01*
X84138941Y-44793960D01*
X84146134Y-44797477D01*
X84199585Y-44813389D01*
X84223691Y-44821664D01*
X84248702Y-44830251D01*
X84306637Y-44871289D01*
X84323836Y-44908531D01*
X84325517Y-44907836D01*
X84330265Y-44919300D01*
X84393411Y-45013803D01*
X84389966Y-45016104D01*
X84412962Y-45058217D01*
X84407897Y-45129032D01*
X84391330Y-45154808D01*
X84393410Y-45156198D01*
X84330266Y-45250697D01*
X84315500Y-45324930D01*
X84315500Y-46115063D01*
X84315501Y-46115073D01*
X84330265Y-46189300D01*
X84393411Y-46283803D01*
X84389966Y-46286104D01*
X84412962Y-46328217D01*
X84407897Y-46399032D01*
X84391330Y-46424808D01*
X84393410Y-46426198D01*
X84330266Y-46520697D01*
X84315500Y-46594930D01*
X84315500Y-47385063D01*
X84315501Y-47385073D01*
X84330265Y-47459300D01*
X84393411Y-47553803D01*
X84389966Y-47556104D01*
X84412962Y-47598217D01*
X84407897Y-47669032D01*
X84391330Y-47694808D01*
X84393410Y-47696198D01*
X84330266Y-47790697D01*
X84315500Y-47864930D01*
X84315500Y-48655063D01*
X84315501Y-48655073D01*
X84330265Y-48729300D01*
X84386516Y-48813484D01*
X84470697Y-48869733D01*
X84470699Y-48869734D01*
X84544933Y-48884500D01*
X86995066Y-48884499D01*
X86995069Y-48884498D01*
X86995073Y-48884498D01*
X87044326Y-48874701D01*
X87069301Y-48869734D01*
X87153484Y-48813484D01*
X87209734Y-48729301D01*
X87224500Y-48655067D01*
X87224499Y-47864934D01*
X87224498Y-47864930D01*
X87224498Y-47864926D01*
X87209734Y-47790699D01*
X87146589Y-47696197D01*
X87150033Y-47693895D01*
X87127038Y-47651783D01*
X87132103Y-47580968D01*
X87148669Y-47555191D01*
X87146590Y-47553802D01*
X87209732Y-47459304D01*
X87209732Y-47459303D01*
X87209734Y-47459301D01*
X87209734Y-47459297D01*
X87213883Y-47449284D01*
X87258431Y-47394002D01*
X87325794Y-47371580D01*
X87330293Y-47371500D01*
X87419788Y-47371500D01*
X87487909Y-47391502D01*
X87508883Y-47408405D01*
X88170308Y-48069830D01*
X88204334Y-48132142D01*
X88206294Y-48174112D01*
X88195866Y-48259997D01*
X88195866Y-48260000D01*
X88216326Y-48428507D01*
X88276521Y-48587229D01*
X88310787Y-48636871D01*
X88372948Y-48726927D01*
X88500006Y-48839491D01*
X88650311Y-48918377D01*
X88815126Y-48959000D01*
X88815127Y-48959000D01*
X88984873Y-48959000D01*
X88984874Y-48959000D01*
X89149689Y-48918377D01*
X89299994Y-48839491D01*
X89427052Y-48726927D01*
X89523480Y-48587227D01*
X89583673Y-48428510D01*
X89604134Y-48260000D01*
X89583673Y-48091490D01*
X89523480Y-47932773D01*
X89427052Y-47793073D01*
X89299994Y-47680509D01*
X89299993Y-47680508D01*
X89299989Y-47680506D01*
X89149687Y-47601622D01*
X88984875Y-47561000D01*
X88984874Y-47561000D01*
X88815126Y-47561000D01*
X88815122Y-47561000D01*
X88809495Y-47561683D01*
X88739461Y-47550034D01*
X88705218Y-47525696D01*
X88327544Y-47148022D01*
X87936977Y-46757454D01*
X87920589Y-46737273D01*
X87914560Y-46728044D01*
X87886103Y-46705895D01*
X87880245Y-46700722D01*
X87877413Y-46697890D01*
X87877402Y-46697880D01*
X87858099Y-46684099D01*
X87814086Y-46649842D01*
X87807064Y-46646042D01*
X87799872Y-46642526D01*
X87799870Y-46642525D01*
X87799867Y-46642524D01*
X87746412Y-46626609D01*
X87693664Y-46608501D01*
X87693663Y-46608500D01*
X87693661Y-46608500D01*
X87693658Y-46608500D01*
X87685748Y-46607179D01*
X87677842Y-46606194D01*
X87622116Y-46608500D01*
X87330293Y-46608500D01*
X87262172Y-46588498D01*
X87215679Y-46534842D01*
X87213884Y-46530718D01*
X87209734Y-46520701D01*
X87209734Y-46520699D01*
X87153484Y-46436516D01*
X87153483Y-46436515D01*
X87146589Y-46426197D01*
X87150033Y-46423895D01*
X87127038Y-46381783D01*
X87132103Y-46310968D01*
X87148669Y-46285191D01*
X87146590Y-46283802D01*
X87209732Y-46189304D01*
X87209732Y-46189303D01*
X87209734Y-46189301D01*
X87209734Y-46189297D01*
X87213883Y-46179284D01*
X87258431Y-46124002D01*
X87325794Y-46101580D01*
X87330293Y-46101500D01*
X88247852Y-46101500D01*
X88315973Y-46121502D01*
X88351546Y-46155921D01*
X88372948Y-46186927D01*
X88500006Y-46299491D01*
X88650311Y-46378377D01*
X88815126Y-46419000D01*
X88815127Y-46419000D01*
X88984873Y-46419000D01*
X88984874Y-46419000D01*
X89149689Y-46378377D01*
X89299994Y-46299491D01*
X89427052Y-46186927D01*
X89523480Y-46047227D01*
X89573772Y-45914615D01*
X89616630Y-45858015D01*
X89683285Y-45833570D01*
X89752576Y-45849042D01*
X89780679Y-45870201D01*
X92926595Y-49016116D01*
X92960621Y-49078428D01*
X92963500Y-49105211D01*
X92963500Y-69004785D01*
X92943498Y-69072906D01*
X92926596Y-69093880D01*
X92461882Y-69558595D01*
X92399569Y-69592620D01*
X92372786Y-69595500D01*
X91434595Y-69595500D01*
X91366474Y-69575498D01*
X91323473Y-69528896D01*
X91319776Y-69521979D01*
X91263252Y-69416230D01*
X91137725Y-69263275D01*
X90984770Y-69137748D01*
X90810265Y-69044473D01*
X90620916Y-68987035D01*
X90620915Y-68987034D01*
X90620909Y-68987033D01*
X90424003Y-68967640D01*
X90423997Y-68967640D01*
X90227090Y-68987033D01*
X90037734Y-69044473D01*
X89863229Y-69137748D01*
X89710275Y-69263275D01*
X89584748Y-69416229D01*
X89491473Y-69590734D01*
X89434033Y-69780090D01*
X89414640Y-69976997D01*
X89414640Y-69977002D01*
X89434033Y-70173909D01*
X89434034Y-70173915D01*
X89434035Y-70173916D01*
X89491473Y-70363265D01*
X89584748Y-70537770D01*
X89710275Y-70690725D01*
X89863230Y-70816252D01*
X90037735Y-70909527D01*
X90227084Y-70966965D01*
X90227088Y-70966965D01*
X90227090Y-70966966D01*
X90423997Y-70986360D01*
X90424000Y-70986360D01*
X90424003Y-70986360D01*
X90620909Y-70966966D01*
X90620910Y-70966965D01*
X90620916Y-70966965D01*
X90810265Y-70909527D01*
X90984770Y-70816252D01*
X91137725Y-70690725D01*
X91263252Y-70537770D01*
X91323473Y-70425103D01*
X91373225Y-70374456D01*
X91434595Y-70358500D01*
X92530366Y-70358500D01*
X92556224Y-70361181D01*
X92567017Y-70363445D01*
X92602809Y-70358983D01*
X92610600Y-70358500D01*
X92614611Y-70358500D01*
X92638005Y-70354596D01*
X92645887Y-70353613D01*
X92693360Y-70347696D01*
X92693362Y-70347694D01*
X92701011Y-70345417D01*
X92708584Y-70342818D01*
X92708586Y-70342818D01*
X92757641Y-70316270D01*
X92807746Y-70291776D01*
X92807750Y-70291771D01*
X92814266Y-70287120D01*
X92820562Y-70282220D01*
X92858341Y-70241180D01*
X93577543Y-69521979D01*
X93597717Y-69505595D01*
X93606956Y-69499560D01*
X93629103Y-69471103D01*
X93634271Y-69465250D01*
X93637114Y-69462409D01*
X93650898Y-69443101D01*
X93685158Y-69399085D01*
X93685159Y-69399079D01*
X93688950Y-69392076D01*
X93692471Y-69384873D01*
X93692475Y-69384869D01*
X93701823Y-69353468D01*
X93708389Y-69331416D01*
X93726498Y-69278666D01*
X93726500Y-69278661D01*
X93726500Y-69278654D01*
X93727819Y-69270752D01*
X93728805Y-69262842D01*
X93726500Y-69207115D01*
X93726500Y-48947633D01*
X93729182Y-48921773D01*
X93731445Y-48910983D01*
X93726983Y-48875189D01*
X93726500Y-48867399D01*
X93726500Y-48863388D01*
X93722596Y-48839995D01*
X93715696Y-48784639D01*
X93713426Y-48777013D01*
X93710818Y-48769419D01*
X93710818Y-48769414D01*
X93684270Y-48720358D01*
X93659776Y-48670254D01*
X93659773Y-48670251D01*
X93659773Y-48670250D01*
X93655127Y-48663742D01*
X93650219Y-48657436D01*
X93609180Y-48619658D01*
X89206980Y-44217457D01*
X89190591Y-44197276D01*
X89184560Y-44188044D01*
X89156103Y-44165895D01*
X89150245Y-44160722D01*
X89147413Y-44157890D01*
X89147402Y-44157880D01*
X89128099Y-44144099D01*
X89084086Y-44109842D01*
X89077064Y-44106042D01*
X89069872Y-44102526D01*
X89069870Y-44102525D01*
X89069867Y-44102524D01*
X89016412Y-44086609D01*
X88963664Y-44068501D01*
X88963663Y-44068500D01*
X88963661Y-44068500D01*
X88963658Y-44068500D01*
X88955748Y-44067179D01*
X88947842Y-44066194D01*
X88892116Y-44068500D01*
X87330293Y-44068500D01*
X87262172Y-44048498D01*
X87215679Y-43994842D01*
X87213884Y-43990718D01*
X87209734Y-43980701D01*
X87209734Y-43980699D01*
X87153484Y-43896516D01*
X87153483Y-43896515D01*
X87146589Y-43886197D01*
X87150033Y-43883895D01*
X87127038Y-43841783D01*
X87132103Y-43770968D01*
X87148669Y-43745191D01*
X87146590Y-43743802D01*
X87209732Y-43649304D01*
X87209732Y-43649303D01*
X87209734Y-43649301D01*
X87209734Y-43649297D01*
X87213883Y-43639284D01*
X87258431Y-43584002D01*
X87325794Y-43561580D01*
X87330293Y-43561500D01*
X93769788Y-43561500D01*
X93837909Y-43581502D01*
X93858883Y-43598405D01*
X95466595Y-45206117D01*
X95500621Y-45268429D01*
X95503500Y-45295212D01*
X95503500Y-71544787D01*
X95483498Y-71612908D01*
X95466595Y-71633882D01*
X95001882Y-72098595D01*
X94939570Y-72132621D01*
X94912787Y-72135500D01*
X91434595Y-72135500D01*
X91366474Y-72115498D01*
X91323473Y-72068896D01*
X91319776Y-72061979D01*
X91263252Y-71956230D01*
X91137725Y-71803275D01*
X90984770Y-71677748D01*
X90810265Y-71584473D01*
X90620916Y-71527035D01*
X90620915Y-71527034D01*
X90620909Y-71527033D01*
X90424003Y-71507640D01*
X90423997Y-71507640D01*
X90227090Y-71527033D01*
X90037734Y-71584473D01*
X89863229Y-71677748D01*
X89710275Y-71803275D01*
X89584748Y-71956229D01*
X89491473Y-72130734D01*
X89434033Y-72320090D01*
X89414640Y-72516997D01*
X89414640Y-72517002D01*
X89434033Y-72713909D01*
X89491473Y-72903265D01*
X89584748Y-73077770D01*
X89710275Y-73230725D01*
X89742433Y-73257117D01*
X89782402Y-73315795D01*
X89788499Y-73354516D01*
X89788499Y-91387369D01*
X89785818Y-91413221D01*
X89783554Y-91424017D01*
X89785547Y-91440000D01*
X89788016Y-91459809D01*
X89788500Y-91467600D01*
X89788500Y-91471615D01*
X89788499Y-91471615D01*
X89792403Y-91495003D01*
X89799303Y-91550357D01*
X89801588Y-91558032D01*
X89804180Y-91565582D01*
X89804181Y-91565585D01*
X89804182Y-91565586D01*
X89830729Y-91614641D01*
X89855224Y-91664746D01*
X89855225Y-91664748D01*
X89859868Y-91671251D01*
X89864782Y-91677565D01*
X89905819Y-91715341D01*
X92403016Y-94212538D01*
X92419402Y-94232715D01*
X92425437Y-94241952D01*
X92425440Y-94241956D01*
X92453437Y-94263747D01*
X92453900Y-94264107D01*
X92459757Y-94269280D01*
X92462584Y-94272107D01*
X92462591Y-94272113D01*
X92481889Y-94285891D01*
X92525915Y-94320158D01*
X92525917Y-94320158D01*
X92532955Y-94323968D01*
X92540127Y-94327473D01*
X92540130Y-94327475D01*
X92572836Y-94337211D01*
X92593590Y-94343391D01*
X92646333Y-94361498D01*
X92646339Y-94361500D01*
X92646345Y-94361500D01*
X92654250Y-94362819D01*
X92662156Y-94363805D01*
X92662157Y-94363804D01*
X92662158Y-94363805D01*
X92717884Y-94361500D01*
X100243994Y-94361500D01*
X100312115Y-94381502D01*
X100350681Y-94420464D01*
X100371376Y-94453400D01*
X100371379Y-94453404D01*
X100491597Y-94573622D01*
X100491600Y-94573624D01*
X100635563Y-94664082D01*
X100796046Y-94720237D01*
X100965000Y-94739274D01*
X101003847Y-94734895D01*
X101010909Y-94734499D01*
X101494064Y-94734499D01*
X101494066Y-94734499D01*
X101494069Y-94734498D01*
X101494072Y-94734498D01*
X101530341Y-94727284D01*
X101568301Y-94719734D01*
X101568301Y-94719733D01*
X101575419Y-94718318D01*
X101624581Y-94718318D01*
X101631698Y-94719733D01*
X101631699Y-94719734D01*
X101705933Y-94734500D01*
X102189078Y-94734499D01*
X102196135Y-94734894D01*
X102235000Y-94739274D01*
X102403954Y-94720237D01*
X102564437Y-94664082D01*
X102708400Y-94573624D01*
X102828624Y-94453400D01*
X102849319Y-94420463D01*
X102902497Y-94373426D01*
X102956006Y-94361500D01*
X105558095Y-94361500D01*
X105626216Y-94381502D01*
X105670885Y-94431337D01*
X105736908Y-94563930D01*
X105736912Y-94563935D01*
X105860266Y-94727284D01*
X106011536Y-94865185D01*
X106185566Y-94972940D01*
X106185568Y-94972940D01*
X106185573Y-94972944D01*
X106376444Y-95046888D01*
X106577653Y-95084500D01*
X106577655Y-95084500D01*
X106782345Y-95084500D01*
X106782347Y-95084500D01*
X106983556Y-95046888D01*
X107174427Y-94972944D01*
X107348462Y-94865186D01*
X107499732Y-94727285D01*
X107505055Y-94720237D01*
X107521429Y-94698553D01*
X107623088Y-94563935D01*
X107714328Y-94380701D01*
X107770345Y-94183821D01*
X107789232Y-93980000D01*
X107770345Y-93776179D01*
X107714328Y-93579299D01*
X107623088Y-93396065D01*
X107582538Y-93342368D01*
X107499733Y-93232715D01*
X107348463Y-93094814D01*
X107174433Y-92987059D01*
X107174428Y-92987057D01*
X107174427Y-92987056D01*
X106983559Y-92913113D01*
X106983560Y-92913113D01*
X106983557Y-92913112D01*
X106983556Y-92913112D01*
X106782347Y-92875500D01*
X106577653Y-92875500D01*
X106376444Y-92913112D01*
X106376439Y-92913113D01*
X106185577Y-92987054D01*
X106185566Y-92987059D01*
X106011536Y-93094814D01*
X105860266Y-93232715D01*
X105736912Y-93396064D01*
X105736908Y-93396069D01*
X105670885Y-93528663D01*
X105622616Y-93580727D01*
X105558095Y-93598500D01*
X102956006Y-93598500D01*
X102887885Y-93578498D01*
X102849319Y-93539536D01*
X102828623Y-93506599D01*
X102828620Y-93506595D01*
X102708402Y-93386377D01*
X102708399Y-93386375D01*
X102564439Y-93295919D01*
X102564437Y-93295918D01*
X102564437Y-93295917D01*
X102403954Y-93239763D01*
X102235000Y-93220726D01*
X102234999Y-93220726D01*
X102218499Y-93222585D01*
X102196142Y-93225104D01*
X102189086Y-93225500D01*
X101705936Y-93225500D01*
X101705926Y-93225501D01*
X101624580Y-93241682D01*
X101575418Y-93241682D01*
X101568301Y-93240266D01*
X101537548Y-93234148D01*
X101494069Y-93225500D01*
X101494067Y-93225500D01*
X101010917Y-93225500D01*
X101003864Y-93225104D01*
X100965000Y-93220726D01*
X100796046Y-93239763D01*
X100796043Y-93239763D01*
X100796043Y-93239764D01*
X100635562Y-93295918D01*
X100635560Y-93295919D01*
X100491600Y-93386375D01*
X100491597Y-93386377D01*
X100371379Y-93506595D01*
X100371376Y-93506599D01*
X100350681Y-93539536D01*
X100297503Y-93586574D01*
X100243994Y-93598500D01*
X92920212Y-93598500D01*
X92852091Y-93578498D01*
X92831117Y-93561595D01*
X90709527Y-91440004D01*
X105570768Y-91440004D01*
X105589654Y-91643819D01*
X105595609Y-91664748D01*
X105645672Y-91840701D01*
X105736912Y-92023935D01*
X105736913Y-92023936D01*
X105860266Y-92187284D01*
X106011536Y-92325185D01*
X106185566Y-92432940D01*
X106185568Y-92432940D01*
X106185573Y-92432944D01*
X106376444Y-92506888D01*
X106577653Y-92544500D01*
X106577655Y-92544500D01*
X106782345Y-92544500D01*
X106782347Y-92544500D01*
X106983556Y-92506888D01*
X107174427Y-92432944D01*
X107348462Y-92325186D01*
X107499732Y-92187285D01*
X107623088Y-92023935D01*
X107714328Y-91840701D01*
X107770345Y-91643821D01*
X107784135Y-91495003D01*
X107789232Y-91440004D01*
X107789232Y-91439995D01*
X107773492Y-91270149D01*
X107770345Y-91236179D01*
X107714328Y-91039299D01*
X107623088Y-90856065D01*
X107582538Y-90802368D01*
X107499733Y-90692715D01*
X107348463Y-90554814D01*
X107174433Y-90447059D01*
X107174428Y-90447057D01*
X107174427Y-90447056D01*
X106983559Y-90373113D01*
X106983560Y-90373113D01*
X106983557Y-90373112D01*
X106983556Y-90373112D01*
X106782347Y-90335500D01*
X106577653Y-90335500D01*
X106376444Y-90373112D01*
X106376439Y-90373113D01*
X106185577Y-90447054D01*
X106185566Y-90447059D01*
X106011536Y-90554814D01*
X105860266Y-90692715D01*
X105736913Y-90856063D01*
X105645671Y-91039301D01*
X105589654Y-91236180D01*
X105570768Y-91439995D01*
X105570768Y-91440004D01*
X90709527Y-91440004D01*
X90588405Y-91318882D01*
X90554379Y-91256570D01*
X90551500Y-91229787D01*
X90551500Y-87614017D01*
X96133554Y-87614017D01*
X96138015Y-87649809D01*
X96138499Y-87657596D01*
X96138499Y-87661601D01*
X96138501Y-87661615D01*
X96142403Y-87685003D01*
X96149303Y-87740357D01*
X96151588Y-87748032D01*
X96154180Y-87755582D01*
X96154181Y-87755585D01*
X96154182Y-87755586D01*
X96180729Y-87804641D01*
X96194648Y-87833112D01*
X96205225Y-87854748D01*
X96209868Y-87861251D01*
X96214782Y-87867565D01*
X96255819Y-87905341D01*
X97483016Y-89132538D01*
X97499402Y-89152715D01*
X97505437Y-89161952D01*
X97505440Y-89161956D01*
X97533437Y-89183747D01*
X97533900Y-89184107D01*
X97539757Y-89189280D01*
X97542584Y-89192107D01*
X97542591Y-89192113D01*
X97561889Y-89205891D01*
X97605915Y-89240158D01*
X97605917Y-89240158D01*
X97612955Y-89243968D01*
X97620127Y-89247473D01*
X97620130Y-89247475D01*
X97652836Y-89257211D01*
X97673590Y-89263391D01*
X97726333Y-89281498D01*
X97726339Y-89281500D01*
X97726345Y-89281500D01*
X97734250Y-89282819D01*
X97742156Y-89283805D01*
X97742157Y-89283804D01*
X97742158Y-89283805D01*
X97797884Y-89281500D01*
X100243994Y-89281500D01*
X100312115Y-89301502D01*
X100350681Y-89340464D01*
X100371376Y-89373400D01*
X100371379Y-89373404D01*
X100491597Y-89493622D01*
X100491600Y-89493624D01*
X100635563Y-89584082D01*
X100796046Y-89640237D01*
X100965000Y-89659274D01*
X101003847Y-89654895D01*
X101010909Y-89654499D01*
X101494064Y-89654499D01*
X101494066Y-89654499D01*
X101494069Y-89654498D01*
X101494072Y-89654498D01*
X101530341Y-89647284D01*
X101568301Y-89639734D01*
X101568301Y-89639733D01*
X101575419Y-89638318D01*
X101624581Y-89638318D01*
X101631698Y-89639733D01*
X101631699Y-89639734D01*
X101705933Y-89654500D01*
X102189078Y-89654499D01*
X102196135Y-89654894D01*
X102235000Y-89659274D01*
X102403954Y-89640237D01*
X102564437Y-89584082D01*
X102708400Y-89493624D01*
X102828624Y-89373400D01*
X102849319Y-89340463D01*
X102902497Y-89293426D01*
X102956006Y-89281500D01*
X105558095Y-89281500D01*
X105626216Y-89301502D01*
X105670885Y-89351337D01*
X105736908Y-89483930D01*
X105736912Y-89483935D01*
X105860266Y-89647284D01*
X106011536Y-89785185D01*
X106185566Y-89892940D01*
X106185568Y-89892940D01*
X106185573Y-89892944D01*
X106376444Y-89966888D01*
X106577653Y-90004500D01*
X106577655Y-90004500D01*
X106782345Y-90004500D01*
X106782347Y-90004500D01*
X106983556Y-89966888D01*
X107174427Y-89892944D01*
X107348462Y-89785186D01*
X107499732Y-89647285D01*
X107505055Y-89640237D01*
X107521429Y-89618553D01*
X107623088Y-89483935D01*
X107714328Y-89300701D01*
X107770345Y-89103821D01*
X107789232Y-88900000D01*
X107770345Y-88696179D01*
X107714328Y-88499299D01*
X107623088Y-88316065D01*
X107582538Y-88262368D01*
X107499733Y-88152715D01*
X107348463Y-88014814D01*
X107174433Y-87907059D01*
X107174428Y-87907057D01*
X107174427Y-87907056D01*
X107170000Y-87905341D01*
X106983559Y-87833113D01*
X106983560Y-87833113D01*
X106983557Y-87833112D01*
X106983556Y-87833112D01*
X106782347Y-87795500D01*
X106577653Y-87795500D01*
X106376444Y-87833112D01*
X106376439Y-87833113D01*
X106185577Y-87907054D01*
X106185566Y-87907059D01*
X106011536Y-88014814D01*
X105860266Y-88152715D01*
X105736912Y-88316064D01*
X105736908Y-88316069D01*
X105670885Y-88448663D01*
X105622616Y-88500727D01*
X105558095Y-88518500D01*
X102956006Y-88518500D01*
X102887885Y-88498498D01*
X102849319Y-88459536D01*
X102828623Y-88426599D01*
X102828620Y-88426595D01*
X102708402Y-88306377D01*
X102708399Y-88306375D01*
X102564439Y-88215919D01*
X102564437Y-88215918D01*
X102564437Y-88215917D01*
X102403954Y-88159763D01*
X102235000Y-88140726D01*
X102234999Y-88140726D01*
X102218499Y-88142585D01*
X102196142Y-88145104D01*
X102189086Y-88145500D01*
X101705936Y-88145500D01*
X101705926Y-88145501D01*
X101624580Y-88161682D01*
X101575418Y-88161682D01*
X101568301Y-88160266D01*
X101537548Y-88154148D01*
X101494069Y-88145500D01*
X101494067Y-88145500D01*
X101010917Y-88145500D01*
X101003864Y-88145104D01*
X100965000Y-88140726D01*
X100796046Y-88159763D01*
X100796043Y-88159763D01*
X100796043Y-88159764D01*
X100635562Y-88215918D01*
X100635560Y-88215919D01*
X100491600Y-88306375D01*
X100491597Y-88306377D01*
X100371379Y-88426595D01*
X100371376Y-88426599D01*
X100350681Y-88459536D01*
X100297503Y-88506574D01*
X100243994Y-88518500D01*
X98000212Y-88518500D01*
X97932091Y-88498498D01*
X97911121Y-88481599D01*
X96938402Y-87508879D01*
X96904379Y-87446570D01*
X96901500Y-87419787D01*
X96901500Y-86360004D01*
X105570768Y-86360004D01*
X105589654Y-86563819D01*
X105589655Y-86563821D01*
X105645672Y-86760701D01*
X105736912Y-86943935D01*
X105736913Y-86943936D01*
X105860266Y-87107284D01*
X106011536Y-87245185D01*
X106185566Y-87352940D01*
X106185568Y-87352940D01*
X106185573Y-87352944D01*
X106376444Y-87426888D01*
X106577653Y-87464500D01*
X106577655Y-87464500D01*
X106782345Y-87464500D01*
X106782347Y-87464500D01*
X106983556Y-87426888D01*
X107174427Y-87352944D01*
X107348462Y-87245186D01*
X107499732Y-87107285D01*
X107623088Y-86943935D01*
X107714328Y-86760701D01*
X107770345Y-86563821D01*
X107789232Y-86360000D01*
X107770345Y-86156179D01*
X107714328Y-85959299D01*
X107623088Y-85776065D01*
X107582538Y-85722368D01*
X107499733Y-85612715D01*
X107348463Y-85474814D01*
X107174433Y-85367059D01*
X107174428Y-85367057D01*
X107174427Y-85367056D01*
X106983559Y-85293113D01*
X106983560Y-85293113D01*
X106983557Y-85293112D01*
X106983556Y-85293112D01*
X106782347Y-85255500D01*
X106577653Y-85255500D01*
X106376444Y-85293112D01*
X106376439Y-85293113D01*
X106185577Y-85367054D01*
X106185566Y-85367059D01*
X106011536Y-85474814D01*
X105860266Y-85612715D01*
X105736913Y-85776063D01*
X105645671Y-85959301D01*
X105589654Y-86156180D01*
X105570768Y-86359995D01*
X105570768Y-86360004D01*
X96901500Y-86360004D01*
X96901500Y-83820004D01*
X105570768Y-83820004D01*
X105589654Y-84023819D01*
X105589655Y-84023821D01*
X105645672Y-84220701D01*
X105736912Y-84403935D01*
X105736913Y-84403936D01*
X105860266Y-84567284D01*
X106011536Y-84705185D01*
X106185566Y-84812940D01*
X106185568Y-84812940D01*
X106185573Y-84812944D01*
X106376444Y-84886888D01*
X106577653Y-84924500D01*
X106577655Y-84924500D01*
X106782345Y-84924500D01*
X106782347Y-84924500D01*
X106983556Y-84886888D01*
X107174427Y-84812944D01*
X107348462Y-84705186D01*
X107499732Y-84567285D01*
X107623088Y-84403935D01*
X107714328Y-84220701D01*
X107770345Y-84023821D01*
X107789232Y-83820000D01*
X107770345Y-83616179D01*
X107714328Y-83419299D01*
X107623088Y-83236065D01*
X107582538Y-83182368D01*
X107499733Y-83072715D01*
X107348463Y-82934814D01*
X107174433Y-82827059D01*
X107174428Y-82827057D01*
X107174427Y-82827056D01*
X106983559Y-82753113D01*
X106983560Y-82753113D01*
X106983557Y-82753112D01*
X106983556Y-82753112D01*
X106782347Y-82715500D01*
X106577653Y-82715500D01*
X106376444Y-82753112D01*
X106376439Y-82753113D01*
X106185577Y-82827054D01*
X106185566Y-82827059D01*
X106011536Y-82934814D01*
X105860266Y-83072715D01*
X105736913Y-83236063D01*
X105645671Y-83419301D01*
X105589654Y-83616180D01*
X105570768Y-83819995D01*
X105570768Y-83820004D01*
X96901500Y-83820004D01*
X96901500Y-78089016D01*
X97403554Y-78089016D01*
X97406110Y-78109518D01*
X97408016Y-78124809D01*
X97408500Y-78132600D01*
X97408500Y-78136615D01*
X97408499Y-78136615D01*
X97412403Y-78160003D01*
X97419303Y-78215357D01*
X97421588Y-78223032D01*
X97424180Y-78230582D01*
X97424181Y-78230585D01*
X97424182Y-78230586D01*
X97450729Y-78279641D01*
X97455140Y-78288663D01*
X97475225Y-78329748D01*
X97479868Y-78336251D01*
X97484782Y-78342565D01*
X97525819Y-78380341D01*
X100185072Y-81039595D01*
X100219098Y-81101907D01*
X100221185Y-81142797D01*
X100205726Y-81279999D01*
X100205726Y-81280000D01*
X100224763Y-81448954D01*
X100280917Y-81609437D01*
X100280918Y-81609437D01*
X100280919Y-81609439D01*
X100371375Y-81753399D01*
X100371377Y-81753402D01*
X100491597Y-81873622D01*
X100491600Y-81873624D01*
X100635563Y-81964082D01*
X100796046Y-82020237D01*
X100965000Y-82039274D01*
X101003847Y-82034895D01*
X101010909Y-82034499D01*
X101494064Y-82034499D01*
X101494066Y-82034499D01*
X101494069Y-82034498D01*
X101494072Y-82034498D01*
X101530341Y-82027284D01*
X101568301Y-82019734D01*
X101568301Y-82019733D01*
X101575419Y-82018318D01*
X101624581Y-82018318D01*
X101631698Y-82019733D01*
X101631699Y-82019734D01*
X101705933Y-82034500D01*
X102189078Y-82034499D01*
X102196135Y-82034894D01*
X102235000Y-82039274D01*
X102403954Y-82020237D01*
X102564437Y-81964082D01*
X102708400Y-81873624D01*
X102828624Y-81753400D01*
X102849319Y-81720463D01*
X102902497Y-81673426D01*
X102956006Y-81661500D01*
X105558095Y-81661500D01*
X105626216Y-81681502D01*
X105670885Y-81731337D01*
X105736908Y-81863930D01*
X105736912Y-81863935D01*
X105860266Y-82027284D01*
X106011536Y-82165185D01*
X106185566Y-82272940D01*
X106185568Y-82272940D01*
X106185573Y-82272944D01*
X106376444Y-82346888D01*
X106577653Y-82384500D01*
X106577655Y-82384500D01*
X106782345Y-82384500D01*
X106782347Y-82384500D01*
X106983556Y-82346888D01*
X107174427Y-82272944D01*
X107348462Y-82165186D01*
X107499732Y-82027285D01*
X107505055Y-82020237D01*
X107521429Y-81998553D01*
X107623088Y-81863935D01*
X107714328Y-81680701D01*
X107770345Y-81483821D01*
X107789232Y-81280000D01*
X107770345Y-81076179D01*
X107714328Y-80879299D01*
X107623088Y-80696065D01*
X107582538Y-80642368D01*
X107499733Y-80532715D01*
X107348463Y-80394814D01*
X107174433Y-80287059D01*
X107174428Y-80287057D01*
X107174427Y-80287056D01*
X106983559Y-80213113D01*
X106983560Y-80213113D01*
X106983557Y-80213112D01*
X106983556Y-80213112D01*
X106782347Y-80175500D01*
X106577653Y-80175500D01*
X106376444Y-80213112D01*
X106376439Y-80213113D01*
X106185577Y-80287054D01*
X106185566Y-80287059D01*
X106011536Y-80394814D01*
X105860266Y-80532715D01*
X105736912Y-80696064D01*
X105736908Y-80696069D01*
X105670885Y-80828663D01*
X105622616Y-80880727D01*
X105558095Y-80898500D01*
X102956006Y-80898500D01*
X102887885Y-80878498D01*
X102849319Y-80839536D01*
X102828623Y-80806599D01*
X102828620Y-80806595D01*
X102708402Y-80686377D01*
X102708399Y-80686375D01*
X102564439Y-80595919D01*
X102564437Y-80595918D01*
X102403954Y-80539763D01*
X102235000Y-80520726D01*
X102234999Y-80520726D01*
X102218499Y-80522585D01*
X102196142Y-80525104D01*
X102189086Y-80525500D01*
X101705936Y-80525500D01*
X101705926Y-80525501D01*
X101624580Y-80541682D01*
X101575418Y-80541682D01*
X101568301Y-80540266D01*
X101537548Y-80534148D01*
X101494069Y-80525500D01*
X101494067Y-80525500D01*
X101010917Y-80525500D01*
X101003864Y-80525104D01*
X100965000Y-80520726D01*
X100964999Y-80520726D01*
X100827796Y-80536185D01*
X100757864Y-80523935D01*
X100724594Y-80500072D01*
X98208405Y-77983882D01*
X98174379Y-77921570D01*
X98171500Y-77894787D01*
X98171500Y-75775211D01*
X98191502Y-75707090D01*
X98208400Y-75686121D01*
X100562542Y-73331978D01*
X100582718Y-73315594D01*
X100591956Y-73309560D01*
X100614114Y-73281089D01*
X100619282Y-73275238D01*
X100622113Y-73272409D01*
X100635891Y-73253110D01*
X100670158Y-73209085D01*
X100670158Y-73209082D01*
X100673957Y-73202064D01*
X100677471Y-73194874D01*
X100677475Y-73194870D01*
X100680026Y-73186300D01*
X100693391Y-73141410D01*
X100711499Y-73088664D01*
X100712819Y-73080749D01*
X100713805Y-73072843D01*
X100711500Y-73017116D01*
X100711500Y-48912583D01*
X100731502Y-48844462D01*
X100753946Y-48818271D01*
X100753947Y-48818270D01*
X100857052Y-48726927D01*
X100953480Y-48587227D01*
X101013673Y-48428510D01*
X101034134Y-48260000D01*
X101013673Y-48091490D01*
X100953480Y-47932773D01*
X100857052Y-47793073D01*
X100729994Y-47680509D01*
X100729993Y-47680508D01*
X100729989Y-47680506D01*
X100579687Y-47601622D01*
X100414875Y-47561000D01*
X100414874Y-47561000D01*
X100245126Y-47561000D01*
X100245124Y-47561000D01*
X100080312Y-47601622D01*
X99930010Y-47680506D01*
X99930006Y-47680508D01*
X99802948Y-47793073D01*
X99706521Y-47932770D01*
X99646326Y-48091492D01*
X99625866Y-48259997D01*
X99625866Y-48260000D01*
X99646326Y-48428507D01*
X99706521Y-48587229D01*
X99740787Y-48636871D01*
X99802948Y-48726927D01*
X99906053Y-48818270D01*
X99943778Y-48878414D01*
X99948499Y-48912582D01*
X99948499Y-72814787D01*
X99928497Y-72882908D01*
X99911594Y-72903882D01*
X97557455Y-75258020D01*
X97537282Y-75274404D01*
X97528041Y-75280441D01*
X97505896Y-75308893D01*
X97500736Y-75314738D01*
X97497892Y-75317583D01*
X97484099Y-75336900D01*
X97449840Y-75380916D01*
X97446030Y-75387958D01*
X97442524Y-75395129D01*
X97426610Y-75448586D01*
X97408499Y-75501339D01*
X97407184Y-75509218D01*
X97406194Y-75517160D01*
X97408500Y-75572884D01*
X97408500Y-78052366D01*
X97405818Y-78078223D01*
X97403554Y-78089016D01*
X96901500Y-78089016D01*
X96901500Y-75140211D01*
X96921502Y-75072090D01*
X96938400Y-75051120D01*
X98022542Y-73966978D01*
X98042718Y-73950594D01*
X98051956Y-73944560D01*
X98074114Y-73916089D01*
X98079282Y-73910238D01*
X98082113Y-73907409D01*
X98095891Y-73888110D01*
X98130158Y-73844085D01*
X98130158Y-73844082D01*
X98133957Y-73837064D01*
X98137471Y-73829874D01*
X98137475Y-73829870D01*
X98140025Y-73821300D01*
X98153391Y-73776410D01*
X98171499Y-73723664D01*
X98172819Y-73715749D01*
X98173805Y-73707843D01*
X98171500Y-73652116D01*
X98171500Y-47200212D01*
X98191502Y-47132091D01*
X98208400Y-47111121D01*
X98865220Y-46454300D01*
X98927531Y-46420277D01*
X98969515Y-46418317D01*
X98975117Y-46418997D01*
X98975126Y-46419000D01*
X98975135Y-46419000D01*
X99144873Y-46419000D01*
X99144874Y-46419000D01*
X99309689Y-46378377D01*
X99459994Y-46299491D01*
X99587052Y-46186927D01*
X99683480Y-46047227D01*
X99743673Y-45888510D01*
X99764134Y-45720000D01*
X99743673Y-45551490D01*
X99683480Y-45392773D01*
X99587052Y-45253073D01*
X99459994Y-45140509D01*
X99459993Y-45140508D01*
X99459989Y-45140506D01*
X99309687Y-45061622D01*
X99144875Y-45021000D01*
X99144874Y-45021000D01*
X98975126Y-45021000D01*
X98975124Y-45021000D01*
X98810312Y-45061622D01*
X98660010Y-45140506D01*
X98660006Y-45140508D01*
X98532948Y-45253073D01*
X98436521Y-45392770D01*
X98376326Y-45551492D01*
X98355866Y-45719997D01*
X98355866Y-45720001D01*
X98366294Y-45805884D01*
X98354649Y-45875919D01*
X98330308Y-45910168D01*
X97557452Y-46683023D01*
X97537279Y-46699406D01*
X97528041Y-46705441D01*
X97505896Y-46733893D01*
X97500736Y-46739738D01*
X97497892Y-46742583D01*
X97497887Y-46742589D01*
X97497886Y-46742591D01*
X97487274Y-46757454D01*
X97484099Y-46761900D01*
X97449840Y-46805916D01*
X97446030Y-46812958D01*
X97442524Y-46820129D01*
X97426610Y-46873586D01*
X97408499Y-46926339D01*
X97407184Y-46934218D01*
X97406194Y-46942160D01*
X97408500Y-46997884D01*
X97408499Y-73449786D01*
X97388497Y-73517907D01*
X97371594Y-73538881D01*
X96287455Y-74623020D01*
X96267282Y-74639404D01*
X96258041Y-74645441D01*
X96235896Y-74673893D01*
X96230736Y-74679738D01*
X96227892Y-74682583D01*
X96214099Y-74701900D01*
X96179840Y-74745916D01*
X96176030Y-74752958D01*
X96172524Y-74760129D01*
X96156610Y-74813586D01*
X96138499Y-74866339D01*
X96137184Y-74874218D01*
X96136194Y-74882160D01*
X96138500Y-74937884D01*
X96138500Y-87577366D01*
X96135818Y-87603225D01*
X96133554Y-87614017D01*
X90551500Y-87614017D01*
X90551500Y-73621469D01*
X90571502Y-73553348D01*
X90625158Y-73506855D01*
X90640906Y-73500900D01*
X90810265Y-73449527D01*
X90984770Y-73356252D01*
X91137725Y-73230725D01*
X91263252Y-73077770D01*
X91323473Y-72965103D01*
X91373225Y-72914456D01*
X91434595Y-72898500D01*
X95070366Y-72898500D01*
X95096224Y-72901181D01*
X95107017Y-72903445D01*
X95142809Y-72898983D01*
X95150600Y-72898500D01*
X95154611Y-72898500D01*
X95178005Y-72894596D01*
X95185887Y-72893613D01*
X95233360Y-72887696D01*
X95233362Y-72887694D01*
X95241011Y-72885417D01*
X95248584Y-72882818D01*
X95248586Y-72882818D01*
X95297641Y-72856270D01*
X95347746Y-72831776D01*
X95347750Y-72831771D01*
X95354266Y-72827120D01*
X95360562Y-72822220D01*
X95398341Y-72781180D01*
X96117543Y-72061979D01*
X96137717Y-72045595D01*
X96146956Y-72039560D01*
X96169103Y-72011103D01*
X96174271Y-72005250D01*
X96177114Y-72002409D01*
X96190898Y-71983101D01*
X96225158Y-71939085D01*
X96225159Y-71939079D01*
X96228950Y-71932076D01*
X96232471Y-71924873D01*
X96232475Y-71924869D01*
X96241823Y-71893468D01*
X96248389Y-71871416D01*
X96266498Y-71818666D01*
X96266500Y-71818661D01*
X96266500Y-71818654D01*
X96267819Y-71810752D01*
X96268805Y-71802842D01*
X96266500Y-71747115D01*
X96266500Y-45137634D01*
X96269182Y-45111774D01*
X96271445Y-45100984D01*
X96266983Y-45065190D01*
X96266500Y-45057400D01*
X96266500Y-45053394D01*
X96266500Y-45053389D01*
X96262595Y-45029993D01*
X96255696Y-44974640D01*
X96255694Y-44974635D01*
X96253423Y-44967007D01*
X96250818Y-44959419D01*
X96250818Y-44959414D01*
X96224270Y-44910358D01*
X96199776Y-44860254D01*
X96199773Y-44860251D01*
X96199773Y-44860250D01*
X96195127Y-44853742D01*
X96190219Y-44847436D01*
X96149180Y-44809658D01*
X94286980Y-42947457D01*
X94270591Y-42927276D01*
X94264560Y-42918044D01*
X94236103Y-42895895D01*
X94230245Y-42890722D01*
X94227413Y-42887890D01*
X94227402Y-42887880D01*
X94208099Y-42874099D01*
X94164086Y-42839842D01*
X94157064Y-42836042D01*
X94149872Y-42832526D01*
X94149870Y-42832525D01*
X94149867Y-42832524D01*
X94096412Y-42816609D01*
X94043664Y-42798501D01*
X94043663Y-42798500D01*
X94043661Y-42798500D01*
X94043658Y-42798500D01*
X94035750Y-42797180D01*
X94030549Y-42796532D01*
X94025510Y-42794344D01*
X94021195Y-42793713D01*
X93998894Y-42797392D01*
X93972116Y-42798500D01*
X87330293Y-42798500D01*
X87262172Y-42778498D01*
X87215679Y-42724842D01*
X87213917Y-42720796D01*
X87213502Y-42719796D01*
X87205865Y-42649212D01*
X87237602Y-42585703D01*
X87298635Y-42549435D01*
X87329878Y-42545500D01*
X93993686Y-42545500D01*
X94015766Y-42551983D01*
X94025864Y-42547141D01*
X94046135Y-42545500D01*
X100373788Y-42545500D01*
X100441909Y-42565502D01*
X100462883Y-42582405D01*
X102451594Y-44571116D01*
X102485620Y-44633428D01*
X102488499Y-44660211D01*
X102488499Y-72179786D01*
X102468497Y-72247907D01*
X102451594Y-72268881D01*
X98827455Y-75893020D01*
X98807282Y-75909404D01*
X98798041Y-75915441D01*
X98775896Y-75943893D01*
X98770736Y-75949738D01*
X98767892Y-75952583D01*
X98754099Y-75971900D01*
X98719840Y-76015916D01*
X98716030Y-76022958D01*
X98712524Y-76030129D01*
X98696610Y-76083586D01*
X98678499Y-76136339D01*
X98677185Y-76144209D01*
X98676194Y-76152163D01*
X98678499Y-76207884D01*
X98678499Y-77417366D01*
X98675818Y-77443218D01*
X98673554Y-77454014D01*
X98673554Y-77454015D01*
X98675941Y-77473160D01*
X98678016Y-77489809D01*
X98678500Y-77497600D01*
X98678500Y-77501615D01*
X98678499Y-77501615D01*
X98682403Y-77525003D01*
X98689303Y-77580357D01*
X98691588Y-77588032D01*
X98694180Y-77595582D01*
X98694181Y-77595585D01*
X98694182Y-77595586D01*
X98720729Y-77644641D01*
X98734648Y-77673112D01*
X98745225Y-77694748D01*
X98749868Y-77701251D01*
X98754782Y-77707565D01*
X98795819Y-77745341D01*
X100023016Y-78972538D01*
X100039402Y-78992715D01*
X100045437Y-79001952D01*
X100045440Y-79001956D01*
X100073437Y-79023747D01*
X100073900Y-79024107D01*
X100079757Y-79029280D01*
X100082584Y-79032107D01*
X100082591Y-79032113D01*
X100101889Y-79045891D01*
X100145915Y-79080158D01*
X100145917Y-79080158D01*
X100152955Y-79083968D01*
X100160127Y-79087473D01*
X100160130Y-79087475D01*
X100192836Y-79097211D01*
X100213590Y-79103391D01*
X100276214Y-79124891D01*
X100275524Y-79126900D01*
X100327238Y-79151941D01*
X100349286Y-79178244D01*
X100371378Y-79213403D01*
X100491597Y-79333622D01*
X100491600Y-79333624D01*
X100635563Y-79424082D01*
X100796046Y-79480237D01*
X100965000Y-79499274D01*
X101003847Y-79494895D01*
X101010909Y-79494499D01*
X101494064Y-79494499D01*
X101494066Y-79494499D01*
X101494069Y-79494498D01*
X101494072Y-79494498D01*
X101530341Y-79487284D01*
X101568301Y-79479734D01*
X101568301Y-79479733D01*
X101575419Y-79478318D01*
X101624581Y-79478318D01*
X101631698Y-79479733D01*
X101631699Y-79479734D01*
X101705933Y-79494500D01*
X102189078Y-79494499D01*
X102196135Y-79494894D01*
X102235000Y-79499274D01*
X102403954Y-79480237D01*
X102564437Y-79424082D01*
X102708400Y-79333624D01*
X102828624Y-79213400D01*
X102849319Y-79180463D01*
X102902497Y-79133426D01*
X102956006Y-79121500D01*
X105558095Y-79121500D01*
X105626216Y-79141502D01*
X105670885Y-79191337D01*
X105736908Y-79323930D01*
X105736912Y-79323935D01*
X105860266Y-79487284D01*
X106011536Y-79625185D01*
X106185566Y-79732940D01*
X106185568Y-79732940D01*
X106185573Y-79732944D01*
X106376444Y-79806888D01*
X106577653Y-79844500D01*
X106577655Y-79844500D01*
X106782345Y-79844500D01*
X106782347Y-79844500D01*
X106983556Y-79806888D01*
X107174427Y-79732944D01*
X107348462Y-79625186D01*
X107499732Y-79487285D01*
X107505055Y-79480237D01*
X107521429Y-79458553D01*
X107623088Y-79323935D01*
X107714328Y-79140701D01*
X107770345Y-78943821D01*
X107789232Y-78740000D01*
X107770345Y-78536179D01*
X107714328Y-78339299D01*
X107623088Y-78156065D01*
X107554646Y-78065433D01*
X107499733Y-77992715D01*
X107348463Y-77854814D01*
X107174433Y-77747059D01*
X107174428Y-77747057D01*
X107174427Y-77747056D01*
X107170000Y-77745341D01*
X106983559Y-77673113D01*
X106983560Y-77673113D01*
X106983557Y-77673112D01*
X106983556Y-77673112D01*
X106782347Y-77635500D01*
X106577653Y-77635500D01*
X106376444Y-77673112D01*
X106376439Y-77673113D01*
X106185577Y-77747054D01*
X106185566Y-77747059D01*
X106011536Y-77854814D01*
X105860266Y-77992715D01*
X105736912Y-78156064D01*
X105736908Y-78156069D01*
X105670885Y-78288663D01*
X105622616Y-78340727D01*
X105558095Y-78358500D01*
X102956006Y-78358500D01*
X102887885Y-78338498D01*
X102849319Y-78299536D01*
X102828623Y-78266599D01*
X102828620Y-78266595D01*
X102708402Y-78146377D01*
X102708399Y-78146375D01*
X102564439Y-78055919D01*
X102564437Y-78055918D01*
X102554286Y-78052366D01*
X102403954Y-77999763D01*
X102235000Y-77980726D01*
X102234999Y-77980726D01*
X102218499Y-77982585D01*
X102196142Y-77985104D01*
X102189086Y-77985500D01*
X101705936Y-77985500D01*
X101705926Y-77985501D01*
X101624580Y-78001682D01*
X101575418Y-78001682D01*
X101568301Y-78000266D01*
X101537548Y-77994148D01*
X101494069Y-77985500D01*
X101494067Y-77985500D01*
X101010917Y-77985500D01*
X101003864Y-77985104D01*
X100965000Y-77980726D01*
X100796046Y-77999763D01*
X100796043Y-77999763D01*
X100796043Y-77999764D01*
X100635562Y-78055918D01*
X100635560Y-78055919D01*
X100491600Y-78146375D01*
X100491599Y-78146375D01*
X100472840Y-78165134D01*
X100410526Y-78199157D01*
X100339711Y-78194089D01*
X100294653Y-78165130D01*
X99478405Y-77348882D01*
X99444379Y-77286570D01*
X99441500Y-77259787D01*
X99441500Y-76410212D01*
X99461502Y-76342091D01*
X99478405Y-76321117D01*
X99599518Y-76200004D01*
X105570768Y-76200004D01*
X105589654Y-76403819D01*
X105589655Y-76403821D01*
X105645672Y-76600701D01*
X105736912Y-76783935D01*
X105736913Y-76783936D01*
X105860266Y-76947284D01*
X106011536Y-77085185D01*
X106185566Y-77192940D01*
X106185568Y-77192940D01*
X106185573Y-77192944D01*
X106376444Y-77266888D01*
X106577653Y-77304500D01*
X106577655Y-77304500D01*
X106782345Y-77304500D01*
X106782347Y-77304500D01*
X106983556Y-77266888D01*
X107174427Y-77192944D01*
X107348462Y-77085186D01*
X107499732Y-76947285D01*
X107623088Y-76783935D01*
X107714328Y-76600701D01*
X107770345Y-76403821D01*
X107778009Y-76321117D01*
X107789232Y-76200004D01*
X107789232Y-76199995D01*
X107770345Y-75996180D01*
X107747373Y-75915441D01*
X107714328Y-75799299D01*
X107623088Y-75616065D01*
X107542551Y-75509416D01*
X107499733Y-75452715D01*
X107348463Y-75314814D01*
X107174433Y-75207059D01*
X107174428Y-75207057D01*
X107174427Y-75207056D01*
X106983559Y-75133113D01*
X106983560Y-75133113D01*
X106983557Y-75133112D01*
X106983556Y-75133112D01*
X106782347Y-75095500D01*
X106577653Y-75095500D01*
X106376444Y-75133112D01*
X106376439Y-75133113D01*
X106185577Y-75207054D01*
X106185566Y-75207059D01*
X106011536Y-75314814D01*
X105860266Y-75452715D01*
X105736913Y-75616063D01*
X105645671Y-75799301D01*
X105589654Y-75996180D01*
X105570768Y-76199995D01*
X105570768Y-76200004D01*
X99599518Y-76200004D01*
X101254337Y-74545185D01*
X102139518Y-73660004D01*
X105570768Y-73660004D01*
X105589654Y-73863819D01*
X105602858Y-73910226D01*
X105645672Y-74060701D01*
X105736912Y-74243935D01*
X105736913Y-74243936D01*
X105860266Y-74407284D01*
X106011536Y-74545185D01*
X106185566Y-74652940D01*
X106185568Y-74652940D01*
X106185573Y-74652944D01*
X106376444Y-74726888D01*
X106577653Y-74764500D01*
X106577655Y-74764500D01*
X106782345Y-74764500D01*
X106782347Y-74764500D01*
X106983556Y-74726888D01*
X107174427Y-74652944D01*
X107348462Y-74545186D01*
X107499732Y-74407285D01*
X107623088Y-74243935D01*
X107714328Y-74060701D01*
X107770345Y-73863821D01*
X107784066Y-73715749D01*
X107789232Y-73660004D01*
X107789232Y-73659995D01*
X107770345Y-73456180D01*
X107728628Y-73309559D01*
X107714328Y-73259299D01*
X107623088Y-73076065D01*
X107578572Y-73017116D01*
X107499733Y-72912715D01*
X107348463Y-72774814D01*
X107174433Y-72667059D01*
X107174428Y-72667057D01*
X107174427Y-72667056D01*
X107105202Y-72640238D01*
X106983559Y-72593113D01*
X106983560Y-72593113D01*
X106983557Y-72593112D01*
X106983556Y-72593112D01*
X106782347Y-72555500D01*
X106577653Y-72555500D01*
X106376444Y-72593112D01*
X106376439Y-72593113D01*
X106185577Y-72667054D01*
X106185566Y-72667059D01*
X106011536Y-72774814D01*
X105860266Y-72912715D01*
X105736913Y-73076063D01*
X105645671Y-73259301D01*
X105589654Y-73456180D01*
X105570768Y-73659995D01*
X105570768Y-73660004D01*
X102139518Y-73660004D01*
X103102545Y-72696976D01*
X103122721Y-72680593D01*
X103131956Y-72674560D01*
X103154103Y-72646103D01*
X103159271Y-72640250D01*
X103162114Y-72637409D01*
X103175898Y-72618101D01*
X103210158Y-72574085D01*
X103210159Y-72574079D01*
X103213950Y-72567076D01*
X103217471Y-72559873D01*
X103217475Y-72559869D01*
X103230237Y-72517002D01*
X103233389Y-72506416D01*
X103251498Y-72453666D01*
X103251500Y-72453661D01*
X103251500Y-72453654D01*
X103252819Y-72445752D01*
X103253805Y-72437842D01*
X103251500Y-72382115D01*
X103251500Y-71995063D01*
X105575500Y-71995063D01*
X105575501Y-71995073D01*
X105590265Y-72069300D01*
X105646516Y-72153484D01*
X105730697Y-72209733D01*
X105730699Y-72209734D01*
X105804933Y-72224500D01*
X107555066Y-72224499D01*
X107555069Y-72224498D01*
X107555073Y-72224498D01*
X107604326Y-72214701D01*
X107629301Y-72209734D01*
X107713484Y-72153484D01*
X107769734Y-72069301D01*
X107784500Y-71995067D01*
X107784499Y-70244934D01*
X107784498Y-70244930D01*
X107784498Y-70244926D01*
X107769734Y-70170699D01*
X107740572Y-70127056D01*
X107713484Y-70086516D01*
X107713483Y-70086515D01*
X107629302Y-70030266D01*
X107555067Y-70015500D01*
X105804936Y-70015500D01*
X105804926Y-70015501D01*
X105730699Y-70030265D01*
X105646515Y-70086516D01*
X105590266Y-70170697D01*
X105575500Y-70244930D01*
X105575500Y-71995063D01*
X103251500Y-71995063D01*
X103251500Y-58446773D01*
X103251499Y-44502634D01*
X103254182Y-44476773D01*
X103256445Y-44465983D01*
X103251983Y-44430189D01*
X103251500Y-44422400D01*
X103251500Y-44418388D01*
X103247596Y-44394995D01*
X103240696Y-44339639D01*
X103238426Y-44332013D01*
X103235818Y-44324419D01*
X103235818Y-44324414D01*
X103209270Y-44275358D01*
X103184776Y-44225254D01*
X103184773Y-44225251D01*
X103184773Y-44225250D01*
X103180127Y-44218742D01*
X103175219Y-44212436D01*
X103134180Y-44174658D01*
X100890980Y-41931457D01*
X100874591Y-41911276D01*
X100868560Y-41902044D01*
X100840103Y-41879895D01*
X100834245Y-41874722D01*
X100831413Y-41871890D01*
X100831402Y-41871880D01*
X100812099Y-41858099D01*
X100768086Y-41823842D01*
X100761064Y-41820042D01*
X100753872Y-41816526D01*
X100753870Y-41816525D01*
X100753867Y-41816524D01*
X100700412Y-41800609D01*
X100647664Y-41782501D01*
X100647663Y-41782500D01*
X100647661Y-41782500D01*
X100647658Y-41782500D01*
X100639748Y-41781179D01*
X100631842Y-41780194D01*
X100576116Y-41782500D01*
X84506634Y-41782500D01*
X84480775Y-41779818D01*
X84469983Y-41777555D01*
X84434192Y-41782016D01*
X84426402Y-41782500D01*
X84422389Y-41782500D01*
X84398983Y-41786405D01*
X84394388Y-41786977D01*
X84343644Y-41793303D01*
X84335932Y-41795600D01*
X84328417Y-41798180D01*
X84279353Y-41824731D01*
X84229253Y-41849224D01*
X84222743Y-41853872D01*
X84216437Y-41858780D01*
X84178658Y-41899819D01*
X83587452Y-42491023D01*
X83567279Y-42507406D01*
X83558041Y-42513441D01*
X83535896Y-42541893D01*
X83530736Y-42547738D01*
X83527892Y-42550583D01*
X83514099Y-42569900D01*
X83479840Y-42613916D01*
X83474878Y-42623087D01*
X83474004Y-42622614D01*
X83473550Y-42623111D01*
X83466926Y-42635970D01*
X83466825Y-42636113D01*
X83463681Y-42633892D01*
X83428677Y-42672135D01*
X83360037Y-42690276D01*
X83292486Y-42668428D01*
X83258701Y-42634324D01*
X83253484Y-42626516D01*
X83253482Y-42626515D01*
X83253482Y-42626514D01*
X83169302Y-42570266D01*
X83095067Y-42555500D01*
X80644936Y-42555500D01*
X80644926Y-42555501D01*
X80570699Y-42570265D01*
X80486515Y-42626516D01*
X80430267Y-42710695D01*
X80426117Y-42720716D01*
X80381569Y-42775998D01*
X80314206Y-42798420D01*
X80309707Y-42798500D01*
X78792635Y-42798500D01*
X78766776Y-42795818D01*
X78755982Y-42793554D01*
X78733788Y-42796321D01*
X78720189Y-42798016D01*
X78712401Y-42798500D01*
X78708389Y-42798500D01*
X78690842Y-42801428D01*
X78684992Y-42802404D01*
X78629642Y-42809303D01*
X78621974Y-42811586D01*
X78614414Y-42814181D01*
X78565369Y-42840722D01*
X78515255Y-42865222D01*
X78508760Y-42869859D01*
X78502436Y-42874781D01*
X78464668Y-42915808D01*
X77872455Y-43508020D01*
X77852282Y-43524404D01*
X77843041Y-43530441D01*
X77820896Y-43558893D01*
X77815736Y-43564738D01*
X77812892Y-43567583D01*
X77799099Y-43586900D01*
X77764840Y-43630916D01*
X77761030Y-43637958D01*
X77757524Y-43645129D01*
X77741610Y-43698586D01*
X77723499Y-43751339D01*
X77722184Y-43759218D01*
X77721194Y-43767160D01*
X77723500Y-43822884D01*
X77723500Y-55192366D01*
X77720818Y-55218223D01*
X77718554Y-55229016D01*
X76835000Y-55229016D01*
X76835000Y-41401000D01*
X76855002Y-41332879D01*
X76908658Y-41286386D01*
X76961000Y-41275000D01*
X104014000Y-41275000D01*
X104082121Y-41295002D01*
G37*
%TD.AperFunction*%
%TD*%
M02*
