M48
; DRILL file {KiCad 7.0.6} date Sat Nov 11 00:06:32 2023
; FORMAT={-:-/ absolute / metric / decimal}
; #@! TF.CreationDate,2023-11-11T00:06:32-05:00
; #@! TF.GenerationSoftware,Kicad,Pcbnew,7.0.6
; #@! TF.FileFunction,MixedPlating,1,2
FMAT,2
METRIC
; #@! TA.AperFunction,Plated,PTH,ViaDrill
T1C0.381
; #@! TA.AperFunction,Plated,PTH,ComponentDrill
T2C0.740
; #@! TA.AperFunction,Plated,PTH,ComponentDrill
T3C1.000
%
G90
G05
T1
X80.01Y-50.165
X80.01Y-52.07
X81.28Y-53.975
X83.185Y-54.61
X85.725Y-54.61
X88.265Y-54.61
X88.265Y-67.31
X88.9Y-45.72
X88.9Y-48.26
X89.535Y-65.405
X90.17Y-44.45
X90.17Y-46.99
X92.075Y-50.165
X92.075Y-52.705
X92.075Y-55.245
X92.075Y-57.785
X92.075Y-60.325
X92.075Y-62.865
X92.075Y-65.405
X92.71Y-44.45
X92.71Y-76.2
X92.71Y-78.74
X92.71Y-81.28
X92.71Y-83.82
X92.71Y-86.36
X92.71Y-88.9
X92.71Y-91.44
X94.615Y-46.99
X94.615Y-50.165
X94.615Y-52.705
X94.615Y-55.245
X94.615Y-57.785
X94.615Y-60.325
X94.615Y-62.865
X94.615Y-65.405
X94.615Y-67.945
X95.25Y-43.18
X95.25Y-76.2
X95.25Y-78.74
X95.25Y-81.28
X95.25Y-83.82
X95.25Y-86.36
X95.25Y-88.9
X95.25Y-91.44
X97.155Y-43.18
X97.79Y-81.28
X97.79Y-83.82
X97.79Y-86.36
X97.79Y-91.44
X99.06Y-43.18
X99.06Y-45.72
X99.06Y-50.8
X99.06Y-53.34
X99.06Y-55.88
X99.06Y-58.42
X99.06Y-60.96
X99.06Y-63.5
X99.06Y-66.04
X99.06Y-68.58
X99.06Y-71.12
X100.33Y-48.26
X100.33Y-83.82
X100.33Y-86.36
X100.33Y-91.44
X100.965Y-44.45
X101.6Y-46.355
X101.6Y-48.26
X101.6Y-50.8
X101.6Y-53.34
X101.6Y-55.88
X101.6Y-58.42
X101.6Y-60.96
X101.6Y-63.5
X101.6Y-66.04
X101.6Y-68.58
X101.6Y-71.12
X102.87Y-83.82
X102.87Y-86.36
X102.87Y-91.44
T2
X90.424Y-69.977
X90.424Y-72.517
T3
X86.36Y-60.96
X86.36Y-63.5
X86.36Y-66.04
X86.36Y-68.58
X86.36Y-71.12
X86.36Y-73.66
X86.36Y-76.2
X86.36Y-78.74
X86.36Y-81.28
X86.36Y-83.82
X86.36Y-86.36
X86.36Y-88.9
X86.36Y-91.44
X86.36Y-93.98
X86.36Y-96.52
X86.36Y-99.06
X106.68Y-71.12
X106.68Y-73.66
X106.68Y-76.2
X106.68Y-78.74
X106.68Y-81.28
X106.68Y-83.82
X106.68Y-86.36
X106.68Y-88.9
X106.68Y-91.44
X106.68Y-93.98
X106.68Y-96.52
X106.68Y-99.06
T0
M30
