%TF.GenerationSoftware,KiCad,Pcbnew,7.0.6*%
%TF.CreationDate,2023-11-11T00:05:15-05:00*%
%TF.ProjectId,CFL_EE_FeatherDebugShield,43464c5f-4545-45f4-9665-617468657244,v01b*%
%TF.SameCoordinates,Original*%
%TF.FileFunction,OtherDrawing,Comment*%
%FSLAX46Y46*%
G04 Gerber Fmt 4.6, Leading zero omitted, Abs format (unit mm)*
G04 Created by KiCad (PCBNEW 7.0.6) date 2023-11-11 00:05:15*
%MOMM*%
%LPD*%
G01*
G04 APERTURE LIST*
%ADD10C,0.050000*%
%ADD11C,0.150000*%
G04 APERTURE END LIST*
D10*
X100324260Y-56500573D02*
X100418062Y-56546979D01*
X93394809Y-57458102D02*
X93366590Y-57566230D01*
X93274083Y-57635191D02*
X93323283Y-57548628D01*
X92817747Y-57782790D02*
X92911270Y-57783400D01*
X87342810Y-54601135D02*
X87630000Y-54585006D01*
X99754842Y-57720154D02*
X99695229Y-57642506D01*
X85081128Y-103157274D02*
X85064999Y-102870000D01*
X85319014Y-56037099D02*
X85458153Y-55785334D01*
X106841290Y-55076420D02*
X106580915Y-54919016D01*
X107831052Y-56302834D02*
X107910681Y-56579237D01*
X92607155Y-57742938D02*
X92528669Y-57663385D01*
X99743336Y-56616041D02*
X99821949Y-56546979D01*
X86736540Y-54794125D02*
X86459085Y-54919016D01*
X98541637Y-55093006D02*
X99042322Y-54592322D01*
X85081128Y-105697274D02*
X85064999Y-105410000D01*
X85399009Y-106580940D02*
X85556413Y-106841290D01*
X100019993Y-57779996D02*
X100219993Y-57779996D01*
X105410000Y-107974892D02*
X87630000Y-107974892D01*
X93345000Y-57455003D02*
X93345000Y-56855004D01*
X100547932Y-57462064D02*
X100545011Y-57455003D01*
X99918317Y-57767957D02*
X100012932Y-57782943D01*
X93366590Y-57566230D02*
X93311345Y-57663385D01*
X85208938Y-103717090D02*
X85129309Y-103440738D01*
X93311345Y-56646597D02*
X93366590Y-56743752D01*
X106841290Y-107483656D02*
X107080812Y-107295950D01*
X85816270Y-55336262D02*
X86030750Y-55144594D01*
X99645191Y-56904534D02*
X99651795Y-56802249D01*
X100496649Y-56616041D02*
X100554688Y-56703112D01*
X92607155Y-57742938D02*
X92528669Y-57663385D01*
X85110988Y-57140323D02*
X85115001Y-57150000D01*
X107765875Y-56256530D02*
X107640984Y-55979085D01*
X85183617Y-106012996D02*
X85274135Y-106303572D01*
X87630000Y-54585006D02*
X93980000Y-54585006D01*
X100542141Y-56811342D02*
X100512550Y-56723839D01*
X107223738Y-55336262D02*
X107415406Y-55550740D01*
X100554688Y-56703112D02*
X100588216Y-56802249D01*
X92916908Y-57780199D02*
X92920007Y-57781038D01*
X93394378Y-56853480D02*
X93395013Y-56855004D01*
X87630000Y-105434892D02*
X87342810Y-105418890D01*
X100485169Y-57720154D02*
X100407495Y-57779768D01*
X105410000Y-54634994D02*
X99070363Y-54634994D01*
X107295950Y-107080812D02*
X107483580Y-106841290D01*
X92928719Y-56526608D02*
X92923106Y-56529808D01*
X105697198Y-107958890D02*
X105410000Y-107974892D01*
X93980000Y-54585006D02*
X93997678Y-54592322D01*
X99821949Y-56546979D02*
X99915726Y-56500573D01*
X93232834Y-57742938D02*
X93136415Y-57799453D01*
X92911270Y-57783400D02*
X92916908Y-57780199D01*
X100324260Y-56500573D02*
X100418062Y-56546979D01*
X100545011Y-57455003D02*
X100545011Y-56904992D01*
X92923182Y-57829755D02*
X92923106Y-57829806D01*
X92703574Y-57799453D02*
X92607155Y-57742938D01*
X100309121Y-56545048D02*
X100224539Y-56528132D01*
X86198706Y-107483656D02*
X86459085Y-107640882D01*
X85274135Y-56256530D02*
X85183617Y-56547029D01*
X100317046Y-57817233D02*
X100219993Y-57830009D01*
X107223738Y-55336262D02*
X107415406Y-55550740D01*
X85319014Y-56037099D02*
X85458153Y-55785334D01*
X105980763Y-105370630D02*
X105697198Y-105418890D01*
X92928719Y-57783400D02*
X93022242Y-57782790D01*
X92721760Y-57756374D02*
X92817747Y-57782790D01*
X85458153Y-55785334D02*
X85624601Y-55550740D01*
X92811346Y-57829069D02*
X92703574Y-57799453D01*
X105410000Y-105385108D02*
X105419677Y-105388918D01*
X99695000Y-56904992D02*
X99695000Y-57455003D01*
X107765875Y-103763572D02*
X107856376Y-103472996D01*
X93366590Y-56743752D02*
X93394809Y-56851906D01*
X106774666Y-107581954D02*
X106522901Y-107720892D01*
X100542141Y-56811342D02*
X100512550Y-56723839D01*
X107974994Y-57150000D02*
X107974994Y-102870000D01*
X92916908Y-56480202D02*
X92920007Y-56480202D01*
X107910681Y-56579237D02*
X107958865Y-56862802D01*
X92445205Y-56851906D02*
X92473424Y-56743752D01*
X100486210Y-57648399D02*
X100532946Y-57556679D01*
X85115001Y-102870000D02*
X85110988Y-102879652D01*
X92516706Y-57548628D02*
X92565931Y-57635191D01*
X92445002Y-56855004D02*
X92445637Y-56853480D01*
X100317046Y-57817233D02*
X100219993Y-57830009D01*
X92565931Y-56674817D02*
X92516706Y-56761355D01*
X105410000Y-105434892D02*
X87630000Y-105434892D01*
X85183617Y-103472996D02*
X85274135Y-103763572D01*
X99695000Y-56904992D02*
X99695000Y-57455003D01*
X86030750Y-107415330D02*
X85816270Y-107223814D01*
X86782834Y-107831128D02*
X86517088Y-107720892D01*
X100545341Y-56904179D02*
X100545062Y-56903341D01*
X107856376Y-56547029D02*
X107765875Y-56256530D01*
X100413414Y-57721221D02*
X100486210Y-57648399D01*
X85128773Y-105713784D02*
X85183617Y-106012996D01*
X106257166Y-54728948D02*
X106522901Y-54839006D01*
X93323283Y-57548628D02*
X93346676Y-57459042D01*
X92516706Y-56761355D02*
X92493338Y-56850966D01*
X92920007Y-56528945D02*
X92916908Y-56529808D01*
X107910681Y-56579237D02*
X107958865Y-56862802D01*
X85115001Y-105410000D02*
X85110988Y-105419652D01*
X106841290Y-104943656D02*
X107080812Y-104755950D01*
X87342810Y-105418890D02*
X87059234Y-105370630D01*
X99695000Y-57455003D02*
X99692079Y-57462064D01*
X100224539Y-56528132D02*
X100219993Y-56530011D01*
X85458153Y-55785334D02*
X85624601Y-55550740D01*
X93311345Y-57663385D02*
X93232834Y-57742938D01*
X100018342Y-56480050D02*
X100019180Y-56480329D01*
X99922940Y-57817233D02*
X99832490Y-57779768D01*
X86030750Y-55144594D02*
X86265338Y-54978148D01*
X86198706Y-104943656D02*
X86459085Y-105100882D01*
X92703574Y-56510555D02*
X92811346Y-56480913D01*
X93395013Y-57455003D02*
X93394378Y-57456527D01*
X100019993Y-57779996D02*
X100219993Y-57779996D01*
X92916832Y-57829755D02*
X92811346Y-57829069D01*
X92721760Y-56553608D02*
X92635857Y-56603951D01*
X92445002Y-56855004D02*
X92445637Y-56853480D01*
X92916908Y-57780199D02*
X92920007Y-57781038D01*
X99644987Y-57455003D02*
X99644987Y-56904992D01*
X86736540Y-105225850D02*
X87027022Y-105316274D01*
X92920007Y-57829780D02*
X92916908Y-57829806D01*
X100391925Y-56585993D02*
X100309121Y-56545048D01*
X107929020Y-105419652D02*
X107925006Y-105410000D01*
X107223738Y-107223814D02*
X107009260Y-107415330D01*
X105410000Y-107925108D02*
X105419677Y-107928918D01*
X92445637Y-57456527D02*
X92445002Y-57455003D01*
X87342810Y-107958890D02*
X87059234Y-107910630D01*
X100545062Y-56903341D02*
X100547703Y-56897956D01*
X106303470Y-105225850D02*
X106580915Y-105100882D01*
X106774666Y-54978148D02*
X107009260Y-55144594D01*
X99694949Y-56903341D02*
X99694670Y-56904179D01*
X87630000Y-105385108D02*
X105410000Y-105385108D01*
X106012971Y-107856274D02*
X106303470Y-107765850D01*
X86736540Y-107765850D02*
X87027022Y-107856274D01*
X85319014Y-103983028D02*
X85208938Y-103717090D01*
X85081128Y-56862802D02*
X85129309Y-56579237D01*
X87630000Y-54634994D02*
X87620315Y-54630980D01*
X92923106Y-56480202D02*
X92923182Y-56480227D01*
X93345000Y-56855004D02*
X93346676Y-56850966D01*
X100545011Y-56904992D02*
X100545341Y-56904179D01*
X99060000Y-54585006D02*
X105410000Y-54585006D01*
X100221669Y-56480050D02*
X100324260Y-56500573D01*
X85399009Y-55979085D02*
X85274135Y-56256530D01*
X100220831Y-56480329D02*
X100221669Y-56480050D01*
X87620315Y-107928918D02*
X87630000Y-107925108D01*
X100544757Y-57642506D02*
X100485169Y-57720154D01*
X93204132Y-57706031D02*
X93274083Y-57635191D01*
X92811346Y-56480913D02*
X92916832Y-56480227D01*
X93394809Y-56851906D02*
X93394378Y-56853480D01*
X107910681Y-105980738D02*
X107831052Y-106257090D01*
X99695229Y-57642506D02*
X99657789Y-57552057D01*
X92494989Y-57455003D02*
X92493338Y-57459042D01*
X100532946Y-57556679D02*
X100547932Y-57462064D01*
X100594998Y-56904992D02*
X100594998Y-57455003D01*
X92811346Y-56480913D02*
X92916832Y-56480227D01*
X85556413Y-55718710D02*
X85399009Y-55979085D01*
X93028668Y-56480913D02*
X93136415Y-56510555D01*
X85399009Y-55979085D02*
X85274135Y-56256530D01*
X100219993Y-57830009D02*
X100019993Y-57830009D01*
X85744055Y-55479188D02*
X85556413Y-55718710D01*
X85959198Y-55264050D02*
X85744055Y-55479188D01*
X93274083Y-56674817D02*
X93204132Y-56603951D01*
X93323283Y-56761355D02*
X93274083Y-56674817D01*
X99727461Y-56723839D02*
X99697870Y-56811342D01*
X87059234Y-54649319D02*
X87342810Y-54601135D01*
X93274083Y-57635191D02*
X93323283Y-57548628D01*
X98552000Y-55142994D02*
X94488000Y-55142994D01*
X85128773Y-56846292D02*
X85110988Y-57140323D01*
X93345000Y-57455003D02*
X93345000Y-56855004D01*
X107856376Y-103472996D02*
X107911214Y-103173784D01*
X86030750Y-55144594D02*
X86265338Y-54978148D01*
X93997678Y-54592322D02*
X94498363Y-55093006D01*
X106522901Y-54839006D02*
X106774666Y-54978148D01*
X100485169Y-57720154D02*
X100407495Y-57779768D01*
X107640984Y-55979085D02*
X107483580Y-55718710D01*
X100554688Y-56703112D02*
X100588216Y-56802249D01*
X105713708Y-107911138D02*
X106012971Y-107856274D01*
X85458153Y-106774742D02*
X85319014Y-106523028D01*
X92916908Y-57829806D02*
X92916832Y-57829755D01*
X92817747Y-56527217D02*
X92721760Y-56553608D01*
X105419677Y-105388918D02*
X105713708Y-105371138D01*
X92635857Y-56603951D02*
X92565931Y-56674817D01*
X92928719Y-56526608D02*
X92923106Y-56529808D01*
X93028668Y-56480913D02*
X93136415Y-56510555D01*
X85129309Y-103440738D02*
X85081128Y-103157274D01*
X100512550Y-56723839D02*
X100461318Y-56646978D01*
X87342810Y-54601135D02*
X87630000Y-54585006D01*
X100594998Y-57455003D02*
X100582222Y-57552057D01*
X100224539Y-56528132D02*
X100219993Y-56530011D01*
X106580915Y-105100882D02*
X106841290Y-104943656D01*
X99753801Y-57648399D02*
X99826597Y-57721221D01*
X85274135Y-103763572D02*
X85399009Y-104040940D01*
X86517088Y-54839006D02*
X86782834Y-54728948D01*
X106257166Y-105291128D02*
X105980763Y-105370630D01*
X100019180Y-56480329D02*
X100019993Y-56479999D01*
X99922940Y-57817233D02*
X99832490Y-57779768D01*
X107581852Y-104234742D02*
X107415406Y-104469184D01*
X85064999Y-105410000D02*
X85064999Y-57150000D01*
X92916908Y-56529808D02*
X92911270Y-56526608D01*
X93136415Y-57799453D02*
X93028668Y-57829069D01*
X99754842Y-57720154D02*
X99695229Y-57642506D01*
X93346676Y-57459042D02*
X93345000Y-57455003D01*
X107911214Y-56846292D02*
X107856376Y-56547029D01*
X93022242Y-57782790D02*
X93118254Y-57756374D01*
X87620315Y-105388918D02*
X87630000Y-105385108D01*
X93232834Y-56567070D02*
X93311345Y-56646597D01*
X86265338Y-54978148D02*
X86517088Y-54839006D01*
X85115001Y-57150000D02*
X85115001Y-102870000D01*
X99644987Y-56904992D02*
X99645191Y-56904534D01*
X107958865Y-103157274D02*
X107910681Y-103440738D01*
X107640984Y-55979085D02*
X107483580Y-55718710D01*
X107483580Y-55718710D02*
X107295950Y-55479188D01*
X85110988Y-105419652D02*
X85128773Y-105713784D01*
X98569678Y-55135678D02*
X98552000Y-55142994D01*
X92565931Y-57635191D02*
X92635857Y-57706031D01*
X100219993Y-56479999D02*
X100220831Y-56480329D01*
X92473424Y-56743752D02*
X92528669Y-56646597D01*
X99821949Y-56546979D02*
X99915726Y-56500573D01*
X99832490Y-57779768D02*
X99754842Y-57720154D01*
X92565931Y-56674817D02*
X92516706Y-56761355D01*
X99692079Y-57462064D02*
X99707065Y-57556679D01*
X86030750Y-104875330D02*
X85816270Y-104683814D01*
X92445205Y-57458102D02*
X92445637Y-57456527D01*
X99651795Y-56802249D02*
X99685297Y-56703112D01*
X100545011Y-57455003D02*
X100545011Y-56904992D01*
X93969637Y-54634994D02*
X87630000Y-54634994D01*
X99657789Y-57552057D02*
X99644987Y-57455003D01*
X105410000Y-54585006D02*
X105697198Y-54601135D01*
X86782834Y-54728948D02*
X87059234Y-54649319D01*
X93118254Y-56553608D02*
X93022242Y-56527217D01*
X99685297Y-56703112D02*
X99743336Y-56616041D01*
X100309121Y-56545048D02*
X100224539Y-56528132D01*
X107831052Y-103717090D02*
X107720994Y-103983028D01*
X99915726Y-56500573D02*
X100018342Y-56480050D01*
X93028668Y-57829069D02*
X92923182Y-57829755D01*
X87059234Y-107910630D02*
X86782834Y-107831128D01*
X106580915Y-54919016D02*
X106303470Y-54794125D01*
X93232834Y-57742938D02*
X93136415Y-57799453D01*
X106012971Y-54703624D02*
X105713708Y-54648786D01*
X107925006Y-105410000D02*
X107925006Y-57150000D01*
X100219993Y-57779996D02*
X100227079Y-57782943D01*
X85208938Y-56302834D02*
X85319014Y-56037099D01*
X93118254Y-57756374D02*
X93204132Y-57706031D01*
X87620315Y-54630980D02*
X87326295Y-54648786D01*
X85081128Y-56862802D02*
X85129309Y-56579237D01*
X107958865Y-56862802D02*
X107974994Y-57150000D01*
X92923106Y-57829806D02*
X92920007Y-57829780D01*
X93394809Y-56851906D02*
X93394378Y-56853480D01*
X100219993Y-57830009D02*
X100019993Y-57830009D01*
X94470322Y-55135678D02*
X93969637Y-54634994D01*
X92635857Y-57706031D02*
X92721760Y-57756374D01*
X85624601Y-55550740D02*
X85816270Y-55336262D01*
X87326295Y-54648786D02*
X87027022Y-54703624D01*
X100594998Y-57455003D02*
X100582222Y-57552057D01*
X99644987Y-56904992D02*
X99645191Y-56904534D01*
X99657789Y-57552057D02*
X99644987Y-57455003D01*
X107223738Y-104683814D02*
X107009260Y-104875330D01*
X107765875Y-56256530D02*
X107640984Y-55979085D01*
X86198706Y-55076420D02*
X85959198Y-55264050D01*
X107929020Y-102879652D02*
X107925006Y-102870000D01*
X93028668Y-57829069D02*
X92923182Y-57829755D01*
X100015472Y-56528132D02*
X99930890Y-56545048D01*
X93980000Y-54585006D02*
X93997678Y-54592322D01*
X92923182Y-56480227D02*
X93028668Y-56480913D01*
X106012971Y-105316274D02*
X106303470Y-105225850D01*
X94470322Y-55135678D02*
X93969637Y-54634994D01*
X85959198Y-107295950D02*
X86198706Y-107483656D01*
X92916832Y-56480227D02*
X92916908Y-56480202D01*
X93274083Y-56674817D02*
X93204132Y-56603951D01*
X100019180Y-56480329D02*
X100019993Y-56479999D01*
X93323283Y-57548628D02*
X93346676Y-57459042D01*
X87630000Y-107925108D02*
X105410000Y-107925108D01*
X92920007Y-57781038D02*
X92923106Y-57780199D01*
X93136415Y-56510555D02*
X93232834Y-56567070D01*
X99060000Y-54585006D02*
X105410000Y-54585006D01*
X92528669Y-57663385D02*
X92473424Y-57566230D01*
X107295950Y-55479188D02*
X107080812Y-55264050D01*
X87630000Y-54585006D02*
X93980000Y-54585006D01*
X107831052Y-56302834D02*
X107910681Y-56579237D01*
X100019993Y-56479999D02*
X100219993Y-56479999D01*
X100019993Y-56479999D02*
X100219993Y-56479999D01*
X107415406Y-55550740D02*
X107581852Y-55785334D01*
X92911270Y-57783400D02*
X92916908Y-57780199D01*
X93118254Y-57756374D02*
X93204132Y-57706031D01*
X92445205Y-56851906D02*
X92473424Y-56743752D01*
X107958865Y-56862802D02*
X107974994Y-57150000D01*
X106257166Y-107831128D02*
X105980763Y-107910630D01*
X93204132Y-56603951D02*
X93118254Y-56553608D01*
X107080812Y-55264050D02*
X106841290Y-55076420D01*
X100545341Y-56904179D02*
X100545062Y-56903341D01*
X93395013Y-57455003D02*
X93394378Y-57456527D01*
X107581852Y-55785334D02*
X107720994Y-56037099D01*
X100461318Y-56646978D02*
X100391925Y-56585993D01*
X92607155Y-56567070D02*
X92703574Y-56510555D01*
X94498363Y-55093006D02*
X98541637Y-55093006D01*
X99692282Y-56897956D02*
X99694949Y-56903341D01*
X100012932Y-57782943D02*
X100019993Y-57779996D01*
X105697198Y-105418890D02*
X105410000Y-105434892D01*
X99645191Y-56904534D02*
X99651795Y-56802249D01*
X100413414Y-57721221D02*
X100486210Y-57648399D01*
X92493338Y-57459042D02*
X92516706Y-57548628D01*
X92923106Y-57829806D02*
X92920007Y-57829780D01*
X107483580Y-55718710D02*
X107295950Y-55479188D01*
X93346676Y-57459042D02*
X93345000Y-57455003D01*
X106522901Y-107720892D02*
X106257166Y-107831128D01*
X107009260Y-55144594D02*
X107223738Y-55336262D01*
X85208938Y-56302834D02*
X85319014Y-56037099D01*
X100219993Y-56479999D02*
X100220831Y-56480329D01*
X92811346Y-57829069D02*
X92703574Y-57799453D01*
X93022242Y-56527217D02*
X92928719Y-56526608D01*
X99644987Y-57455003D02*
X99644987Y-56904992D01*
X99743336Y-56616041D02*
X99821949Y-56546979D01*
X100219993Y-57779996D02*
X100227079Y-57782943D01*
X92928719Y-57783400D02*
X93022242Y-57782790D01*
X92445637Y-56853480D02*
X92445205Y-56851906D01*
X93346676Y-56850966D02*
X93323283Y-56761355D01*
X107925006Y-102870000D02*
X107925006Y-57150000D01*
X107080812Y-104755950D02*
X107295950Y-104540812D01*
X99826597Y-57721221D02*
X99918317Y-57767957D01*
X100019993Y-56530011D02*
X100015472Y-56528132D01*
X92473424Y-57566230D02*
X92445205Y-57458102D01*
X93394378Y-57456527D02*
X93394809Y-57458102D01*
X85064999Y-57150000D02*
X85081128Y-56862802D01*
X87059234Y-105370630D02*
X86782834Y-105291128D01*
X100407495Y-57779768D02*
X100317046Y-57817233D01*
X100012932Y-57782943D02*
X100019993Y-57779996D01*
X85458153Y-104234742D02*
X85319014Y-103983028D01*
X105713708Y-54648786D02*
X105419677Y-54630980D01*
X86459085Y-54919016D02*
X86198706Y-55076420D01*
X85624601Y-107009184D02*
X85458153Y-106774742D01*
X93395013Y-56855004D02*
X93395013Y-57455003D01*
X87620315Y-54630980D02*
X87326295Y-54648786D01*
X87027022Y-105316274D02*
X87326295Y-105371138D01*
X100019993Y-57830009D02*
X99922940Y-57817233D01*
X105410000Y-54585006D02*
X105697198Y-54601135D01*
X85274135Y-106303572D02*
X85399009Y-106580940D01*
X105980763Y-54649319D02*
X106257166Y-54728948D01*
X99778693Y-56646978D02*
X99727461Y-56723839D01*
X99697870Y-56811342D02*
X99692282Y-56897956D01*
X107720994Y-106523028D02*
X107581852Y-106774742D01*
X107009260Y-55144594D02*
X107223738Y-55336262D01*
X92445002Y-57455003D02*
X92445002Y-56855004D01*
X92493338Y-56850966D02*
X92494989Y-56855004D01*
X92635857Y-56603951D02*
X92565931Y-56674817D01*
X85110988Y-57140323D02*
X85115001Y-57150000D01*
X87027022Y-107856274D02*
X87326295Y-107911138D01*
X107295950Y-55479188D02*
X107080812Y-55264050D01*
X107080812Y-107295950D02*
X107295950Y-107080812D01*
X107720994Y-103983028D02*
X107581852Y-104234742D01*
X99918317Y-57767957D02*
X100012932Y-57782943D01*
X107415406Y-55550740D02*
X107581852Y-55785334D01*
X86517088Y-105180892D02*
X86265338Y-105041954D01*
X87326295Y-54648786D02*
X87027022Y-54703624D01*
X100227079Y-57782943D02*
X100321694Y-57767957D01*
X100461318Y-56646978D02*
X100391925Y-56585993D01*
X85399009Y-104040940D02*
X85556413Y-104301290D01*
X100220831Y-56480329D02*
X100221669Y-56480050D01*
X93232834Y-56567070D02*
X93311345Y-56646597D01*
X92516706Y-57548628D02*
X92565931Y-57635191D01*
X106580915Y-107640882D02*
X106841290Y-107483656D01*
X107911214Y-103173784D02*
X107929020Y-102879652D01*
X87059234Y-54649319D02*
X87342810Y-54601135D01*
X93366590Y-57566230D02*
X93311345Y-57663385D01*
X99707065Y-57556679D02*
X99753801Y-57648399D01*
X92923106Y-57780199D02*
X92928719Y-57783400D01*
X99042322Y-54592322D02*
X99060000Y-54585006D01*
X107974994Y-57150000D02*
X107974994Y-105410000D01*
X100321694Y-57767957D02*
X100413414Y-57721221D01*
X92916908Y-57829806D02*
X92916832Y-57829755D01*
X100321694Y-57767957D02*
X100413414Y-57721221D01*
X85556413Y-55718710D02*
X85399009Y-55979085D01*
X93204132Y-56603951D02*
X93118254Y-56553608D01*
X85128773Y-103173784D02*
X85183617Y-103472996D01*
X105713708Y-54648786D02*
X105419677Y-54630980D01*
X99915726Y-56500573D02*
X100018342Y-56480050D01*
X86459085Y-105100882D02*
X86736540Y-105225850D01*
X92920007Y-57781038D02*
X92923106Y-57780199D01*
X92721760Y-57756374D02*
X92817747Y-57782790D01*
X85624601Y-55550740D02*
X85816270Y-55336262D01*
X98541637Y-55093006D02*
X99042322Y-54592322D01*
X107856376Y-106012996D02*
X107911214Y-105713784D01*
X99685297Y-56703112D02*
X99743336Y-56616041D01*
X106303470Y-54794125D02*
X106012971Y-54703624D01*
X93366590Y-56743752D02*
X93394809Y-56851906D01*
X100407495Y-57779768D02*
X100317046Y-57817233D01*
X85556413Y-104301290D02*
X85744055Y-104540812D01*
X107080812Y-55264050D02*
X106841290Y-55076420D01*
X106522901Y-54839006D02*
X106774666Y-54978148D01*
X107720994Y-56037099D02*
X107831052Y-56302834D01*
X92920007Y-56480202D02*
X92923106Y-56480202D01*
X85319014Y-106523028D02*
X85208938Y-106257090D01*
X86459085Y-54919016D02*
X86198706Y-55076420D01*
X98569678Y-55135678D02*
X98552000Y-55142994D01*
X92703574Y-57799453D02*
X92607155Y-57742938D01*
X107640984Y-104040940D02*
X107765875Y-103763572D01*
X93345000Y-56855004D02*
X93346676Y-56850966D01*
X93118254Y-56553608D02*
X93022242Y-56527217D01*
X107295950Y-104540812D02*
X107483580Y-104301290D01*
X94488000Y-55142994D02*
X94470322Y-55135678D01*
X93394378Y-57456527D02*
X93394809Y-57458102D01*
X92923106Y-56529808D02*
X92920007Y-56528945D01*
X99695000Y-57455003D02*
X99692079Y-57462064D01*
X92721760Y-56553608D02*
X92635857Y-56603951D01*
X106774666Y-54978148D02*
X107009260Y-55144594D01*
X100496649Y-56616041D02*
X100554688Y-56703112D01*
X99070363Y-54634994D02*
X98569678Y-55135678D01*
X105980763Y-54649319D02*
X106257166Y-54728948D01*
X92494989Y-56855004D02*
X92494989Y-57455003D01*
X93394809Y-57458102D02*
X93366590Y-57566230D01*
X107009260Y-104875330D02*
X106774666Y-105041954D01*
X105419677Y-54630980D02*
X105410000Y-54634994D01*
X92516706Y-56761355D02*
X92493338Y-56850966D01*
X99695229Y-57642506D02*
X99657789Y-57552057D01*
X107911214Y-105713784D02*
X107929020Y-105419652D01*
X92923106Y-56480202D02*
X92923182Y-56480227D01*
X107765875Y-106303572D02*
X107856376Y-106012996D01*
X93022242Y-56527217D02*
X92928719Y-56526608D01*
X100219993Y-56530011D02*
X100019993Y-56530011D01*
X100594795Y-56904534D02*
X100594998Y-56904992D01*
X92494989Y-56855004D02*
X92494989Y-57455003D01*
X99930890Y-56545048D02*
X99848086Y-56585993D01*
X100418062Y-56546979D02*
X100496649Y-56616041D01*
X93395013Y-56855004D02*
X93395013Y-57455003D01*
X94488000Y-55142994D02*
X94470322Y-55135678D01*
X87326295Y-107911138D02*
X87620315Y-107928918D01*
X92493338Y-56850966D02*
X92494989Y-56855004D01*
X86265338Y-107581954D02*
X86030750Y-107415330D01*
X92528669Y-56646597D02*
X92607155Y-56567070D01*
X92923182Y-57829755D02*
X92923106Y-57829806D01*
X86198706Y-55076420D02*
X85959198Y-55264050D01*
X106522901Y-105180892D02*
X106257166Y-105291128D01*
X100547703Y-56897956D02*
X100542141Y-56811342D01*
X85816270Y-104683814D02*
X85624601Y-104469184D01*
X100544757Y-57642506D02*
X100485169Y-57720154D01*
X92916832Y-56480227D02*
X92916908Y-56480202D01*
X100594795Y-56904534D02*
X100594998Y-56904992D01*
X92703574Y-56510555D02*
X92811346Y-56480913D01*
X106012971Y-54703624D02*
X105713708Y-54648786D01*
X107958865Y-105697274D02*
X107910681Y-105980738D01*
X93136415Y-57799453D02*
X93028668Y-57829069D01*
X92916832Y-57829755D02*
X92811346Y-57829069D01*
X92635857Y-57706031D02*
X92721760Y-57756374D01*
X100221669Y-56480050D02*
X100324260Y-56500573D01*
X100547932Y-57462064D02*
X100545011Y-57455003D01*
X99694949Y-56903341D02*
X99694670Y-56904179D01*
X86517088Y-107720892D02*
X86265338Y-107581954D01*
X107831052Y-106257090D02*
X107720994Y-106523028D01*
X92473424Y-57566230D02*
X92445205Y-57458102D01*
X85624601Y-104469184D02*
X85458153Y-104234742D01*
X107911214Y-56846292D02*
X107856376Y-56547029D01*
X100582222Y-57552057D02*
X100544757Y-57642506D01*
X85129309Y-105980738D02*
X85081128Y-105697274D01*
X86782834Y-54728948D02*
X87059234Y-54649319D01*
X93311345Y-56646597D02*
X93366590Y-56743752D01*
X85744055Y-104540812D02*
X85959198Y-104755950D01*
X87630000Y-54634994D02*
X87620315Y-54630980D01*
X92920007Y-56528945D02*
X92916908Y-56529808D01*
X100545011Y-56904992D02*
X100545341Y-56904179D01*
X99826597Y-57721221D02*
X99918317Y-57767957D01*
X85129309Y-56579237D02*
X85208938Y-56302834D01*
X85064999Y-57150000D02*
X85081128Y-56862802D01*
X99070363Y-54634994D02*
X98569678Y-55135678D01*
X100019993Y-56530011D02*
X100015472Y-56528132D01*
X99832490Y-57779768D02*
X99754842Y-57720154D01*
X106580915Y-54919016D02*
X106303470Y-54794125D01*
X100486210Y-57648399D02*
X100532946Y-57556679D01*
X99727461Y-56723839D02*
X99697870Y-56811342D01*
X86265338Y-105041954D02*
X86030750Y-104875330D01*
X100547703Y-56897956D02*
X100542141Y-56811342D01*
X107483580Y-106841290D02*
X107640984Y-106580940D01*
X107720994Y-56037099D02*
X107831052Y-56302834D01*
X99778693Y-56646978D02*
X99727461Y-56723839D01*
X92817747Y-57782790D02*
X92911270Y-57783400D01*
X107640984Y-106580940D02*
X107765875Y-106303572D01*
X99042322Y-54592322D02*
X99060000Y-54585006D01*
X85816270Y-55336262D02*
X86030750Y-55144594D01*
X100588216Y-56802249D02*
X100594795Y-56904534D01*
X105980763Y-107910630D02*
X105697198Y-107958890D01*
X105697198Y-54601135D02*
X105980763Y-54649319D01*
X85115001Y-57150000D02*
X85115001Y-105410000D01*
X93022242Y-57782790D02*
X93118254Y-57756374D01*
X107581852Y-55785334D02*
X107720994Y-56037099D01*
X107925006Y-57150000D02*
X107929020Y-57140323D01*
X92445205Y-57458102D02*
X92445637Y-57456527D01*
X100018342Y-56480050D02*
X100019180Y-56480329D01*
X87027022Y-54703624D02*
X86736540Y-54794125D01*
X100219993Y-56530011D02*
X100019993Y-56530011D01*
X85744055Y-107080812D02*
X85959198Y-107295950D01*
X86517088Y-54839006D02*
X86782834Y-54728948D01*
X92528669Y-56646597D02*
X92607155Y-56567070D01*
X107856376Y-56547029D02*
X107765875Y-56256530D01*
X93997678Y-54592322D02*
X94498363Y-55093006D01*
X107974994Y-102870000D02*
X107958865Y-103157274D01*
X99694670Y-56904179D02*
X99695000Y-56904992D01*
X107009260Y-107415330D02*
X106774666Y-107581954D01*
X85110988Y-102879652D02*
X85128773Y-103173784D01*
X99707065Y-57556679D02*
X99753801Y-57648399D01*
X107415406Y-104469184D02*
X107223738Y-104683814D01*
X100015472Y-56528132D02*
X99930890Y-56545048D01*
X92565931Y-57635191D02*
X92635857Y-57706031D01*
X85959198Y-104755950D02*
X86198706Y-104943656D01*
X85064999Y-102870000D02*
X85064999Y-57150000D01*
X93346676Y-56850966D02*
X93323283Y-56761355D01*
X107929020Y-57140323D02*
X107911214Y-56846292D01*
X92445637Y-56853480D02*
X92445205Y-56851906D01*
X87630000Y-107974892D02*
X87342810Y-107958890D01*
X100532946Y-57556679D02*
X100547932Y-57462064D01*
X99848086Y-56585993D02*
X99778693Y-56646978D01*
X93136415Y-56510555D02*
X93232834Y-56567070D01*
X93204132Y-57706031D02*
X93274083Y-57635191D01*
X98552000Y-55142994D02*
X94488000Y-55142994D01*
X99753801Y-57648399D02*
X99826597Y-57721221D01*
X92920007Y-57829780D02*
X92916908Y-57829806D01*
X107415406Y-107009184D02*
X107223738Y-107223814D01*
X92911270Y-56526608D02*
X92817747Y-56527217D01*
X92817747Y-56527217D02*
X92721760Y-56553608D01*
X85959198Y-55264050D02*
X85744055Y-55479188D01*
D11*
X86995000Y-60960000D02*
G75*
G03*
X86995000Y-60960000I-635000J0D01*
G01*
D10*
X105697198Y-54601135D02*
X105980763Y-54649319D01*
X107483580Y-104301290D02*
X107640984Y-104040940D01*
X100582222Y-57552057D02*
X100544757Y-57642506D01*
X100545062Y-56903341D02*
X100547703Y-56897956D01*
X99930890Y-56545048D02*
X99848086Y-56585993D01*
X99848086Y-56585993D02*
X99778693Y-56646978D01*
X100227079Y-57782943D02*
X100321694Y-57767957D01*
X92916908Y-56480202D02*
X92920007Y-56480202D01*
X92923106Y-56529808D02*
X92920007Y-56528945D01*
X92607155Y-56567070D02*
X92703574Y-56510555D01*
X107974994Y-105410000D02*
X107958865Y-105697274D01*
X92923182Y-56480227D02*
X93028668Y-56480913D01*
X86736540Y-54794125D02*
X86459085Y-54919016D01*
X85274135Y-56256530D02*
X85183617Y-56547029D01*
X92473424Y-56743752D02*
X92528669Y-56646597D01*
X99694670Y-56904179D02*
X99695000Y-56904992D01*
X100588216Y-56802249D02*
X100594795Y-56904534D01*
X107929020Y-57140323D02*
X107911214Y-56846292D01*
X92445002Y-57455003D02*
X92445002Y-56855004D01*
X92493338Y-57459042D02*
X92516706Y-57548628D01*
X85129309Y-56579237D02*
X85208938Y-56302834D01*
X107910681Y-103440738D02*
X107831052Y-103717090D01*
X100391925Y-56585993D02*
X100309121Y-56545048D01*
X86459085Y-107640882D02*
X86736540Y-107765850D01*
X106774666Y-105041954D02*
X106522901Y-105180892D01*
X85208938Y-106257090D02*
X85129309Y-105980738D01*
X94498363Y-55093006D02*
X98541637Y-55093006D01*
X100019993Y-57830009D02*
X99922940Y-57817233D01*
X85744055Y-55479188D02*
X85556413Y-55718710D01*
X85556413Y-106841290D02*
X85744055Y-107080812D01*
X106303470Y-107765850D02*
X106580915Y-107640882D01*
X107925006Y-57150000D02*
X107929020Y-57140323D01*
X99697870Y-56811342D02*
X99692282Y-56897956D01*
X105410000Y-54634994D02*
X99070363Y-54634994D01*
X100594998Y-56904992D02*
X100594998Y-57455003D01*
X105713708Y-105371138D02*
X106012971Y-105316274D01*
X92445637Y-57456527D02*
X92445002Y-57455003D01*
X92528669Y-57663385D02*
X92473424Y-57566230D01*
X100418062Y-56546979D02*
X100496649Y-56616041D01*
X85183617Y-56547029D02*
X85128773Y-56846292D01*
X85128773Y-56846292D02*
X85110988Y-57140323D01*
X85183617Y-56547029D02*
X85128773Y-56846292D01*
X100512550Y-56723839D02*
X100461318Y-56646978D01*
X105419677Y-107928918D02*
X105713708Y-107911138D01*
X93394378Y-56853480D02*
X93395013Y-56855004D01*
X106257166Y-54728948D02*
X106522901Y-54839006D01*
X85816270Y-107223814D02*
X85624601Y-107009184D01*
X92920007Y-56480202D02*
X92923106Y-56480202D01*
X92923106Y-57780199D02*
X92928719Y-57783400D01*
X87326295Y-105371138D02*
X87620315Y-105388918D01*
X92916908Y-56529808D02*
X92911270Y-56526608D01*
X93323283Y-56761355D02*
X93274083Y-56674817D01*
X106303470Y-54794125D02*
X106012971Y-54703624D01*
X86265338Y-54978148D02*
X86517088Y-54839006D01*
X93311345Y-57663385D02*
X93232834Y-57742938D01*
X86782834Y-105291128D02*
X86517088Y-105180892D01*
X106841290Y-55076420D02*
X106580915Y-54919016D01*
X93969637Y-54634994D02*
X87630000Y-54634994D01*
X99692282Y-56897956D02*
X99694949Y-56903341D01*
X99692079Y-57462064D02*
X99707065Y-57556679D01*
X92494989Y-57455003D02*
X92493338Y-57459042D01*
X105419677Y-54630980D02*
X105410000Y-54634994D01*
X87027022Y-54703624D02*
X86736540Y-54794125D01*
X99651795Y-56802249D02*
X99685297Y-56703112D01*
X107581852Y-106774742D02*
X107415406Y-107009184D01*
X92911270Y-56526608D02*
X92817747Y-56527217D01*
D11*
X121950592Y-73870000D02*
X121914878Y-73834286D01*
X121914878Y-73834286D02*
X121879164Y-73762858D01*
X121879164Y-73762858D02*
X121879164Y-73584286D01*
X121879164Y-73584286D02*
X121914878Y-73512858D01*
X121914878Y-73512858D02*
X121950592Y-73477143D01*
X121950592Y-73477143D02*
X122022021Y-73441429D01*
X122022021Y-73441429D02*
X122093450Y-73441429D01*
X122093450Y-73441429D02*
X122200592Y-73477143D01*
X122200592Y-73477143D02*
X122629164Y-73905715D01*
X122629164Y-73905715D02*
X122629164Y-73441429D01*
X122129164Y-72798572D02*
X122629164Y-72798572D01*
X121843450Y-72977143D02*
X122379164Y-73155714D01*
X122379164Y-73155714D02*
X122379164Y-72691429D01*
X121879164Y-72262857D02*
X121879164Y-72191428D01*
X121879164Y-72191428D02*
X121914878Y-72120000D01*
X121914878Y-72120000D02*
X121950592Y-72084286D01*
X121950592Y-72084286D02*
X122022021Y-72048571D01*
X122022021Y-72048571D02*
X122164878Y-72012857D01*
X122164878Y-72012857D02*
X122343450Y-72012857D01*
X122343450Y-72012857D02*
X122486307Y-72048571D01*
X122486307Y-72048571D02*
X122557735Y-72084286D01*
X122557735Y-72084286D02*
X122593450Y-72120000D01*
X122593450Y-72120000D02*
X122629164Y-72191428D01*
X122629164Y-72191428D02*
X122629164Y-72262857D01*
X122629164Y-72262857D02*
X122593450Y-72334286D01*
X122593450Y-72334286D02*
X122557735Y-72370000D01*
X122557735Y-72370000D02*
X122486307Y-72405714D01*
X122486307Y-72405714D02*
X122343450Y-72441428D01*
X122343450Y-72441428D02*
X122164878Y-72441428D01*
X122164878Y-72441428D02*
X122022021Y-72405714D01*
X122022021Y-72405714D02*
X121950592Y-72370000D01*
X121950592Y-72370000D02*
X121914878Y-72334286D01*
X121914878Y-72334286D02*
X121879164Y-72262857D01*
X121879164Y-71548571D02*
X121879164Y-71477142D01*
X121879164Y-71477142D02*
X121914878Y-71405714D01*
X121914878Y-71405714D02*
X121950592Y-71370000D01*
X121950592Y-71370000D02*
X122022021Y-71334285D01*
X122022021Y-71334285D02*
X122164878Y-71298571D01*
X122164878Y-71298571D02*
X122343450Y-71298571D01*
X122343450Y-71298571D02*
X122486307Y-71334285D01*
X122486307Y-71334285D02*
X122557735Y-71370000D01*
X122557735Y-71370000D02*
X122593450Y-71405714D01*
X122593450Y-71405714D02*
X122629164Y-71477142D01*
X122629164Y-71477142D02*
X122629164Y-71548571D01*
X122629164Y-71548571D02*
X122593450Y-71620000D01*
X122593450Y-71620000D02*
X122557735Y-71655714D01*
X122557735Y-71655714D02*
X122486307Y-71691428D01*
X122486307Y-71691428D02*
X122343450Y-71727142D01*
X122343450Y-71727142D02*
X122164878Y-71727142D01*
X122164878Y-71727142D02*
X122022021Y-71691428D01*
X122022021Y-71691428D02*
X121950592Y-71655714D01*
X121950592Y-71655714D02*
X121914878Y-71620000D01*
X121914878Y-71620000D02*
X121879164Y-71548571D01*
X122629164Y-70405713D02*
X122129164Y-70405713D01*
X122200592Y-70405713D02*
X122164878Y-70369999D01*
X122164878Y-70369999D02*
X122129164Y-70298570D01*
X122129164Y-70298570D02*
X122129164Y-70191427D01*
X122129164Y-70191427D02*
X122164878Y-70119999D01*
X122164878Y-70119999D02*
X122236307Y-70084285D01*
X122236307Y-70084285D02*
X122629164Y-70084285D01*
X122236307Y-70084285D02*
X122164878Y-70048570D01*
X122164878Y-70048570D02*
X122129164Y-69977142D01*
X122129164Y-69977142D02*
X122129164Y-69869999D01*
X122129164Y-69869999D02*
X122164878Y-69798570D01*
X122164878Y-69798570D02*
X122236307Y-69762856D01*
X122236307Y-69762856D02*
X122629164Y-69762856D01*
X122629164Y-69405713D02*
X122129164Y-69405713D01*
X121879164Y-69405713D02*
X121914878Y-69441427D01*
X121914878Y-69441427D02*
X121950592Y-69405713D01*
X121950592Y-69405713D02*
X121914878Y-69369999D01*
X121914878Y-69369999D02*
X121879164Y-69405713D01*
X121879164Y-69405713D02*
X121950592Y-69405713D01*
X122629164Y-68941427D02*
X122593450Y-69012856D01*
X122593450Y-69012856D02*
X122522021Y-69048570D01*
X122522021Y-69048570D02*
X121879164Y-69048570D01*
X122593450Y-68691427D02*
X122629164Y-68619999D01*
X122629164Y-68619999D02*
X122629164Y-68477142D01*
X122629164Y-68477142D02*
X122593450Y-68405713D01*
X122593450Y-68405713D02*
X122522021Y-68369999D01*
X122522021Y-68369999D02*
X122486307Y-68369999D01*
X122486307Y-68369999D02*
X122414878Y-68405713D01*
X122414878Y-68405713D02*
X122379164Y-68477142D01*
X122379164Y-68477142D02*
X122379164Y-68584285D01*
X122379164Y-68584285D02*
X122343450Y-68655713D01*
X122343450Y-68655713D02*
X122272021Y-68691427D01*
X122272021Y-68691427D02*
X122236307Y-68691427D01*
X122236307Y-68691427D02*
X122164878Y-68655713D01*
X122164878Y-68655713D02*
X122129164Y-68584285D01*
X122129164Y-68584285D02*
X122129164Y-68477142D01*
X122129164Y-68477142D02*
X122164878Y-68405713D01*
D10*
X109720000Y-40640000D02*
X123776420Y-40640000D01*
X123776420Y-101600000D02*
X109720000Y-101600000D01*
X123190000Y-40640000D02*
X123190000Y-101600000D01*
X123190000Y-40640000D02*
X123190000Y-101600000D01*
X123190000Y-40640000D02*
X123776421Y-41766504D01*
X123190000Y-40640000D02*
X122603579Y-41766504D01*
X123190000Y-101600000D02*
X122603579Y-100473496D01*
X123190000Y-101600000D02*
X123776421Y-100473496D01*
D11*
X67340592Y-54145357D02*
X67304878Y-54109643D01*
X67304878Y-54109643D02*
X67269164Y-54038215D01*
X67269164Y-54038215D02*
X67269164Y-53859643D01*
X67269164Y-53859643D02*
X67304878Y-53788215D01*
X67304878Y-53788215D02*
X67340592Y-53752500D01*
X67340592Y-53752500D02*
X67412021Y-53716786D01*
X67412021Y-53716786D02*
X67483450Y-53716786D01*
X67483450Y-53716786D02*
X67590592Y-53752500D01*
X67590592Y-53752500D02*
X68019164Y-54181072D01*
X68019164Y-54181072D02*
X68019164Y-53716786D01*
X67340592Y-53431071D02*
X67304878Y-53395357D01*
X67304878Y-53395357D02*
X67269164Y-53323929D01*
X67269164Y-53323929D02*
X67269164Y-53145357D01*
X67269164Y-53145357D02*
X67304878Y-53073929D01*
X67304878Y-53073929D02*
X67340592Y-53038214D01*
X67340592Y-53038214D02*
X67412021Y-53002500D01*
X67412021Y-53002500D02*
X67483450Y-53002500D01*
X67483450Y-53002500D02*
X67590592Y-53038214D01*
X67590592Y-53038214D02*
X68019164Y-53466786D01*
X68019164Y-53466786D02*
X68019164Y-53002500D01*
X67269164Y-52323928D02*
X67269164Y-52681071D01*
X67269164Y-52681071D02*
X67626307Y-52716785D01*
X67626307Y-52716785D02*
X67590592Y-52681071D01*
X67590592Y-52681071D02*
X67554878Y-52609643D01*
X67554878Y-52609643D02*
X67554878Y-52431071D01*
X67554878Y-52431071D02*
X67590592Y-52359643D01*
X67590592Y-52359643D02*
X67626307Y-52323928D01*
X67626307Y-52323928D02*
X67697735Y-52288214D01*
X67697735Y-52288214D02*
X67876307Y-52288214D01*
X67876307Y-52288214D02*
X67947735Y-52323928D01*
X67947735Y-52323928D02*
X67983450Y-52359643D01*
X67983450Y-52359643D02*
X68019164Y-52431071D01*
X68019164Y-52431071D02*
X68019164Y-52609643D01*
X68019164Y-52609643D02*
X67983450Y-52681071D01*
X67983450Y-52681071D02*
X67947735Y-52716785D01*
X68019164Y-51395356D02*
X67519164Y-51395356D01*
X67590592Y-51395356D02*
X67554878Y-51359642D01*
X67554878Y-51359642D02*
X67519164Y-51288213D01*
X67519164Y-51288213D02*
X67519164Y-51181070D01*
X67519164Y-51181070D02*
X67554878Y-51109642D01*
X67554878Y-51109642D02*
X67626307Y-51073928D01*
X67626307Y-51073928D02*
X68019164Y-51073928D01*
X67626307Y-51073928D02*
X67554878Y-51038213D01*
X67554878Y-51038213D02*
X67519164Y-50966785D01*
X67519164Y-50966785D02*
X67519164Y-50859642D01*
X67519164Y-50859642D02*
X67554878Y-50788213D01*
X67554878Y-50788213D02*
X67626307Y-50752499D01*
X67626307Y-50752499D02*
X68019164Y-50752499D01*
X68019164Y-50395356D02*
X67519164Y-50395356D01*
X67269164Y-50395356D02*
X67304878Y-50431070D01*
X67304878Y-50431070D02*
X67340592Y-50395356D01*
X67340592Y-50395356D02*
X67304878Y-50359642D01*
X67304878Y-50359642D02*
X67269164Y-50395356D01*
X67269164Y-50395356D02*
X67340592Y-50395356D01*
X68019164Y-49931070D02*
X67983450Y-50002499D01*
X67983450Y-50002499D02*
X67912021Y-50038213D01*
X67912021Y-50038213D02*
X67269164Y-50038213D01*
X67983450Y-49681070D02*
X68019164Y-49609642D01*
X68019164Y-49609642D02*
X68019164Y-49466785D01*
X68019164Y-49466785D02*
X67983450Y-49395356D01*
X67983450Y-49395356D02*
X67912021Y-49359642D01*
X67912021Y-49359642D02*
X67876307Y-49359642D01*
X67876307Y-49359642D02*
X67804878Y-49395356D01*
X67804878Y-49395356D02*
X67769164Y-49466785D01*
X67769164Y-49466785D02*
X67769164Y-49573928D01*
X67769164Y-49573928D02*
X67733450Y-49645356D01*
X67733450Y-49645356D02*
X67662021Y-49681070D01*
X67662021Y-49681070D02*
X67626307Y-49681070D01*
X67626307Y-49681070D02*
X67554878Y-49645356D01*
X67554878Y-49645356D02*
X67519164Y-49573928D01*
X67519164Y-49573928D02*
X67519164Y-49466785D01*
X67519164Y-49466785D02*
X67554878Y-49395356D01*
D10*
X87765000Y-54610000D02*
X67993580Y-54610000D01*
X67993580Y-48895000D02*
X85025000Y-48895000D01*
X68580000Y-54610000D02*
X68580000Y-48895000D01*
X68580000Y-54610000D02*
X68580000Y-48895000D01*
X68580000Y-54610000D02*
X67993579Y-53483496D01*
X68580000Y-54610000D02*
X69166421Y-53483496D01*
X68580000Y-48895000D02*
X69166421Y-50021504D01*
X68580000Y-48895000D02*
X67993579Y-50021504D01*
D11*
X81619164Y-78164286D02*
X81619164Y-78592857D01*
X81619164Y-78378572D02*
X80869164Y-78378572D01*
X80869164Y-78378572D02*
X80976307Y-78450000D01*
X80976307Y-78450000D02*
X81047735Y-78521429D01*
X81047735Y-78521429D02*
X81083450Y-78592857D01*
X80869164Y-77700000D02*
X80869164Y-77628571D01*
X80869164Y-77628571D02*
X80904878Y-77557143D01*
X80904878Y-77557143D02*
X80940592Y-77521429D01*
X80940592Y-77521429D02*
X81012021Y-77485714D01*
X81012021Y-77485714D02*
X81154878Y-77450000D01*
X81154878Y-77450000D02*
X81333450Y-77450000D01*
X81333450Y-77450000D02*
X81476307Y-77485714D01*
X81476307Y-77485714D02*
X81547735Y-77521429D01*
X81547735Y-77521429D02*
X81583450Y-77557143D01*
X81583450Y-77557143D02*
X81619164Y-77628571D01*
X81619164Y-77628571D02*
X81619164Y-77700000D01*
X81619164Y-77700000D02*
X81583450Y-77771429D01*
X81583450Y-77771429D02*
X81547735Y-77807143D01*
X81547735Y-77807143D02*
X81476307Y-77842857D01*
X81476307Y-77842857D02*
X81333450Y-77878571D01*
X81333450Y-77878571D02*
X81154878Y-77878571D01*
X81154878Y-77878571D02*
X81012021Y-77842857D01*
X81012021Y-77842857D02*
X80940592Y-77807143D01*
X80940592Y-77807143D02*
X80904878Y-77771429D01*
X80904878Y-77771429D02*
X80869164Y-77700000D01*
X80869164Y-76985714D02*
X80869164Y-76914285D01*
X80869164Y-76914285D02*
X80904878Y-76842857D01*
X80904878Y-76842857D02*
X80940592Y-76807143D01*
X80940592Y-76807143D02*
X81012021Y-76771428D01*
X81012021Y-76771428D02*
X81154878Y-76735714D01*
X81154878Y-76735714D02*
X81333450Y-76735714D01*
X81333450Y-76735714D02*
X81476307Y-76771428D01*
X81476307Y-76771428D02*
X81547735Y-76807143D01*
X81547735Y-76807143D02*
X81583450Y-76842857D01*
X81583450Y-76842857D02*
X81619164Y-76914285D01*
X81619164Y-76914285D02*
X81619164Y-76985714D01*
X81619164Y-76985714D02*
X81583450Y-77057143D01*
X81583450Y-77057143D02*
X81547735Y-77092857D01*
X81547735Y-77092857D02*
X81476307Y-77128571D01*
X81476307Y-77128571D02*
X81333450Y-77164285D01*
X81333450Y-77164285D02*
X81154878Y-77164285D01*
X81154878Y-77164285D02*
X81012021Y-77128571D01*
X81012021Y-77128571D02*
X80940592Y-77092857D01*
X80940592Y-77092857D02*
X80904878Y-77057143D01*
X80904878Y-77057143D02*
X80869164Y-76985714D01*
X81619164Y-75842856D02*
X81119164Y-75842856D01*
X81190592Y-75842856D02*
X81154878Y-75807142D01*
X81154878Y-75807142D02*
X81119164Y-75735713D01*
X81119164Y-75735713D02*
X81119164Y-75628570D01*
X81119164Y-75628570D02*
X81154878Y-75557142D01*
X81154878Y-75557142D02*
X81226307Y-75521428D01*
X81226307Y-75521428D02*
X81619164Y-75521428D01*
X81226307Y-75521428D02*
X81154878Y-75485713D01*
X81154878Y-75485713D02*
X81119164Y-75414285D01*
X81119164Y-75414285D02*
X81119164Y-75307142D01*
X81119164Y-75307142D02*
X81154878Y-75235713D01*
X81154878Y-75235713D02*
X81226307Y-75199999D01*
X81226307Y-75199999D02*
X81619164Y-75199999D01*
X81619164Y-74842856D02*
X81119164Y-74842856D01*
X80869164Y-74842856D02*
X80904878Y-74878570D01*
X80904878Y-74878570D02*
X80940592Y-74842856D01*
X80940592Y-74842856D02*
X80904878Y-74807142D01*
X80904878Y-74807142D02*
X80869164Y-74842856D01*
X80869164Y-74842856D02*
X80940592Y-74842856D01*
X81619164Y-74378570D02*
X81583450Y-74449999D01*
X81583450Y-74449999D02*
X81512021Y-74485713D01*
X81512021Y-74485713D02*
X80869164Y-74485713D01*
X81583450Y-74128570D02*
X81619164Y-74057142D01*
X81619164Y-74057142D02*
X81619164Y-73914285D01*
X81619164Y-73914285D02*
X81583450Y-73842856D01*
X81583450Y-73842856D02*
X81512021Y-73807142D01*
X81512021Y-73807142D02*
X81476307Y-73807142D01*
X81476307Y-73807142D02*
X81404878Y-73842856D01*
X81404878Y-73842856D02*
X81369164Y-73914285D01*
X81369164Y-73914285D02*
X81369164Y-74021428D01*
X81369164Y-74021428D02*
X81333450Y-74092856D01*
X81333450Y-74092856D02*
X81262021Y-74128570D01*
X81262021Y-74128570D02*
X81226307Y-74128570D01*
X81226307Y-74128570D02*
X81154878Y-74092856D01*
X81154878Y-74092856D02*
X81119164Y-74021428D01*
X81119164Y-74021428D02*
X81119164Y-73914285D01*
X81119164Y-73914285D02*
X81154878Y-73842856D01*
D10*
X89924000Y-69977000D02*
X80693580Y-69977000D01*
X80693580Y-72517000D02*
X89924000Y-72517000D01*
X81280000Y-69977000D02*
X81280000Y-72517000D01*
X81280000Y-69977000D02*
X81280000Y-72517000D01*
X81280000Y-69977000D02*
X81866421Y-71103504D01*
X81280000Y-69977000D02*
X80693579Y-71103504D01*
X81280000Y-72517000D02*
X80693579Y-71390496D01*
X81280000Y-72517000D02*
X81866421Y-71390496D01*
D11*
X77581427Y-59649164D02*
X78045713Y-59649164D01*
X78045713Y-59649164D02*
X77795713Y-59934878D01*
X77795713Y-59934878D02*
X77902856Y-59934878D01*
X77902856Y-59934878D02*
X77974285Y-59970592D01*
X77974285Y-59970592D02*
X78009999Y-60006307D01*
X78009999Y-60006307D02*
X78045713Y-60077735D01*
X78045713Y-60077735D02*
X78045713Y-60256307D01*
X78045713Y-60256307D02*
X78009999Y-60327735D01*
X78009999Y-60327735D02*
X77974285Y-60363450D01*
X77974285Y-60363450D02*
X77902856Y-60399164D01*
X77902856Y-60399164D02*
X77688570Y-60399164D01*
X77688570Y-60399164D02*
X77617142Y-60363450D01*
X77617142Y-60363450D02*
X77581427Y-60327735D01*
X78509999Y-59649164D02*
X78581428Y-59649164D01*
X78581428Y-59649164D02*
X78652856Y-59684878D01*
X78652856Y-59684878D02*
X78688571Y-59720592D01*
X78688571Y-59720592D02*
X78724285Y-59792021D01*
X78724285Y-59792021D02*
X78759999Y-59934878D01*
X78759999Y-59934878D02*
X78759999Y-60113450D01*
X78759999Y-60113450D02*
X78724285Y-60256307D01*
X78724285Y-60256307D02*
X78688571Y-60327735D01*
X78688571Y-60327735D02*
X78652856Y-60363450D01*
X78652856Y-60363450D02*
X78581428Y-60399164D01*
X78581428Y-60399164D02*
X78509999Y-60399164D01*
X78509999Y-60399164D02*
X78438571Y-60363450D01*
X78438571Y-60363450D02*
X78402856Y-60327735D01*
X78402856Y-60327735D02*
X78367142Y-60256307D01*
X78367142Y-60256307D02*
X78331428Y-60113450D01*
X78331428Y-60113450D02*
X78331428Y-59934878D01*
X78331428Y-59934878D02*
X78367142Y-59792021D01*
X78367142Y-59792021D02*
X78402856Y-59720592D01*
X78402856Y-59720592D02*
X78438571Y-59684878D01*
X78438571Y-59684878D02*
X78509999Y-59649164D01*
X79224285Y-59649164D02*
X79295714Y-59649164D01*
X79295714Y-59649164D02*
X79367142Y-59684878D01*
X79367142Y-59684878D02*
X79402857Y-59720592D01*
X79402857Y-59720592D02*
X79438571Y-59792021D01*
X79438571Y-59792021D02*
X79474285Y-59934878D01*
X79474285Y-59934878D02*
X79474285Y-60113450D01*
X79474285Y-60113450D02*
X79438571Y-60256307D01*
X79438571Y-60256307D02*
X79402857Y-60327735D01*
X79402857Y-60327735D02*
X79367142Y-60363450D01*
X79367142Y-60363450D02*
X79295714Y-60399164D01*
X79295714Y-60399164D02*
X79224285Y-60399164D01*
X79224285Y-60399164D02*
X79152857Y-60363450D01*
X79152857Y-60363450D02*
X79117142Y-60327735D01*
X79117142Y-60327735D02*
X79081428Y-60256307D01*
X79081428Y-60256307D02*
X79045714Y-60113450D01*
X79045714Y-60113450D02*
X79045714Y-59934878D01*
X79045714Y-59934878D02*
X79081428Y-59792021D01*
X79081428Y-59792021D02*
X79117142Y-59720592D01*
X79117142Y-59720592D02*
X79152857Y-59684878D01*
X79152857Y-59684878D02*
X79224285Y-59649164D01*
X80367143Y-60399164D02*
X80367143Y-59899164D01*
X80367143Y-59970592D02*
X80402857Y-59934878D01*
X80402857Y-59934878D02*
X80474286Y-59899164D01*
X80474286Y-59899164D02*
X80581429Y-59899164D01*
X80581429Y-59899164D02*
X80652857Y-59934878D01*
X80652857Y-59934878D02*
X80688572Y-60006307D01*
X80688572Y-60006307D02*
X80688572Y-60399164D01*
X80688572Y-60006307D02*
X80724286Y-59934878D01*
X80724286Y-59934878D02*
X80795714Y-59899164D01*
X80795714Y-59899164D02*
X80902857Y-59899164D01*
X80902857Y-59899164D02*
X80974286Y-59934878D01*
X80974286Y-59934878D02*
X81010000Y-60006307D01*
X81010000Y-60006307D02*
X81010000Y-60399164D01*
X81367143Y-60399164D02*
X81367143Y-59899164D01*
X81367143Y-59649164D02*
X81331429Y-59684878D01*
X81331429Y-59684878D02*
X81367143Y-59720592D01*
X81367143Y-59720592D02*
X81402857Y-59684878D01*
X81402857Y-59684878D02*
X81367143Y-59649164D01*
X81367143Y-59649164D02*
X81367143Y-59720592D01*
X81831429Y-60399164D02*
X81760000Y-60363450D01*
X81760000Y-60363450D02*
X81724286Y-60292021D01*
X81724286Y-60292021D02*
X81724286Y-59649164D01*
X82081429Y-60363450D02*
X82152857Y-60399164D01*
X82152857Y-60399164D02*
X82295714Y-60399164D01*
X82295714Y-60399164D02*
X82367143Y-60363450D01*
X82367143Y-60363450D02*
X82402857Y-60292021D01*
X82402857Y-60292021D02*
X82402857Y-60256307D01*
X82402857Y-60256307D02*
X82367143Y-60184878D01*
X82367143Y-60184878D02*
X82295714Y-60149164D01*
X82295714Y-60149164D02*
X82188572Y-60149164D01*
X82188572Y-60149164D02*
X82117143Y-60113450D01*
X82117143Y-60113450D02*
X82081429Y-60042021D01*
X82081429Y-60042021D02*
X82081429Y-60006307D01*
X82081429Y-60006307D02*
X82117143Y-59934878D01*
X82117143Y-59934878D02*
X82188572Y-59899164D01*
X82188572Y-59899164D02*
X82295714Y-59899164D01*
X82295714Y-59899164D02*
X82367143Y-59934878D01*
D10*
X76200000Y-59555000D02*
X76200000Y-61546420D01*
X83820000Y-61546420D02*
X83820000Y-59555000D01*
X76200000Y-60960000D02*
X83820000Y-60960000D01*
X76200000Y-60960000D02*
X83820000Y-60960000D01*
X76200000Y-60960000D02*
X77326504Y-60373579D01*
X76200000Y-60960000D02*
X77326504Y-61546421D01*
X83820000Y-60960000D02*
X82693496Y-61546421D01*
X83820000Y-60960000D02*
X82693496Y-60373579D01*
D11*
X72349164Y-54498572D02*
X72349164Y-53998572D01*
X72349164Y-53998572D02*
X73099164Y-54320000D01*
X72420592Y-53748571D02*
X72384878Y-53712857D01*
X72384878Y-53712857D02*
X72349164Y-53641429D01*
X72349164Y-53641429D02*
X72349164Y-53462857D01*
X72349164Y-53462857D02*
X72384878Y-53391429D01*
X72384878Y-53391429D02*
X72420592Y-53355714D01*
X72420592Y-53355714D02*
X72492021Y-53320000D01*
X72492021Y-53320000D02*
X72563450Y-53320000D01*
X72563450Y-53320000D02*
X72670592Y-53355714D01*
X72670592Y-53355714D02*
X73099164Y-53784286D01*
X73099164Y-53784286D02*
X73099164Y-53320000D01*
X72349164Y-52641428D02*
X72349164Y-52998571D01*
X72349164Y-52998571D02*
X72706307Y-53034285D01*
X72706307Y-53034285D02*
X72670592Y-52998571D01*
X72670592Y-52998571D02*
X72634878Y-52927143D01*
X72634878Y-52927143D02*
X72634878Y-52748571D01*
X72634878Y-52748571D02*
X72670592Y-52677143D01*
X72670592Y-52677143D02*
X72706307Y-52641428D01*
X72706307Y-52641428D02*
X72777735Y-52605714D01*
X72777735Y-52605714D02*
X72956307Y-52605714D01*
X72956307Y-52605714D02*
X73027735Y-52641428D01*
X73027735Y-52641428D02*
X73063450Y-52677143D01*
X73063450Y-52677143D02*
X73099164Y-52748571D01*
X73099164Y-52748571D02*
X73099164Y-52927143D01*
X73099164Y-52927143D02*
X73063450Y-52998571D01*
X73063450Y-52998571D02*
X73027735Y-53034285D01*
X73099164Y-51712856D02*
X72599164Y-51712856D01*
X72670592Y-51712856D02*
X72634878Y-51677142D01*
X72634878Y-51677142D02*
X72599164Y-51605713D01*
X72599164Y-51605713D02*
X72599164Y-51498570D01*
X72599164Y-51498570D02*
X72634878Y-51427142D01*
X72634878Y-51427142D02*
X72706307Y-51391428D01*
X72706307Y-51391428D02*
X73099164Y-51391428D01*
X72706307Y-51391428D02*
X72634878Y-51355713D01*
X72634878Y-51355713D02*
X72599164Y-51284285D01*
X72599164Y-51284285D02*
X72599164Y-51177142D01*
X72599164Y-51177142D02*
X72634878Y-51105713D01*
X72634878Y-51105713D02*
X72706307Y-51069999D01*
X72706307Y-51069999D02*
X73099164Y-51069999D01*
X73099164Y-50712856D02*
X72599164Y-50712856D01*
X72349164Y-50712856D02*
X72384878Y-50748570D01*
X72384878Y-50748570D02*
X72420592Y-50712856D01*
X72420592Y-50712856D02*
X72384878Y-50677142D01*
X72384878Y-50677142D02*
X72349164Y-50712856D01*
X72349164Y-50712856D02*
X72420592Y-50712856D01*
X73099164Y-50248570D02*
X73063450Y-50319999D01*
X73063450Y-50319999D02*
X72992021Y-50355713D01*
X72992021Y-50355713D02*
X72349164Y-50355713D01*
X73063450Y-49998570D02*
X73099164Y-49927142D01*
X73099164Y-49927142D02*
X73099164Y-49784285D01*
X73099164Y-49784285D02*
X73063450Y-49712856D01*
X73063450Y-49712856D02*
X72992021Y-49677142D01*
X72992021Y-49677142D02*
X72956307Y-49677142D01*
X72956307Y-49677142D02*
X72884878Y-49712856D01*
X72884878Y-49712856D02*
X72849164Y-49784285D01*
X72849164Y-49784285D02*
X72849164Y-49891428D01*
X72849164Y-49891428D02*
X72813450Y-49962856D01*
X72813450Y-49962856D02*
X72742021Y-49998570D01*
X72742021Y-49998570D02*
X72706307Y-49998570D01*
X72706307Y-49998570D02*
X72634878Y-49962856D01*
X72634878Y-49962856D02*
X72599164Y-49891428D01*
X72599164Y-49891428D02*
X72599164Y-49784285D01*
X72599164Y-49784285D02*
X72634878Y-49712856D01*
D10*
X75700000Y-40640000D02*
X73073580Y-40640000D01*
X73073580Y-59055000D02*
X75700000Y-59055000D01*
X73660000Y-40640000D02*
X73660000Y-59055000D01*
X73660000Y-40640000D02*
X73660000Y-59055000D01*
X73660000Y-40640000D02*
X74246421Y-41766504D01*
X73660000Y-40640000D02*
X73073579Y-41766504D01*
X73660000Y-59055000D02*
X73073579Y-57928496D01*
X73660000Y-59055000D02*
X74246421Y-57928496D01*
D11*
X94198570Y-113739164D02*
X93769999Y-113739164D01*
X93984284Y-113739164D02*
X93984284Y-112989164D01*
X93984284Y-112989164D02*
X93912856Y-113096307D01*
X93912856Y-113096307D02*
X93841427Y-113167735D01*
X93841427Y-113167735D02*
X93769999Y-113203450D01*
X94662856Y-112989164D02*
X94734285Y-112989164D01*
X94734285Y-112989164D02*
X94805713Y-113024878D01*
X94805713Y-113024878D02*
X94841428Y-113060592D01*
X94841428Y-113060592D02*
X94877142Y-113132021D01*
X94877142Y-113132021D02*
X94912856Y-113274878D01*
X94912856Y-113274878D02*
X94912856Y-113453450D01*
X94912856Y-113453450D02*
X94877142Y-113596307D01*
X94877142Y-113596307D02*
X94841428Y-113667735D01*
X94841428Y-113667735D02*
X94805713Y-113703450D01*
X94805713Y-113703450D02*
X94734285Y-113739164D01*
X94734285Y-113739164D02*
X94662856Y-113739164D01*
X94662856Y-113739164D02*
X94591428Y-113703450D01*
X94591428Y-113703450D02*
X94555713Y-113667735D01*
X94555713Y-113667735D02*
X94519999Y-113596307D01*
X94519999Y-113596307D02*
X94484285Y-113453450D01*
X94484285Y-113453450D02*
X94484285Y-113274878D01*
X94484285Y-113274878D02*
X94519999Y-113132021D01*
X94519999Y-113132021D02*
X94555713Y-113060592D01*
X94555713Y-113060592D02*
X94591428Y-113024878D01*
X94591428Y-113024878D02*
X94662856Y-112989164D01*
X95377142Y-112989164D02*
X95448571Y-112989164D01*
X95448571Y-112989164D02*
X95519999Y-113024878D01*
X95519999Y-113024878D02*
X95555714Y-113060592D01*
X95555714Y-113060592D02*
X95591428Y-113132021D01*
X95591428Y-113132021D02*
X95627142Y-113274878D01*
X95627142Y-113274878D02*
X95627142Y-113453450D01*
X95627142Y-113453450D02*
X95591428Y-113596307D01*
X95591428Y-113596307D02*
X95555714Y-113667735D01*
X95555714Y-113667735D02*
X95519999Y-113703450D01*
X95519999Y-113703450D02*
X95448571Y-113739164D01*
X95448571Y-113739164D02*
X95377142Y-113739164D01*
X95377142Y-113739164D02*
X95305714Y-113703450D01*
X95305714Y-113703450D02*
X95269999Y-113667735D01*
X95269999Y-113667735D02*
X95234285Y-113596307D01*
X95234285Y-113596307D02*
X95198571Y-113453450D01*
X95198571Y-113453450D02*
X95198571Y-113274878D01*
X95198571Y-113274878D02*
X95234285Y-113132021D01*
X95234285Y-113132021D02*
X95269999Y-113060592D01*
X95269999Y-113060592D02*
X95305714Y-113024878D01*
X95305714Y-113024878D02*
X95377142Y-112989164D01*
X96091428Y-112989164D02*
X96162857Y-112989164D01*
X96162857Y-112989164D02*
X96234285Y-113024878D01*
X96234285Y-113024878D02*
X96270000Y-113060592D01*
X96270000Y-113060592D02*
X96305714Y-113132021D01*
X96305714Y-113132021D02*
X96341428Y-113274878D01*
X96341428Y-113274878D02*
X96341428Y-113453450D01*
X96341428Y-113453450D02*
X96305714Y-113596307D01*
X96305714Y-113596307D02*
X96270000Y-113667735D01*
X96270000Y-113667735D02*
X96234285Y-113703450D01*
X96234285Y-113703450D02*
X96162857Y-113739164D01*
X96162857Y-113739164D02*
X96091428Y-113739164D01*
X96091428Y-113739164D02*
X96020000Y-113703450D01*
X96020000Y-113703450D02*
X95984285Y-113667735D01*
X95984285Y-113667735D02*
X95948571Y-113596307D01*
X95948571Y-113596307D02*
X95912857Y-113453450D01*
X95912857Y-113453450D02*
X95912857Y-113274878D01*
X95912857Y-113274878D02*
X95948571Y-113132021D01*
X95948571Y-113132021D02*
X95984285Y-113060592D01*
X95984285Y-113060592D02*
X96020000Y-113024878D01*
X96020000Y-113024878D02*
X96091428Y-112989164D01*
X97234286Y-113739164D02*
X97234286Y-113239164D01*
X97234286Y-113310592D02*
X97270000Y-113274878D01*
X97270000Y-113274878D02*
X97341429Y-113239164D01*
X97341429Y-113239164D02*
X97448572Y-113239164D01*
X97448572Y-113239164D02*
X97520000Y-113274878D01*
X97520000Y-113274878D02*
X97555715Y-113346307D01*
X97555715Y-113346307D02*
X97555715Y-113739164D01*
X97555715Y-113346307D02*
X97591429Y-113274878D01*
X97591429Y-113274878D02*
X97662857Y-113239164D01*
X97662857Y-113239164D02*
X97770000Y-113239164D01*
X97770000Y-113239164D02*
X97841429Y-113274878D01*
X97841429Y-113274878D02*
X97877143Y-113346307D01*
X97877143Y-113346307D02*
X97877143Y-113739164D01*
X98234286Y-113739164D02*
X98234286Y-113239164D01*
X98234286Y-112989164D02*
X98198572Y-113024878D01*
X98198572Y-113024878D02*
X98234286Y-113060592D01*
X98234286Y-113060592D02*
X98270000Y-113024878D01*
X98270000Y-113024878D02*
X98234286Y-112989164D01*
X98234286Y-112989164D02*
X98234286Y-113060592D01*
X98698572Y-113739164D02*
X98627143Y-113703450D01*
X98627143Y-113703450D02*
X98591429Y-113632021D01*
X98591429Y-113632021D02*
X98591429Y-112989164D01*
X98948572Y-113703450D02*
X99020000Y-113739164D01*
X99020000Y-113739164D02*
X99162857Y-113739164D01*
X99162857Y-113739164D02*
X99234286Y-113703450D01*
X99234286Y-113703450D02*
X99270000Y-113632021D01*
X99270000Y-113632021D02*
X99270000Y-113596307D01*
X99270000Y-113596307D02*
X99234286Y-113524878D01*
X99234286Y-113524878D02*
X99162857Y-113489164D01*
X99162857Y-113489164D02*
X99055715Y-113489164D01*
X99055715Y-113489164D02*
X98984286Y-113453450D01*
X98984286Y-113453450D02*
X98948572Y-113382021D01*
X98948572Y-113382021D02*
X98948572Y-113346307D01*
X98948572Y-113346307D02*
X98984286Y-113274878D01*
X98984286Y-113274878D02*
X99055715Y-113239164D01*
X99055715Y-113239164D02*
X99162857Y-113239164D01*
X99162857Y-113239164D02*
X99234286Y-113274878D01*
D10*
X83820000Y-102100000D02*
X83820000Y-114886420D01*
X109220000Y-114886420D02*
X109220000Y-102100000D01*
X83820000Y-114300000D02*
X109220000Y-114300000D01*
X83820000Y-114300000D02*
X109220000Y-114300000D01*
X83820000Y-114300000D02*
X84946504Y-113713579D01*
X83820000Y-114300000D02*
X84946504Y-114886421D01*
X109220000Y-114300000D02*
X108093496Y-114886421D01*
X109220000Y-114300000D02*
X108093496Y-113713579D01*
D11*
X94269999Y-109500592D02*
X94198570Y-109464878D01*
X94198570Y-109464878D02*
X94162856Y-109429164D01*
X94162856Y-109429164D02*
X94127142Y-109357735D01*
X94127142Y-109357735D02*
X94127142Y-109322021D01*
X94127142Y-109322021D02*
X94162856Y-109250592D01*
X94162856Y-109250592D02*
X94198570Y-109214878D01*
X94198570Y-109214878D02*
X94269999Y-109179164D01*
X94269999Y-109179164D02*
X94412856Y-109179164D01*
X94412856Y-109179164D02*
X94484285Y-109214878D01*
X94484285Y-109214878D02*
X94519999Y-109250592D01*
X94519999Y-109250592D02*
X94555713Y-109322021D01*
X94555713Y-109322021D02*
X94555713Y-109357735D01*
X94555713Y-109357735D02*
X94519999Y-109429164D01*
X94519999Y-109429164D02*
X94484285Y-109464878D01*
X94484285Y-109464878D02*
X94412856Y-109500592D01*
X94412856Y-109500592D02*
X94269999Y-109500592D01*
X94269999Y-109500592D02*
X94198570Y-109536307D01*
X94198570Y-109536307D02*
X94162856Y-109572021D01*
X94162856Y-109572021D02*
X94127142Y-109643450D01*
X94127142Y-109643450D02*
X94127142Y-109786307D01*
X94127142Y-109786307D02*
X94162856Y-109857735D01*
X94162856Y-109857735D02*
X94198570Y-109893450D01*
X94198570Y-109893450D02*
X94269999Y-109929164D01*
X94269999Y-109929164D02*
X94412856Y-109929164D01*
X94412856Y-109929164D02*
X94484285Y-109893450D01*
X94484285Y-109893450D02*
X94519999Y-109857735D01*
X94519999Y-109857735D02*
X94555713Y-109786307D01*
X94555713Y-109786307D02*
X94555713Y-109643450D01*
X94555713Y-109643450D02*
X94519999Y-109572021D01*
X94519999Y-109572021D02*
X94484285Y-109536307D01*
X94484285Y-109536307D02*
X94412856Y-109500592D01*
X95019999Y-109179164D02*
X95091428Y-109179164D01*
X95091428Y-109179164D02*
X95162856Y-109214878D01*
X95162856Y-109214878D02*
X95198571Y-109250592D01*
X95198571Y-109250592D02*
X95234285Y-109322021D01*
X95234285Y-109322021D02*
X95269999Y-109464878D01*
X95269999Y-109464878D02*
X95269999Y-109643450D01*
X95269999Y-109643450D02*
X95234285Y-109786307D01*
X95234285Y-109786307D02*
X95198571Y-109857735D01*
X95198571Y-109857735D02*
X95162856Y-109893450D01*
X95162856Y-109893450D02*
X95091428Y-109929164D01*
X95091428Y-109929164D02*
X95019999Y-109929164D01*
X95019999Y-109929164D02*
X94948571Y-109893450D01*
X94948571Y-109893450D02*
X94912856Y-109857735D01*
X94912856Y-109857735D02*
X94877142Y-109786307D01*
X94877142Y-109786307D02*
X94841428Y-109643450D01*
X94841428Y-109643450D02*
X94841428Y-109464878D01*
X94841428Y-109464878D02*
X94877142Y-109322021D01*
X94877142Y-109322021D02*
X94912856Y-109250592D01*
X94912856Y-109250592D02*
X94948571Y-109214878D01*
X94948571Y-109214878D02*
X95019999Y-109179164D01*
X95734285Y-109179164D02*
X95805714Y-109179164D01*
X95805714Y-109179164D02*
X95877142Y-109214878D01*
X95877142Y-109214878D02*
X95912857Y-109250592D01*
X95912857Y-109250592D02*
X95948571Y-109322021D01*
X95948571Y-109322021D02*
X95984285Y-109464878D01*
X95984285Y-109464878D02*
X95984285Y-109643450D01*
X95984285Y-109643450D02*
X95948571Y-109786307D01*
X95948571Y-109786307D02*
X95912857Y-109857735D01*
X95912857Y-109857735D02*
X95877142Y-109893450D01*
X95877142Y-109893450D02*
X95805714Y-109929164D01*
X95805714Y-109929164D02*
X95734285Y-109929164D01*
X95734285Y-109929164D02*
X95662857Y-109893450D01*
X95662857Y-109893450D02*
X95627142Y-109857735D01*
X95627142Y-109857735D02*
X95591428Y-109786307D01*
X95591428Y-109786307D02*
X95555714Y-109643450D01*
X95555714Y-109643450D02*
X95555714Y-109464878D01*
X95555714Y-109464878D02*
X95591428Y-109322021D01*
X95591428Y-109322021D02*
X95627142Y-109250592D01*
X95627142Y-109250592D02*
X95662857Y-109214878D01*
X95662857Y-109214878D02*
X95734285Y-109179164D01*
X96877143Y-109929164D02*
X96877143Y-109429164D01*
X96877143Y-109500592D02*
X96912857Y-109464878D01*
X96912857Y-109464878D02*
X96984286Y-109429164D01*
X96984286Y-109429164D02*
X97091429Y-109429164D01*
X97091429Y-109429164D02*
X97162857Y-109464878D01*
X97162857Y-109464878D02*
X97198572Y-109536307D01*
X97198572Y-109536307D02*
X97198572Y-109929164D01*
X97198572Y-109536307D02*
X97234286Y-109464878D01*
X97234286Y-109464878D02*
X97305714Y-109429164D01*
X97305714Y-109429164D02*
X97412857Y-109429164D01*
X97412857Y-109429164D02*
X97484286Y-109464878D01*
X97484286Y-109464878D02*
X97520000Y-109536307D01*
X97520000Y-109536307D02*
X97520000Y-109929164D01*
X97877143Y-109929164D02*
X97877143Y-109429164D01*
X97877143Y-109179164D02*
X97841429Y-109214878D01*
X97841429Y-109214878D02*
X97877143Y-109250592D01*
X97877143Y-109250592D02*
X97912857Y-109214878D01*
X97912857Y-109214878D02*
X97877143Y-109179164D01*
X97877143Y-109179164D02*
X97877143Y-109250592D01*
X98341429Y-109929164D02*
X98270000Y-109893450D01*
X98270000Y-109893450D02*
X98234286Y-109822021D01*
X98234286Y-109822021D02*
X98234286Y-109179164D01*
X98591429Y-109893450D02*
X98662857Y-109929164D01*
X98662857Y-109929164D02*
X98805714Y-109929164D01*
X98805714Y-109929164D02*
X98877143Y-109893450D01*
X98877143Y-109893450D02*
X98912857Y-109822021D01*
X98912857Y-109822021D02*
X98912857Y-109786307D01*
X98912857Y-109786307D02*
X98877143Y-109714878D01*
X98877143Y-109714878D02*
X98805714Y-109679164D01*
X98805714Y-109679164D02*
X98698572Y-109679164D01*
X98698572Y-109679164D02*
X98627143Y-109643450D01*
X98627143Y-109643450D02*
X98591429Y-109572021D01*
X98591429Y-109572021D02*
X98591429Y-109536307D01*
X98591429Y-109536307D02*
X98627143Y-109464878D01*
X98627143Y-109464878D02*
X98698572Y-109429164D01*
X98698572Y-109429164D02*
X98805714Y-109429164D01*
X98805714Y-109429164D02*
X98877143Y-109464878D01*
D10*
X86360000Y-99560000D02*
X86360000Y-111076420D01*
X106680000Y-111076420D02*
X106680000Y-99560000D01*
X86360000Y-110490000D02*
X106680000Y-110490000D01*
X86360000Y-110490000D02*
X106680000Y-110490000D01*
X86360000Y-110490000D02*
X87486504Y-109903579D01*
X86360000Y-110490000D02*
X87486504Y-111076421D01*
X106680000Y-110490000D02*
X105553496Y-111076421D01*
X106680000Y-110490000D02*
X105553496Y-109903579D01*
D11*
X73099164Y-82648929D02*
X73099164Y-83077500D01*
X73099164Y-82863215D02*
X72349164Y-82863215D01*
X72349164Y-82863215D02*
X72456307Y-82934643D01*
X72456307Y-82934643D02*
X72527735Y-83006072D01*
X72527735Y-83006072D02*
X72563450Y-83077500D01*
X72349164Y-82006072D02*
X72349164Y-82148929D01*
X72349164Y-82148929D02*
X72384878Y-82220357D01*
X72384878Y-82220357D02*
X72420592Y-82256072D01*
X72420592Y-82256072D02*
X72527735Y-82327500D01*
X72527735Y-82327500D02*
X72670592Y-82363214D01*
X72670592Y-82363214D02*
X72956307Y-82363214D01*
X72956307Y-82363214D02*
X73027735Y-82327500D01*
X73027735Y-82327500D02*
X73063450Y-82291786D01*
X73063450Y-82291786D02*
X73099164Y-82220357D01*
X73099164Y-82220357D02*
X73099164Y-82077500D01*
X73099164Y-82077500D02*
X73063450Y-82006072D01*
X73063450Y-82006072D02*
X73027735Y-81970357D01*
X73027735Y-81970357D02*
X72956307Y-81934643D01*
X72956307Y-81934643D02*
X72777735Y-81934643D01*
X72777735Y-81934643D02*
X72706307Y-81970357D01*
X72706307Y-81970357D02*
X72670592Y-82006072D01*
X72670592Y-82006072D02*
X72634878Y-82077500D01*
X72634878Y-82077500D02*
X72634878Y-82220357D01*
X72634878Y-82220357D02*
X72670592Y-82291786D01*
X72670592Y-82291786D02*
X72706307Y-82327500D01*
X72706307Y-82327500D02*
X72777735Y-82363214D01*
X72349164Y-81684643D02*
X72349164Y-81184643D01*
X72349164Y-81184643D02*
X73099164Y-81506071D01*
X72349164Y-80541785D02*
X72349164Y-80898928D01*
X72349164Y-80898928D02*
X72706307Y-80934642D01*
X72706307Y-80934642D02*
X72670592Y-80898928D01*
X72670592Y-80898928D02*
X72634878Y-80827500D01*
X72634878Y-80827500D02*
X72634878Y-80648928D01*
X72634878Y-80648928D02*
X72670592Y-80577500D01*
X72670592Y-80577500D02*
X72706307Y-80541785D01*
X72706307Y-80541785D02*
X72777735Y-80506071D01*
X72777735Y-80506071D02*
X72956307Y-80506071D01*
X72956307Y-80506071D02*
X73027735Y-80541785D01*
X73027735Y-80541785D02*
X73063450Y-80577500D01*
X73063450Y-80577500D02*
X73099164Y-80648928D01*
X73099164Y-80648928D02*
X73099164Y-80827500D01*
X73099164Y-80827500D02*
X73063450Y-80898928D01*
X73063450Y-80898928D02*
X73027735Y-80934642D01*
X73099164Y-79613213D02*
X72599164Y-79613213D01*
X72670592Y-79613213D02*
X72634878Y-79577499D01*
X72634878Y-79577499D02*
X72599164Y-79506070D01*
X72599164Y-79506070D02*
X72599164Y-79398927D01*
X72599164Y-79398927D02*
X72634878Y-79327499D01*
X72634878Y-79327499D02*
X72706307Y-79291785D01*
X72706307Y-79291785D02*
X73099164Y-79291785D01*
X72706307Y-79291785D02*
X72634878Y-79256070D01*
X72634878Y-79256070D02*
X72599164Y-79184642D01*
X72599164Y-79184642D02*
X72599164Y-79077499D01*
X72599164Y-79077499D02*
X72634878Y-79006070D01*
X72634878Y-79006070D02*
X72706307Y-78970356D01*
X72706307Y-78970356D02*
X73099164Y-78970356D01*
X73099164Y-78613213D02*
X72599164Y-78613213D01*
X72349164Y-78613213D02*
X72384878Y-78648927D01*
X72384878Y-78648927D02*
X72420592Y-78613213D01*
X72420592Y-78613213D02*
X72384878Y-78577499D01*
X72384878Y-78577499D02*
X72349164Y-78613213D01*
X72349164Y-78613213D02*
X72420592Y-78613213D01*
X73099164Y-78148927D02*
X73063450Y-78220356D01*
X73063450Y-78220356D02*
X72992021Y-78256070D01*
X72992021Y-78256070D02*
X72349164Y-78256070D01*
X73063450Y-77898927D02*
X73099164Y-77827499D01*
X73099164Y-77827499D02*
X73099164Y-77684642D01*
X73099164Y-77684642D02*
X73063450Y-77613213D01*
X73063450Y-77613213D02*
X72992021Y-77577499D01*
X72992021Y-77577499D02*
X72956307Y-77577499D01*
X72956307Y-77577499D02*
X72884878Y-77613213D01*
X72884878Y-77613213D02*
X72849164Y-77684642D01*
X72849164Y-77684642D02*
X72849164Y-77791785D01*
X72849164Y-77791785D02*
X72813450Y-77863213D01*
X72813450Y-77863213D02*
X72742021Y-77898927D01*
X72742021Y-77898927D02*
X72706307Y-77898927D01*
X72706307Y-77898927D02*
X72634878Y-77863213D01*
X72634878Y-77863213D02*
X72599164Y-77791785D01*
X72599164Y-77791785D02*
X72599164Y-77684642D01*
X72599164Y-77684642D02*
X72634878Y-77613213D01*
D10*
X83320000Y-59055000D02*
X73073580Y-59055000D01*
X73073580Y-101600000D02*
X83320000Y-101600000D01*
X73660000Y-59055000D02*
X73660000Y-101600000D01*
X73660000Y-59055000D02*
X73660000Y-101600000D01*
X73660000Y-59055000D02*
X74246421Y-60181504D01*
X73660000Y-59055000D02*
X73073579Y-60181504D01*
X73660000Y-101600000D02*
X73073579Y-100473496D01*
X73660000Y-101600000D02*
X74246421Y-100473496D01*
D11*
X80869164Y-66412857D02*
X80869164Y-66770000D01*
X80869164Y-66770000D02*
X81226307Y-66805714D01*
X81226307Y-66805714D02*
X81190592Y-66770000D01*
X81190592Y-66770000D02*
X81154878Y-66698572D01*
X81154878Y-66698572D02*
X81154878Y-66520000D01*
X81154878Y-66520000D02*
X81190592Y-66448572D01*
X81190592Y-66448572D02*
X81226307Y-66412857D01*
X81226307Y-66412857D02*
X81297735Y-66377143D01*
X81297735Y-66377143D02*
X81476307Y-66377143D01*
X81476307Y-66377143D02*
X81547735Y-66412857D01*
X81547735Y-66412857D02*
X81583450Y-66448572D01*
X81583450Y-66448572D02*
X81619164Y-66520000D01*
X81619164Y-66520000D02*
X81619164Y-66698572D01*
X81619164Y-66698572D02*
X81583450Y-66770000D01*
X81583450Y-66770000D02*
X81547735Y-66805714D01*
X80869164Y-65698571D02*
X80869164Y-66055714D01*
X80869164Y-66055714D02*
X81226307Y-66091428D01*
X81226307Y-66091428D02*
X81190592Y-66055714D01*
X81190592Y-66055714D02*
X81154878Y-65984286D01*
X81154878Y-65984286D02*
X81154878Y-65805714D01*
X81154878Y-65805714D02*
X81190592Y-65734286D01*
X81190592Y-65734286D02*
X81226307Y-65698571D01*
X81226307Y-65698571D02*
X81297735Y-65662857D01*
X81297735Y-65662857D02*
X81476307Y-65662857D01*
X81476307Y-65662857D02*
X81547735Y-65698571D01*
X81547735Y-65698571D02*
X81583450Y-65734286D01*
X81583450Y-65734286D02*
X81619164Y-65805714D01*
X81619164Y-65805714D02*
X81619164Y-65984286D01*
X81619164Y-65984286D02*
X81583450Y-66055714D01*
X81583450Y-66055714D02*
X81547735Y-66091428D01*
X81619164Y-64769999D02*
X81119164Y-64769999D01*
X81190592Y-64769999D02*
X81154878Y-64734285D01*
X81154878Y-64734285D02*
X81119164Y-64662856D01*
X81119164Y-64662856D02*
X81119164Y-64555713D01*
X81119164Y-64555713D02*
X81154878Y-64484285D01*
X81154878Y-64484285D02*
X81226307Y-64448571D01*
X81226307Y-64448571D02*
X81619164Y-64448571D01*
X81226307Y-64448571D02*
X81154878Y-64412856D01*
X81154878Y-64412856D02*
X81119164Y-64341428D01*
X81119164Y-64341428D02*
X81119164Y-64234285D01*
X81119164Y-64234285D02*
X81154878Y-64162856D01*
X81154878Y-64162856D02*
X81226307Y-64127142D01*
X81226307Y-64127142D02*
X81619164Y-64127142D01*
X81619164Y-63769999D02*
X81119164Y-63769999D01*
X80869164Y-63769999D02*
X80904878Y-63805713D01*
X80904878Y-63805713D02*
X80940592Y-63769999D01*
X80940592Y-63769999D02*
X80904878Y-63734285D01*
X80904878Y-63734285D02*
X80869164Y-63769999D01*
X80869164Y-63769999D02*
X80940592Y-63769999D01*
X81619164Y-63305713D02*
X81583450Y-63377142D01*
X81583450Y-63377142D02*
X81512021Y-63412856D01*
X81512021Y-63412856D02*
X80869164Y-63412856D01*
X81583450Y-63055713D02*
X81619164Y-62984285D01*
X81619164Y-62984285D02*
X81619164Y-62841428D01*
X81619164Y-62841428D02*
X81583450Y-62769999D01*
X81583450Y-62769999D02*
X81512021Y-62734285D01*
X81512021Y-62734285D02*
X81476307Y-62734285D01*
X81476307Y-62734285D02*
X81404878Y-62769999D01*
X81404878Y-62769999D02*
X81369164Y-62841428D01*
X81369164Y-62841428D02*
X81369164Y-62948571D01*
X81369164Y-62948571D02*
X81333450Y-63019999D01*
X81333450Y-63019999D02*
X81262021Y-63055713D01*
X81262021Y-63055713D02*
X81226307Y-63055713D01*
X81226307Y-63055713D02*
X81154878Y-63019999D01*
X81154878Y-63019999D02*
X81119164Y-62948571D01*
X81119164Y-62948571D02*
X81119164Y-62841428D01*
X81119164Y-62841428D02*
X81154878Y-62769999D01*
D10*
X85860000Y-68580000D02*
X80693580Y-68580000D01*
X80693580Y-69977000D02*
X89924000Y-69977000D01*
X81280000Y-68580000D02*
X81280000Y-69977000D01*
X81280000Y-68580000D02*
X81280000Y-69977000D01*
X81280000Y-68580000D02*
X81866421Y-69706504D01*
X81280000Y-68580000D02*
X80693579Y-69706504D01*
X81280000Y-69977000D02*
X80693579Y-68850496D01*
X81280000Y-69977000D02*
X81866421Y-68850496D01*
D11*
X91758095Y-103324819D02*
X91186667Y-103324819D01*
X91472381Y-103324819D02*
X91472381Y-102324819D01*
X91472381Y-102324819D02*
X91377143Y-102467676D01*
X91377143Y-102467676D02*
X91281905Y-102562914D01*
X91281905Y-102562914D02*
X91186667Y-102610533D01*
X92615238Y-102324819D02*
X92424762Y-102324819D01*
X92424762Y-102324819D02*
X92329524Y-102372438D01*
X92329524Y-102372438D02*
X92281905Y-102420057D01*
X92281905Y-102420057D02*
X92186667Y-102562914D01*
X92186667Y-102562914D02*
X92139048Y-102753390D01*
X92139048Y-102753390D02*
X92139048Y-103134342D01*
X92139048Y-103134342D02*
X92186667Y-103229580D01*
X92186667Y-103229580D02*
X92234286Y-103277200D01*
X92234286Y-103277200D02*
X92329524Y-103324819D01*
X92329524Y-103324819D02*
X92520000Y-103324819D01*
X92520000Y-103324819D02*
X92615238Y-103277200D01*
X92615238Y-103277200D02*
X92662857Y-103229580D01*
X92662857Y-103229580D02*
X92710476Y-103134342D01*
X92710476Y-103134342D02*
X92710476Y-102896247D01*
X92710476Y-102896247D02*
X92662857Y-102801009D01*
X92662857Y-102801009D02*
X92615238Y-102753390D01*
X92615238Y-102753390D02*
X92520000Y-102705771D01*
X92520000Y-102705771D02*
X92329524Y-102705771D01*
X92329524Y-102705771D02*
X92234286Y-102753390D01*
X92234286Y-102753390D02*
X92186667Y-102801009D01*
X92186667Y-102801009D02*
X92139048Y-102896247D01*
X93329524Y-102324819D02*
X93424762Y-102324819D01*
X93424762Y-102324819D02*
X93520000Y-102372438D01*
X93520000Y-102372438D02*
X93567619Y-102420057D01*
X93567619Y-102420057D02*
X93615238Y-102515295D01*
X93615238Y-102515295D02*
X93662857Y-102705771D01*
X93662857Y-102705771D02*
X93662857Y-102943866D01*
X93662857Y-102943866D02*
X93615238Y-103134342D01*
X93615238Y-103134342D02*
X93567619Y-103229580D01*
X93567619Y-103229580D02*
X93520000Y-103277200D01*
X93520000Y-103277200D02*
X93424762Y-103324819D01*
X93424762Y-103324819D02*
X93329524Y-103324819D01*
X93329524Y-103324819D02*
X93234286Y-103277200D01*
X93234286Y-103277200D02*
X93186667Y-103229580D01*
X93186667Y-103229580D02*
X93139048Y-103134342D01*
X93139048Y-103134342D02*
X93091429Y-102943866D01*
X93091429Y-102943866D02*
X93091429Y-102705771D01*
X93091429Y-102705771D02*
X93139048Y-102515295D01*
X93139048Y-102515295D02*
X93186667Y-102420057D01*
X93186667Y-102420057D02*
X93234286Y-102372438D01*
X93234286Y-102372438D02*
X93329524Y-102324819D01*
X94091429Y-103229580D02*
X94139048Y-103277200D01*
X94139048Y-103277200D02*
X94091429Y-103324819D01*
X94091429Y-103324819D02*
X94043810Y-103277200D01*
X94043810Y-103277200D02*
X94091429Y-103229580D01*
X94091429Y-103229580D02*
X94091429Y-103324819D01*
X94758095Y-102324819D02*
X94853333Y-102324819D01*
X94853333Y-102324819D02*
X94948571Y-102372438D01*
X94948571Y-102372438D02*
X94996190Y-102420057D01*
X94996190Y-102420057D02*
X95043809Y-102515295D01*
X95043809Y-102515295D02*
X95091428Y-102705771D01*
X95091428Y-102705771D02*
X95091428Y-102943866D01*
X95091428Y-102943866D02*
X95043809Y-103134342D01*
X95043809Y-103134342D02*
X94996190Y-103229580D01*
X94996190Y-103229580D02*
X94948571Y-103277200D01*
X94948571Y-103277200D02*
X94853333Y-103324819D01*
X94853333Y-103324819D02*
X94758095Y-103324819D01*
X94758095Y-103324819D02*
X94662857Y-103277200D01*
X94662857Y-103277200D02*
X94615238Y-103229580D01*
X94615238Y-103229580D02*
X94567619Y-103134342D01*
X94567619Y-103134342D02*
X94520000Y-102943866D01*
X94520000Y-102943866D02*
X94520000Y-102705771D01*
X94520000Y-102705771D02*
X94567619Y-102515295D01*
X94567619Y-102515295D02*
X94615238Y-102420057D01*
X94615238Y-102420057D02*
X94662857Y-102372438D01*
X94662857Y-102372438D02*
X94758095Y-102324819D01*
X95710476Y-102324819D02*
X95805714Y-102324819D01*
X95805714Y-102324819D02*
X95900952Y-102372438D01*
X95900952Y-102372438D02*
X95948571Y-102420057D01*
X95948571Y-102420057D02*
X95996190Y-102515295D01*
X95996190Y-102515295D02*
X96043809Y-102705771D01*
X96043809Y-102705771D02*
X96043809Y-102943866D01*
X96043809Y-102943866D02*
X95996190Y-103134342D01*
X95996190Y-103134342D02*
X95948571Y-103229580D01*
X95948571Y-103229580D02*
X95900952Y-103277200D01*
X95900952Y-103277200D02*
X95805714Y-103324819D01*
X95805714Y-103324819D02*
X95710476Y-103324819D01*
X95710476Y-103324819D02*
X95615238Y-103277200D01*
X95615238Y-103277200D02*
X95567619Y-103229580D01*
X95567619Y-103229580D02*
X95520000Y-103134342D01*
X95520000Y-103134342D02*
X95472381Y-102943866D01*
X95472381Y-102943866D02*
X95472381Y-102705771D01*
X95472381Y-102705771D02*
X95520000Y-102515295D01*
X95520000Y-102515295D02*
X95567619Y-102420057D01*
X95567619Y-102420057D02*
X95615238Y-102372438D01*
X95615238Y-102372438D02*
X95710476Y-102324819D01*
X96662857Y-102324819D02*
X96758095Y-102324819D01*
X96758095Y-102324819D02*
X96853333Y-102372438D01*
X96853333Y-102372438D02*
X96900952Y-102420057D01*
X96900952Y-102420057D02*
X96948571Y-102515295D01*
X96948571Y-102515295D02*
X96996190Y-102705771D01*
X96996190Y-102705771D02*
X96996190Y-102943866D01*
X96996190Y-102943866D02*
X96948571Y-103134342D01*
X96948571Y-103134342D02*
X96900952Y-103229580D01*
X96900952Y-103229580D02*
X96853333Y-103277200D01*
X96853333Y-103277200D02*
X96758095Y-103324819D01*
X96758095Y-103324819D02*
X96662857Y-103324819D01*
X96662857Y-103324819D02*
X96567619Y-103277200D01*
X96567619Y-103277200D02*
X96520000Y-103229580D01*
X96520000Y-103229580D02*
X96472381Y-103134342D01*
X96472381Y-103134342D02*
X96424762Y-102943866D01*
X96424762Y-102943866D02*
X96424762Y-102705771D01*
X96424762Y-102705771D02*
X96472381Y-102515295D01*
X96472381Y-102515295D02*
X96520000Y-102420057D01*
X96520000Y-102420057D02*
X96567619Y-102372438D01*
X96567619Y-102372438D02*
X96662857Y-102324819D01*
X97615238Y-102324819D02*
X97710476Y-102324819D01*
X97710476Y-102324819D02*
X97805714Y-102372438D01*
X97805714Y-102372438D02*
X97853333Y-102420057D01*
X97853333Y-102420057D02*
X97900952Y-102515295D01*
X97900952Y-102515295D02*
X97948571Y-102705771D01*
X97948571Y-102705771D02*
X97948571Y-102943866D01*
X97948571Y-102943866D02*
X97900952Y-103134342D01*
X97900952Y-103134342D02*
X97853333Y-103229580D01*
X97853333Y-103229580D02*
X97805714Y-103277200D01*
X97805714Y-103277200D02*
X97710476Y-103324819D01*
X97710476Y-103324819D02*
X97615238Y-103324819D01*
X97615238Y-103324819D02*
X97520000Y-103277200D01*
X97520000Y-103277200D02*
X97472381Y-103229580D01*
X97472381Y-103229580D02*
X97424762Y-103134342D01*
X97424762Y-103134342D02*
X97377143Y-102943866D01*
X97377143Y-102943866D02*
X97377143Y-102705771D01*
X97377143Y-102705771D02*
X97424762Y-102515295D01*
X97424762Y-102515295D02*
X97472381Y-102420057D01*
X97472381Y-102420057D02*
X97520000Y-102372438D01*
X97520000Y-102372438D02*
X97615238Y-102324819D01*
X99139048Y-103324819D02*
X99139048Y-102658152D01*
X99139048Y-102753390D02*
X99186667Y-102705771D01*
X99186667Y-102705771D02*
X99281905Y-102658152D01*
X99281905Y-102658152D02*
X99424762Y-102658152D01*
X99424762Y-102658152D02*
X99520000Y-102705771D01*
X99520000Y-102705771D02*
X99567619Y-102801009D01*
X99567619Y-102801009D02*
X99567619Y-103324819D01*
X99567619Y-102801009D02*
X99615238Y-102705771D01*
X99615238Y-102705771D02*
X99710476Y-102658152D01*
X99710476Y-102658152D02*
X99853333Y-102658152D01*
X99853333Y-102658152D02*
X99948572Y-102705771D01*
X99948572Y-102705771D02*
X99996191Y-102801009D01*
X99996191Y-102801009D02*
X99996191Y-103324819D01*
X100472381Y-103324819D02*
X100472381Y-102658152D01*
X100472381Y-102324819D02*
X100424762Y-102372438D01*
X100424762Y-102372438D02*
X100472381Y-102420057D01*
X100472381Y-102420057D02*
X100520000Y-102372438D01*
X100520000Y-102372438D02*
X100472381Y-102324819D01*
X100472381Y-102324819D02*
X100472381Y-102420057D01*
X101091428Y-103324819D02*
X100996190Y-103277200D01*
X100996190Y-103277200D02*
X100948571Y-103181961D01*
X100948571Y-103181961D02*
X100948571Y-102324819D01*
X101424762Y-103277200D02*
X101520000Y-103324819D01*
X101520000Y-103324819D02*
X101710476Y-103324819D01*
X101710476Y-103324819D02*
X101805714Y-103277200D01*
X101805714Y-103277200D02*
X101853333Y-103181961D01*
X101853333Y-103181961D02*
X101853333Y-103134342D01*
X101853333Y-103134342D02*
X101805714Y-103039104D01*
X101805714Y-103039104D02*
X101710476Y-102991485D01*
X101710476Y-102991485D02*
X101567619Y-102991485D01*
X101567619Y-102991485D02*
X101472381Y-102943866D01*
X101472381Y-102943866D02*
X101424762Y-102848628D01*
X101424762Y-102848628D02*
X101424762Y-102801009D01*
X101424762Y-102801009D02*
X101472381Y-102705771D01*
X101472381Y-102705771D02*
X101567619Y-102658152D01*
X101567619Y-102658152D02*
X101710476Y-102658152D01*
X101710476Y-102658152D02*
X101805714Y-102705771D01*
X86360000Y-61460000D02*
X86360000Y-103456420D01*
X90424000Y-103456420D02*
X90424000Y-62857000D01*
X86360000Y-102870000D02*
X90424000Y-102870000D01*
X86360000Y-102870000D02*
X90424000Y-102870000D01*
X86360000Y-102870000D02*
X87486504Y-102283579D01*
X86360000Y-102870000D02*
X87486504Y-103456421D01*
X90424000Y-102870000D02*
X89297496Y-103456421D01*
X90424000Y-102870000D02*
X89297496Y-102283579D01*
X114330592Y-84030000D02*
X114294878Y-83994286D01*
X114294878Y-83994286D02*
X114259164Y-83922858D01*
X114259164Y-83922858D02*
X114259164Y-83744286D01*
X114259164Y-83744286D02*
X114294878Y-83672858D01*
X114294878Y-83672858D02*
X114330592Y-83637143D01*
X114330592Y-83637143D02*
X114402021Y-83601429D01*
X114402021Y-83601429D02*
X114473450Y-83601429D01*
X114473450Y-83601429D02*
X114580592Y-83637143D01*
X114580592Y-83637143D02*
X115009164Y-84065715D01*
X115009164Y-84065715D02*
X115009164Y-83601429D01*
X115009164Y-82887143D02*
X115009164Y-83315714D01*
X115009164Y-83101429D02*
X114259164Y-83101429D01*
X114259164Y-83101429D02*
X114366307Y-83172857D01*
X114366307Y-83172857D02*
X114437735Y-83244286D01*
X114437735Y-83244286D02*
X114473450Y-83315714D01*
X114259164Y-82422857D02*
X114259164Y-82351428D01*
X114259164Y-82351428D02*
X114294878Y-82280000D01*
X114294878Y-82280000D02*
X114330592Y-82244286D01*
X114330592Y-82244286D02*
X114402021Y-82208571D01*
X114402021Y-82208571D02*
X114544878Y-82172857D01*
X114544878Y-82172857D02*
X114723450Y-82172857D01*
X114723450Y-82172857D02*
X114866307Y-82208571D01*
X114866307Y-82208571D02*
X114937735Y-82244286D01*
X114937735Y-82244286D02*
X114973450Y-82280000D01*
X114973450Y-82280000D02*
X115009164Y-82351428D01*
X115009164Y-82351428D02*
X115009164Y-82422857D01*
X115009164Y-82422857D02*
X114973450Y-82494286D01*
X114973450Y-82494286D02*
X114937735Y-82530000D01*
X114937735Y-82530000D02*
X114866307Y-82565714D01*
X114866307Y-82565714D02*
X114723450Y-82601428D01*
X114723450Y-82601428D02*
X114544878Y-82601428D01*
X114544878Y-82601428D02*
X114402021Y-82565714D01*
X114402021Y-82565714D02*
X114330592Y-82530000D01*
X114330592Y-82530000D02*
X114294878Y-82494286D01*
X114294878Y-82494286D02*
X114259164Y-82422857D01*
X114259164Y-81708571D02*
X114259164Y-81637142D01*
X114259164Y-81637142D02*
X114294878Y-81565714D01*
X114294878Y-81565714D02*
X114330592Y-81530000D01*
X114330592Y-81530000D02*
X114402021Y-81494285D01*
X114402021Y-81494285D02*
X114544878Y-81458571D01*
X114544878Y-81458571D02*
X114723450Y-81458571D01*
X114723450Y-81458571D02*
X114866307Y-81494285D01*
X114866307Y-81494285D02*
X114937735Y-81530000D01*
X114937735Y-81530000D02*
X114973450Y-81565714D01*
X114973450Y-81565714D02*
X115009164Y-81637142D01*
X115009164Y-81637142D02*
X115009164Y-81708571D01*
X115009164Y-81708571D02*
X114973450Y-81780000D01*
X114973450Y-81780000D02*
X114937735Y-81815714D01*
X114937735Y-81815714D02*
X114866307Y-81851428D01*
X114866307Y-81851428D02*
X114723450Y-81887142D01*
X114723450Y-81887142D02*
X114544878Y-81887142D01*
X114544878Y-81887142D02*
X114402021Y-81851428D01*
X114402021Y-81851428D02*
X114330592Y-81815714D01*
X114330592Y-81815714D02*
X114294878Y-81780000D01*
X114294878Y-81780000D02*
X114259164Y-81708571D01*
X115009164Y-80565713D02*
X114509164Y-80565713D01*
X114580592Y-80565713D02*
X114544878Y-80529999D01*
X114544878Y-80529999D02*
X114509164Y-80458570D01*
X114509164Y-80458570D02*
X114509164Y-80351427D01*
X114509164Y-80351427D02*
X114544878Y-80279999D01*
X114544878Y-80279999D02*
X114616307Y-80244285D01*
X114616307Y-80244285D02*
X115009164Y-80244285D01*
X114616307Y-80244285D02*
X114544878Y-80208570D01*
X114544878Y-80208570D02*
X114509164Y-80137142D01*
X114509164Y-80137142D02*
X114509164Y-80029999D01*
X114509164Y-80029999D02*
X114544878Y-79958570D01*
X114544878Y-79958570D02*
X114616307Y-79922856D01*
X114616307Y-79922856D02*
X115009164Y-79922856D01*
X115009164Y-79565713D02*
X114509164Y-79565713D01*
X114259164Y-79565713D02*
X114294878Y-79601427D01*
X114294878Y-79601427D02*
X114330592Y-79565713D01*
X114330592Y-79565713D02*
X114294878Y-79529999D01*
X114294878Y-79529999D02*
X114259164Y-79565713D01*
X114259164Y-79565713D02*
X114330592Y-79565713D01*
X115009164Y-79101427D02*
X114973450Y-79172856D01*
X114973450Y-79172856D02*
X114902021Y-79208570D01*
X114902021Y-79208570D02*
X114259164Y-79208570D01*
X114973450Y-78851427D02*
X115009164Y-78779999D01*
X115009164Y-78779999D02*
X115009164Y-78637142D01*
X115009164Y-78637142D02*
X114973450Y-78565713D01*
X114973450Y-78565713D02*
X114902021Y-78529999D01*
X114902021Y-78529999D02*
X114866307Y-78529999D01*
X114866307Y-78529999D02*
X114794878Y-78565713D01*
X114794878Y-78565713D02*
X114759164Y-78637142D01*
X114759164Y-78637142D02*
X114759164Y-78744285D01*
X114759164Y-78744285D02*
X114723450Y-78815713D01*
X114723450Y-78815713D02*
X114652021Y-78851427D01*
X114652021Y-78851427D02*
X114616307Y-78851427D01*
X114616307Y-78851427D02*
X114544878Y-78815713D01*
X114544878Y-78815713D02*
X114509164Y-78744285D01*
X114509164Y-78744285D02*
X114509164Y-78637142D01*
X114509164Y-78637142D02*
X114544878Y-78565713D01*
D10*
X104640000Y-54610000D02*
X116156420Y-54610000D01*
X116156420Y-107950000D02*
X104640000Y-107950000D01*
X115570000Y-54610000D02*
X115570000Y-107950000D01*
X115570000Y-54610000D02*
X115570000Y-107950000D01*
X115570000Y-54610000D02*
X116156421Y-55736504D01*
X115570000Y-54610000D02*
X114983579Y-55736504D01*
X115570000Y-107950000D02*
X114983579Y-106823496D01*
X115570000Y-107950000D02*
X116156421Y-106823496D01*
D11*
X90388570Y-37539164D02*
X89959999Y-37539164D01*
X90174284Y-37539164D02*
X90174284Y-36789164D01*
X90174284Y-36789164D02*
X90102856Y-36896307D01*
X90102856Y-36896307D02*
X90031427Y-36967735D01*
X90031427Y-36967735D02*
X89959999Y-37003450D01*
X90638570Y-36789164D02*
X91102856Y-36789164D01*
X91102856Y-36789164D02*
X90852856Y-37074878D01*
X90852856Y-37074878D02*
X90959999Y-37074878D01*
X90959999Y-37074878D02*
X91031428Y-37110592D01*
X91031428Y-37110592D02*
X91067142Y-37146307D01*
X91067142Y-37146307D02*
X91102856Y-37217735D01*
X91102856Y-37217735D02*
X91102856Y-37396307D01*
X91102856Y-37396307D02*
X91067142Y-37467735D01*
X91067142Y-37467735D02*
X91031428Y-37503450D01*
X91031428Y-37503450D02*
X90959999Y-37539164D01*
X90959999Y-37539164D02*
X90745713Y-37539164D01*
X90745713Y-37539164D02*
X90674285Y-37503450D01*
X90674285Y-37503450D02*
X90638570Y-37467735D01*
X91567142Y-36789164D02*
X91638571Y-36789164D01*
X91638571Y-36789164D02*
X91709999Y-36824878D01*
X91709999Y-36824878D02*
X91745714Y-36860592D01*
X91745714Y-36860592D02*
X91781428Y-36932021D01*
X91781428Y-36932021D02*
X91817142Y-37074878D01*
X91817142Y-37074878D02*
X91817142Y-37253450D01*
X91817142Y-37253450D02*
X91781428Y-37396307D01*
X91781428Y-37396307D02*
X91745714Y-37467735D01*
X91745714Y-37467735D02*
X91709999Y-37503450D01*
X91709999Y-37503450D02*
X91638571Y-37539164D01*
X91638571Y-37539164D02*
X91567142Y-37539164D01*
X91567142Y-37539164D02*
X91495714Y-37503450D01*
X91495714Y-37503450D02*
X91459999Y-37467735D01*
X91459999Y-37467735D02*
X91424285Y-37396307D01*
X91424285Y-37396307D02*
X91388571Y-37253450D01*
X91388571Y-37253450D02*
X91388571Y-37074878D01*
X91388571Y-37074878D02*
X91424285Y-36932021D01*
X91424285Y-36932021D02*
X91459999Y-36860592D01*
X91459999Y-36860592D02*
X91495714Y-36824878D01*
X91495714Y-36824878D02*
X91567142Y-36789164D01*
X92281428Y-36789164D02*
X92352857Y-36789164D01*
X92352857Y-36789164D02*
X92424285Y-36824878D01*
X92424285Y-36824878D02*
X92460000Y-36860592D01*
X92460000Y-36860592D02*
X92495714Y-36932021D01*
X92495714Y-36932021D02*
X92531428Y-37074878D01*
X92531428Y-37074878D02*
X92531428Y-37253450D01*
X92531428Y-37253450D02*
X92495714Y-37396307D01*
X92495714Y-37396307D02*
X92460000Y-37467735D01*
X92460000Y-37467735D02*
X92424285Y-37503450D01*
X92424285Y-37503450D02*
X92352857Y-37539164D01*
X92352857Y-37539164D02*
X92281428Y-37539164D01*
X92281428Y-37539164D02*
X92210000Y-37503450D01*
X92210000Y-37503450D02*
X92174285Y-37467735D01*
X92174285Y-37467735D02*
X92138571Y-37396307D01*
X92138571Y-37396307D02*
X92102857Y-37253450D01*
X92102857Y-37253450D02*
X92102857Y-37074878D01*
X92102857Y-37074878D02*
X92138571Y-36932021D01*
X92138571Y-36932021D02*
X92174285Y-36860592D01*
X92174285Y-36860592D02*
X92210000Y-36824878D01*
X92210000Y-36824878D02*
X92281428Y-36789164D01*
X93424286Y-37539164D02*
X93424286Y-37039164D01*
X93424286Y-37110592D02*
X93460000Y-37074878D01*
X93460000Y-37074878D02*
X93531429Y-37039164D01*
X93531429Y-37039164D02*
X93638572Y-37039164D01*
X93638572Y-37039164D02*
X93710000Y-37074878D01*
X93710000Y-37074878D02*
X93745715Y-37146307D01*
X93745715Y-37146307D02*
X93745715Y-37539164D01*
X93745715Y-37146307D02*
X93781429Y-37074878D01*
X93781429Y-37074878D02*
X93852857Y-37039164D01*
X93852857Y-37039164D02*
X93960000Y-37039164D01*
X93960000Y-37039164D02*
X94031429Y-37074878D01*
X94031429Y-37074878D02*
X94067143Y-37146307D01*
X94067143Y-37146307D02*
X94067143Y-37539164D01*
X94424286Y-37539164D02*
X94424286Y-37039164D01*
X94424286Y-36789164D02*
X94388572Y-36824878D01*
X94388572Y-36824878D02*
X94424286Y-36860592D01*
X94424286Y-36860592D02*
X94460000Y-36824878D01*
X94460000Y-36824878D02*
X94424286Y-36789164D01*
X94424286Y-36789164D02*
X94424286Y-36860592D01*
X94888572Y-37539164D02*
X94817143Y-37503450D01*
X94817143Y-37503450D02*
X94781429Y-37432021D01*
X94781429Y-37432021D02*
X94781429Y-36789164D01*
X95138572Y-37503450D02*
X95210000Y-37539164D01*
X95210000Y-37539164D02*
X95352857Y-37539164D01*
X95352857Y-37539164D02*
X95424286Y-37503450D01*
X95424286Y-37503450D02*
X95460000Y-37432021D01*
X95460000Y-37432021D02*
X95460000Y-37396307D01*
X95460000Y-37396307D02*
X95424286Y-37324878D01*
X95424286Y-37324878D02*
X95352857Y-37289164D01*
X95352857Y-37289164D02*
X95245715Y-37289164D01*
X95245715Y-37289164D02*
X95174286Y-37253450D01*
X95174286Y-37253450D02*
X95138572Y-37182021D01*
X95138572Y-37182021D02*
X95138572Y-37146307D01*
X95138572Y-37146307D02*
X95174286Y-37074878D01*
X95174286Y-37074878D02*
X95245715Y-37039164D01*
X95245715Y-37039164D02*
X95352857Y-37039164D01*
X95352857Y-37039164D02*
X95424286Y-37074878D01*
D10*
X76200000Y-40140000D02*
X76200000Y-37513580D01*
X109220000Y-37513580D02*
X109220000Y-40140000D01*
X76200000Y-38100000D02*
X109220000Y-38100000D01*
X76200000Y-38100000D02*
X109220000Y-38100000D01*
X76200000Y-38100000D02*
X77326504Y-37513579D01*
X76200000Y-38100000D02*
X77326504Y-38686421D01*
X109220000Y-38100000D02*
X108093496Y-38686421D01*
X109220000Y-38100000D02*
X108093496Y-37513579D01*
D11*
X110520592Y-83997503D02*
X110484878Y-83961789D01*
X110484878Y-83961789D02*
X110449164Y-83890361D01*
X110449164Y-83890361D02*
X110449164Y-83711789D01*
X110449164Y-83711789D02*
X110484878Y-83640361D01*
X110484878Y-83640361D02*
X110520592Y-83604646D01*
X110520592Y-83604646D02*
X110592021Y-83568932D01*
X110592021Y-83568932D02*
X110663450Y-83568932D01*
X110663450Y-83568932D02*
X110770592Y-83604646D01*
X110770592Y-83604646D02*
X111199164Y-84033218D01*
X111199164Y-84033218D02*
X111199164Y-83568932D01*
X110449164Y-83104646D02*
X110449164Y-83033217D01*
X110449164Y-83033217D02*
X110484878Y-82961789D01*
X110484878Y-82961789D02*
X110520592Y-82926075D01*
X110520592Y-82926075D02*
X110592021Y-82890360D01*
X110592021Y-82890360D02*
X110734878Y-82854646D01*
X110734878Y-82854646D02*
X110913450Y-82854646D01*
X110913450Y-82854646D02*
X111056307Y-82890360D01*
X111056307Y-82890360D02*
X111127735Y-82926075D01*
X111127735Y-82926075D02*
X111163450Y-82961789D01*
X111163450Y-82961789D02*
X111199164Y-83033217D01*
X111199164Y-83033217D02*
X111199164Y-83104646D01*
X111199164Y-83104646D02*
X111163450Y-83176075D01*
X111163450Y-83176075D02*
X111127735Y-83211789D01*
X111127735Y-83211789D02*
X111056307Y-83247503D01*
X111056307Y-83247503D02*
X110913450Y-83283217D01*
X110913450Y-83283217D02*
X110734878Y-83283217D01*
X110734878Y-83283217D02*
X110592021Y-83247503D01*
X110592021Y-83247503D02*
X110520592Y-83211789D01*
X110520592Y-83211789D02*
X110484878Y-83176075D01*
X110484878Y-83176075D02*
X110449164Y-83104646D01*
X110449164Y-82390360D02*
X110449164Y-82318931D01*
X110449164Y-82318931D02*
X110484878Y-82247503D01*
X110484878Y-82247503D02*
X110520592Y-82211789D01*
X110520592Y-82211789D02*
X110592021Y-82176074D01*
X110592021Y-82176074D02*
X110734878Y-82140360D01*
X110734878Y-82140360D02*
X110913450Y-82140360D01*
X110913450Y-82140360D02*
X111056307Y-82176074D01*
X111056307Y-82176074D02*
X111127735Y-82211789D01*
X111127735Y-82211789D02*
X111163450Y-82247503D01*
X111163450Y-82247503D02*
X111199164Y-82318931D01*
X111199164Y-82318931D02*
X111199164Y-82390360D01*
X111199164Y-82390360D02*
X111163450Y-82461789D01*
X111163450Y-82461789D02*
X111127735Y-82497503D01*
X111127735Y-82497503D02*
X111056307Y-82533217D01*
X111056307Y-82533217D02*
X110913450Y-82568931D01*
X110913450Y-82568931D02*
X110734878Y-82568931D01*
X110734878Y-82568931D02*
X110592021Y-82533217D01*
X110592021Y-82533217D02*
X110520592Y-82497503D01*
X110520592Y-82497503D02*
X110484878Y-82461789D01*
X110484878Y-82461789D02*
X110449164Y-82390360D01*
X110449164Y-81676074D02*
X110449164Y-81604645D01*
X110449164Y-81604645D02*
X110484878Y-81533217D01*
X110484878Y-81533217D02*
X110520592Y-81497503D01*
X110520592Y-81497503D02*
X110592021Y-81461788D01*
X110592021Y-81461788D02*
X110734878Y-81426074D01*
X110734878Y-81426074D02*
X110913450Y-81426074D01*
X110913450Y-81426074D02*
X111056307Y-81461788D01*
X111056307Y-81461788D02*
X111127735Y-81497503D01*
X111127735Y-81497503D02*
X111163450Y-81533217D01*
X111163450Y-81533217D02*
X111199164Y-81604645D01*
X111199164Y-81604645D02*
X111199164Y-81676074D01*
X111199164Y-81676074D02*
X111163450Y-81747503D01*
X111163450Y-81747503D02*
X111127735Y-81783217D01*
X111127735Y-81783217D02*
X111056307Y-81818931D01*
X111056307Y-81818931D02*
X110913450Y-81854645D01*
X110913450Y-81854645D02*
X110734878Y-81854645D01*
X110734878Y-81854645D02*
X110592021Y-81818931D01*
X110592021Y-81818931D02*
X110520592Y-81783217D01*
X110520592Y-81783217D02*
X110484878Y-81747503D01*
X110484878Y-81747503D02*
X110449164Y-81676074D01*
X111127735Y-81104645D02*
X111163450Y-81068931D01*
X111163450Y-81068931D02*
X111199164Y-81104645D01*
X111199164Y-81104645D02*
X111163450Y-81140359D01*
X111163450Y-81140359D02*
X111127735Y-81104645D01*
X111127735Y-81104645D02*
X111199164Y-81104645D01*
X111199164Y-80711788D02*
X111199164Y-80568931D01*
X111199164Y-80568931D02*
X111163450Y-80497502D01*
X111163450Y-80497502D02*
X111127735Y-80461788D01*
X111127735Y-80461788D02*
X111020592Y-80390359D01*
X111020592Y-80390359D02*
X110877735Y-80354645D01*
X110877735Y-80354645D02*
X110592021Y-80354645D01*
X110592021Y-80354645D02*
X110520592Y-80390359D01*
X110520592Y-80390359D02*
X110484878Y-80426074D01*
X110484878Y-80426074D02*
X110449164Y-80497502D01*
X110449164Y-80497502D02*
X110449164Y-80640359D01*
X110449164Y-80640359D02*
X110484878Y-80711788D01*
X110484878Y-80711788D02*
X110520592Y-80747502D01*
X110520592Y-80747502D02*
X110592021Y-80783216D01*
X110592021Y-80783216D02*
X110770592Y-80783216D01*
X110770592Y-80783216D02*
X110842021Y-80747502D01*
X110842021Y-80747502D02*
X110877735Y-80711788D01*
X110877735Y-80711788D02*
X110913450Y-80640359D01*
X110913450Y-80640359D02*
X110913450Y-80497502D01*
X110913450Y-80497502D02*
X110877735Y-80426074D01*
X110877735Y-80426074D02*
X110842021Y-80390359D01*
X110842021Y-80390359D02*
X110770592Y-80354645D01*
X110770592Y-79926073D02*
X110734878Y-79997502D01*
X110734878Y-79997502D02*
X110699164Y-80033216D01*
X110699164Y-80033216D02*
X110627735Y-80068930D01*
X110627735Y-80068930D02*
X110592021Y-80068930D01*
X110592021Y-80068930D02*
X110520592Y-80033216D01*
X110520592Y-80033216D02*
X110484878Y-79997502D01*
X110484878Y-79997502D02*
X110449164Y-79926073D01*
X110449164Y-79926073D02*
X110449164Y-79783216D01*
X110449164Y-79783216D02*
X110484878Y-79711788D01*
X110484878Y-79711788D02*
X110520592Y-79676073D01*
X110520592Y-79676073D02*
X110592021Y-79640359D01*
X110592021Y-79640359D02*
X110627735Y-79640359D01*
X110627735Y-79640359D02*
X110699164Y-79676073D01*
X110699164Y-79676073D02*
X110734878Y-79711788D01*
X110734878Y-79711788D02*
X110770592Y-79783216D01*
X110770592Y-79783216D02*
X110770592Y-79926073D01*
X110770592Y-79926073D02*
X110806307Y-79997502D01*
X110806307Y-79997502D02*
X110842021Y-80033216D01*
X110842021Y-80033216D02*
X110913450Y-80068930D01*
X110913450Y-80068930D02*
X111056307Y-80068930D01*
X111056307Y-80068930D02*
X111127735Y-80033216D01*
X111127735Y-80033216D02*
X111163450Y-79997502D01*
X111163450Y-79997502D02*
X111199164Y-79926073D01*
X111199164Y-79926073D02*
X111199164Y-79783216D01*
X111199164Y-79783216D02*
X111163450Y-79711788D01*
X111163450Y-79711788D02*
X111127735Y-79676073D01*
X111127735Y-79676073D02*
X111056307Y-79640359D01*
X111056307Y-79640359D02*
X110913450Y-79640359D01*
X110913450Y-79640359D02*
X110842021Y-79676073D01*
X110842021Y-79676073D02*
X110806307Y-79711788D01*
X110806307Y-79711788D02*
X110770592Y-79783216D01*
X110699164Y-78997502D02*
X111199164Y-78997502D01*
X110413450Y-79176073D02*
X110949164Y-79354644D01*
X110949164Y-79354644D02*
X110949164Y-78890359D01*
X111199164Y-78033215D02*
X110699164Y-78033215D01*
X110770592Y-78033215D02*
X110734878Y-77997501D01*
X110734878Y-77997501D02*
X110699164Y-77926072D01*
X110699164Y-77926072D02*
X110699164Y-77818929D01*
X110699164Y-77818929D02*
X110734878Y-77747501D01*
X110734878Y-77747501D02*
X110806307Y-77711787D01*
X110806307Y-77711787D02*
X111199164Y-77711787D01*
X110806307Y-77711787D02*
X110734878Y-77676072D01*
X110734878Y-77676072D02*
X110699164Y-77604644D01*
X110699164Y-77604644D02*
X110699164Y-77497501D01*
X110699164Y-77497501D02*
X110734878Y-77426072D01*
X110734878Y-77426072D02*
X110806307Y-77390358D01*
X110806307Y-77390358D02*
X111199164Y-77390358D01*
X111199164Y-77033215D02*
X110699164Y-77033215D01*
X110449164Y-77033215D02*
X110484878Y-77068929D01*
X110484878Y-77068929D02*
X110520592Y-77033215D01*
X110520592Y-77033215D02*
X110484878Y-76997501D01*
X110484878Y-76997501D02*
X110449164Y-77033215D01*
X110449164Y-77033215D02*
X110520592Y-77033215D01*
X111199164Y-76568929D02*
X111163450Y-76640358D01*
X111163450Y-76640358D02*
X111092021Y-76676072D01*
X111092021Y-76676072D02*
X110449164Y-76676072D01*
X111163450Y-76318929D02*
X111199164Y-76247501D01*
X111199164Y-76247501D02*
X111199164Y-76104644D01*
X111199164Y-76104644D02*
X111163450Y-76033215D01*
X111163450Y-76033215D02*
X111092021Y-75997501D01*
X111092021Y-75997501D02*
X111056307Y-75997501D01*
X111056307Y-75997501D02*
X110984878Y-76033215D01*
X110984878Y-76033215D02*
X110949164Y-76104644D01*
X110949164Y-76104644D02*
X110949164Y-76211787D01*
X110949164Y-76211787D02*
X110913450Y-76283215D01*
X110913450Y-76283215D02*
X110842021Y-76318929D01*
X110842021Y-76318929D02*
X110806307Y-76318929D01*
X110806307Y-76318929D02*
X110734878Y-76283215D01*
X110734878Y-76283215D02*
X110699164Y-76211787D01*
X110699164Y-76211787D02*
X110699164Y-76104644D01*
X110699164Y-76104644D02*
X110734878Y-76033215D01*
D10*
X105910000Y-54585006D02*
X112346420Y-54585006D01*
X112346420Y-105410000D02*
X105910000Y-105410000D01*
X111760000Y-54585006D02*
X111760000Y-105410000D01*
X111760000Y-54585006D02*
X111760000Y-105410000D01*
X111760000Y-54585006D02*
X112346421Y-55711510D01*
X111760000Y-54585006D02*
X111173579Y-55711510D01*
X111760000Y-105410000D02*
X111173579Y-104283496D01*
X111760000Y-105410000D02*
X112346421Y-104283496D01*
M02*
