%TF.GenerationSoftware,KiCad,Pcbnew,7.0.6*%
%TF.CreationDate,2023-11-11T00:05:15-05:00*%
%TF.ProjectId,CFL_EE_FeatherDebugShield,43464c5f-4545-45f4-9665-617468657244,v01b*%
%TF.SameCoordinates,Original*%
%TF.FileFunction,Copper,L2,Bot*%
%TF.FilePolarity,Positive*%
%FSLAX46Y46*%
G04 Gerber Fmt 4.6, Leading zero omitted, Abs format (unit mm)*
G04 Created by KiCad (PCBNEW 7.0.6) date 2023-11-11 00:05:15*
%MOMM*%
%LPD*%
G01*
G04 APERTURE LIST*
%TA.AperFunction,ComponentPad*%
%ADD10R,1.700000X1.700000*%
%TD*%
%TA.AperFunction,ComponentPad*%
%ADD11O,1.700000X1.700000*%
%TD*%
%TA.AperFunction,ComponentPad*%
%ADD12C,1.500000*%
%TD*%
%TA.AperFunction,ViaPad*%
%ADD13C,0.889000*%
%TD*%
%TA.AperFunction,Conductor*%
%ADD14C,0.254000*%
%TD*%
G04 APERTURE END LIST*
D10*
%TO.P,J1,1,Pin_1*%
%TO.N,unconnected-(J1-Pin_1-Pad1)*%
X106680000Y-71120000D03*
D11*
%TO.P,J1,2,Pin_2*%
%TO.N,unconnected-(J1-Pin_2-Pad2)*%
X106680000Y-73660000D03*
%TO.P,J1,3,Pin_3*%
%TO.N,unconnected-(J1-Pin_3-Pad3)*%
X106680000Y-76200000D03*
%TO.P,J1,4,Pin_4*%
%TO.N,/GPIO13*%
X106680000Y-78740000D03*
%TO.P,J1,5,Pin_5*%
%TO.N,/GPIO12*%
X106680000Y-81280000D03*
%TO.P,J1,6,Pin_6*%
%TO.N,unconnected-(J1-Pin_6-Pad6)*%
X106680000Y-83820000D03*
%TO.P,J1,7,Pin_7*%
%TO.N,unconnected-(J1-Pin_7-Pad7)*%
X106680000Y-86360000D03*
%TO.P,J1,8,Pin_8*%
%TO.N,/GPIO15*%
X106680000Y-88900000D03*
%TO.P,J1,9,Pin_9*%
%TO.N,unconnected-(J1-Pin_9-Pad9)*%
X106680000Y-91440000D03*
%TO.P,J1,10,Pin_10*%
%TO.N,/GPIO14*%
X106680000Y-93980000D03*
%TO.P,J1,11,Pin_11*%
%TO.N,unconnected-(J1-Pin_11-Pad11)*%
X106680000Y-96520000D03*
%TO.P,J1,12,Pin_12*%
%TO.N,unconnected-(J1-Pin_12-Pad12)*%
X106680000Y-99060000D03*
%TD*%
D10*
%TO.P,J2,1,Pin_1*%
%TO.N,unconnected-(J2-Pin_1-Pad1)*%
X86360000Y-60960000D03*
D11*
%TO.P,J2,2,Pin_2*%
%TO.N,VCC*%
X86360000Y-63500000D03*
%TO.P,J2,3,Pin_3*%
%TO.N,unconnected-(J2-Pin_3-Pad3)*%
X86360000Y-66040000D03*
%TO.P,J2,4,Pin_4*%
%TO.N,GND*%
X86360000Y-68580000D03*
%TO.P,J2,5,Pin_5*%
%TO.N,unconnected-(J2-Pin_5-Pad5)*%
X86360000Y-71120000D03*
%TO.P,J2,6,Pin_6*%
%TO.N,unconnected-(J2-Pin_6-Pad6)*%
X86360000Y-73660000D03*
%TO.P,J2,7,Pin_7*%
%TO.N,unconnected-(J2-Pin_7-Pad7)*%
X86360000Y-76200000D03*
%TO.P,J2,8,Pin_8*%
%TO.N,unconnected-(J2-Pin_8-Pad8)*%
X86360000Y-78740000D03*
%TO.P,J2,9,Pin_9*%
%TO.N,unconnected-(J2-Pin_9-Pad9)*%
X86360000Y-81280000D03*
%TO.P,J2,10,Pin_10*%
%TO.N,unconnected-(J2-Pin_10-Pad10)*%
X86360000Y-83820000D03*
%TO.P,J2,11,Pin_11*%
%TO.N,unconnected-(J2-Pin_11-Pad11)*%
X86360000Y-86360000D03*
%TO.P,J2,12,Pin_12*%
%TO.N,unconnected-(J2-Pin_12-Pad12)*%
X86360000Y-88900000D03*
%TO.P,J2,13,Pin_13*%
%TO.N,unconnected-(J2-Pin_13-Pad13)*%
X86360000Y-91440000D03*
%TO.P,J2,14,Pin_14*%
%TO.N,unconnected-(J2-Pin_14-Pad14)*%
X86360000Y-93980000D03*
%TO.P,J2,15,Pin_15*%
%TO.N,unconnected-(J2-Pin_15-Pad15)*%
X86360000Y-96520000D03*
%TO.P,J2,16,Pin_16*%
%TO.N,unconnected-(J2-Pin_16-Pad16)*%
X86360000Y-99060000D03*
%TD*%
D12*
%TO.P,J5,1*%
%TO.N,/SWDIO*%
X90424000Y-72517000D03*
%TD*%
%TO.P,J6,1*%
%TO.N,/SWCLK*%
X90424000Y-69977000D03*
%TD*%
D13*
%TO.N,GND*%
X83185000Y-54610000D03*
X101600000Y-48260000D03*
X102870000Y-91440000D03*
X101600000Y-68580000D03*
X94615000Y-60325000D03*
X100965000Y-44450000D03*
X85725000Y-54610000D03*
X90170000Y-44450000D03*
X94615000Y-50165000D03*
X94615000Y-46990000D03*
X99060000Y-60960000D03*
X97155000Y-43180000D03*
X95250000Y-81280000D03*
X99060000Y-68580000D03*
X94615000Y-65405000D03*
X92710000Y-86360000D03*
X94615000Y-55245000D03*
X99060000Y-50800000D03*
X95250000Y-76200000D03*
X92710000Y-91440000D03*
X95250000Y-91440000D03*
X89535000Y-65405000D03*
X92075000Y-60325000D03*
X95250000Y-86360000D03*
X97790000Y-86360000D03*
X99060000Y-71120000D03*
X92710000Y-83820000D03*
X102870000Y-83820000D03*
X101600000Y-66040000D03*
X99060000Y-66040000D03*
X99060000Y-63500000D03*
X88265000Y-67310000D03*
X99060000Y-58420000D03*
X95250000Y-88900000D03*
X97790000Y-83820000D03*
X92710000Y-44450000D03*
X92075000Y-55245000D03*
X100330000Y-86360000D03*
X101600000Y-53340000D03*
X95250000Y-43180000D03*
X90170000Y-46990000D03*
X92710000Y-88900000D03*
X92710000Y-76200000D03*
X92075000Y-50165000D03*
X101600000Y-55880000D03*
X100330000Y-83820000D03*
X95250000Y-78740000D03*
X92075000Y-62865000D03*
X94615000Y-62865000D03*
X92710000Y-78740000D03*
X101600000Y-71120000D03*
X92075000Y-57785000D03*
X99060000Y-55880000D03*
X101600000Y-63500000D03*
X81280000Y-53975000D03*
X94615000Y-52705000D03*
X100330000Y-91440000D03*
X97790000Y-91440000D03*
X88265000Y-54610000D03*
X92710000Y-81280000D03*
X99060000Y-43180000D03*
X101600000Y-58420000D03*
X101600000Y-46355000D03*
X101600000Y-60960000D03*
X80010000Y-50165000D03*
X101600000Y-50800000D03*
X94615000Y-67945000D03*
X94615000Y-57785000D03*
X102870000Y-86360000D03*
X95250000Y-83820000D03*
X92075000Y-65405000D03*
X97790000Y-81280000D03*
X99060000Y-53340000D03*
X92075000Y-52705000D03*
X80010000Y-52070000D03*
%TO.N,/TDO*%
X99060000Y-45720000D03*
X88900000Y-45720000D03*
%TO.N,/TDI*%
X88900000Y-48260000D03*
X100330000Y-48260000D03*
%TD*%
D14*
%TO.N,/TDO*%
X99060000Y-45720000D02*
X88900000Y-45720000D01*
%TO.N,/TDI*%
X100330000Y-48260000D02*
X88900000Y-48260000D01*
%TD*%
%TA.AperFunction,Conductor*%
%TO.N,GND*%
G36*
X104082121Y-41295002D02*
G01*
X104128614Y-41348658D01*
X104140000Y-41400999D01*
X104140000Y-48260000D01*
X108459000Y-48260000D01*
X108527121Y-48280002D01*
X108573614Y-48333658D01*
X108585000Y-48386000D01*
X108585000Y-97664000D01*
X108564998Y-97732121D01*
X108511342Y-97778614D01*
X108459000Y-97790000D01*
X107133303Y-97790000D01*
X107065182Y-97769998D01*
X107018689Y-97716342D01*
X107008585Y-97646068D01*
X107038079Y-97581488D01*
X107087786Y-97546509D01*
X107089220Y-97545953D01*
X107174427Y-97512944D01*
X107348462Y-97405186D01*
X107499732Y-97267285D01*
X107623088Y-97103935D01*
X107714328Y-96920701D01*
X107770345Y-96723821D01*
X107789232Y-96520000D01*
X107770345Y-96316179D01*
X107714328Y-96119299D01*
X107623088Y-95936065D01*
X107582538Y-95882368D01*
X107499733Y-95772715D01*
X107348463Y-95634814D01*
X107174433Y-95527059D01*
X107174428Y-95527057D01*
X107174427Y-95527056D01*
X106983559Y-95453113D01*
X106983560Y-95453113D01*
X106983557Y-95453112D01*
X106983556Y-95453112D01*
X106782347Y-95415500D01*
X106577653Y-95415500D01*
X106376444Y-95453112D01*
X106376439Y-95453113D01*
X106185577Y-95527054D01*
X106185566Y-95527059D01*
X106011536Y-95634814D01*
X105860266Y-95772715D01*
X105736913Y-95936063D01*
X105645671Y-96119301D01*
X105589654Y-96316180D01*
X105570768Y-96519995D01*
X105570768Y-96520004D01*
X105589654Y-96723819D01*
X105589655Y-96723821D01*
X105645672Y-96920701D01*
X105736912Y-97103935D01*
X105736913Y-97103936D01*
X105860266Y-97267284D01*
X106011536Y-97405185D01*
X106185566Y-97512940D01*
X106185568Y-97512940D01*
X106185573Y-97512944D01*
X106269796Y-97545572D01*
X106272214Y-97546509D01*
X106328509Y-97589768D01*
X106352479Y-97656596D01*
X106336515Y-97725774D01*
X106285684Y-97775340D01*
X106226697Y-97790000D01*
X86813303Y-97790000D01*
X86745182Y-97769998D01*
X86698689Y-97716342D01*
X86688585Y-97646068D01*
X86718079Y-97581488D01*
X86767786Y-97546509D01*
X86769220Y-97545953D01*
X86854427Y-97512944D01*
X87028462Y-97405186D01*
X87179732Y-97267285D01*
X87303088Y-97103935D01*
X87394328Y-96920701D01*
X87450345Y-96723821D01*
X87469232Y-96520000D01*
X87450345Y-96316179D01*
X87394328Y-96119299D01*
X87303088Y-95936065D01*
X87262538Y-95882368D01*
X87179733Y-95772715D01*
X87028463Y-95634814D01*
X86854433Y-95527059D01*
X86854428Y-95527057D01*
X86854427Y-95527056D01*
X86663559Y-95453113D01*
X86663560Y-95453113D01*
X86663557Y-95453112D01*
X86663556Y-95453112D01*
X86462347Y-95415500D01*
X86257653Y-95415500D01*
X86056444Y-95453112D01*
X86056439Y-95453113D01*
X85865577Y-95527054D01*
X85865566Y-95527059D01*
X85691536Y-95634814D01*
X85540266Y-95772715D01*
X85416913Y-95936063D01*
X85325671Y-96119301D01*
X85269654Y-96316180D01*
X85250768Y-96519995D01*
X85250768Y-96520004D01*
X85269654Y-96723819D01*
X85269655Y-96723821D01*
X85325672Y-96920701D01*
X85416912Y-97103935D01*
X85416913Y-97103936D01*
X85540266Y-97267284D01*
X85691536Y-97405185D01*
X85865566Y-97512940D01*
X85865568Y-97512940D01*
X85865573Y-97512944D01*
X85949796Y-97545572D01*
X85952214Y-97546509D01*
X86008509Y-97589768D01*
X86032479Y-97656596D01*
X86016515Y-97725774D01*
X85965684Y-97775340D01*
X85906697Y-97790000D01*
X84581000Y-97790000D01*
X84512879Y-97769998D01*
X84466386Y-97716342D01*
X84455000Y-97664000D01*
X84455000Y-93980004D01*
X85250768Y-93980004D01*
X85269654Y-94183819D01*
X85269655Y-94183821D01*
X85325672Y-94380701D01*
X85416912Y-94563935D01*
X85416913Y-94563936D01*
X85540266Y-94727284D01*
X85691536Y-94865185D01*
X85865566Y-94972940D01*
X85865568Y-94972940D01*
X85865573Y-94972944D01*
X86056444Y-95046888D01*
X86257653Y-95084500D01*
X86257655Y-95084500D01*
X86462345Y-95084500D01*
X86462347Y-95084500D01*
X86663556Y-95046888D01*
X86854427Y-94972944D01*
X87028462Y-94865186D01*
X87179732Y-94727285D01*
X87303088Y-94563935D01*
X87394328Y-94380701D01*
X87450345Y-94183821D01*
X87469232Y-93980004D01*
X105570768Y-93980004D01*
X105589654Y-94183819D01*
X105589655Y-94183821D01*
X105645672Y-94380701D01*
X105736912Y-94563935D01*
X105736913Y-94563936D01*
X105860266Y-94727284D01*
X106011536Y-94865185D01*
X106185566Y-94972940D01*
X106185568Y-94972940D01*
X106185573Y-94972944D01*
X106376444Y-95046888D01*
X106577653Y-95084500D01*
X106577655Y-95084500D01*
X106782345Y-95084500D01*
X106782347Y-95084500D01*
X106983556Y-95046888D01*
X107174427Y-94972944D01*
X107348462Y-94865186D01*
X107499732Y-94727285D01*
X107623088Y-94563935D01*
X107714328Y-94380701D01*
X107770345Y-94183821D01*
X107789232Y-93980000D01*
X107770345Y-93776179D01*
X107714328Y-93579299D01*
X107623088Y-93396065D01*
X107582538Y-93342368D01*
X107499733Y-93232715D01*
X107348463Y-93094814D01*
X107174433Y-92987059D01*
X107174428Y-92987057D01*
X107174427Y-92987056D01*
X106983559Y-92913113D01*
X106983560Y-92913113D01*
X106983557Y-92913112D01*
X106983556Y-92913112D01*
X106782347Y-92875500D01*
X106577653Y-92875500D01*
X106376444Y-92913112D01*
X106376439Y-92913113D01*
X106185577Y-92987054D01*
X106185566Y-92987059D01*
X106011536Y-93094814D01*
X105860266Y-93232715D01*
X105736913Y-93396063D01*
X105645671Y-93579301D01*
X105589654Y-93776180D01*
X105570768Y-93979995D01*
X105570768Y-93980004D01*
X87469232Y-93980004D01*
X87469232Y-93980000D01*
X87450345Y-93776179D01*
X87394328Y-93579299D01*
X87303088Y-93396065D01*
X87262538Y-93342368D01*
X87179733Y-93232715D01*
X87028463Y-93094814D01*
X86854433Y-92987059D01*
X86854428Y-92987057D01*
X86854427Y-92987056D01*
X86663559Y-92913113D01*
X86663560Y-92913113D01*
X86663557Y-92913112D01*
X86663556Y-92913112D01*
X86462347Y-92875500D01*
X86257653Y-92875500D01*
X86056444Y-92913112D01*
X86056439Y-92913113D01*
X85865577Y-92987054D01*
X85865566Y-92987059D01*
X85691536Y-93094814D01*
X85540266Y-93232715D01*
X85416913Y-93396063D01*
X85325671Y-93579301D01*
X85269654Y-93776180D01*
X85250768Y-93979995D01*
X85250768Y-93980004D01*
X84455000Y-93980004D01*
X84455000Y-91440004D01*
X85250768Y-91440004D01*
X85269654Y-91643819D01*
X85269655Y-91643821D01*
X85325672Y-91840701D01*
X85416912Y-92023935D01*
X85416913Y-92023936D01*
X85540266Y-92187284D01*
X85691536Y-92325185D01*
X85865566Y-92432940D01*
X85865568Y-92432940D01*
X85865573Y-92432944D01*
X86056444Y-92506888D01*
X86257653Y-92544500D01*
X86257655Y-92544500D01*
X86462345Y-92544500D01*
X86462347Y-92544500D01*
X86663556Y-92506888D01*
X86854427Y-92432944D01*
X87028462Y-92325186D01*
X87179732Y-92187285D01*
X87303088Y-92023935D01*
X87394328Y-91840701D01*
X87450345Y-91643821D01*
X87469232Y-91440004D01*
X105570768Y-91440004D01*
X105589654Y-91643819D01*
X105589655Y-91643821D01*
X105645672Y-91840701D01*
X105736912Y-92023935D01*
X105736913Y-92023936D01*
X105860266Y-92187284D01*
X106011536Y-92325185D01*
X106185566Y-92432940D01*
X106185568Y-92432940D01*
X106185573Y-92432944D01*
X106376444Y-92506888D01*
X106577653Y-92544500D01*
X106577655Y-92544500D01*
X106782345Y-92544500D01*
X106782347Y-92544500D01*
X106983556Y-92506888D01*
X107174427Y-92432944D01*
X107348462Y-92325186D01*
X107499732Y-92187285D01*
X107623088Y-92023935D01*
X107714328Y-91840701D01*
X107770345Y-91643821D01*
X107789232Y-91440000D01*
X107770345Y-91236179D01*
X107714328Y-91039299D01*
X107623088Y-90856065D01*
X107582538Y-90802368D01*
X107499733Y-90692715D01*
X107348463Y-90554814D01*
X107174433Y-90447059D01*
X107174428Y-90447057D01*
X107174427Y-90447056D01*
X106983559Y-90373113D01*
X106983560Y-90373113D01*
X106983557Y-90373112D01*
X106983556Y-90373112D01*
X106782347Y-90335500D01*
X106577653Y-90335500D01*
X106376444Y-90373112D01*
X106376439Y-90373113D01*
X106185577Y-90447054D01*
X106185566Y-90447059D01*
X106011536Y-90554814D01*
X105860266Y-90692715D01*
X105736913Y-90856063D01*
X105645671Y-91039301D01*
X105589654Y-91236180D01*
X105570768Y-91439995D01*
X105570768Y-91440004D01*
X87469232Y-91440004D01*
X87469232Y-91440000D01*
X87450345Y-91236179D01*
X87394328Y-91039299D01*
X87303088Y-90856065D01*
X87262538Y-90802368D01*
X87179733Y-90692715D01*
X87028463Y-90554814D01*
X86854433Y-90447059D01*
X86854428Y-90447057D01*
X86854427Y-90447056D01*
X86663559Y-90373113D01*
X86663560Y-90373113D01*
X86663557Y-90373112D01*
X86663556Y-90373112D01*
X86462347Y-90335500D01*
X86257653Y-90335500D01*
X86056444Y-90373112D01*
X86056439Y-90373113D01*
X85865577Y-90447054D01*
X85865566Y-90447059D01*
X85691536Y-90554814D01*
X85540266Y-90692715D01*
X85416913Y-90856063D01*
X85325671Y-91039301D01*
X85269654Y-91236180D01*
X85250768Y-91439995D01*
X85250768Y-91440004D01*
X84455000Y-91440004D01*
X84455000Y-88900004D01*
X85250768Y-88900004D01*
X85269654Y-89103819D01*
X85269655Y-89103821D01*
X85325672Y-89300701D01*
X85416912Y-89483935D01*
X85416913Y-89483936D01*
X85540266Y-89647284D01*
X85691536Y-89785185D01*
X85865566Y-89892940D01*
X85865568Y-89892940D01*
X85865573Y-89892944D01*
X86056444Y-89966888D01*
X86257653Y-90004500D01*
X86257655Y-90004500D01*
X86462345Y-90004500D01*
X86462347Y-90004500D01*
X86663556Y-89966888D01*
X86854427Y-89892944D01*
X87028462Y-89785186D01*
X87179732Y-89647285D01*
X87303088Y-89483935D01*
X87394328Y-89300701D01*
X87450345Y-89103821D01*
X87469232Y-88900004D01*
X105570768Y-88900004D01*
X105589654Y-89103819D01*
X105589655Y-89103821D01*
X105645672Y-89300701D01*
X105736912Y-89483935D01*
X105736913Y-89483936D01*
X105860266Y-89647284D01*
X106011536Y-89785185D01*
X106185566Y-89892940D01*
X106185568Y-89892940D01*
X106185573Y-89892944D01*
X106376444Y-89966888D01*
X106577653Y-90004500D01*
X106577655Y-90004500D01*
X106782345Y-90004500D01*
X106782347Y-90004500D01*
X106983556Y-89966888D01*
X107174427Y-89892944D01*
X107348462Y-89785186D01*
X107499732Y-89647285D01*
X107623088Y-89483935D01*
X107714328Y-89300701D01*
X107770345Y-89103821D01*
X107789232Y-88900000D01*
X107770345Y-88696179D01*
X107714328Y-88499299D01*
X107623088Y-88316065D01*
X107582538Y-88262368D01*
X107499733Y-88152715D01*
X107348463Y-88014814D01*
X107174433Y-87907059D01*
X107174428Y-87907057D01*
X107174427Y-87907056D01*
X106983559Y-87833113D01*
X106983560Y-87833113D01*
X106983557Y-87833112D01*
X106983556Y-87833112D01*
X106782347Y-87795500D01*
X106577653Y-87795500D01*
X106376444Y-87833112D01*
X106376439Y-87833113D01*
X106185577Y-87907054D01*
X106185566Y-87907059D01*
X106011536Y-88014814D01*
X105860266Y-88152715D01*
X105736913Y-88316063D01*
X105645671Y-88499301D01*
X105589654Y-88696180D01*
X105570768Y-88899995D01*
X105570768Y-88900004D01*
X87469232Y-88900004D01*
X87469232Y-88900000D01*
X87450345Y-88696179D01*
X87394328Y-88499299D01*
X87303088Y-88316065D01*
X87262538Y-88262368D01*
X87179733Y-88152715D01*
X87028463Y-88014814D01*
X86854433Y-87907059D01*
X86854428Y-87907057D01*
X86854427Y-87907056D01*
X86663559Y-87833113D01*
X86663560Y-87833113D01*
X86663557Y-87833112D01*
X86663556Y-87833112D01*
X86462347Y-87795500D01*
X86257653Y-87795500D01*
X86056444Y-87833112D01*
X86056439Y-87833113D01*
X85865577Y-87907054D01*
X85865566Y-87907059D01*
X85691536Y-88014814D01*
X85540266Y-88152715D01*
X85416913Y-88316063D01*
X85325671Y-88499301D01*
X85269654Y-88696180D01*
X85250768Y-88899995D01*
X85250768Y-88900004D01*
X84455000Y-88900004D01*
X84455000Y-86360004D01*
X85250768Y-86360004D01*
X85269654Y-86563819D01*
X85269655Y-86563821D01*
X85325672Y-86760701D01*
X85416912Y-86943935D01*
X85416913Y-86943936D01*
X85540266Y-87107284D01*
X85691536Y-87245185D01*
X85865566Y-87352940D01*
X85865568Y-87352940D01*
X85865573Y-87352944D01*
X86056444Y-87426888D01*
X86257653Y-87464500D01*
X86257655Y-87464500D01*
X86462345Y-87464500D01*
X86462347Y-87464500D01*
X86663556Y-87426888D01*
X86854427Y-87352944D01*
X87028462Y-87245186D01*
X87179732Y-87107285D01*
X87303088Y-86943935D01*
X87394328Y-86760701D01*
X87450345Y-86563821D01*
X87469232Y-86360004D01*
X105570768Y-86360004D01*
X105589654Y-86563819D01*
X105589655Y-86563821D01*
X105645672Y-86760701D01*
X105736912Y-86943935D01*
X105736913Y-86943936D01*
X105860266Y-87107284D01*
X106011536Y-87245185D01*
X106185566Y-87352940D01*
X106185568Y-87352940D01*
X106185573Y-87352944D01*
X106376444Y-87426888D01*
X106577653Y-87464500D01*
X106577655Y-87464500D01*
X106782345Y-87464500D01*
X106782347Y-87464500D01*
X106983556Y-87426888D01*
X107174427Y-87352944D01*
X107348462Y-87245186D01*
X107499732Y-87107285D01*
X107623088Y-86943935D01*
X107714328Y-86760701D01*
X107770345Y-86563821D01*
X107789232Y-86360000D01*
X107770345Y-86156179D01*
X107714328Y-85959299D01*
X107623088Y-85776065D01*
X107582538Y-85722368D01*
X107499733Y-85612715D01*
X107348463Y-85474814D01*
X107174433Y-85367059D01*
X107174428Y-85367057D01*
X107174427Y-85367056D01*
X106983559Y-85293113D01*
X106983560Y-85293113D01*
X106983557Y-85293112D01*
X106983556Y-85293112D01*
X106782347Y-85255500D01*
X106577653Y-85255500D01*
X106376444Y-85293112D01*
X106376439Y-85293113D01*
X106185577Y-85367054D01*
X106185566Y-85367059D01*
X106011536Y-85474814D01*
X105860266Y-85612715D01*
X105736913Y-85776063D01*
X105645671Y-85959301D01*
X105589654Y-86156180D01*
X105570768Y-86359995D01*
X105570768Y-86360004D01*
X87469232Y-86360004D01*
X87469232Y-86360000D01*
X87450345Y-86156179D01*
X87394328Y-85959299D01*
X87303088Y-85776065D01*
X87262538Y-85722368D01*
X87179733Y-85612715D01*
X87028463Y-85474814D01*
X86854433Y-85367059D01*
X86854428Y-85367057D01*
X86854427Y-85367056D01*
X86663559Y-85293113D01*
X86663560Y-85293113D01*
X86663557Y-85293112D01*
X86663556Y-85293112D01*
X86462347Y-85255500D01*
X86257653Y-85255500D01*
X86056444Y-85293112D01*
X86056439Y-85293113D01*
X85865577Y-85367054D01*
X85865566Y-85367059D01*
X85691536Y-85474814D01*
X85540266Y-85612715D01*
X85416913Y-85776063D01*
X85325671Y-85959301D01*
X85269654Y-86156180D01*
X85250768Y-86359995D01*
X85250768Y-86360004D01*
X84455000Y-86360004D01*
X84455000Y-83820004D01*
X85250768Y-83820004D01*
X85269654Y-84023819D01*
X85269655Y-84023821D01*
X85325672Y-84220701D01*
X85416912Y-84403935D01*
X85416913Y-84403936D01*
X85540266Y-84567284D01*
X85691536Y-84705185D01*
X85865566Y-84812940D01*
X85865568Y-84812940D01*
X85865573Y-84812944D01*
X86056444Y-84886888D01*
X86257653Y-84924500D01*
X86257655Y-84924500D01*
X86462345Y-84924500D01*
X86462347Y-84924500D01*
X86663556Y-84886888D01*
X86854427Y-84812944D01*
X87028462Y-84705186D01*
X87179732Y-84567285D01*
X87303088Y-84403935D01*
X87394328Y-84220701D01*
X87450345Y-84023821D01*
X87469232Y-83820004D01*
X105570768Y-83820004D01*
X105589654Y-84023819D01*
X105589655Y-84023821D01*
X105645672Y-84220701D01*
X105736912Y-84403935D01*
X105736913Y-84403936D01*
X105860266Y-84567284D01*
X106011536Y-84705185D01*
X106185566Y-84812940D01*
X106185568Y-84812940D01*
X106185573Y-84812944D01*
X106376444Y-84886888D01*
X106577653Y-84924500D01*
X106577655Y-84924500D01*
X106782345Y-84924500D01*
X106782347Y-84924500D01*
X106983556Y-84886888D01*
X107174427Y-84812944D01*
X107348462Y-84705186D01*
X107499732Y-84567285D01*
X107623088Y-84403935D01*
X107714328Y-84220701D01*
X107770345Y-84023821D01*
X107789232Y-83820000D01*
X107770345Y-83616179D01*
X107714328Y-83419299D01*
X107623088Y-83236065D01*
X107582538Y-83182368D01*
X107499733Y-83072715D01*
X107348463Y-82934814D01*
X107174433Y-82827059D01*
X107174428Y-82827057D01*
X107174427Y-82827056D01*
X106983559Y-82753113D01*
X106983560Y-82753113D01*
X106983557Y-82753112D01*
X106983556Y-82753112D01*
X106782347Y-82715500D01*
X106577653Y-82715500D01*
X106376444Y-82753112D01*
X106376439Y-82753113D01*
X106185577Y-82827054D01*
X106185566Y-82827059D01*
X106011536Y-82934814D01*
X105860266Y-83072715D01*
X105736913Y-83236063D01*
X105645671Y-83419301D01*
X105589654Y-83616180D01*
X105570768Y-83819995D01*
X105570768Y-83820004D01*
X87469232Y-83820004D01*
X87469232Y-83820000D01*
X87450345Y-83616179D01*
X87394328Y-83419299D01*
X87303088Y-83236065D01*
X87262538Y-83182368D01*
X87179733Y-83072715D01*
X87028463Y-82934814D01*
X86854433Y-82827059D01*
X86854428Y-82827057D01*
X86854427Y-82827056D01*
X86663559Y-82753113D01*
X86663560Y-82753113D01*
X86663557Y-82753112D01*
X86663556Y-82753112D01*
X86462347Y-82715500D01*
X86257653Y-82715500D01*
X86056444Y-82753112D01*
X86056439Y-82753113D01*
X85865577Y-82827054D01*
X85865566Y-82827059D01*
X85691536Y-82934814D01*
X85540266Y-83072715D01*
X85416913Y-83236063D01*
X85325671Y-83419301D01*
X85269654Y-83616180D01*
X85250768Y-83819995D01*
X85250768Y-83820004D01*
X84455000Y-83820004D01*
X84455000Y-81280004D01*
X85250768Y-81280004D01*
X85269654Y-81483819D01*
X85269655Y-81483821D01*
X85325672Y-81680701D01*
X85416912Y-81863935D01*
X85416913Y-81863936D01*
X85540266Y-82027284D01*
X85691536Y-82165185D01*
X85865566Y-82272940D01*
X85865568Y-82272940D01*
X85865573Y-82272944D01*
X86056444Y-82346888D01*
X86257653Y-82384500D01*
X86257655Y-82384500D01*
X86462345Y-82384500D01*
X86462347Y-82384500D01*
X86663556Y-82346888D01*
X86854427Y-82272944D01*
X87028462Y-82165186D01*
X87179732Y-82027285D01*
X87303088Y-81863935D01*
X87394328Y-81680701D01*
X87450345Y-81483821D01*
X87469232Y-81280004D01*
X105570768Y-81280004D01*
X105589654Y-81483819D01*
X105589655Y-81483821D01*
X105645672Y-81680701D01*
X105736912Y-81863935D01*
X105736913Y-81863936D01*
X105860266Y-82027284D01*
X106011536Y-82165185D01*
X106185566Y-82272940D01*
X106185568Y-82272940D01*
X106185573Y-82272944D01*
X106376444Y-82346888D01*
X106577653Y-82384500D01*
X106577655Y-82384500D01*
X106782345Y-82384500D01*
X106782347Y-82384500D01*
X106983556Y-82346888D01*
X107174427Y-82272944D01*
X107348462Y-82165186D01*
X107499732Y-82027285D01*
X107623088Y-81863935D01*
X107714328Y-81680701D01*
X107770345Y-81483821D01*
X107789232Y-81280000D01*
X107770345Y-81076179D01*
X107714328Y-80879299D01*
X107623088Y-80696065D01*
X107582538Y-80642368D01*
X107499733Y-80532715D01*
X107348463Y-80394814D01*
X107174433Y-80287059D01*
X107174428Y-80287057D01*
X107174427Y-80287056D01*
X106983559Y-80213113D01*
X106983560Y-80213113D01*
X106983557Y-80213112D01*
X106983556Y-80213112D01*
X106782347Y-80175500D01*
X106577653Y-80175500D01*
X106376444Y-80213112D01*
X106376439Y-80213113D01*
X106185577Y-80287054D01*
X106185566Y-80287059D01*
X106011536Y-80394814D01*
X105860266Y-80532715D01*
X105736913Y-80696063D01*
X105645671Y-80879301D01*
X105589654Y-81076180D01*
X105570768Y-81279995D01*
X105570768Y-81280004D01*
X87469232Y-81280004D01*
X87469232Y-81280000D01*
X87450345Y-81076179D01*
X87394328Y-80879299D01*
X87303088Y-80696065D01*
X87262538Y-80642368D01*
X87179733Y-80532715D01*
X87028463Y-80394814D01*
X86854433Y-80287059D01*
X86854428Y-80287057D01*
X86854427Y-80287056D01*
X86663559Y-80213113D01*
X86663560Y-80213113D01*
X86663557Y-80213112D01*
X86663556Y-80213112D01*
X86462347Y-80175500D01*
X86257653Y-80175500D01*
X86056444Y-80213112D01*
X86056439Y-80213113D01*
X85865577Y-80287054D01*
X85865566Y-80287059D01*
X85691536Y-80394814D01*
X85540266Y-80532715D01*
X85416913Y-80696063D01*
X85325671Y-80879301D01*
X85269654Y-81076180D01*
X85250768Y-81279995D01*
X85250768Y-81280004D01*
X84455000Y-81280004D01*
X84455000Y-78740004D01*
X85250768Y-78740004D01*
X85269654Y-78943819D01*
X85269655Y-78943821D01*
X85325672Y-79140701D01*
X85416912Y-79323935D01*
X85416913Y-79323936D01*
X85540266Y-79487284D01*
X85691536Y-79625185D01*
X85865566Y-79732940D01*
X85865568Y-79732940D01*
X85865573Y-79732944D01*
X86056444Y-79806888D01*
X86257653Y-79844500D01*
X86257655Y-79844500D01*
X86462345Y-79844500D01*
X86462347Y-79844500D01*
X86663556Y-79806888D01*
X86854427Y-79732944D01*
X87028462Y-79625186D01*
X87179732Y-79487285D01*
X87303088Y-79323935D01*
X87394328Y-79140701D01*
X87450345Y-78943821D01*
X87469232Y-78740004D01*
X105570768Y-78740004D01*
X105589654Y-78943819D01*
X105589655Y-78943821D01*
X105645672Y-79140701D01*
X105736912Y-79323935D01*
X105736913Y-79323936D01*
X105860266Y-79487284D01*
X106011536Y-79625185D01*
X106185566Y-79732940D01*
X106185568Y-79732940D01*
X106185573Y-79732944D01*
X106376444Y-79806888D01*
X106577653Y-79844500D01*
X106577655Y-79844500D01*
X106782345Y-79844500D01*
X106782347Y-79844500D01*
X106983556Y-79806888D01*
X107174427Y-79732944D01*
X107348462Y-79625186D01*
X107499732Y-79487285D01*
X107623088Y-79323935D01*
X107714328Y-79140701D01*
X107770345Y-78943821D01*
X107789232Y-78740000D01*
X107770345Y-78536179D01*
X107714328Y-78339299D01*
X107623088Y-78156065D01*
X107582538Y-78102368D01*
X107499733Y-77992715D01*
X107348463Y-77854814D01*
X107174433Y-77747059D01*
X107174428Y-77747057D01*
X107174427Y-77747056D01*
X106983559Y-77673113D01*
X106983560Y-77673113D01*
X106983557Y-77673112D01*
X106983556Y-77673112D01*
X106782347Y-77635500D01*
X106577653Y-77635500D01*
X106376444Y-77673112D01*
X106376439Y-77673113D01*
X106185577Y-77747054D01*
X106185566Y-77747059D01*
X106011536Y-77854814D01*
X105860266Y-77992715D01*
X105736913Y-78156063D01*
X105645671Y-78339301D01*
X105589654Y-78536180D01*
X105570768Y-78739995D01*
X105570768Y-78740004D01*
X87469232Y-78740004D01*
X87469232Y-78740000D01*
X87450345Y-78536179D01*
X87394328Y-78339299D01*
X87303088Y-78156065D01*
X87262538Y-78102368D01*
X87179733Y-77992715D01*
X87028463Y-77854814D01*
X86854433Y-77747059D01*
X86854428Y-77747057D01*
X86854427Y-77747056D01*
X86663559Y-77673113D01*
X86663560Y-77673113D01*
X86663557Y-77673112D01*
X86663556Y-77673112D01*
X86462347Y-77635500D01*
X86257653Y-77635500D01*
X86056444Y-77673112D01*
X86056439Y-77673113D01*
X85865577Y-77747054D01*
X85865566Y-77747059D01*
X85691536Y-77854814D01*
X85540266Y-77992715D01*
X85416913Y-78156063D01*
X85325671Y-78339301D01*
X85269654Y-78536180D01*
X85250768Y-78739995D01*
X85250768Y-78740004D01*
X84455000Y-78740004D01*
X84455000Y-76200004D01*
X85250768Y-76200004D01*
X85269654Y-76403819D01*
X85269655Y-76403821D01*
X85325672Y-76600701D01*
X85416912Y-76783935D01*
X85416913Y-76783936D01*
X85540266Y-76947284D01*
X85691536Y-77085185D01*
X85865566Y-77192940D01*
X85865568Y-77192940D01*
X85865573Y-77192944D01*
X86056444Y-77266888D01*
X86257653Y-77304500D01*
X86257655Y-77304500D01*
X86462345Y-77304500D01*
X86462347Y-77304500D01*
X86663556Y-77266888D01*
X86854427Y-77192944D01*
X87028462Y-77085186D01*
X87179732Y-76947285D01*
X87303088Y-76783935D01*
X87394328Y-76600701D01*
X87450345Y-76403821D01*
X87469232Y-76200004D01*
X105570768Y-76200004D01*
X105589654Y-76403819D01*
X105589655Y-76403821D01*
X105645672Y-76600701D01*
X105736912Y-76783935D01*
X105736913Y-76783936D01*
X105860266Y-76947284D01*
X106011536Y-77085185D01*
X106185566Y-77192940D01*
X106185568Y-77192940D01*
X106185573Y-77192944D01*
X106376444Y-77266888D01*
X106577653Y-77304500D01*
X106577655Y-77304500D01*
X106782345Y-77304500D01*
X106782347Y-77304500D01*
X106983556Y-77266888D01*
X107174427Y-77192944D01*
X107348462Y-77085186D01*
X107499732Y-76947285D01*
X107623088Y-76783935D01*
X107714328Y-76600701D01*
X107770345Y-76403821D01*
X107789232Y-76200000D01*
X107770345Y-75996179D01*
X107714328Y-75799299D01*
X107623088Y-75616065D01*
X107582538Y-75562368D01*
X107499733Y-75452715D01*
X107348463Y-75314814D01*
X107174433Y-75207059D01*
X107174428Y-75207057D01*
X107174427Y-75207056D01*
X106983559Y-75133113D01*
X106983560Y-75133113D01*
X106983557Y-75133112D01*
X106983556Y-75133112D01*
X106782347Y-75095500D01*
X106577653Y-75095500D01*
X106376444Y-75133112D01*
X106376439Y-75133113D01*
X106185577Y-75207054D01*
X106185566Y-75207059D01*
X106011536Y-75314814D01*
X105860266Y-75452715D01*
X105736913Y-75616063D01*
X105645671Y-75799301D01*
X105589654Y-75996180D01*
X105570768Y-76199995D01*
X105570768Y-76200004D01*
X87469232Y-76200004D01*
X87469232Y-76200000D01*
X87450345Y-75996179D01*
X87394328Y-75799299D01*
X87303088Y-75616065D01*
X87262538Y-75562368D01*
X87179733Y-75452715D01*
X87028463Y-75314814D01*
X86854433Y-75207059D01*
X86854428Y-75207057D01*
X86854427Y-75207056D01*
X86663559Y-75133113D01*
X86663560Y-75133113D01*
X86663557Y-75133112D01*
X86663556Y-75133112D01*
X86462347Y-75095500D01*
X86257653Y-75095500D01*
X86056444Y-75133112D01*
X86056439Y-75133113D01*
X85865577Y-75207054D01*
X85865566Y-75207059D01*
X85691536Y-75314814D01*
X85540266Y-75452715D01*
X85416913Y-75616063D01*
X85325671Y-75799301D01*
X85269654Y-75996180D01*
X85250768Y-76199995D01*
X85250768Y-76200004D01*
X84455000Y-76200004D01*
X84455000Y-73660004D01*
X85250768Y-73660004D01*
X85269654Y-73863819D01*
X85269655Y-73863821D01*
X85325672Y-74060701D01*
X85416912Y-74243935D01*
X85416913Y-74243936D01*
X85540266Y-74407284D01*
X85691536Y-74545185D01*
X85865566Y-74652940D01*
X85865568Y-74652940D01*
X85865573Y-74652944D01*
X86056444Y-74726888D01*
X86257653Y-74764500D01*
X86257655Y-74764500D01*
X86462345Y-74764500D01*
X86462347Y-74764500D01*
X86663556Y-74726888D01*
X86854427Y-74652944D01*
X87028462Y-74545186D01*
X87179732Y-74407285D01*
X87303088Y-74243935D01*
X87394328Y-74060701D01*
X87450345Y-73863821D01*
X87469232Y-73660004D01*
X105570768Y-73660004D01*
X105589654Y-73863819D01*
X105589655Y-73863821D01*
X105645672Y-74060701D01*
X105736912Y-74243935D01*
X105736913Y-74243936D01*
X105860266Y-74407284D01*
X106011536Y-74545185D01*
X106185566Y-74652940D01*
X106185568Y-74652940D01*
X106185573Y-74652944D01*
X106376444Y-74726888D01*
X106577653Y-74764500D01*
X106577655Y-74764500D01*
X106782345Y-74764500D01*
X106782347Y-74764500D01*
X106983556Y-74726888D01*
X107174427Y-74652944D01*
X107348462Y-74545186D01*
X107499732Y-74407285D01*
X107623088Y-74243935D01*
X107714328Y-74060701D01*
X107770345Y-73863821D01*
X107789232Y-73660000D01*
X107770345Y-73456179D01*
X107714328Y-73259299D01*
X107623088Y-73076065D01*
X107582538Y-73022368D01*
X107499733Y-72912715D01*
X107348463Y-72774814D01*
X107174433Y-72667059D01*
X107174428Y-72667057D01*
X107174427Y-72667056D01*
X106983559Y-72593113D01*
X106983560Y-72593113D01*
X106983557Y-72593112D01*
X106983556Y-72593112D01*
X106782347Y-72555500D01*
X106577653Y-72555500D01*
X106376444Y-72593112D01*
X106376439Y-72593113D01*
X106185577Y-72667054D01*
X106185566Y-72667059D01*
X106011536Y-72774814D01*
X105860266Y-72912715D01*
X105736913Y-73076063D01*
X105645671Y-73259301D01*
X105589654Y-73456180D01*
X105570768Y-73659995D01*
X105570768Y-73660004D01*
X87469232Y-73660004D01*
X87469232Y-73660000D01*
X87450345Y-73456179D01*
X87394328Y-73259299D01*
X87303088Y-73076065D01*
X87262538Y-73022368D01*
X87179733Y-72912715D01*
X87028463Y-72774814D01*
X86854433Y-72667059D01*
X86854428Y-72667057D01*
X86854427Y-72667056D01*
X86663559Y-72593113D01*
X86663560Y-72593113D01*
X86663557Y-72593112D01*
X86663556Y-72593112D01*
X86462347Y-72555500D01*
X86257653Y-72555500D01*
X86056444Y-72593112D01*
X86056439Y-72593113D01*
X85865577Y-72667054D01*
X85865566Y-72667059D01*
X85691536Y-72774814D01*
X85540266Y-72912715D01*
X85416913Y-73076063D01*
X85325671Y-73259301D01*
X85269654Y-73456180D01*
X85250768Y-73659995D01*
X85250768Y-73660004D01*
X84455000Y-73660004D01*
X84455000Y-72517002D01*
X89414640Y-72517002D01*
X89434033Y-72713909D01*
X89434034Y-72713915D01*
X89434035Y-72713916D01*
X89491473Y-72903265D01*
X89584748Y-73077770D01*
X89710275Y-73230725D01*
X89863230Y-73356252D01*
X90037735Y-73449527D01*
X90227084Y-73506965D01*
X90227088Y-73506965D01*
X90227090Y-73506966D01*
X90423997Y-73526360D01*
X90424000Y-73526360D01*
X90424003Y-73526360D01*
X90620909Y-73506966D01*
X90620910Y-73506965D01*
X90620916Y-73506965D01*
X90810265Y-73449527D01*
X90984770Y-73356252D01*
X91137725Y-73230725D01*
X91263252Y-73077770D01*
X91356527Y-72903265D01*
X91413965Y-72713916D01*
X91418581Y-72667056D01*
X91433360Y-72517002D01*
X91433360Y-72516997D01*
X91413966Y-72320090D01*
X91413965Y-72320088D01*
X91413965Y-72320084D01*
X91356527Y-72130735D01*
X91284009Y-71995063D01*
X105575500Y-71995063D01*
X105575501Y-71995073D01*
X105590265Y-72069300D01*
X105646516Y-72153484D01*
X105730697Y-72209733D01*
X105730699Y-72209734D01*
X105804933Y-72224500D01*
X107555066Y-72224499D01*
X107555069Y-72224498D01*
X107555073Y-72224498D01*
X107604326Y-72214701D01*
X107629301Y-72209734D01*
X107713484Y-72153484D01*
X107769734Y-72069301D01*
X107784500Y-71995067D01*
X107784499Y-70244934D01*
X107784498Y-70244930D01*
X107784498Y-70244926D01*
X107769734Y-70170699D01*
X107740572Y-70127056D01*
X107713484Y-70086516D01*
X107713483Y-70086515D01*
X107629302Y-70030266D01*
X107555067Y-70015500D01*
X105804936Y-70015500D01*
X105804926Y-70015501D01*
X105730699Y-70030265D01*
X105646515Y-70086516D01*
X105590266Y-70170697D01*
X105575500Y-70244930D01*
X105575500Y-71995063D01*
X91284009Y-71995063D01*
X91263252Y-71956230D01*
X91137725Y-71803275D01*
X90984770Y-71677748D01*
X90810265Y-71584473D01*
X90620916Y-71527035D01*
X90620915Y-71527034D01*
X90620909Y-71527033D01*
X90424003Y-71507640D01*
X90423997Y-71507640D01*
X90227090Y-71527033D01*
X90037734Y-71584473D01*
X89863229Y-71677748D01*
X89710275Y-71803275D01*
X89584748Y-71956229D01*
X89491473Y-72130734D01*
X89434033Y-72320090D01*
X89414640Y-72516997D01*
X89414640Y-72517002D01*
X84455000Y-72517002D01*
X84455000Y-68330000D01*
X85029363Y-68330000D01*
X85926314Y-68330000D01*
X85900507Y-68370156D01*
X85860000Y-68508111D01*
X85860000Y-68651889D01*
X85900507Y-68789844D01*
X85926314Y-68830000D01*
X85029364Y-68830000D01*
X85086568Y-69043488D01*
X85086570Y-69043493D01*
X85186399Y-69257577D01*
X85186400Y-69257579D01*
X85321886Y-69451073D01*
X85321893Y-69451082D01*
X85488917Y-69618106D01*
X85488926Y-69618113D01*
X85682420Y-69753599D01*
X85682422Y-69753600D01*
X85896506Y-69853429D01*
X85896513Y-69853432D01*
X85923123Y-69860562D01*
X85983746Y-69897513D01*
X86014768Y-69961373D01*
X86006340Y-70031868D01*
X85961138Y-70086615D01*
X85936031Y-70099760D01*
X85865574Y-70127055D01*
X85865566Y-70127059D01*
X85691536Y-70234814D01*
X85540266Y-70372715D01*
X85416913Y-70536063D01*
X85325671Y-70719301D01*
X85269654Y-70916180D01*
X85250768Y-71119995D01*
X85250768Y-71120004D01*
X85269654Y-71323819D01*
X85269655Y-71323821D01*
X85325672Y-71520701D01*
X85416912Y-71703935D01*
X85416913Y-71703936D01*
X85540266Y-71867284D01*
X85691536Y-72005185D01*
X85865566Y-72112940D01*
X85865568Y-72112940D01*
X85865573Y-72112944D01*
X86056444Y-72186888D01*
X86257653Y-72224500D01*
X86257655Y-72224500D01*
X86462345Y-72224500D01*
X86462347Y-72224500D01*
X86663556Y-72186888D01*
X86854427Y-72112944D01*
X87028462Y-72005186D01*
X87179732Y-71867285D01*
X87303088Y-71703935D01*
X87394328Y-71520701D01*
X87450345Y-71323821D01*
X87469232Y-71120000D01*
X87450345Y-70916179D01*
X87394328Y-70719299D01*
X87303088Y-70536065D01*
X87262538Y-70482368D01*
X87179733Y-70372715D01*
X87028463Y-70234814D01*
X86854433Y-70127059D01*
X86854428Y-70127057D01*
X86854427Y-70127056D01*
X86854422Y-70127054D01*
X86783969Y-70099760D01*
X86727674Y-70056501D01*
X86703704Y-69989673D01*
X86706628Y-69977002D01*
X89414640Y-69977002D01*
X89434033Y-70173909D01*
X89434034Y-70173915D01*
X89434035Y-70173916D01*
X89491473Y-70363265D01*
X89584748Y-70537770D01*
X89710275Y-70690725D01*
X89863230Y-70816252D01*
X90037735Y-70909527D01*
X90227084Y-70966965D01*
X90227088Y-70966965D01*
X90227090Y-70966966D01*
X90423997Y-70986360D01*
X90424000Y-70986360D01*
X90424003Y-70986360D01*
X90620909Y-70966966D01*
X90620910Y-70966965D01*
X90620916Y-70966965D01*
X90810265Y-70909527D01*
X90984770Y-70816252D01*
X91137725Y-70690725D01*
X91263252Y-70537770D01*
X91356527Y-70363265D01*
X91413965Y-70173916D01*
X91418581Y-70127056D01*
X91433360Y-69977002D01*
X91433360Y-69976997D01*
X91413966Y-69780090D01*
X91413965Y-69780088D01*
X91413965Y-69780084D01*
X91356527Y-69590735D01*
X91263252Y-69416230D01*
X91137725Y-69263275D01*
X90984770Y-69137748D01*
X90810265Y-69044473D01*
X90620916Y-68987035D01*
X90620915Y-68987034D01*
X90620909Y-68987033D01*
X90424003Y-68967640D01*
X90423997Y-68967640D01*
X90227090Y-68987033D01*
X90037734Y-69044473D01*
X89863229Y-69137748D01*
X89710275Y-69263275D01*
X89584748Y-69416229D01*
X89491473Y-69590734D01*
X89434033Y-69780090D01*
X89414640Y-69976997D01*
X89414640Y-69977002D01*
X86706628Y-69977002D01*
X86719668Y-69920494D01*
X86770499Y-69870929D01*
X86796877Y-69860562D01*
X86823484Y-69853433D01*
X86823493Y-69853429D01*
X87037577Y-69753600D01*
X87037579Y-69753599D01*
X87231073Y-69618113D01*
X87231082Y-69618106D01*
X87398106Y-69451082D01*
X87398113Y-69451073D01*
X87533599Y-69257579D01*
X87533600Y-69257577D01*
X87633429Y-69043493D01*
X87633431Y-69043488D01*
X87690636Y-68830000D01*
X86793686Y-68830000D01*
X86819493Y-68789844D01*
X86860000Y-68651889D01*
X86860000Y-68508111D01*
X86819493Y-68370156D01*
X86793686Y-68330000D01*
X87690636Y-68330000D01*
X87633431Y-68116511D01*
X87633429Y-68116506D01*
X87533599Y-67902421D01*
X87398112Y-67708925D01*
X87231076Y-67541888D01*
X87231073Y-67541886D01*
X87037579Y-67406400D01*
X87037577Y-67406399D01*
X86823493Y-67306570D01*
X86823483Y-67306566D01*
X86796873Y-67299436D01*
X86736251Y-67262484D01*
X86705230Y-67198623D01*
X86713660Y-67128129D01*
X86758863Y-67073382D01*
X86783960Y-67060242D01*
X86854427Y-67032944D01*
X87028462Y-66925186D01*
X87179732Y-66787285D01*
X87303088Y-66623935D01*
X87394328Y-66440701D01*
X87450345Y-66243821D01*
X87469232Y-66040000D01*
X87450345Y-65836179D01*
X87394328Y-65639299D01*
X87303088Y-65456065D01*
X87262538Y-65402368D01*
X87179733Y-65292715D01*
X87028463Y-65154814D01*
X86854433Y-65047059D01*
X86854428Y-65047057D01*
X86854427Y-65047056D01*
X86663559Y-64973113D01*
X86663560Y-64973113D01*
X86663557Y-64973112D01*
X86663556Y-64973112D01*
X86462347Y-64935500D01*
X86257653Y-64935500D01*
X86056444Y-64973112D01*
X86056439Y-64973113D01*
X85865577Y-65047054D01*
X85865566Y-65047059D01*
X85691536Y-65154814D01*
X85540266Y-65292715D01*
X85416913Y-65456063D01*
X85325671Y-65639301D01*
X85269654Y-65836180D01*
X85250768Y-66039995D01*
X85250768Y-66040004D01*
X85269654Y-66243819D01*
X85269655Y-66243821D01*
X85325672Y-66440701D01*
X85416912Y-66623935D01*
X85416913Y-66623936D01*
X85540266Y-66787284D01*
X85691536Y-66925185D01*
X85865566Y-67032940D01*
X85865567Y-67032940D01*
X85865573Y-67032944D01*
X85936031Y-67060239D01*
X85992324Y-67103498D01*
X86016295Y-67170325D01*
X86000331Y-67239504D01*
X85949500Y-67289069D01*
X85923127Y-67299436D01*
X85896514Y-67306567D01*
X85896506Y-67306570D01*
X85682421Y-67406400D01*
X85488925Y-67541887D01*
X85488919Y-67541892D01*
X85321892Y-67708919D01*
X85321887Y-67708925D01*
X85186400Y-67902421D01*
X85086570Y-68116506D01*
X85086568Y-68116511D01*
X85029363Y-68330000D01*
X84455000Y-68330000D01*
X84455000Y-63500004D01*
X85250768Y-63500004D01*
X85269654Y-63703819D01*
X85269655Y-63703821D01*
X85325672Y-63900701D01*
X85416912Y-64083935D01*
X85416913Y-64083936D01*
X85540266Y-64247284D01*
X85691536Y-64385185D01*
X85865566Y-64492940D01*
X85865568Y-64492940D01*
X85865573Y-64492944D01*
X86056444Y-64566888D01*
X86257653Y-64604500D01*
X86257655Y-64604500D01*
X86462345Y-64604500D01*
X86462347Y-64604500D01*
X86663556Y-64566888D01*
X86854427Y-64492944D01*
X87028462Y-64385186D01*
X87179732Y-64247285D01*
X87303088Y-64083935D01*
X87394328Y-63900701D01*
X87450345Y-63703821D01*
X87469232Y-63500000D01*
X87450345Y-63296179D01*
X87394328Y-63099299D01*
X87303088Y-62916065D01*
X87262538Y-62862368D01*
X87179733Y-62752715D01*
X87028463Y-62614814D01*
X86854433Y-62507059D01*
X86854428Y-62507057D01*
X86854427Y-62507056D01*
X86663559Y-62433113D01*
X86663560Y-62433113D01*
X86663557Y-62433112D01*
X86663556Y-62433112D01*
X86462347Y-62395500D01*
X86257653Y-62395500D01*
X86056444Y-62433112D01*
X86056439Y-62433113D01*
X85865577Y-62507054D01*
X85865566Y-62507059D01*
X85691536Y-62614814D01*
X85540266Y-62752715D01*
X85416913Y-62916063D01*
X85325671Y-63099301D01*
X85269654Y-63296180D01*
X85250768Y-63499995D01*
X85250768Y-63500004D01*
X84455000Y-63500004D01*
X84455000Y-61835063D01*
X85255500Y-61835063D01*
X85255501Y-61835073D01*
X85270265Y-61909300D01*
X85326516Y-61993484D01*
X85410697Y-62049733D01*
X85410699Y-62049734D01*
X85484933Y-62064500D01*
X87235066Y-62064499D01*
X87235069Y-62064498D01*
X87235073Y-62064498D01*
X87284326Y-62054701D01*
X87309301Y-62049734D01*
X87393484Y-61993484D01*
X87449734Y-61909301D01*
X87464500Y-61835067D01*
X87464499Y-60084934D01*
X87464498Y-60084930D01*
X87464498Y-60084926D01*
X87449734Y-60010699D01*
X87393483Y-59926515D01*
X87309302Y-59870266D01*
X87235067Y-59855500D01*
X85484936Y-59855500D01*
X85484926Y-59855501D01*
X85410699Y-59870265D01*
X85326515Y-59926516D01*
X85270266Y-60010697D01*
X85255500Y-60084930D01*
X85255500Y-61835063D01*
X84455000Y-61835063D01*
X84455000Y-58420000D01*
X76961000Y-58420000D01*
X76892879Y-58399998D01*
X76846386Y-58346342D01*
X76835000Y-58294000D01*
X76835000Y-48260000D01*
X88195866Y-48260000D01*
X88216326Y-48428507D01*
X88216326Y-48428509D01*
X88216327Y-48428510D01*
X88276520Y-48587227D01*
X88372948Y-48726927D01*
X88500006Y-48839491D01*
X88650311Y-48918377D01*
X88815126Y-48959000D01*
X88815127Y-48959000D01*
X88984873Y-48959000D01*
X88984874Y-48959000D01*
X89149689Y-48918377D01*
X89299994Y-48839491D01*
X89427052Y-48726927D01*
X89448453Y-48695922D01*
X89503611Y-48651224D01*
X89552148Y-48641500D01*
X99677852Y-48641500D01*
X99745973Y-48661502D01*
X99781546Y-48695921D01*
X99802948Y-48726927D01*
X99930006Y-48839491D01*
X100080311Y-48918377D01*
X100245126Y-48959000D01*
X100245127Y-48959000D01*
X100414873Y-48959000D01*
X100414874Y-48959000D01*
X100579689Y-48918377D01*
X100729994Y-48839491D01*
X100857052Y-48726927D01*
X100953480Y-48587227D01*
X101013673Y-48428510D01*
X101034134Y-48260000D01*
X101013673Y-48091490D01*
X100953480Y-47932773D01*
X100857052Y-47793073D01*
X100729994Y-47680509D01*
X100729993Y-47680508D01*
X100729989Y-47680506D01*
X100579687Y-47601622D01*
X100414875Y-47561000D01*
X100414874Y-47561000D01*
X100245126Y-47561000D01*
X100245124Y-47561000D01*
X100080312Y-47601622D01*
X99930010Y-47680506D01*
X99930006Y-47680508D01*
X99802947Y-47793073D01*
X99802948Y-47793073D01*
X99781546Y-47824077D01*
X99726389Y-47868776D01*
X99677852Y-47878500D01*
X89552148Y-47878500D01*
X89484027Y-47858498D01*
X89448453Y-47824078D01*
X89427052Y-47793073D01*
X89299994Y-47680509D01*
X89299993Y-47680508D01*
X89299989Y-47680506D01*
X89149687Y-47601622D01*
X88984875Y-47561000D01*
X88984874Y-47561000D01*
X88815126Y-47561000D01*
X88815124Y-47561000D01*
X88650312Y-47601622D01*
X88500010Y-47680506D01*
X88500006Y-47680508D01*
X88372948Y-47793073D01*
X88276521Y-47932770D01*
X88216326Y-48091492D01*
X88195866Y-48259997D01*
X88195866Y-48260000D01*
X76835000Y-48260000D01*
X76835000Y-45720002D01*
X88195866Y-45720002D01*
X88216326Y-45888507D01*
X88216326Y-45888509D01*
X88216327Y-45888510D01*
X88276520Y-46047227D01*
X88372948Y-46186927D01*
X88500006Y-46299491D01*
X88650311Y-46378377D01*
X88815126Y-46419000D01*
X88815127Y-46419000D01*
X88984873Y-46419000D01*
X88984874Y-46419000D01*
X89149689Y-46378377D01*
X89299994Y-46299491D01*
X89427052Y-46186927D01*
X89448453Y-46155922D01*
X89503611Y-46111224D01*
X89552148Y-46101500D01*
X98407852Y-46101500D01*
X98475973Y-46121502D01*
X98511546Y-46155921D01*
X98532948Y-46186927D01*
X98660006Y-46299491D01*
X98810311Y-46378377D01*
X98975126Y-46419000D01*
X98975127Y-46419000D01*
X99144873Y-46419000D01*
X99144874Y-46419000D01*
X99309689Y-46378377D01*
X99459994Y-46299491D01*
X99587052Y-46186927D01*
X99683480Y-46047227D01*
X99743673Y-45888510D01*
X99764134Y-45720000D01*
X99743673Y-45551490D01*
X99683480Y-45392773D01*
X99587052Y-45253073D01*
X99459994Y-45140509D01*
X99459993Y-45140508D01*
X99459989Y-45140506D01*
X99309687Y-45061622D01*
X99144875Y-45021000D01*
X99144874Y-45021000D01*
X98975126Y-45021000D01*
X98975124Y-45021000D01*
X98810312Y-45061622D01*
X98660010Y-45140506D01*
X98660006Y-45140508D01*
X98532948Y-45253073D01*
X98511546Y-45284077D01*
X98456389Y-45328776D01*
X98407852Y-45338500D01*
X89552148Y-45338500D01*
X89484027Y-45318498D01*
X89448453Y-45284078D01*
X89427052Y-45253073D01*
X89299994Y-45140509D01*
X89299993Y-45140508D01*
X89299989Y-45140506D01*
X89149687Y-45061622D01*
X88984875Y-45021000D01*
X88984874Y-45021000D01*
X88815126Y-45021000D01*
X88815124Y-45021000D01*
X88650312Y-45061622D01*
X88500010Y-45140506D01*
X88500006Y-45140508D01*
X88372948Y-45253073D01*
X88276521Y-45392770D01*
X88216326Y-45551492D01*
X88195866Y-45719997D01*
X88195866Y-45720002D01*
X76835000Y-45720002D01*
X76835000Y-41401000D01*
X76855002Y-41332879D01*
X76908658Y-41286386D01*
X76961000Y-41275000D01*
X104014000Y-41275000D01*
X104082121Y-41295002D01*
G37*
%TD.AperFunction*%
%TD*%
M02*
