%TF.GenerationSoftware,KiCad,Pcbnew,7.0.6*%
%TF.CreationDate,2023-10-23T11:13:58-04:00*%
%TF.ProjectId,CFL_FeatherDebugShield,43464c5f-4665-4617-9468-657244656275,v01a*%
%TF.SameCoordinates,Original*%
%TF.FileFunction,Legend,Top*%
%TF.FilePolarity,Positive*%
%FSLAX46Y46*%
G04 Gerber Fmt 4.6, Leading zero omitted, Abs format (unit mm)*
G04 Created by KiCad (PCBNEW 7.0.6) date 2023-10-23 11:13:58*
%MOMM*%
%LPD*%
G01*
G04 APERTURE LIST*
%ADD10C,0.300000*%
%ADD11C,0.150000*%
%ADD12C,0.120000*%
%ADD13R,1.700000X1.700000*%
%ADD14O,1.700000X1.700000*%
%ADD15R,0.254000X1.000000*%
%ADD16C,1.000000*%
%ADD17R,0.500000X1.000000*%
%ADD18C,1.500000*%
%ADD19R,2.400000X0.740000*%
G04 APERTURE END LIST*
D10*
X106750828Y-46578346D02*
X107750828Y-46221203D01*
X107750828Y-46221203D02*
X106750828Y-45864060D01*
X106250828Y-45006917D02*
X106250828Y-44864060D01*
X106250828Y-44864060D02*
X106322257Y-44721203D01*
X106322257Y-44721203D02*
X106393685Y-44649775D01*
X106393685Y-44649775D02*
X106536542Y-44578346D01*
X106536542Y-44578346D02*
X106822257Y-44506917D01*
X106822257Y-44506917D02*
X107179400Y-44506917D01*
X107179400Y-44506917D02*
X107465114Y-44578346D01*
X107465114Y-44578346D02*
X107607971Y-44649775D01*
X107607971Y-44649775D02*
X107679400Y-44721203D01*
X107679400Y-44721203D02*
X107750828Y-44864060D01*
X107750828Y-44864060D02*
X107750828Y-45006917D01*
X107750828Y-45006917D02*
X107679400Y-45149775D01*
X107679400Y-45149775D02*
X107607971Y-45221203D01*
X107607971Y-45221203D02*
X107465114Y-45292632D01*
X107465114Y-45292632D02*
X107179400Y-45364060D01*
X107179400Y-45364060D02*
X106822257Y-45364060D01*
X106822257Y-45364060D02*
X106536542Y-45292632D01*
X106536542Y-45292632D02*
X106393685Y-45221203D01*
X106393685Y-45221203D02*
X106322257Y-45149775D01*
X106322257Y-45149775D02*
X106250828Y-45006917D01*
X107750828Y-43078346D02*
X107750828Y-43935489D01*
X107750828Y-43506918D02*
X106250828Y-43506918D01*
X106250828Y-43506918D02*
X106465114Y-43649775D01*
X106465114Y-43649775D02*
X106607971Y-43792632D01*
X106607971Y-43792632D02*
X106679400Y-43935489D01*
X107750828Y-41792633D02*
X106965114Y-41792633D01*
X106965114Y-41792633D02*
X106822257Y-41864061D01*
X106822257Y-41864061D02*
X106750828Y-42006918D01*
X106750828Y-42006918D02*
X106750828Y-42292633D01*
X106750828Y-42292633D02*
X106822257Y-42435490D01*
X107679400Y-41792633D02*
X107750828Y-41935490D01*
X107750828Y-41935490D02*
X107750828Y-42292633D01*
X107750828Y-42292633D02*
X107679400Y-42435490D01*
X107679400Y-42435490D02*
X107536542Y-42506918D01*
X107536542Y-42506918D02*
X107393685Y-42506918D01*
X107393685Y-42506918D02*
X107250828Y-42435490D01*
X107250828Y-42435490D02*
X107179400Y-42292633D01*
X107179400Y-42292633D02*
X107179400Y-41935490D01*
X107179400Y-41935490D02*
X107107971Y-41792633D01*
D11*
X106346666Y-67804819D02*
X106346666Y-68519104D01*
X106346666Y-68519104D02*
X106299047Y-68661961D01*
X106299047Y-68661961D02*
X106203809Y-68757200D01*
X106203809Y-68757200D02*
X106060952Y-68804819D01*
X106060952Y-68804819D02*
X105965714Y-68804819D01*
X107346666Y-68804819D02*
X106775238Y-68804819D01*
X107060952Y-68804819D02*
X107060952Y-67804819D01*
X107060952Y-67804819D02*
X106965714Y-67947676D01*
X106965714Y-67947676D02*
X106870476Y-68042914D01*
X106870476Y-68042914D02*
X106775238Y-68090533D01*
X86026666Y-57644819D02*
X86026666Y-58359104D01*
X86026666Y-58359104D02*
X85979047Y-58501961D01*
X85979047Y-58501961D02*
X85883809Y-58597200D01*
X85883809Y-58597200D02*
X85740952Y-58644819D01*
X85740952Y-58644819D02*
X85645714Y-58644819D01*
X86455238Y-57740057D02*
X86502857Y-57692438D01*
X86502857Y-57692438D02*
X86598095Y-57644819D01*
X86598095Y-57644819D02*
X86836190Y-57644819D01*
X86836190Y-57644819D02*
X86931428Y-57692438D01*
X86931428Y-57692438D02*
X86979047Y-57740057D01*
X86979047Y-57740057D02*
X87026666Y-57835295D01*
X87026666Y-57835295D02*
X87026666Y-57930533D01*
X87026666Y-57930533D02*
X86979047Y-58073390D01*
X86979047Y-58073390D02*
X86407619Y-58644819D01*
X86407619Y-58644819D02*
X87026666Y-58644819D01*
X102620000Y-87092164D02*
X102620000Y-87627878D01*
X102620000Y-87627878D02*
X102584285Y-87735021D01*
X102584285Y-87735021D02*
X102512857Y-87806450D01*
X102512857Y-87806450D02*
X102405714Y-87842164D01*
X102405714Y-87842164D02*
X102334285Y-87842164D01*
X103084286Y-87413592D02*
X103012857Y-87377878D01*
X103012857Y-87377878D02*
X102977143Y-87342164D01*
X102977143Y-87342164D02*
X102941429Y-87270735D01*
X102941429Y-87270735D02*
X102941429Y-87235021D01*
X102941429Y-87235021D02*
X102977143Y-87163592D01*
X102977143Y-87163592D02*
X103012857Y-87127878D01*
X103012857Y-87127878D02*
X103084286Y-87092164D01*
X103084286Y-87092164D02*
X103227143Y-87092164D01*
X103227143Y-87092164D02*
X103298572Y-87127878D01*
X103298572Y-87127878D02*
X103334286Y-87163592D01*
X103334286Y-87163592D02*
X103370000Y-87235021D01*
X103370000Y-87235021D02*
X103370000Y-87270735D01*
X103370000Y-87270735D02*
X103334286Y-87342164D01*
X103334286Y-87342164D02*
X103298572Y-87377878D01*
X103298572Y-87377878D02*
X103227143Y-87413592D01*
X103227143Y-87413592D02*
X103084286Y-87413592D01*
X103084286Y-87413592D02*
X103012857Y-87449307D01*
X103012857Y-87449307D02*
X102977143Y-87485021D01*
X102977143Y-87485021D02*
X102941429Y-87556450D01*
X102941429Y-87556450D02*
X102941429Y-87699307D01*
X102941429Y-87699307D02*
X102977143Y-87770735D01*
X102977143Y-87770735D02*
X103012857Y-87806450D01*
X103012857Y-87806450D02*
X103084286Y-87842164D01*
X103084286Y-87842164D02*
X103227143Y-87842164D01*
X103227143Y-87842164D02*
X103298572Y-87806450D01*
X103298572Y-87806450D02*
X103334286Y-87770735D01*
X103334286Y-87770735D02*
X103370000Y-87699307D01*
X103370000Y-87699307D02*
X103370000Y-87556450D01*
X103370000Y-87556450D02*
X103334286Y-87485021D01*
X103334286Y-87485021D02*
X103298572Y-87449307D01*
X103298572Y-87449307D02*
X103227143Y-87413592D01*
X89850714Y-75233450D02*
X89957857Y-75269164D01*
X89957857Y-75269164D02*
X90136428Y-75269164D01*
X90136428Y-75269164D02*
X90207857Y-75233450D01*
X90207857Y-75233450D02*
X90243571Y-75197735D01*
X90243571Y-75197735D02*
X90279285Y-75126307D01*
X90279285Y-75126307D02*
X90279285Y-75054878D01*
X90279285Y-75054878D02*
X90243571Y-74983450D01*
X90243571Y-74983450D02*
X90207857Y-74947735D01*
X90207857Y-74947735D02*
X90136428Y-74912021D01*
X90136428Y-74912021D02*
X89993571Y-74876307D01*
X89993571Y-74876307D02*
X89922142Y-74840592D01*
X89922142Y-74840592D02*
X89886428Y-74804878D01*
X89886428Y-74804878D02*
X89850714Y-74733450D01*
X89850714Y-74733450D02*
X89850714Y-74662021D01*
X89850714Y-74662021D02*
X89886428Y-74590592D01*
X89886428Y-74590592D02*
X89922142Y-74554878D01*
X89922142Y-74554878D02*
X89993571Y-74519164D01*
X89993571Y-74519164D02*
X90172142Y-74519164D01*
X90172142Y-74519164D02*
X90279285Y-74554878D01*
X90529285Y-74519164D02*
X90707857Y-75269164D01*
X90707857Y-75269164D02*
X90850714Y-74733450D01*
X90850714Y-74733450D02*
X90993571Y-75269164D01*
X90993571Y-75269164D02*
X91172143Y-74519164D01*
X91457857Y-75269164D02*
X91457857Y-74519164D01*
X91457857Y-74519164D02*
X91636428Y-74519164D01*
X91636428Y-74519164D02*
X91743571Y-74554878D01*
X91743571Y-74554878D02*
X91815000Y-74626307D01*
X91815000Y-74626307D02*
X91850714Y-74697735D01*
X91850714Y-74697735D02*
X91886428Y-74840592D01*
X91886428Y-74840592D02*
X91886428Y-74947735D01*
X91886428Y-74947735D02*
X91850714Y-75090592D01*
X91850714Y-75090592D02*
X91815000Y-75162021D01*
X91815000Y-75162021D02*
X91743571Y-75233450D01*
X91743571Y-75233450D02*
X91636428Y-75269164D01*
X91636428Y-75269164D02*
X91457857Y-75269164D01*
X92207857Y-75269164D02*
X92207857Y-74519164D01*
X92707857Y-74519164D02*
X92850714Y-74519164D01*
X92850714Y-74519164D02*
X92922143Y-74554878D01*
X92922143Y-74554878D02*
X92993571Y-74626307D01*
X92993571Y-74626307D02*
X93029286Y-74769164D01*
X93029286Y-74769164D02*
X93029286Y-75019164D01*
X93029286Y-75019164D02*
X92993571Y-75162021D01*
X92993571Y-75162021D02*
X92922143Y-75233450D01*
X92922143Y-75233450D02*
X92850714Y-75269164D01*
X92850714Y-75269164D02*
X92707857Y-75269164D01*
X92707857Y-75269164D02*
X92636429Y-75233450D01*
X92636429Y-75233450D02*
X92565000Y-75162021D01*
X92565000Y-75162021D02*
X92529286Y-75019164D01*
X92529286Y-75019164D02*
X92529286Y-74769164D01*
X92529286Y-74769164D02*
X92565000Y-74626307D01*
X92565000Y-74626307D02*
X92636429Y-74554878D01*
X92636429Y-74554878D02*
X92707857Y-74519164D01*
X102620000Y-77059164D02*
X102620000Y-77594878D01*
X102620000Y-77594878D02*
X102584285Y-77702021D01*
X102584285Y-77702021D02*
X102512857Y-77773450D01*
X102512857Y-77773450D02*
X102405714Y-77809164D01*
X102405714Y-77809164D02*
X102334285Y-77809164D01*
X102905714Y-77059164D02*
X103370000Y-77059164D01*
X103370000Y-77059164D02*
X103120000Y-77344878D01*
X103120000Y-77344878D02*
X103227143Y-77344878D01*
X103227143Y-77344878D02*
X103298572Y-77380592D01*
X103298572Y-77380592D02*
X103334286Y-77416307D01*
X103334286Y-77416307D02*
X103370000Y-77487735D01*
X103370000Y-77487735D02*
X103370000Y-77666307D01*
X103370000Y-77666307D02*
X103334286Y-77737735D01*
X103334286Y-77737735D02*
X103298572Y-77773450D01*
X103298572Y-77773450D02*
X103227143Y-77809164D01*
X103227143Y-77809164D02*
X103012857Y-77809164D01*
X103012857Y-77809164D02*
X102941429Y-77773450D01*
X102941429Y-77773450D02*
X102905714Y-77737735D01*
X83486666Y-49619819D02*
X83486666Y-50334104D01*
X83486666Y-50334104D02*
X83439047Y-50476961D01*
X83439047Y-50476961D02*
X83343809Y-50572200D01*
X83343809Y-50572200D02*
X83200952Y-50619819D01*
X83200952Y-50619819D02*
X83105714Y-50619819D01*
X84391428Y-49953152D02*
X84391428Y-50619819D01*
X84153333Y-49572200D02*
X83915238Y-50286485D01*
X83915238Y-50286485D02*
X84534285Y-50286485D01*
X89743571Y-68248450D02*
X89850714Y-68284164D01*
X89850714Y-68284164D02*
X90029285Y-68284164D01*
X90029285Y-68284164D02*
X90100714Y-68248450D01*
X90100714Y-68248450D02*
X90136428Y-68212735D01*
X90136428Y-68212735D02*
X90172142Y-68141307D01*
X90172142Y-68141307D02*
X90172142Y-68069878D01*
X90172142Y-68069878D02*
X90136428Y-67998450D01*
X90136428Y-67998450D02*
X90100714Y-67962735D01*
X90100714Y-67962735D02*
X90029285Y-67927021D01*
X90029285Y-67927021D02*
X89886428Y-67891307D01*
X89886428Y-67891307D02*
X89814999Y-67855592D01*
X89814999Y-67855592D02*
X89779285Y-67819878D01*
X89779285Y-67819878D02*
X89743571Y-67748450D01*
X89743571Y-67748450D02*
X89743571Y-67677021D01*
X89743571Y-67677021D02*
X89779285Y-67605592D01*
X89779285Y-67605592D02*
X89814999Y-67569878D01*
X89814999Y-67569878D02*
X89886428Y-67534164D01*
X89886428Y-67534164D02*
X90064999Y-67534164D01*
X90064999Y-67534164D02*
X90172142Y-67569878D01*
X90422142Y-67534164D02*
X90600714Y-68284164D01*
X90600714Y-68284164D02*
X90743571Y-67748450D01*
X90743571Y-67748450D02*
X90886428Y-68284164D01*
X90886428Y-68284164D02*
X91065000Y-67534164D01*
X91779285Y-68212735D02*
X91743571Y-68248450D01*
X91743571Y-68248450D02*
X91636428Y-68284164D01*
X91636428Y-68284164D02*
X91565000Y-68284164D01*
X91565000Y-68284164D02*
X91457857Y-68248450D01*
X91457857Y-68248450D02*
X91386428Y-68177021D01*
X91386428Y-68177021D02*
X91350714Y-68105592D01*
X91350714Y-68105592D02*
X91315000Y-67962735D01*
X91315000Y-67962735D02*
X91315000Y-67855592D01*
X91315000Y-67855592D02*
X91350714Y-67712735D01*
X91350714Y-67712735D02*
X91386428Y-67641307D01*
X91386428Y-67641307D02*
X91457857Y-67569878D01*
X91457857Y-67569878D02*
X91565000Y-67534164D01*
X91565000Y-67534164D02*
X91636428Y-67534164D01*
X91636428Y-67534164D02*
X91743571Y-67569878D01*
X91743571Y-67569878D02*
X91779285Y-67605592D01*
X92457857Y-68284164D02*
X92100714Y-68284164D01*
X92100714Y-68284164D02*
X92100714Y-67534164D01*
X92707857Y-68284164D02*
X92707857Y-67534164D01*
X93136428Y-68284164D02*
X92815000Y-67855592D01*
X93136428Y-67534164D02*
X92707857Y-67962735D01*
X102620000Y-82139164D02*
X102620000Y-82674878D01*
X102620000Y-82674878D02*
X102584285Y-82782021D01*
X102584285Y-82782021D02*
X102512857Y-82853450D01*
X102512857Y-82853450D02*
X102405714Y-82889164D01*
X102405714Y-82889164D02*
X102334285Y-82889164D01*
X102905714Y-82139164D02*
X103405714Y-82139164D01*
X103405714Y-82139164D02*
X103084286Y-82889164D01*
X102620000Y-92172164D02*
X102620000Y-92707878D01*
X102620000Y-92707878D02*
X102584285Y-92815021D01*
X102584285Y-92815021D02*
X102512857Y-92886450D01*
X102512857Y-92886450D02*
X102405714Y-92922164D01*
X102405714Y-92922164D02*
X102334285Y-92922164D01*
X103012857Y-92922164D02*
X103155714Y-92922164D01*
X103155714Y-92922164D02*
X103227143Y-92886450D01*
X103227143Y-92886450D02*
X103262857Y-92850735D01*
X103262857Y-92850735D02*
X103334286Y-92743592D01*
X103334286Y-92743592D02*
X103370000Y-92600735D01*
X103370000Y-92600735D02*
X103370000Y-92315021D01*
X103370000Y-92315021D02*
X103334286Y-92243592D01*
X103334286Y-92243592D02*
X103298572Y-92207878D01*
X103298572Y-92207878D02*
X103227143Y-92172164D01*
X103227143Y-92172164D02*
X103084286Y-92172164D01*
X103084286Y-92172164D02*
X103012857Y-92207878D01*
X103012857Y-92207878D02*
X102977143Y-92243592D01*
X102977143Y-92243592D02*
X102941429Y-92315021D01*
X102941429Y-92315021D02*
X102941429Y-92493592D01*
X102941429Y-92493592D02*
X102977143Y-92565021D01*
X102977143Y-92565021D02*
X103012857Y-92600735D01*
X103012857Y-92600735D02*
X103084286Y-92636450D01*
X103084286Y-92636450D02*
X103227143Y-92636450D01*
X103227143Y-92636450D02*
X103298572Y-92600735D01*
X103298572Y-92600735D02*
X103334286Y-92565021D01*
X103334286Y-92565021D02*
X103370000Y-92493592D01*
D12*
%TO.C,J1*%
X105350000Y-72390000D02*
X105350000Y-100390000D01*
X105350000Y-72390000D02*
X108010000Y-72390000D01*
X105350000Y-100390000D02*
X108010000Y-100390000D01*
X106680000Y-69790000D02*
X108010000Y-69790000D01*
X108010000Y-69790000D02*
X108010000Y-71120000D01*
X108010000Y-72390000D02*
X108010000Y-100390000D01*
%TO.C,J2*%
X85030000Y-62230000D02*
X85030000Y-100390000D01*
X85030000Y-62230000D02*
X87690000Y-62230000D01*
X85030000Y-100390000D02*
X87690000Y-100390000D01*
X86360000Y-59630000D02*
X87690000Y-59630000D01*
X87690000Y-59630000D02*
X87690000Y-60960000D01*
X87690000Y-62230000D02*
X87690000Y-100390000D01*
%TO.C,J4*%
X82055000Y-42485000D02*
X82055000Y-42550000D01*
X82055000Y-42485000D02*
X85585000Y-42485000D01*
X82055000Y-48890000D02*
X82055000Y-48955000D01*
X82055000Y-48955000D02*
X85585000Y-48955000D01*
X85585000Y-42485000D02*
X85585000Y-42550000D01*
X85585000Y-48890000D02*
X85585000Y-48955000D01*
D11*
X79770000Y-44470000D02*
X80270000Y-44470000D01*
X80270000Y-44470000D02*
X80270000Y-46970000D01*
X80270000Y-46970000D02*
X79770000Y-46970000D01*
X79770000Y-46970000D02*
X79770000Y-44470000D01*
%TD*%
%LPC*%
D13*
%TO.C,J1*%
X106680000Y-71120000D03*
D14*
X106680000Y-73660000D03*
X106680000Y-76200000D03*
X106680000Y-78740000D03*
X106680000Y-81280000D03*
X106680000Y-83820000D03*
X106680000Y-86360000D03*
X106680000Y-88900000D03*
X106680000Y-91440000D03*
X106680000Y-93980000D03*
X106680000Y-96520000D03*
X106680000Y-99060000D03*
%TD*%
D13*
%TO.C,J2*%
X86360000Y-60960000D03*
D14*
X86360000Y-63500000D03*
X86360000Y-66040000D03*
X86360000Y-68580000D03*
X86360000Y-71120000D03*
X86360000Y-73660000D03*
X86360000Y-76200000D03*
X86360000Y-78740000D03*
X86360000Y-81280000D03*
X86360000Y-83820000D03*
X86360000Y-86360000D03*
X86360000Y-88900000D03*
X86360000Y-91440000D03*
X86360000Y-93980000D03*
X86360000Y-96520000D03*
X86360000Y-99060000D03*
%TD*%
D15*
%TO.C,J8*%
X101600000Y-88900000D03*
D16*
X102235000Y-88900000D03*
D17*
X101981000Y-88900000D03*
X101219000Y-88900000D03*
D16*
X100965000Y-88900000D03*
%TD*%
D18*
%TO.C,J5*%
X90424000Y-72517000D03*
%TD*%
D15*
%TO.C,J3*%
X101600000Y-78740000D03*
D16*
X102235000Y-78740000D03*
D17*
X101981000Y-78740000D03*
X101219000Y-78740000D03*
D16*
X100965000Y-78740000D03*
%TD*%
D19*
%TO.C,J4*%
X81870000Y-43180000D03*
X85770000Y-43180000D03*
X81870000Y-44450000D03*
X85770000Y-44450000D03*
X81870000Y-45720000D03*
X85770000Y-45720000D03*
X81870000Y-46990000D03*
X85770000Y-46990000D03*
X81870000Y-48260000D03*
X85770000Y-48260000D03*
%TD*%
D18*
%TO.C,J6*%
X90424000Y-69977000D03*
%TD*%
D15*
%TO.C,J7*%
X101600000Y-81280000D03*
D16*
X102235000Y-81280000D03*
D17*
X101981000Y-81280000D03*
X101219000Y-81280000D03*
D16*
X100965000Y-81280000D03*
%TD*%
D15*
%TO.C,J9*%
X101600000Y-93980000D03*
D16*
X102235000Y-93980000D03*
D17*
X101981000Y-93980000D03*
X101219000Y-93980000D03*
D16*
X100965000Y-93980000D03*
%TD*%
%LPD*%
M02*
